<?xml version="1.0" standalone="no"?>
<!DOCTYPE svg PUBLIC "-//W3C//DTD SVG 1.1//EN" "http://www.w3.org/Graphics/SVG/1.1/DTD/svg11.dtd" >
<svg xmlns="http://www.w3.org/2000/svg">
<metadata></metadata>
<defs>
<font id="gabriel_sans_condblack" horiz-adv-x="1357" >
<font-face units-per-em="2048" ascent="1536" descent="-512" />
<missing-glyph horiz-adv-x="409" />
<glyph horiz-adv-x="2048" />
<glyph horiz-adv-x="2048" />
<glyph unicode="&#xd;" horiz-adv-x="2048" />
<glyph unicode=" "  horiz-adv-x="409" />
<glyph unicode="&#x09;" horiz-adv-x="409" />
<glyph unicode="&#xa0;" horiz-adv-x="409" />
<glyph unicode="!" horiz-adv-x="559" d="M39 0v322h369v-322h-369zM39 418v1016h371v-1016h-371z" />
<glyph unicode="&#x22;" horiz-adv-x="747" d="M-57 827v619h313v-619h-313zM319 827v619h314v-619h-314z" />
<glyph unicode="#" horiz-adv-x="1251" d="M-70 375v303h211l25 110h-158v318h219l66 330h334l-64 -330h99l67 330h328l-68 -330h158v-318h-221l-23 -110h164v-303h-225l-74 -375h-330l74 375h-96l-74 -375h-338l76 375h-150zM455 666h135l26 137h-133z" />
<glyph unicode="$" horiz-adv-x="1216" d="M-72 498h391q4 -127 80 -162v246q-86 12 -165.5 39.5t-140 77t-97.5 124t-37 181.5q0 106 33 186t92 136t139 88t176 44v119h244v-123q190 -29 307 -147.5t117 -325.5h-367q-2 78 -57 117v-224q88 -12 171 -39.5t147.5 -77.5t103.5 -128t39 -191q0 -117 -39 -199.5 t-102.5 -138t-146.5 -86t-173 -41.5v-114h-244v114q-106 14 -192 54.5t-147.5 105t-96.5 155.5t-35 210zM338 1004q0 -45 16.5 -71t51.5 -42v231q-68 -34 -68 -118zM643 305q35 14 59.5 43t24.5 86q0 53 -24.5 82t-59.5 43v-254z" />
<glyph unicode="%" horiz-adv-x="1437" d="M-68 1098q0 66 18.5 128t55.5 111t93.5 79t133.5 30q74 0 129.5 -31t92.5 -80t56 -111.5t19 -125.5q0 -68 -19 -130.5t-56 -110.5t-92.5 -77.5t-129.5 -29.5q-78 0 -134 29.5t-93 78.5t-55.5 111.5t-18.5 128.5zM33 -33l788 1493h412l-787 -1493h-413zM182 1096 q0 -29 13.5 -51.5t40.5 -22.5q25 0 39 22.5t14 51.5t-14 53.5t-39 24.5q-27 0 -40.5 -25t-13.5 -53zM737 324q0 66 18.5 128t55.5 111t93.5 79t133.5 30q74 0 129.5 -31t92 -80t56 -111.5t19.5 -125.5q0 -68 -19.5 -130.5t-56 -110.5t-92 -78t-129.5 -30q-78 0 -134 30 t-93 79t-55.5 111.5t-18.5 128.5zM987 322q0 -29 13.5 -51.5t39.5 -22.5q25 0 39.5 22.5t14.5 51.5t-14.5 53t-39.5 24q-27 0 -40 -24.5t-13 -52.5z" />
<glyph unicode="&#x26;" horiz-adv-x="1265" d="M0 367q-10 82 9.5 161.5t68.5 153.5t129 133q-35 49 -64.5 107.5t-31.5 124.5q-4 117 37.5 195.5t109.5 126.5t151 69.5t162 21.5q88 0 169 -20.5t145.5 -69.5t105.5 -132t47 -208h-360q-4 63 -29.5 89t-60.5 26q-31 0 -54.5 -14.5t-32.5 -42t-1 -67.5t43 -91l266 -367 q4 20 6 42t2 42h289q2 -47 -1 -96t-15.5 -94t-34 -85t-51.5 -71l186 -252v-49h-369l-59 80q-82 -70 -185.5 -96.5t-206 -11t-189.5 73.5t-134 159q-37 80 -47 162zM360.5 452.5q-4.5 -49.5 21.5 -86t77 -49t110 22.5l-153 201q-51 -39 -55.5 -88.5z" />
<glyph unicode="'" horiz-adv-x="378" d="M-49 827v619h313v-619h-313z" />
<glyph unicode="(" horiz-adv-x="700" d="M23 709q0 131 23.5 262t72.5 256t126 237.5t181 204.5l199 -201q-137 -160 -201 -360.5t-59.5 -406t74 -402.5t198.5 -346l-195 -242q-104 90 -182 208t-131 249t-79.5 269t-26.5 272z" />
<glyph unicode=")" horiz-adv-x="710" d="M-80 -59q61 70 114.5 156.5t91.5 187t60.5 209t22.5 223.5q0 233 -77 432t-198 340l211 186q104 -92 180 -204.5t125.5 -237.5t73 -256t23.5 -262q0 -133 -26.5 -271.5t-79 -269.5t-131.5 -249t-183 -208z" />
<glyph unicode="*" horiz-adv-x="579" d="M-80 1128l62 220l118 -58l-8 156h232l-23 -158l129 62l55 -217l-100 -46l88 -124l-190 -138l-74 140l-78 -146l-182 133l88 135z" />
<glyph unicode="+" horiz-adv-x="800" d="M-39 565v316h209v264h307v-264h211v-316h-211v-274h-307v274h-209z" />
<glyph unicode="," horiz-adv-x="464" d="M-109 -268l97 483h370l-182 -483h-285z" />
<glyph unicode="-" horiz-adv-x="792" d="M-2 457v309h666v-309h-666z" />
<glyph unicode="." horiz-adv-x="454" d="M-4 0v326h336v-326h-336z" />
<glyph unicode="/" horiz-adv-x="946" d="M-31 -86l566 1585h358v-51l-563 -1579h-361v45z" />
<glyph unicode="0" horiz-adv-x="1230" d="M-6 717q0 139 27.5 273t93 238.5t173 169t267.5 64.5t267.5 -64.5t173 -169t93 -238.5t27.5 -273t-27.5 -273.5t-93 -239t-173 -168t-267.5 -63.5t-267.5 63.5t-173 168t-93 239t-27.5 273.5zM389 719q0 -76 8.5 -148.5t27.5 -130t51 -92.5t79 -35q45 0 78 35t52.5 92.5 t28.5 130t9 148.5t-7 149.5t-26.5 131t-52.5 92t-82 34.5t-82 -34.5t-51.5 -92t-25.5 -131t-7 -149.5z" />
<glyph unicode="1" horiz-adv-x="735" d="M-88 1042l373 392h315v-1434h-356v874l-105 -98z" />
<glyph unicode="2" horiz-adv-x="1236" d="M43 330l578 506q41 35 59 73.5t18 91.5q0 41 -20.5 72t-50 47.5t-65.5 17.5t-65.5 -16.5t-50 -53.5t-20.5 -93h-363q0 127 38 220t105.5 153.5t158 89t194.5 28.5q143 0 246.5 -44t168 -116.5t89 -164.5t10.5 -189.5t-69.5 -190.5t-149.5 -165l-358 -274l573 12v-334 h-926z" />
<glyph unicode="3" horiz-adv-x="1271" d="M23 496h364q2 -86 41 -135.5t131 -49.5q84 0 126 42t42 108q0 45 -24.5 70.5t-59.5 38t-75 15.5t-70 3h-47v309h47q27 0 60.5 2t62 12.5t49 32t20.5 62.5q0 53 -42 85.5t-95 32.5q-20 0 -48 -4t-53.5 -18.5t-44 -42t-18.5 -76.5h-352q0 106 37 194.5t105.5 150t164.5 95 t217 33.5q94 0 186.5 -27.5t163 -83t112.5 -138.5t40 -195q-2 -92 -43 -161t-123 -108q209 -94 209 -329q0 -123 -45 -208t-120 -139.5t-174 -78t-208 -23.5q-33 0 -84 3t-111.5 18.5t-121 48.5t-109.5 92t-79.5 148.5t-30.5 220.5z" />
<glyph unicode="4" horiz-adv-x="1257" d="M-35 512l596 922h416v-879h123v-317h-123v-238h-352v238h-535zM389 551h236l2 438h-9l-63 -168z" />
<glyph unicode="5" horiz-adv-x="1212" d="M27 451h354q0 -41 15.5 -69t39 -46.5t52 -26.5t59.5 -8q27 0 57.5 10.5t55 32t41 55t16.5 80.5q0 80 -31 126t-78 65.5t-103 18.5t-109.5 -16.5t-95.5 -40t-58 -50.5l-176 139l59 713h883v-322h-576l-8 -139q131 27 250 11.5t209 -75t142 -166t52 -262.5 q0 -143 -45 -241.5t-119.5 -160t-170 -89t-195.5 -27.5q-88 0 -180.5 17.5t-168 69.5t-123.5 147.5t-48 253.5z" />
<glyph unicode="6" horiz-adv-x="1206" d="M37 477v445q0 158 56.5 264t146.5 170.5t201.5 90.5t222 19.5t208 -40t158.5 -87.5l-137 -282q-27 25 -72 43t-99 25.5t-109.5 1t-100.5 -29t-73.5 -65.5t-28.5 -110v-29q41 63 110.5 87t147.5 21q74 -2 147.5 -25.5t132 -81.5t95 -156.5t36.5 -248.5q0 -133 -40 -229 t-108.5 -160.5t-163.5 -95.5t-206 -31q-115 0 -211 31t-164.5 93.5t-108.5 156.5t-40 223zM403 487.5q0 -49.5 17.5 -92.5t50.5 -71.5t84 -28.5q41 0 70.5 16.5t48 44t28 61.5t9.5 70q0 86 -37 141.5t-119 51.5q-51 0 -85 -28.5t-50.5 -71.5t-16.5 -92.5z" />
<glyph unicode="7" horiz-adv-x="1118" d="M14 1098v336h916l104 -230l-588 -1204h-389v16l545 1082h-588z" />
<glyph unicode="8" horiz-adv-x="1239" d="M6 420q0 236 211 332q-84 39 -124 109.5t-42 156.5q-4 221 134.5 334.5t375.5 113.5q119 0 214 -28.5t162 -85t101.5 -140.5t32.5 -194q-2 -92 -42 -159.5t-124 -106.5q209 -96 209 -332q0 -125 -42 -211t-115.5 -140.5t-175 -78t-220.5 -23.5t-220 23.5t-176 78 t-117 140.5t-42 211zM387 461q0 -78 51 -112t123 -32q72 -2 123 32t51 112q0 37 -16.5 61.5t-41 40t-55 21.5t-61.5 6t-61.5 -6t-55 -21.5t-41 -40t-16.5 -61.5zM424 1014q0 -61 43 -89t94 -28q49 0 92 27.5t45 89.5q0 53 -42 86t-95 33t-95 -33t-42 -86z" />
<glyph unicode="9" horiz-adv-x="1263" d="M20 952q0 131 40 228.5t110 162t165 95t206 30.5q115 0 210 -30.5t164.5 -93t108.5 -156.5t39 -223v-480q0 -164 -55.5 -268t-144.5 -161.5t-199.5 -74t-221 -3t-209 48t-163.5 79.5l133 295q23 -20 68.5 -38.5t101 -29.5t114 -11t105.5 15t77.5 50t30.5 96v64 q-41 -61 -114.5 -85t-151.5 -22q-74 2 -147.5 25.5t-133 82t-96.5 156t-37 248.5zM391 954q0 -86 37 -141t117 -51q51 0 85 28.5t51 71.5t17 92.5t-17 92.5t-51 71.5t-85 28.5q-41 0 -70 -16.5t-47 -44t-27.5 -61.5t-9.5 -71z" />
<glyph unicode=":" horiz-adv-x="471" d="M6 0v326h336v-326h-336zM6 647v326h336v-326h-336z" />
<glyph unicode=";" horiz-adv-x="536" d="M-37 -268l96 483h369l-182 -483h-283zM45 651v326h336v-326h-336z" />
<glyph unicode="&#x3c;" horiz-adv-x="770" d="M-35 653v27l336 424h350v-19l-309 -415l320 -414v-18h-363z" />
<glyph unicode="=" horiz-adv-x="823" d="M14 283v268h691v-268h-691zM14 623v264h691v-264h-691z" />
<glyph unicode="&#x3e;" horiz-adv-x="747" d="M-41 238v18l320 414l-310 415v19h350l336 -424v-27l-333 -415h-363z" />
<glyph unicode="?" horiz-adv-x="1124" d="M10 961q0 150 42 247t110.5 152t153.5 77.5t171 22.5q88 0 179.5 -19.5t165 -70.5t120.5 -139t47 -223q0 -88 -26.5 -143.5t-67.5 -92.5t-88 -63.5t-88 -54t-67.5 -65.5t-26.5 -100v-98h-361v103q0 113 26 180t64.5 108t84 63.5t84 44t64.5 49.5t26 81q0 49 -15.5 77.5 t-37 43t-45 17.5t-40.5 3q-20 0 -41.5 -8t-40 -29.5t-30 -60.5t-11.5 -102h-352zM274 0v322h367v-322h-367z" />
<glyph unicode="@" horiz-adv-x="1529" d="M-12 500q0 201 60.5 352.5t159.5 252.5t227 151.5t263 50.5q141 0 267.5 -49.5t219.5 -148.5t147 -247.5t54 -347.5q0 -121 -22.5 -218t-64.5 -166t-102 -105.5t-134 -36.5q-25 0 -50.5 8t-49 26.5t-42 49t-26.5 75.5q-18 -45 -46 -72.5t-57.5 -43t-58 -20.5t-49.5 -5 q-88 0 -161.5 36t-128 100.5t-84 155.5t-29.5 202t29.5 202t84 157.5t128 102t161.5 33.5q66 -2 115 -34.5t75 -90.5l19 80l102 -4q-117 104 -297 105q-80 0 -162.5 -32t-148 -99.5t-107.5 -172t-42 -247.5q0 -117 31.5 -211t82.5 -161t119 -107.5t139.5 -54t143 3 t131.5 63.5l98 -226q-109 -63 -224.5 -82.5t-226 1t-209 80t-173 157.5t-118.5 232.5t-44 304.5zM530 502q0 -41 9.5 -80t28 -69.5t48 -49t72.5 -18.5q78 0 120 66.5t42 160.5q0 86 -40 147.5t-122 61.5q-41 0 -70.5 -18.5t-49 -49t-29 -70.5t-9.5 -81zM1085 246 q27 14 43.5 57t22.5 100.5t4 122t-10 124t-23.5 105.5t-36.5 66v-575z" />
<glyph unicode="A" horiz-adv-x="1314" d="M-92 0v37l528 1411h338l531 -1411v-37h-390l-79 217h-461l-78 -217h-389zM483 537h244l-121 407h-2z" />
<glyph unicode="B" horiz-adv-x="1255" d="M63 0v1434h558q104 0 192 -24t151.5 -73t98.5 -125q33 -71 33 -169v-11q-2 -88 -46 -158.5t-124 -109.5q111 -39 175 -128t64 -206q0 -119 -44 -201t-117.5 -133t-169 -73.5t-197.5 -22.5h-574zM442 322h179q82 0 118.5 38.5t36.5 92.5q0 51 -38 91t-117 40h-179v-262z M442 905h179q43 0 64.5 33t21.5 73t-21.5 72.5t-64.5 32.5h-179v-211z" />
<glyph unicode="C" horiz-adv-x="1245" d="M-20 721q0 170 39.5 310t118.5 239.5t197 155t273 55.5q246 0 388.5 -128t197.5 -360l-344 -67q-29 96 -84 154.5t-158 58.5q-72 0 -119 -34t-73.5 -90.5t-36.5 -132t-10 -161.5t13 -162t42 -133t74 -90t110 -33q100 0 155.5 58.5t78.5 162.5l356 -78 q-53 -229 -200.5 -358t-389.5 -129q-154 0 -271.5 55.5t-196.5 155.5t-119.5 240.5t-40.5 310.5z" />
<glyph unicode="D" horiz-adv-x="1286" d="M45 0v1434h522q152 0 265.5 -60.5t190.5 -160t117 -227.5t40 -265q0 -135 -38 -265t-115 -231.5t-191.5 -163t-268.5 -61.5h-522zM434 324h133q68 0 112 42t69.5 103t35 130t9.5 120t-9.5 118.5t-35 129t-69.5 103.5t-112 42h-133v-788z" />
<glyph unicode="E" horiz-adv-x="1136" d="M57 0v1434h977v-318h-602v-242h569v-321h-569v-231h602v-322h-977z" />
<glyph unicode="F" horiz-adv-x="1105" d="M57 0v1434h977v-322h-590v-252h547v-321h-547v-539h-387z" />
<glyph unicode="G" horiz-adv-x="1349" d="M-16 717q0 172 39.5 312t118.5 239.5t197 155t275 55.5q242 0 378 -119t196 -346l-342 -62q-29 92 -78 138.5t-147 46.5q-72 0 -119 -33t-75 -90.5t-39 -134t-11 -162.5t13 -162t41 -133t73 -91t110 -34q123 0 180.5 56.5t57.5 185.5h-264v303h614v-320 q0 -133 -45 -237.5t-125 -178t-187.5 -112.5t-230.5 -39q-154 0 -271.5 55.5t-197 154.5t-120.5 239.5t-41 312.5z" />
<glyph unicode="H" horiz-adv-x="1398" d="M63 0v1434h388v-555h393v555h383v-1434h-383v543h-393v-543h-388z" />
<glyph unicode="I" horiz-adv-x="540" d="M43 0v1434h385v-1434h-385z" />
<glyph unicode="J" horiz-adv-x="1372" d="M12 692h377q0 -57 6 -123.5t27.5 -123t65.5 -94.5t118 -38t117 38t63.5 94.5t25.5 123t5 123.5v420h-440v322h823v-742q0 -141 -26.5 -272t-93 -231.5t-181.5 -161t-293 -60.5t-292.5 60.5t-181 161t-93.5 231.5t-27 272z" />
<glyph unicode="K" horiz-adv-x="1355" d="M66 0v1434h378v-543l154 215l264 328h457v-37l-535 -625l559 -729v-43h-446l-369 506l-84 -92v-414h-378z" />
<glyph unicode="L" horiz-adv-x="1093" d="M57 0v1434h389v-1098h578v-336h-967z" />
<glyph unicode="M" horiz-adv-x="1732" d="M70 0v1434h383l352 -521l352 521h383v-1434h-385v592l39 285h-12l-129 -244l-195 -283h-106l-199 285l-129 239h-12l43 -280v-594h-385z" />
<glyph unicode="N" horiz-adv-x="1466" d="M66 0v1434h399l252 -455l209 -453h8l-35 441v467h389v-1434h-397l-283 449l-188 405h-10l41 -469v-385h-385z" />
<glyph unicode="O" d="M4 719q0 168 40 307t118 237.5t194.5 152.5t270.5 54t270.5 -54t195 -152.5t117.5 -237.5t39 -307q0 -170 -40 -308.5t-118.5 -237.5t-195.5 -153.5t-268 -54.5q-152 0 -267.5 54.5t-194.5 153.5t-120 237.5t-41 308.5zM391 719q0 -86 13.5 -161t41 -131t72.5 -89 t109 -33q63 0 108 33t74 88t42 131t13 162q0 59 -10 132t-36.5 135.5t-73 104.5t-117.5 42q-72 0 -117 -33t-71.5 -89.5t-37 -132t-10.5 -159.5z" />
<glyph unicode="P" horiz-adv-x="1239" d="M59 0v1434h578q154 0 253 -47.5t156.5 -121t79 -164.5t21.5 -181q0 -115 -35 -207t-98.5 -158t-152.5 -101.5t-199 -35.5h-213v-418h-390zM449 729h188q33 0 56.5 16.5t40 44t24.5 61.5t8 71q0 35 -8 69.5t-24.5 61t-40 43t-56.5 16.5h-188v-383z" />
<glyph unicode="Q" horiz-adv-x="1320" d="M6 719q0 168 38 307t115 237.5t193.5 152.5t276.5 54t276.5 -54t193.5 -152.5t114.5 -237.5t37.5 -307q0 -61 -4 -127t-16 -130.5t-37 -125t-64 -109.5l183 -211v-22h-359l-43 51q-66 -47 -134 -63.5t-148 -16.5q-160 0 -276.5 54.5t-193.5 153.5t-115 237.5t-38 308.5z M393 719q0 -86 11.5 -161t39 -131t72.5 -89t113 -33q16 0 33.5 1t29.5 5l-174 193v33h359q10 47 13 109q1 24 1 48q0 40 -3 82q-5 66 -22.5 130.5t-48.5 114.5t-78 81t-110 31q-68 0 -113 -33t-72.5 -89.5t-39 -132t-11.5 -159.5z" />
<glyph unicode="R" horiz-adv-x="1236" d="M63 0v1434h576q154 0 255 -42t161.5 -112t84 -157t23.5 -177q0 -68 -18.5 -132t-55 -120.5t-90 -100.5t-122.5 -71l307 -497v-25h-424l-268 479h-41v-479h-388zM451 791h190q33 0 57.5 13t40 35.5t23.5 51.5t8 59q0 31 -8 59.5t-24.5 51t-41 37t-57.5 14.5h-188v-321z " />
<glyph unicode="S" horiz-adv-x="1257" d="M-23 498h398q4 -109 60.5 -152t142.5 -43q35 0 68.5 4t60 17.5t43 39t16.5 70.5t-18.5 70.5t-47 39t-64.5 18.5t-71 7q-100 6 -199.5 29t-179.5 71t-129 129t-49 206q0 123 43 209.5t119 143t177.5 82t217.5 25.5q121 0 222.5 -30.5t174 -91t113.5 -150.5t41 -211h-368 q-4 78 -57.5 109.5t-125.5 31.5q-86 0 -129 -27.5t-43 -90.5q0 -66 43 -87.5t129 -27.5q104 -8 209 -28.5t189 -70t137 -133.5t53 -219q0 -133 -50 -224t-132 -146.5t-184.5 -79t-208.5 -23.5q-133 0 -243 33t-188.5 98.5t-124 165.5t-45.5 236z" />
<glyph unicode="T" horiz-adv-x="1130" d="M-51 1112v322h1128v-322h-372v-1112h-386v1112h-370z" />
<glyph unicode="U" horiz-adv-x="1445" d="M63 727v707h383v-707q0 -57 4.5 -130t24 -136.5t62.5 -106.5t122 -43q80 0 122 43t62.5 106.5t23.5 136.5t3 130v707h383v-707q0 -141 -24.5 -278.5t-91 -245t-182.5 -173t-296 -65.5q-182 0 -297.5 65.5t-181 173t-91.5 245t-26 278.5z" />
<glyph unicode="V" horiz-adv-x="1335" d="M-92 1395v39h399l187 -523l110 -424h2l111 424l186 523h400v-39l-529 -1407h-338z" />
<glyph unicode="W" horiz-adv-x="2146" d="M-57 1386v50h401l209 -656l57 -297h11l71 293l162 457h291l160 -457l73 -293h8l58 297l211 656h401v-45l-487 -1395h-387l-121 317l-62 217h-8l-55 -217l-121 -317h-387z" />
<glyph unicode="X" horiz-adv-x="1234" d="M-111 0v31l445 682l-410 688v35h410l164 -303l82 -177h4l71 177l166 303h418v-35l-408 -688l443 -682v-31h-420l-143 231l-125 226h-6l-131 -226l-146 -231h-414z" />
<glyph unicode="Y" horiz-adv-x="1263" d="M-123 1403v33h422l178 -344l92 -195h4l105 203l172 336h414v-33l-500 -852v-551h-385v551z" />
<glyph unicode="Z" horiz-adv-x="1155" d="M-57 268l651 844h-592v324h989l111 -258l-664 -850h629v-328h-991z" />
<glyph unicode="[" horiz-adv-x="704" d="M82 -297v2046h516v-285h-152v-1458h152v-303h-516z" />
<glyph unicode="\" horiz-adv-x="976" d="M-49 1499h387l588 -1620h-385z" />
<glyph unicode="]" horiz-adv-x="681" d="M-23 0h142v1458h-142v291h517v-2046h-517v297z" />
<glyph unicode="^" horiz-adv-x="1034" d="M-88 672v18l401 760h211l422 -760v-18h-387l-86 200l-49 142l-53 -142l-88 -200h-371z" />
<glyph unicode="_" horiz-adv-x="876" d="M-72 -16h858v-277h-858v277z" />
<glyph unicode="`" horiz-adv-x="546" d="M-61 1421v15h342l135 -273v-20h-273z" />
<glyph unicode="a" horiz-adv-x="974" d="M-6 324q0 92 40 151.5t98 95t128 50t129 14.5h86q0 41 -38 57q-36 16 -82 16h-6q-50 -1 -100 -15.5t-75 -37.5l-129 213q53 66 150.5 98.5t205.5 32.5q76 0 152 -18t136.5 -61t97 -111t36.5 -166v-399l15 -244h-285l-31 96h-4q-29 -66 -90 -89t-127 -23 q-61 0 -117.5 22.5t-98.5 65.5t-66.5 106.5t-24.5 145.5zM336 324.5q0 -25.5 17.5 -46t47.5 -20.5q31 0 48.5 11.5t25.5 29.5t10 43t2 49h-79q-37 0 -54.5 -20.5t-17.5 -46z" />
<glyph unicode="b" horiz-adv-x="1036" d="M-2 0v1434h352v-543q31 53 88.5 74.5t118.5 23.5q70 0 132.5 -29.5t110.5 -91.5t76 -156q26 -88 25 -201v-17q0 -92 -19.5 -182.5t-63.5 -162t-116.5 -116.5t-179.5 -45q-63 0 -118.5 25.5t-90.5 90.5l-28 -104h-287zM344 488.5q0 -50.5 11.5 -94.5t32.5 -72.5t56 -28.5 t57.5 28.5t34.5 72.5q11 40 10 86v8q-1 50 -12.5 94.5t-34 73t-55.5 28.5t-55 -28.5t-33.5 -72.5t-11.5 -94.5z" />
<glyph unicode="c" horiz-adv-x="915" d="M-6 489q0 111 25.5 204t79 160t136 104.5t199.5 37.5q92 0 161 -28.5t118 -76.5t78.5 -113.5t44.5 -139.5l-308 -53q-16 55 -35.5 75.5t-48.5 22.5q-25 0 -42 -15.5t-29.5 -43t-18.5 -62.5t-6 -72t6 -72.5t17.5 -63t28 -44t38.5 -16.5q68 0 86 100l320 -49 q-35 -166 -132.5 -264t-277.5 -98q-117 0 -199.5 37.5t-137 105.5t-79 161t-24.5 203z" />
<glyph unicode="d" horiz-adv-x="1050" d="M-6 494v16q0 115 26 203q28 94 75.5 155.5t111 91t133.5 29.5q61 -2 117.5 -23.5t89.5 -74.5v543h352v-1434h-287l-30 104q-35 -66 -90.5 -91t-116.5 -25q-109 0 -181.5 45t-116.5 116.5t-62.5 161.5t-20.5 183zM350 488.5q0 -50.5 11.5 -94.5t33 -72.5t56.5 -28.5 t57 28.5t32.5 72.5t10.5 94.5t-11.5 94.5t-34 72.5t-54.5 28.5q-33 0 -55.5 -28.5t-34 -72.5t-11.5 -94.5z" />
<glyph unicode="e" horiz-adv-x="999" d="M-8 498q2 231 117.5 365t326.5 134q123 0 211 -45t141 -126q52 -80 70 -194q10 -59 10 -125q0 -60 -8 -124h-512q0 -70 26.5 -97.5t65.5 -27.5q37 0 57.5 19.5t32.5 48.5l287 -76q-31 -129 -125 -198.5t-250 -69.5q-215 0 -331.5 132t-118.5 384zM348 608h164 q0 66 -26.5 93.5t-55.5 27.5q-31 0 -56.5 -28.5t-25.5 -92.5z" />
<glyph unicode="f" horiz-adv-x="712" d="M-68 707v268h119v82q0 139 68.5 231t168.5 129q65 24 136 24q40 0 81 -7q116 -21 208 -107l-152 -223q-12 18 -37.5 28.5t-52.5 7.5t-47.5 -25.5t-20.5 -72.5v-67h183v-268h-183v-707h-352v707h-119z" />
<glyph unicode="g" horiz-adv-x="1036" d="M-33 -199q0 33 12.5 69t37 66.5t62.5 53t91 33.5q-63 10 -105 39.5t-62.5 69.5t-20.5 85t17 85t50 70.5t80 41.5q-51 27 -77 88q-25 57 -25 119v10q0 94 39.5 161.5t105.5 111.5t151 64q77 19 161 19h16l334 -6l96 -2v-207l-101 4q66 -55 81 -126q7 -38 7 -75 q0 -33 -6 -65q-16 -84 -61 -135t-105.5 -79t-128.5 -37q-55 -7 -105 -7h-22q-59 0 -95.5 6t-69.5 10q-37 2 -54.5 -12t-18.5 -31.5t12 -33t38 -15.5h59.5h28.5h29.5t60.5 -2q86 -2 176 -13t164 -46t122 -99.5t48 -173.5q0 -104 -47 -172.5t-122 -108.5t-168 -55.5 t-185 -15.5q-264 0 -382 81t-118 230zM332 -158q2 -28 32.5 -49.5t102.5 -21.5q27 0 53.5 3t47 12t33.5 26q11 14 11 34v7q0 27 -15 43t-36.5 25t-47.5 11t-46 2l-68 -2q-31 -10 -50 -36q-17 -23 -17 -48v-6zM391 619.5q0 -37.5 22.5 -68.5t67.5 -31q43 0 64.5 31t21.5 68.5 t-21.5 68.5t-64.5 31q-47 0 -68.5 -31t-21.5 -68.5z" />
<glyph unicode="h" horiz-adv-x="1085" d="M47 0v1434h354v-555q29 66 86.5 91t126.5 25q90 0 149.5 -44t93.5 -110.5t47.5 -143t13.5 -144.5v-553h-353v555q0 66 -21.5 101.5t-62.5 35.5q-35 0 -57.5 -29.5t-22.5 -107.5v-555h-354z" />
<glyph unicode="i" horiz-adv-x="487" d="M27 0v975h350v-975h-350zM27 1081v353h350v-353h-350z" />
<glyph unicode="j" horiz-adv-x="468" d="M-266 -362l119 253q40 -23 69 -23h2q29 1 48.5 17.5t28.5 46t9 66.5v981h352v-979q0 -152 -49 -257t-133 -155q-70 -41 -163 -41q-18 0 -37 1q-115 10 -246 90zM8 1085v349h350v-349h-350z" />
<glyph unicode="k" horiz-adv-x="991" d="M47 0v1436h352v-734l82 134l94 139h375v-31l-293 -416l308 -485v-43h-365l-188 319l-13 -12v-12v-295h-352z" />
<glyph unicode="l" horiz-adv-x="483" d="M27 0v1434h352v-1434h-352z" />
<glyph unicode="m" horiz-adv-x="1523" d="M63 0v975h310l35 -96q34 67 106 97q60 25 124 25q12 -1 24 -1q76 -6 138 -44t79 -108h6q25 78 91 112.5t136 34.5q90 0 143.5 -42t80 -106.5t33.5 -143t7 -150.5v-553h-354v555q0 59 -14.5 95t-49.5 36q-23 0 -35 -14.5t-18 -34t-7 -43t-1 -41.5v-553h-354v555 q0 51 -13.5 91t-48.5 40q-10 0 -21 -3t-20.5 -16.5t-15.5 -40t-6 -75.5v-551h-355z" />
<glyph unicode="n" horiz-adv-x="1085" d="M47 0v975h307l35 -101q29 66 92.5 93.5t132.5 27.5q90 0 149.5 -44t93.5 -110.5t47.5 -143t13.5 -144.5v-553h-355v555q0 66 -20.5 101.5t-61.5 35.5q-35 0 -57.5 -29.5t-22.5 -107.5v-555h-354z" />
<glyph unicode="o" horiz-adv-x="1001" d="M4 489q0 98 27.5 190.5t83 162t138 111.5t193.5 42q113 0 196 -42t138.5 -111.5t82 -161.5t26.5 -191q0 -100 -26.5 -191t-81 -161.5t-138.5 -112.5t-197 -42q-115 0 -197.5 42t-137 112.5t-81 161.5t-26.5 191zM360 487q0 -35 4.5 -69.5t14.5 -62t26 -45t41 -17.5 t42.5 17.5t26.5 45t13 62.5t4 69q0 35 -4 70t-14 62.5t-26.5 45t-41.5 17.5t-41 -17.5t-26 -45t-14.5 -62.5t-4.5 -70z" />
<glyph unicode="p" horiz-adv-x="1083" d="M47 -461v1436h287l28 -111q35 68 101.5 98.5t128.5 30.5q106 0 176 -43t110 -112.5t56 -156.5t16 -175v-19q0 -127 -26 -219q-27 -98 -75 -161.5t-110.5 -93t-132.5 -29.5q-61 2 -118.5 23.5t-88.5 74.5v-543h-352zM393 488.5q0 -50.5 11.5 -94.5t34 -72.5t55.5 -28.5 t55 28.5t33.5 72.5t12.5 94v9q0 46 -11 86q-11 44 -33 72.5t-57 28.5t-56.5 -28.5t-33 -72.5t-11.5 -94.5z" />
<glyph unicode="q" horiz-adv-x="1073" d="M-2 506q2 88 18.5 175t56.5 156.5t108.5 112.5t174.5 43q63 0 129 -30.5t101 -98.5l30 111h287v-1436h-352v543q-33 -53 -90.5 -74.5t-116.5 -23.5q-70 0 -133.5 29.5t-110.5 93t-76 161.5q-26 93 -26 220v18zM354 488.5q0 -50.5 11.5 -94.5t34 -72.5t55.5 -28.5t55 28.5 t33.5 72.5t11.5 94.5t-10 94.5t-32.5 72.5t-57.5 28.5t-56.5 -28.5t-33 -72.5t-11.5 -94.5z" />
<glyph unicode="r" horiz-adv-x="821" d="M41 0v975h287l43 -105q27 72 91 103q58 28 123 28h13q70 -2 132.5 -24.5t94.5 -71.5l-157 -254q-54 37 -104 38h-3q-48 -1 -85 -25q-38 -26 -62 -73q-22 -44 -21 -100v-10v-481h-352z" />
<glyph unicode="s" horiz-adv-x="917" d="M-4 328h350q0 -27 15.5 -43.5t41.5 -16.5q25 0 40.5 13.5t15.5 35.5q0 37 -34 50.5t-84 21.5t-110.5 17.5t-110.5 37t-84 79.5t-34 149q0 96 40 159.5t99.5 100.5t129 52t132.5 15q57 0 127 -12t128 -47q59 -34 96 -98q31 -53 31 -136q0 -16 -1 -32h-333q0 23 -15.5 35 t-36.5 12q-20 0 -33.5 -13.5t-13.5 -35.5q0 -27 35 -38t87 -20.5t113.5 -24t113 -47t85.5 -90.5q32 -55 31 -146v-11q-2 -84 -37 -143.5t-93 -97.5t-134 -55t-160 -17q-74 0 -146.5 19t-128.5 60q-58 41 -92 108q-31 60 -30 140v19z" />
<glyph unicode="t" horiz-adv-x="724" d="M-39 707v268h127v237l297 80h55v-317h209v-268h-209v-295q0 -35 11.5 -62.5t33 -43t52 -15.5t69.5 20l86 -243q-74 -53 -141.5 -70.5t-114.5 -17.5q-178 2 -263 110.5t-85 319.5v297h-127z" />
<glyph unicode="u" horiz-adv-x="1013" d="M45 412v563h354v-565q0 -127 82 -127q35 0 57.5 29.5t22.5 107.5v555h354v-975h-307l-35 100q-29 -66 -92 -93t-133 -27q-90 0 -149.5 41.5t-93 106.5t-47 140.5t-13.5 143.5z" />
<glyph unicode="v" horiz-adv-x="960" d="M-88 946v29h354l101 -354l53 -289h2l53 289l100 354h355v-29l-307 -952h-404z" />
<glyph unicode="w" horiz-adv-x="1454" d="M-82 948v27h352l119 -326l43 -315h8l101 526h280l103 -526h8l41 315l119 326h354v-27l-352 -952h-336l-74 217h-2h-2l-72 -217h-338z" />
<glyph unicode="x" horiz-adv-x="870" d="M-94 0v33l256 461l-238 452v29h352l123 -287l121 287h354v-29l-235 -452l254 -461v-33h-354l-140 289l-137 -289h-356z" />
<glyph unicode="y" horiz-adv-x="966" d="M-111 950v25h361l121 -313l53 -193h6l53 195l123 311h355v-29l-592 -1405h-351v25l226 538z" />
<glyph unicode="z" horiz-adv-x="849" d="M-39 213l379 463h-344v299h688l98 -230l-374 -448h364v-297h-719z" />
<glyph unicode="{" horiz-adv-x="686" d="M23 551v332q53 0 69.5 33.5t16.5 68.5v340q0 98 27.5 179t88 139.5t152.5 91t221 32.5v-274q-80 0 -102.5 -47t-22.5 -121v-340q0 -37 -9 -78t-28.5 -77.5t-49.5 -67.5t-73 -47q37 -16 67 -46t50.5 -67t31.5 -77t11 -76v-355q0 -31 4 -58.5t17.5 -48t37 -31.5t62.5 -11 v-301q-127 0 -218 32.5t-150.5 93t-88 143.5t-28.5 181v355q0 35 -16.5 68.5t-69.5 33.5z" />
<glyph unicode="|" horiz-adv-x="458" d="M-37 -242v1850h363v-1850h-363z" />
<glyph unicode="}" horiz-adv-x="737" d="M-10 1493v274q129 0 221 -32.5t152.5 -91t88 -139.5t27.5 -179v-340q0 -35 16.5 -68.5t69.5 -33.5v-332q-53 0 -69.5 -34t-16.5 -68v-355q0 -98 -28.5 -181t-88 -143.5t-151.5 -93t-217 -32.5v301q76 0 98.5 43t22.5 106v355q0 37 11 76.5t31.5 76.5t50.5 66.5t66 46.5 q-43 16 -72.5 47t-49 67.5t-28.5 77.5t-9 78v340q0 74 -22.5 121t-102.5 47z" />
<glyph unicode="~" horiz-adv-x="954" d="M-33 559q14 51 40 102.5t60.5 91.5t81 65.5t101.5 25.5q53 0 93 -15.5t71.5 -35t57.5 -37t48.5 -19.5t44 16.5t47.5 69.5l252 -94q-45 -137 -118.5 -216t-153.5 -83q-51 -2 -93 13.5t-79 36t-67.5 39t-56.5 22.5t-49.5 -13.5t-43.5 -70.5z" />
<glyph unicode="&#xa1;" horiz-adv-x="559" d="M39 -453v1016h371v-1016h-371zM41 659v322h369v-322h-369z" />
<glyph unicode="&#xa2;" horiz-adv-x="884" d="M-59 489q0 96 18 179.5t58 148t102.5 107.5t148.5 61v143h226v-147q127 -31 195.5 -126t92.5 -218l-307 -53q-16 55 -35.5 75.5t-48.5 22.5q-25 0 -42 -15.5t-29.5 -43t-18.5 -62.5t-6 -72t6 -72.5t17.5 -63t27.5 -44t39 -16.5q68 0 86 100l320 -49q-29 -139 -101 -230 t-196 -120v-121h-226v121q-174 35 -250.5 169t-76.5 326z" />
<glyph unicode="&#xa3;" horiz-adv-x="1122" d="M-76 188q51 27 77 74t36 99.5t11 104.5t1 91h-112v268h112v168q0 123 36 211t99.5 144.5t151.5 83t192 26.5q80 0 163 -16.5t150.5 -66.5t110.5 -142t43 -242h-329q0 96 -39 133t-88 37q-133 0 -136 -168v-168h334v-268h-334q0 -20 -1 -50t-4 -63.5t-10 -68.5t-21 -64 q39 31 82 36t87 -2t87 -18.5t82.5 -14.5t74.5 10.5t64 54.5l184 -215q-68 -104 -141.5 -142t-150.5 -38t-156.5 21.5t-159.5 33.5t-159 0t-155 -80z" />
<glyph unicode="&#xa4;" horiz-adv-x="1015" d="M-76 391l111 119q-33 82 -33 158q0 82 37 174l-115 119l232 245l114 -125q68 25 148 25q41 0 77.5 -7t71.5 -20l119 127l229 -245l-108 -117q18 -47 24.5 -87t6.5 -85q0 -84 -29 -164l106 -117l-227 -241l-117 122q-33 -10 -71.5 -17t-75.5 -7q-78 0 -154 26l-114 -127z M297 676.5q0 -58.5 31 -107.5t92 -49q63 0 93 49t30 107.5t-32 108t-91 49.5q-61 0 -92 -49.5t-31 -108z" />
<glyph unicode="&#xa5;" d="M-104 1403v33h421l179 -344l92 -195h4l104 203l172 336h414v-33l-348 -592h96v-276h-248v-58h248v-276h-248v-201h-385v201h-258v276h258v58h-258v276h105z" />
<glyph unicode="&#xa6;" horiz-adv-x="444" d="M-43 -180v776h362v-776h-362zM-43 672v768h362v-768h-362z" />
<glyph unicode="&#xa7;" horiz-adv-x="880" d="M-55 328h352q0 -55 55 -56q25 0 40.5 11.5t15.5 33.5q0 37 -34 50.5t-84 21.5t-110.5 17.5t-111 37t-84 79.5t-33.5 149q0 113 55 180q-27 31 -41 75t-14 107q0 96 40 159.5t99.5 100.5t129 52.5t132.5 15.5q57 0 127 -12.5t128.5 -47t95 -98t30.5 -168.5h-340 q0 41 -45 41t-45 -43q0 -20 19.5 -30.5t50 -18.5t70.5 -14t81 -19q27 -6 50.5 -14t46.5 -23q57 -31 95 -91t36 -167q-2 -100 -52 -157q31 -35 49.5 -84t16.5 -121q-2 -84 -37 -143.5t-93 -97.5t-134 -55t-160 -17q-74 0 -146.5 19t-129 60t-91 108t-30.5 159zM283 674 q0 -27 20.5 -41.5t45 -15.5t45 12.5t20.5 44.5t-20.5 46t-45 15t-45 -15t-20.5 -46z" />
<glyph unicode="&#xa8;" horiz-adv-x="870" d="M-37 1159v277h332v-277h-332zM416 1159v277h334v-277h-334z" />
<glyph unicode="&#xa9;" horiz-adv-x="1259" d="M-51 719q0 137 37 270t112.5 237.5t188 169t264.5 64.5t265.5 -64.5t189 -169t113.5 -237.5t38 -270q0 -139 -38 -272.5t-113.5 -237t-189 -166.5t-265.5 -63t-264.5 63t-188 166.5t-112.5 237t-37 272.5zM141 719q0 -98 26 -193.5t77 -170t128 -120t179 -45.5t180 45.5 t130 120t78 170t26 193.5t-26 193.5t-78 170t-130 119.5t-180 45t-179 -45t-128 -119.5t-77 -170t-26 -193.5zM217 719q0 98 28.5 179t77 137.5t110 87t126.5 30.5q96 0 183 -59.5t128 -194.5l-139 -82q-18 39 -39.5 61.5t-43 35t-43 15.5t-38.5 3q-61 0 -110 -57.5 t-49 -155.5q0 -47 13 -86t35.5 -66.5t50.5 -43t58 -15.5q37 0 78 24.5t78 102.5l147 -92q-55 -133 -137 -194.5t-164 -61.5q-66 0 -129 30.5t-112.5 87t-79 136.5t-29.5 178z" />
<glyph unicode="&#xaa;" horiz-adv-x="636" d="M-66 989q0 61 27 102.5t68 66t91 34.5t99 10h62q0 18 -14.5 32.5t-40 20t-61.5 -1t-81 -28.5l-100 151q45 41 104 64.5t139 23.5q53 0 106.5 -15t95.5 -47t67.5 -83t25.5 -125l13 -420h-164l-37 78q-27 -47 -72 -68.5t-96 -19.5q-29 0 -69 11t-75.5 38t-61.5 70t-26 106z M176 995.5q0 -18.5 12 -33t35 -14.5q25 0 46.5 23.5t11.5 70.5h-60q-23 0 -34 -14t-11 -32.5z" />
<glyph unicode="&#xab;" horiz-adv-x="1148" d="M-16 676l231 457h373l-230 -457l226 -459h-369zM438 676l232 457h372l-229 -457l225 -459h-368z" />
<glyph unicode="&#xac;" horiz-adv-x="782" d="M-43 578v282h700v-528h-295v246h-405z" />
<glyph unicode="&#xad;" horiz-adv-x="792" d="M-2 457v309h666v-309h-666z" />
<glyph unicode="&#xae;" horiz-adv-x="1228" d="M-55 694q0 137 36.5 268.5t111.5 234.5t186.5 166.5t261.5 63.5t262 -63.5t187 -166.5t112 -234.5t37 -268.5t-37 -268t-112 -234.5t-187 -166t-262 -62.5t-261.5 62.5t-186.5 166t-111.5 234.5t-36.5 268zM135 694q0 -98 24.5 -192t76 -168t127 -119t178.5 -45 q102 0 179 45t128 119t76.5 168t25.5 192t-25.5 192.5t-76.5 169t-128 120t-179 45.5q-109 0 -185.5 -45.5t-126 -120t-72 -168.5t-22.5 -193zM293 324v778h287q49 0 95 -13.5t81 -43t56.5 -77.5t21.5 -118q0 -88 -41 -152.5t-101 -93.5l148 -246l-25 -34h-158l-151 266h-35 v-266h-178zM471 766h109q37 0 54 22.5t17 48t-18.5 48t-52.5 22.5h-109v-141z" />
<glyph unicode="&#xb0;" horiz-adv-x="509" d="M-59 1225q0 57 20.5 101t53 72.5t74.5 44t85 15.5q45 0 88 -15.5t76 -44t53.5 -72.5t20.5 -101q0 -59 -20.5 -102.5t-54.5 -73t-77 -44t-88 -14.5q-43 0 -85 14.5t-73.5 44t-52 73t-20.5 102.5zM129 1223.5q0 -19.5 11.5 -37t31.5 -17.5t31.5 17.5t11.5 37t-10.5 37 t-30.5 17.5q-23 0 -34 -17.5t-11 -37z" />
<glyph unicode="&#xb1;" horiz-adv-x="743" d="M-49 -4v301h661v-301h-661zM-49 631v307h190v270h275v-270h196v-307h-196v-277h-275v277h-190z" />
<glyph unicode="&#xb2;" horiz-adv-x="669" d="M-43 866l289 260q20 18 42.5 37t22.5 41q0 33 -22.5 48.5t-49 15.5t-49 -16.5t-22.5 -47.5h-197q0 76 23.5 126t63.5 81t94.5 44t115.5 13q51 0 103.5 -13t93.5 -43t66.5 -77t25.5 -112q0 -37 -13.5 -71t-34 -62.5t-45 -53t-46.5 -45.5l-78 -65h217v-213h-541z" />
<glyph unicode="&#xb3;" horiz-adv-x="724" d="M-23 1067h209q0 -43 30 -63.5t66.5 -21.5t66.5 13.5t30 40.5q0 23 -21.5 37t-72.5 14h-58v177h58q41 -2 64.5 12t23.5 35q0 25 -24.5 37t-65.5 12q-16 0 -34 -3t-31 -12.5t-22.5 -23.5t-7.5 -37l-204 2q-4 74 22.5 123t69.5 79t96 43t100 13q53 0 109.5 -9t103.5 -34.5 t77 -68.5t32 -111q2 -43 -23.5 -84t-74.5 -57q51 -12 81.5 -55.5t30.5 -92.5q0 -80 -29.5 -129t-74.5 -76.5t-99.5 -37t-103.5 -9.5q-55 0 -113.5 13.5t-104.5 46t-76 88t-30 139.5z" />
<glyph unicode="&#xb4;" horiz-adv-x="485" d="M-72 1143v20l135 273h343v-15l-205 -278h-273z" />
<glyph unicode="&#xb6;" horiz-adv-x="1452" d="M-59.5 904.5q6.5 99.5 42 194.5t102.5 169.5t167 120t233 45.5h852v-310h-116v-1566h-357v1566h-166v-1566h-360v817q-102 0 -179 45t-127 119.5t-74 170t-17.5 195z" />
<glyph unicode="&#xb7;" horiz-adv-x="393" d="M-59 559v318h331v-318h-331z" />
<glyph unicode="&#xb8;" horiz-adv-x="626" d="M-37 -311l105 143q20 -18 52 -31.5t62.5 -19.5t55 -1t30.5 25q14 45 -37 75t-163 28l86 223h245l-34 -104q55 -6 97 -35t67.5 -69t33.5 -86t-2 -87q-23 -98 -98.5 -150.5t-168.5 -59.5t-184.5 30t-146.5 119z" />
<glyph unicode="&#xb9;" horiz-adv-x="536" d="M-45 1274l205 211h225v-733h-231v458l-88 -88z" />
<glyph unicode="&#xba;" horiz-adv-x="624" d="M-49 1106q0 70 14.5 134.5t48 114.5t86 79.5t129.5 29.5q76 0 129.5 -30.5t87 -82t49 -114.5t15.5 -131t-16.5 -132.5t-50 -114.5t-87 -80.5t-127.5 -30.5q-78 0 -130 30.5t-85.5 80.5t-48 114.5t-14.5 132.5zM166 1106q0 -37 7 -67.5t21.5 -51t34.5 -20.5t33.5 20.5 t21 51t7.5 67.5t-7.5 67.5t-20.5 51t-34 20.5q-23 0 -36 -20.5t-20 -51t-7 -67.5z" />
<glyph unicode="&#xbb;" horiz-adv-x="1159" d="M4 1133h373l231 -457l-231 -459h-369l225 459zM459 1133h372l232 -457l-232 -459h-368l225 459z" />
<glyph unicode="&#xbc;" horiz-adv-x="1361" d="M-72 1227l205 211h225v-733h-231v458l-76 -67zM6 -72l862 1538h279l-862 -1538h-279zM592 98v158l313 483h244v-440h70v-201h-70v-98h-221v98h-336zM840 293h100v164z" />
<glyph unicode="&#xbd;" horiz-adv-x="1460" d="M-70 1229l205 211h225v-733h-231v458l-63 -84zM8 -70l850 1520h291l-852 -1520h-289zM729 150l289 260q20 18 42.5 36.5t22.5 40.5q0 33 -22.5 48.5t-49 15.5t-49 -16.5t-22.5 -47.5h-197q0 76 24 126.5t63.5 81t94 44t115.5 13.5q51 0 103.5 -13.5t93.5 -43t66.5 -77 t25.5 -112.5q0 -37 -13 -71t-33.5 -62.5t-45.5 -53t-47 -45.5l-78 -65h217v-213h-541z" />
<glyph unicode="&#xbe;" horiz-adv-x="1492" d="M-16 1010h200q0 -41 29 -60.5t64.5 -20.5t64.5 13t29 39q0 23 -20.5 36t-69.5 13h-56v170h56q41 -2 62.5 11.5t21.5 33.5q0 23 -24 35t-62 12q-16 0 -33 -3t-31 -12t-22.5 -23.5t-6.5 -34.5l-196 2q-4 70 21.5 117.5t67.5 77.5t92 42t97 12q51 0 105.5 -9t99.5 -32.5 t75 -65.5t30 -108q2 -41 -23 -80.5t-72 -56.5q49 -12 79 -53t30 -88q0 -78 -28.5 -125t-73 -73.5t-96.5 -36t-99 -9.5q-53 0 -108.5 12.5t-100.5 44t-73.5 85t-28.5 135.5zM106 -72l922 1538h285l-922 -1538h-285zM715 98v158l313 483h244v-440h69v-201h-69v-98h-221v98 h-336zM963 293h100v164z" />
<glyph unicode="&#xbf;" horiz-adv-x="1124" d="M10 -20q0 88 26.5 143t67.5 92t88.5 63.5t88.5 54t67.5 65.5t26.5 100v98h360v-102q0 -113 -25.5 -180.5t-64.5 -108.5t-84 -63.5t-84 -44t-64.5 -49.5t-25.5 -81q0 -49 15.5 -77.5t37 -43t45 -17.5t39.5 -3q20 0 42 8t40.5 29.5t29.5 60.5t11 103h352q0 -152 -42 -248 t-110.5 -151.5t-153.5 -78t-171 -22.5q-88 0 -179 19.5t-165 70.5t-121 139t-47 224zM369 666v321h366v-321h-366z" />
<glyph unicode="&#xc0;" horiz-adv-x="1314" d="M-92 0v37l528 1411h338l531 -1411v-37h-390l-79 217h-461l-78 -217h-389zM258 1821v14h342l135 -272v-21h-272zM483 537h244l-121 407h-2z" />
<glyph unicode="&#xc1;" horiz-adv-x="1314" d="M-92 0v37l528 1411h338l531 -1411v-37h-390l-79 217h-461l-78 -217h-389zM469 1538v21l135 272h342v-14l-205 -279h-272zM483 537h244l-121 407h-2z" />
<glyph unicode="&#xc2;" horiz-adv-x="1314" d="M-92 0v37l528 1411h338l531 -1411v-37h-390l-79 217h-461l-78 -217h-389zM209 1538v14l268 271h248l281 -271v-14h-330l-72 78l-76 -78h-319zM483 537h244l-121 407h-2z" />
<glyph unicode="&#xc3;" horiz-adv-x="1314" d="M-92 0v37l528 1411h338l531 -1411v-37h-390l-79 217h-461l-78 -217h-389zM256 1636q25 55 55.5 100.5t68.5 71t84 30.5t99 -19q27 -12 51.5 -24.5t48 -16.5t43 6t35.5 47l195 -98q-18 -55 -50 -103.5t-75 -78t-95 -34t-114 30.5q-20 12 -42.5 22.5t-44 11.5t-42 -10 t-37.5 -44zM483 537h244l-121 407h-2z" />
<glyph unicode="&#xc4;" horiz-adv-x="1314" d="M-92 0v37l528 1411h338l531 -1411v-37h-390l-79 217h-461l-78 -217h-389zM233 1536v262h316v-262h-316zM483 537h244l-121 407h-2zM664 1536v262h317v-262h-317z" />
<glyph unicode="&#xc5;" horiz-adv-x="1314" d="M-92 0v37l528 1411h29q-55 31 -82 82t-27 104q0 41 15.5 81t46.5 71t78 50t110 19t110.5 -19t79 -50t48 -71t16.5 -81q0 -53 -28.5 -104t-83.5 -82h26l531 -1411v-37h-390l-79 217h-461l-78 -217h-389zM483 537h244l-121 407h-2zM545 1638q0 -25 19.5 -37t44 -11t44 13 t19.5 35q0 25 -19.5 37.5t-44 12.5t-44 -12.5t-19.5 -37.5z" />
<glyph unicode="&#xc6;" horiz-adv-x="1902" d="M-92 0v39l811 1395h1081v-326h-592v-234h568v-319h-568v-227h592v-328h-932v305h-401l-168 -305h-391zM643 635h231v467l-59 -156z" />
<glyph unicode="&#xc7;" horiz-adv-x="1245" d="M-14 725q0 168 38.5 306t117.5 236.5t195 152t269 53.5q240 0 381 -127t197 -353l-338 -67q-29 94 -84 152.5t-156 58.5q-72 0 -118 -33t-72.5 -89.5t-36.5 -131t-10 -158.5q0 -86 13 -161t42 -131t74 -89t108 -33q98 0 153.5 58.5t78.5 160.5l350 -77 q-47 -195 -163 -318t-302 -151l-18 -52q53 -6 93 -30.5t64.5 -58t32.5 -73.5t-2 -77q-14 -55 -52 -96t-89.5 -63.5t-111.5 -29t-118.5 5t-110 40t-85.5 75.5l94 139q20 -14 52 -24t61.5 -15.5t52 -1t26.5 18.5q8 35 -40 59.5t-152 26.5l65 156q-123 20 -216 81.5 t-155.5 157.5t-95 223t-32.5 279z" />
<glyph unicode="&#xc8;" horiz-adv-x="1136" d="M57 0v1434h977v-318h-602v-242h569v-321h-569v-231h602v-322h-977zM256 1810v15h342l135 -273v-20h-272z" />
<glyph unicode="&#xc9;" horiz-adv-x="1136" d="M57 0v1434h977v-318h-602v-242h569v-321h-569v-231h602v-322h-977zM403 1536v20l136 273h342v-14l-205 -279h-273z" />
<glyph unicode="&#xca;" horiz-adv-x="1136" d="M57 0v1434h977v-318h-602v-242h569v-321h-569v-231h602v-322h-977zM143 1536v14l275 279h254l286 -279v-14h-335l-74 80l-78 -80h-328z" />
<glyph unicode="&#xcb;" horiz-adv-x="1136" d="M57 0v1434h977v-318h-602v-242h569v-321h-569v-231h602v-322h-977zM156 1538v277h331v-277h-331zM608 1538v277h334v-277h-334z" />
<glyph unicode="&#xcc;" horiz-adv-x="540" d="M-104 1804v15h342l135 -273v-20h-273zM43 0v1434h385v-1434h-385z" />
<glyph unicode="&#xcd;" horiz-adv-x="540" d="M43 0v1434h385v-1434h-385zM84 1536v20l135 273h342v-14l-205 -279h-272z" />
<glyph unicode="&#xce;" horiz-adv-x="540" d="M-164 1538v14l275 279h254l286 -279v-14h-336l-73 80l-78 -80h-328zM43 0v1434h385v-1434h-385z" />
<glyph unicode="&#xcf;" horiz-adv-x="540" d="M-156 1538v277h332v-277h-332zM43 0v1434h385v-1434h-385zM297 1538v277h334v-277h-334z" />
<glyph unicode="&#xd0;" horiz-adv-x="1312" d="M-53 563v303h125v568h522q152 0 265.5 -60.5t190 -160t116.5 -227.5t40 -265q0 -135 -38 -265t-114.5 -231.5t-191 -163t-268.5 -61.5h-522v563h-125zM461 324h133q68 0 112 42t69.5 103t34.5 130t9 120t-9 118.5t-34.5 129t-69.5 103.5t-112 42h-133v-246h151v-303h-151 v-239z" />
<glyph unicode="&#xd1;" horiz-adv-x="1466" d="M66 0v1434h399l252 -455l209 -453h8l-35 441v467h389v-1434h-397l-283 449l-188 405h-10l41 -469v-385h-385zM315 1632q25 55 55.5 100.5t68.5 71t84 30.5t100 -19q27 -12 51 -24.5t47.5 -17t43 6t36.5 47.5l194 -98q-18 -55 -50 -103.5t-75 -78t-95 -34t-113 30.5 q-20 12 -43 22.5t-44.5 11.5t-42 -10.5t-36.5 -43.5z" />
<glyph unicode="&#xd2;" d="M4 719q0 168 40 307t118 237.5t194.5 152.5t270.5 54t270.5 -54t195 -152.5t117.5 -237.5t39 -307q0 -170 -40 -308.5t-118.5 -237.5t-195.5 -153.5t-268 -54.5q-152 0 -267.5 54.5t-194.5 153.5t-120 237.5t-41 308.5zM270 1851v15h342l136 -273v-20h-273zM391 719 q0 -86 13.5 -161t41 -131t72.5 -89t109 -33q63 0 108 33t74 88t42 131t13 162q0 59 -10 132t-36.5 135.5t-73 104.5t-117.5 42q-72 0 -117 -33t-71.5 -89.5t-37 -132t-10.5 -159.5z" />
<glyph unicode="&#xd3;" d="M4 719q0 168 40 307t118 237.5t194.5 152.5t270.5 54t270.5 -54t195 -152.5t117.5 -237.5t39 -307q0 -170 -40 -308.5t-118.5 -237.5t-195.5 -153.5t-268 -54.5q-152 0 -267.5 54.5t-194.5 153.5t-120 237.5t-41 308.5zM391 719q0 -86 13.5 -161t41 -131t72.5 -89 t109 -33q63 0 108 33t74 88t42 131t13 162q0 59 -10 132t-36.5 135.5t-73 104.5t-117.5 42q-72 0 -117 -33t-71.5 -89.5t-37 -132t-10.5 -159.5zM469 1571v20l135 273h342v-15l-205 -278h-272z" />
<glyph unicode="&#xd4;" d="M4 719q0 168 40 307t118 237.5t194.5 152.5t270.5 54t270.5 -54t195 -152.5t117.5 -237.5t39 -307q0 -170 -40 -308.5t-118.5 -237.5t-195.5 -153.5t-268 -54.5q-152 0 -267.5 54.5t-194.5 153.5t-120 237.5t-41 308.5zM219 1567v14l275 279h254l286 -279v-14h-336 l-73 80l-78 -80h-328zM391 719q0 -86 13.5 -161t41 -131t72.5 -89t109 -33q63 0 108 33t74 88t42 131t13 162q0 59 -10 132t-36.5 135.5t-73 104.5t-117.5 42q-72 0 -117 -33t-71.5 -89.5t-37 -132t-10.5 -159.5z" />
<glyph unicode="&#xd5;" d="M4 719q0 168 40 307t118 237.5t194.5 152.5t270.5 54t270.5 -54t195 -152.5t117.5 -237.5t39 -307q0 -170 -40 -308.5t-118.5 -237.5t-195.5 -153.5t-268 -54.5q-152 0 -267.5 54.5t-194.5 153.5t-120 237.5t-41 308.5zM279 1681q25 55 55.5 100.5t68 71t83.5 30.5 t100 -19q27 -12 51.5 -24.5t48 -16.5t43 6t35.5 47l194 -98q-18 -55 -49.5 -103.5t-74.5 -78t-95.5 -33.5t-113.5 30q-20 12 -43 22.5t-44.5 11.5t-42 -10t-36.5 -44zM391 719q0 -86 13.5 -161t41 -131t72.5 -89t109 -33q63 0 108 33t74 88t42 131t13 162q0 59 -10 132 t-36.5 135.5t-73 104.5t-117.5 42q-72 0 -117 -33t-71.5 -89.5t-37 -132t-10.5 -159.5z" />
<glyph unicode="&#xd6;" d="M4 719q0 168 40 307t118 237.5t194.5 152.5t270.5 54t270.5 -54t195 -152.5t117.5 -237.5t39 -307q0 -170 -40 -308.5t-118.5 -237.5t-195.5 -153.5t-268 -54.5q-152 0 -267.5 54.5t-194.5 153.5t-120 237.5t-41 308.5zM231 1563v276h332v-276h-332zM391 719 q0 -86 13.5 -161t41 -131t72.5 -89t109 -33q63 0 108 33t74 88t42 131t13 162q0 59 -10 132t-36.5 135.5t-73 104.5t-117.5 42q-72 0 -117 -33t-71.5 -89.5t-37 -132t-10.5 -159.5zM684 1563v276h334v-276h-334z" />
<glyph unicode="&#xd7;" horiz-adv-x="851" d="M-18 496l170 180l-162 170l225 233l160 -166l153 166l244 -215l-172 -184l178 -182l-225 -238l-174 180l-158 -168z" />
<glyph unicode="&#xd8;" d="M4 719q0 168 40 307t118 237.5t194.5 152.5t270.5 54q88 0 166 -18l53 111h319v-52l-102 -215q92 -100 139 -246.5t47 -330.5q0 -170 -40 -308.5t-118.5 -237.5t-195.5 -153.5t-268 -54.5q-94 0 -181 23l-55 -119h-321v45l110 238q-88 100 -132 243.5t-44 323.5z M391 662.5q0 -27.5 4 -54.5l248 525h-16q-72 0 -117 -33t-71.5 -89.5t-37 -132t-10.5 -159.5v-56.5zM598 307q8 -2 29 -2q63 0 108 33t74 88t42 131t13 162q0 29 -3 62.5t-7 68.5z" />
<glyph unicode="&#xd9;" horiz-adv-x="1445" d="M63 727v707h383v-707q0 -57 4.5 -130t24 -136.5t62.5 -106.5t122 -43q80 0 122 43t62.5 106.5t23.5 136.5t3 130v707h383v-707q0 -141 -24.5 -278.5t-91 -245t-182.5 -173t-296 -65.5q-182 0 -297.5 65.5t-181 173t-91.5 245t-26 278.5zM324 1823v14h342l135 -272v-21 h-273z" />
<glyph unicode="&#xda;" horiz-adv-x="1445" d="M63 727v707h383v-707q0 -57 4.5 -130t24 -136.5t62.5 -106.5t122 -43q80 0 122 43t62.5 106.5t23.5 136.5t3 130v707h383v-707q0 -141 -24.5 -278.5t-91 -245t-182.5 -173t-296 -65.5q-182 0 -297.5 65.5t-181 173t-91.5 245t-26 278.5zM496 1536v20l135 273h342v-14 l-205 -279h-272z" />
<glyph unicode="&#xdb;" horiz-adv-x="1445" d="M63 727v707h383v-707q0 -57 4.5 -130t24 -136.5t62.5 -106.5t122 -43q80 0 122 43t62.5 106.5t23.5 136.5t3 130v707h383v-707q0 -141 -24.5 -278.5t-91 -245t-182.5 -173t-296 -65.5q-182 0 -297.5 65.5t-181 173t-91.5 245t-26 278.5zM258 1538v14l274 279h254 l287 -279v-14h-336l-73 80l-78 -80h-328z" />
<glyph unicode="&#xdc;" horiz-adv-x="1445" d="M63 727v707h383v-707q0 -57 4.5 -130t24 -136.5t62.5 -106.5t122 -43q80 0 122 43t62.5 106.5t23.5 136.5t3 130v707h383v-707q0 -141 -24.5 -278.5t-91 -245t-182.5 -173t-296 -65.5q-182 0 -297.5 65.5t-181 173t-91.5 245t-26 278.5zM262 1546v277h332v-277h-332z M715 1546v277h334v-277h-334z" />
<glyph unicode="&#xdd;" horiz-adv-x="1263" d="M-123 1403v33h422l178 -344l92 -195h4l105 203l172 336h414v-33l-500 -852v-551h-385v551zM408 1536v20l135 273h342v-14l-205 -279h-272z" />
<glyph unicode="&#xde;" horiz-adv-x="1269" d="M59 0v1434h390v-199h188q154 0 253 -47t156.5 -121t79 -165t21.5 -181q0 -115 -35 -207t-98.5 -157.5t-152.5 -101.5t-199 -36h-213v-219h-390zM449 530h188q33 0 56.5 16.5t40 44t24.5 61.5t8 71q0 35 -8 69.5t-24.5 61.5t-40 43t-56.5 16h-188v-383z" />
<glyph unicode="&#xdf;" horiz-adv-x="980" d="M-6 0v1038q0 109 28.5 187t82 127t128 71.5t164.5 22.5q86 0 166 -27.5t141.5 -84t96.5 -139.5t28 -194q-2 -29 -8 -60.5t-17 -63t-28.5 -59t-42.5 -44.5q45 -31 76 -75t48 -97t22.5 -113.5t-0.5 -123.5q-10 -94 -49 -167t-102.5 -120t-146.5 -69.5t-180 -16.5v313 q70 4 105 50t34 100.5t-37 98.5t-106 44v324h11q41 0 59 32.5t17 70.5t-21.5 70.5t-56.5 32.5q-27 0 -43.5 -15t-16.5 -52v-543v-518h-352z" />
<glyph unicode="&#xe0;" horiz-adv-x="974" d="M-6 324q0 92 40 151.5t98 95t128 50t129 14.5h86q0 41 -38 57.5t-88 15.5t-100 -15.5t-75 -37.5l-129 213q53 66 150.5 98.5t205.5 32.5q76 0 152 -18t136.5 -61t97 -111t36.5 -166v-399l15 -244h-285l-31 96h-4q-29 -66 -90 -89t-127 -23q-61 0 -117.5 22.5t-98.5 65.5 t-66.5 106.5t-24.5 145.5zM117 1372v14h342l135 -272v-20h-272zM336 324.5q0 -25.5 17.5 -46t47.5 -20.5q31 0 48.5 11.5t25.5 29.5t10 43t2 49h-79q-37 0 -54.5 -20.5t-17.5 -46z" />
<glyph unicode="&#xe1;" horiz-adv-x="974" d="M-6 324q0 92 40 151.5t98 95t128 50t129 14.5h86q0 41 -38 57.5t-88 15.5t-100 -15.5t-75 -37.5l-129 213q53 66 150.5 98.5t205.5 32.5q76 0 152 -18t136.5 -61t97 -111t36.5 -166v-399l15 -244h-285l-31 96h-4q-29 -66 -90 -89t-127 -23q-61 0 -117.5 22.5t-98.5 65.5 t-66.5 106.5t-24.5 145.5zM254 1098v20l135 273h342v-15l-205 -278h-272zM336 324.5q0 -25.5 17.5 -46t47.5 -20.5q31 0 48.5 11.5t25.5 29.5t10 43t2 49h-79q-37 0 -54.5 -20.5t-17.5 -46z" />
<glyph unicode="&#xe2;" horiz-adv-x="974" d="M-6 324q0 92 40 151.5t98 95t128 50t129 14.5h86q0 41 -38 57.5t-88 15.5t-100 -15.5t-75 -37.5l-129 213q53 66 150.5 98.5t205.5 32.5q76 0 152 -18t136.5 -61t97 -111t36.5 -166v-399l15 -244h-285l-31 96h-4q-29 -66 -90 -89t-127 -23q-61 0 -117.5 22.5t-98.5 65.5 t-66.5 106.5t-24.5 145.5zM68 1098v14l241 279h223l254 -279v-14h-297l-65 80l-68 -80h-288zM336 324.5q0 -25.5 17.5 -46t47.5 -20.5q31 0 48.5 11.5t25.5 29.5t10 43t2 49h-79q-37 0 -54.5 -20.5t-17.5 -46z" />
<glyph unicode="&#xe3;" horiz-adv-x="974" d="M-6 324q0 92 40 151.5t98 95t128 50t129 14.5h86q0 41 -38 57.5t-88 15.5t-100 -15.5t-75 -37.5l-129 213q53 66 150.5 98.5t205.5 32.5q76 0 152 -18t136.5 -61t97 -111t36.5 -166v-399l15 -244h-285l-31 96h-4q-29 -66 -90 -89t-127 -23q-61 0 -117.5 22.5t-98.5 65.5 t-66.5 106.5t-24.5 145.5zM92 1204q25 55 55.5 99.5t67.5 70t81 29.5t97 -19q25 -12 50.5 -24t48 -16.5t42 6t33.5 47.5l191 -99q-18 -53 -49 -100t-73 -76.5t-93 -34t-111 30.5q-20 12 -41.5 22.5t-43 11.5t-42 -10.5t-37.5 -43.5zM336 324.5q0 -25.5 17.5 -46t47.5 -20.5 q31 0 48.5 11.5t25.5 29.5t10 43t2 49h-79q-37 0 -54.5 -20.5t-17.5 -46z" />
<glyph unicode="&#xe4;" horiz-adv-x="974" d="M-6 324q0 92 40 151.5t98 95t128 50t129 14.5h86q0 41 -38 57.5t-88 15.5t-100 -15.5t-75 -37.5l-129 213q53 66 150.5 98.5t205.5 32.5q76 0 152 -18t136.5 -61t97 -111t36.5 -166v-399l15 -244h-285l-31 96h-4q-29 -66 -90 -89t-127 -23q-61 0 -117.5 22.5t-98.5 65.5 t-66.5 106.5t-24.5 145.5zM100 1106v252h277v-252h-277zM336 324.5q0 -25.5 17.5 -46t47.5 -20.5q31 0 48.5 11.5t25.5 29.5t10 43t2 49h-79q-37 0 -54.5 -20.5t-17.5 -46zM477 1106v252h279v-252h-279z" />
<glyph unicode="&#xe5;" horiz-adv-x="974" d="M-6 324q0 92 40 151.5t98 95t128 50t129 14.5h86q0 41 -38 57.5t-88 15.5t-100 -15.5t-75 -37.5l-129 213q53 66 150.5 98.5t205.5 32.5q76 0 152 -18t136.5 -61t97 -111t36.5 -166v-399l15 -244h-285l-31 96h-4q-29 -66 -90 -89t-127 -23q-61 0 -117.5 22.5t-98.5 65.5 t-66.5 106.5t-24.5 145.5zM182 1260q0 37 15.5 71.5t45 62t76 45t107.5 17.5t107.5 -17.5t78 -45t47 -62.5t15.5 -71q0 -37 -15.5 -72t-47 -62.5t-78 -45t-107.5 -17.5t-107.5 17.5t-76 45t-45 62.5t-15.5 72zM336 324.5q0 -25.5 17.5 -46t47.5 -20.5q31 0 48.5 11.5 t25.5 29.5t10 43t2 49h-79q-37 0 -54.5 -20.5t-17.5 -46zM367 1264q0 -23 19.5 -34t42 -10t41.5 12.5t19 31.5t-19 31.5t-41.5 11.5t-42 -11.5t-19.5 -31.5z" />
<glyph unicode="&#xe6;" horiz-adv-x="1425" d="M-23 324q0 92 40 151.5t98.5 95t128 50t129.5 14.5h86q0 41 -37 57.5t-87 14.5t-99.5 -17.5t-73.5 -40.5l-133 219q72 72 159.5 101.5t196.5 29.5q72 0 129 -21.5t115 -78.5q35 45 104.5 71.5t140.5 26.5q123 0 211.5 -44t140.5 -124.5t70.5 -194.5t1.5 -251h-507 q0 -70 24.5 -97.5t63.5 -27.5q37 0 57 21.5t33 50.5l286 -80q-31 -129 -125 -198.5t-249 -69.5q-102 0 -171 43t-102 98q-27 -51 -65.5 -79t-81.5 -41t-85 -16t-75 -3q-72 0 -132 22.5t-103 65.5t-66 106.5t-23 145.5zM326 324.5q0 -23.5 15 -42t44 -18.5q27 0 43 10.5 t23.5 27.5t9.5 38.5t2 44.5h-72q-33 0 -49 -18.5t-16 -42zM788 610h158q0 63 -24.5 90t-53.5 27t-54.5 -28.5t-25.5 -88.5z" />
<glyph unicode="&#xe7;" horiz-adv-x="915" d="M-6 489q0 111 25.5 204t79 160t136 104.5t199.5 37.5q92 0 161 -28.5t118 -76.5t78.5 -113.5t44.5 -139.5l-308 -53q-16 55 -35.5 75.5t-48.5 22.5q-25 0 -42 -15.5t-29.5 -43t-18.5 -62.5t-6 -72t6 -72.5t17.5 -63t28 -44t38.5 -16.5q68 0 86 100l320 -49 q-29 -135 -96.5 -225t-188.5 -121l-18 -51q53 -6 93 -29.5t64.5 -56.5t31.5 -71t-1 -71q-23 -80 -95.5 -125t-161.5 -52t-177 21.5t-139 96.5l102 127q20 -16 51 -27.5t59.5 -16.5t52 0t30.5 21q12 37 -36 61.5t-157 22.5l66 144q-86 16 -148.5 60t-102.5 109.5t-59.5 148.5 t-19.5 179z" />
<glyph unicode="&#xe8;" horiz-adv-x="999" d="M-8 498q2 231 117.5 365t326.5 134q123 0 211 -45t140.5 -126t71 -194.5t1.5 -248.5h-512q0 -70 26.5 -97.5t65.5 -27.5q37 0 57.5 19.5t32.5 48.5l287 -76q-31 -129 -125 -198.5t-250 -69.5q-215 0 -331.5 132t-118.5 384zM133 1378v15h342l135 -273v-20h-272zM348 608 h164q0 66 -26.5 93.5t-55.5 27.5q-31 0 -56.5 -28.5t-25.5 -92.5z" />
<glyph unicode="&#xe9;" horiz-adv-x="999" d="M-8 498q2 231 117.5 365t326.5 134q123 0 211 -45t140.5 -126t71 -194.5t1.5 -248.5h-512q0 -70 26.5 -97.5t65.5 -27.5q37 0 57.5 19.5t32.5 48.5l287 -76q-31 -129 -125 -198.5t-250 -69.5q-215 0 -331.5 132t-118.5 384zM274 1096v20l136 273h342v-15l-205 -278h-273z M348 608h164q0 66 -26.5 93.5t-55.5 27.5q-31 0 -56.5 -28.5t-25.5 -92.5z" />
<glyph unicode="&#xea;" horiz-adv-x="999" d="M-8 498q2 231 117.5 365t326.5 134q123 0 211 -45t140.5 -126t71 -194.5t1.5 -248.5h-512q0 -70 26.5 -97.5t65.5 -27.5q37 0 57.5 19.5t32.5 48.5l287 -76q-31 -129 -125 -198.5t-250 -69.5q-215 0 -331.5 132t-118.5 384zM100 1096v14l232 279h213l243 -279v-14h-284 l-62 80l-65 -80h-277zM348 608h164q0 66 -26.5 93.5t-55.5 27.5q-31 0 -56.5 -28.5t-25.5 -92.5z" />
<glyph unicode="&#xeb;" horiz-adv-x="999" d="M-8 498q2 231 117.5 365t326.5 134q123 0 211 -45t140.5 -126t71 -194.5t1.5 -248.5h-512q0 -70 26.5 -97.5t65.5 -27.5q37 0 57.5 19.5t32.5 48.5l287 -76q-31 -129 -125 -198.5t-250 -69.5q-215 0 -331.5 132t-118.5 384zM125 1104v268h272v-268h-272zM348 608h164 q0 66 -26.5 93.5t-55.5 27.5q-31 0 -56.5 -28.5t-25.5 -92.5zM498 1104v268h272v-268h-272z" />
<glyph unicode="&#xec;" horiz-adv-x="487" d="M-106 1397v14h325l135 -276v-21h-276zM27 0v975h350v-975h-350z" />
<glyph unicode="&#xed;" horiz-adv-x="487" d="M27 0v975h350v-975h-350zM37 1104v20l110 273h316v-15l-146 -278h-280z" />
<glyph unicode="&#xee;" horiz-adv-x="487" d="M-133 1112v14l227 287h213l238 -287v-14h-279l-61 82l-66 -82h-272zM27 0v975h350v-975h-350z" />
<glyph unicode="&#xef;" horiz-adv-x="487" d="M-102 1133v284h264v-284h-264zM27 0v975h350v-975h-350zM229 1133v284h269v-284h-269z" />
<glyph unicode="&#xf0;" horiz-adv-x="952" d="M-35 459q0 94 26.5 181t81 154.5t134.5 107.5t188 40q20 0 43 -4q18 -4 38 -9t36 -16q-20 33 -45 59.5t-53 51.5l-29 -55l-172 86l33 59q-39 12 -79 21.5t-83 13.5l59 291q63 -4 127 -16.5t125 -34.5l43 79l172 -86l-45 -82q88 -72 143.5 -158.5t86 -185t41 -207 t6.5 -225.5q-4 -109 -31 -208t-81 -174.5t-136 -121t-199 -45.5q-111 0 -191.5 40t-134 107.5t-79 155t-25.5 181.5zM305 458q0 -48 9.5 -89t29.5 -69t51 -28q33 0 54.5 28t32 69t10.5 89t-10.5 89t-32 68.5t-54.5 27.5q-31 0 -50 -27.5t-29.5 -68.5t-10.5 -89z" />
<glyph unicode="&#xf1;" horiz-adv-x="1085" d="M47 0v975h307l35 -101q29 66 92.5 93.5t132.5 27.5q90 0 149.5 -44t93.5 -110.5t47.5 -143t13.5 -144.5v-553h-355v555q0 66 -20.5 101.5t-61.5 35.5q-35 0 -57.5 -29.5t-22.5 -107.5v-555h-354zM156 1225q25 55 55.5 100t68 70.5t84 31t99.5 -19.5q27 -12 51.5 -24.5 t48 -16.5t43 6t35.5 47l195 -98q-18 -55 -50 -103.5t-75 -78t-95.5 -33.5t-113.5 31q-20 12 -43 22t-44.5 11t-42 -10t-36.5 -44z" />
<glyph unicode="&#xf2;" horiz-adv-x="1001" d="M4 489q0 98 27.5 190.5t83 162t138 111.5t193.5 42q113 0 196 -42t138.5 -111.5t82 -161.5t26.5 -191q0 -100 -26.5 -191t-81 -161.5t-138.5 -112.5t-197 -42q-115 0 -197.5 42t-137 112.5t-81 161.5t-26.5 191zM152 1380v15h342l135 -273v-20h-273zM360 487 q0 -35 4.5 -69.5t14.5 -62t26 -45t41 -17.5t42.5 17.5t26.5 45t13 62.5t4 69q0 35 -4 70t-14 62.5t-26.5 45t-41.5 17.5t-41 -17.5t-26 -45t-14.5 -62.5t-4.5 -70z" />
<glyph unicode="&#xf3;" horiz-adv-x="995" d="M-2 489q0 98 27.5 190.5t83 162t138 111.5t193.5 42q113 0 196 -42t138 -111.5t82 -161.5t27 -191q0 -100 -27 -191t-81 -161.5t-138 -112.5t-197 -42q-115 0 -197.5 42t-137 112.5t-81 161.5t-26.5 191zM270 1100v20l136 273h342v-15l-205 -278h-273zM354 487 q0 -35 4 -69.5t14.5 -62t26.5 -45t41 -17.5t42.5 17.5t26.5 45t13 62.5t4 69q0 35 -4 70t-14 62.5t-26.5 45t-41.5 17.5t-41 -17.5t-26.5 -45t-14.5 -62.5t-4 -70z" />
<glyph unicode="&#xf4;" horiz-adv-x="995" d="M-2 489q0 98 27.5 190.5t83 162t138 111.5t193.5 42q113 0 196 -42t138 -111.5t82 -161.5t27 -191q0 -100 -27 -191t-81 -161.5t-138 -112.5t-197 -42q-115 0 -197.5 42t-137 112.5t-81 161.5t-26.5 191zM88 1106v14l238 277h217l248 -277v-14h-289l-64 80l-67 -80h-283z M354 487q0 -35 4 -69.5t14.5 -62t26.5 -45t41 -17.5t42.5 17.5t26.5 45t13 62.5t4 69q0 35 -4 70t-14 62.5t-26.5 45t-41.5 17.5t-41 -17.5t-26.5 -45t-14.5 -62.5t-4 -70z" />
<glyph unicode="&#xf5;" horiz-adv-x="999" d="M2 489q0 98 27.5 190.5t83 162t138 111.5t193.5 42q113 0 196 -42t138.5 -111.5t82 -161.5t26.5 -191q0 -100 -26.5 -191t-81 -161.5t-138.5 -112.5t-197 -42q-115 0 -197.5 42t-137 112.5t-81 161.5t-26.5 191zM106 1214q25 55 56 100.5t68.5 71t83.5 30.5t100 -19 q27 -12 51 -24.5t48 -16.5t43 6t36 47l194 -98q-18 -55 -49.5 -103.5t-75 -78t-95.5 -33.5t-113 30q-20 12 -43 22.5t-44.5 11.5t-42 -10t-36.5 -44zM358 487q0 -35 4.5 -69.5t14.5 -62t26 -45t41 -17.5t42.5 17.5t26.5 45t13 62.5t4 69q0 35 -4 70t-14 62.5t-26.5 45 t-41.5 17.5t-41 -17.5t-26 -45t-14.5 -62.5t-4.5 -70z" />
<glyph unicode="&#xf6;" horiz-adv-x="995" d="M-2 489q0 98 27.5 190.5t83 162t138 111.5t193.5 42q113 0 196 -42t138 -111.5t82 -161.5t27 -191q0 -100 -27 -191t-81 -161.5t-138 -112.5t-197 -42q-115 0 -197.5 42t-137 112.5t-81 161.5t-26.5 191zM113 1104v280h278v-280h-278zM354 487q0 -35 4 -69.5t14.5 -62 t26.5 -45t41 -17.5t42.5 17.5t26.5 45t13 62.5t4 69q0 35 -4 70t-14 62.5t-26.5 45t-41.5 17.5t-41 -17.5t-26.5 -45t-14.5 -62.5t-4 -70zM494 1104v280h280v-280h-280z" />
<glyph unicode="&#xf7;" horiz-adv-x="831" d="M-39 532v312h793v-312h-793zM197 180v277h325v-277h-325zM197 922v276h325v-276h-325z" />
<glyph unicode="&#xf8;" horiz-adv-x="1001" d="M4 489q0 98 27.5 190.5t83 162t138.5 111.5t193 42h23l37 105h295v-51l-60 -166q74 -72 111 -175.5t37 -218.5q0 -100 -26.5 -191t-81 -161.5t-138.5 -112.5t-197 -42h-26l-37 -103h-297v45l59 172q-72 72 -106.5 174.5t-34.5 218.5zM360 487q0 -35 4.5 -69.5t14.5 -62 t26 -45t41 -17.5t42.5 17.5t26.5 45t13 62.5t4 69q0 35 -4 70t-14 62.5t-26.5 45t-41.5 17.5t-41 -17.5t-26 -45t-14.5 -62.5t-4.5 -70z" />
<glyph unicode="&#xf9;" horiz-adv-x="1013" d="M45 412v563h354v-565q0 -127 82 -127q35 0 57.5 29.5t22.5 107.5v555h354v-975h-307l-35 100q-29 -66 -92 -93t-133 -27q-90 0 -149.5 41.5t-93 106.5t-47 140.5t-13.5 143.5zM160 1382v15h342l135 -273v-20h-272z" />
<glyph unicode="&#xfa;" horiz-adv-x="1013" d="M45 412v563h354v-565q0 -127 82 -127q35 0 57.5 29.5t22.5 107.5v555h354v-975h-307l-35 100q-29 -66 -92 -93t-133 -27q-90 0 -149.5 41.5t-93 106.5t-47 140.5t-13.5 143.5zM330 1104v20l135 273h342v-15l-205 -278h-272z" />
<glyph unicode="&#xfb;" horiz-adv-x="1013" d="M45 412v563h354v-565q0 -127 82 -127q35 0 57.5 29.5t22.5 107.5v555h354v-975h-307l-35 100q-29 -66 -92 -93t-133 -27q-90 0 -149.5 41.5t-93 106.5t-47 140.5t-13.5 143.5zM113 1104v14l247 281h230l260 -281v-14h-303l-68 80l-69 -80h-297z" />
<glyph unicode="&#xfc;" horiz-adv-x="1013" d="M45 412v563h354v-565q0 -127 82 -127q35 0 57.5 29.5t22.5 107.5v555h354v-975h-307l-35 100q-29 -66 -92 -93t-133 -27q-90 0 -149.5 41.5t-93 106.5t-47 140.5t-13.5 143.5zM98 1102v272h299v-272h-299zM553 1102v272h303v-272h-303z" />
<glyph unicode="&#xfd;" horiz-adv-x="966" d="M-111 950v25h361l121 -313l53 -193h6l53 195l123 311h355v-29l-592 -1405h-351v25l226 538zM258 1104v20l135 273h342v-15l-205 -278h-272z" />
<glyph unicode="&#xfe;" horiz-adv-x="1083" d="M47 -461v1895h352v-537q37 53 89.5 74.5t103.5 21.5q106 0 176 -43t110 -112.5t56 -156.5t16 -175q2 -139 -25.5 -237.5t-75.5 -162t-110.5 -93t-132.5 -29.5q-61 2 -118.5 23.5t-88.5 74.5v-543h-352zM393 488.5q0 -50.5 11.5 -94.5t34 -72.5t55.5 -28.5t55 28.5 t33.5 72.5t12.5 94.5t-10.5 94.5t-33.5 72.5t-57 28.5t-56.5 -28.5t-33 -72.5t-11.5 -94.5z" />
<glyph unicode="&#xff;" horiz-adv-x="966" d="M-111 950v25h361l121 -313l53 -193h6l53 195l123 311h355v-29l-592 -1405h-351v25l226 538zM43 1122v279h297v-279h-297zM504 1122v279h301v-279h-301z" />
<glyph unicode="&#x152;" horiz-adv-x="1818" d="M-49 719q0 164 40 299t121 231.5t202.5 148.5t283.5 52q84 0 162 -16h952v-318h-602v-242h569v-321h-569v-231h602v-322h-952q-39 -8 -90.5 -14t-96.5 -6q-152 0 -267.5 52t-194 148t-119.5 232.5t-41 306.5zM338 719q0 -92 16.5 -170t48 -135.5t77.5 -89t108 -33.5 q39 0 83 5t93 42v762q-43 31 -79 39t-73 8q-66 0 -116 -30t-85.5 -85t-54 -135t-18.5 -178z" />
<glyph unicode="&#x153;" horiz-adv-x="1396" d="M-49 489q0 98 27.5 190.5t83 163t138 112.5t193.5 42q78 0 130 -25.5t106 -74.5q45 47 104.5 73.5t136.5 26.5q119 0 203 -46t134 -128t67.5 -195.5t3.5 -248.5h-485q0 -70 22.5 -95.5t58.5 -25.5q35 0 54.5 21.5t32.5 50.5l276 -80q-31 -129 -120 -199.5t-238 -70.5 q-78 0 -137.5 23.5t-108.5 82.5q-47 -53 -103.5 -79.5t-136.5 -26.5q-115 0 -197.5 41.5t-137 112.5t-81 163t-26.5 192zM303 487q0 -35 5 -69.5t15.5 -62t27.5 -45t42 -17.5t42.5 17.5t26.5 45t13 62.5t4 69q0 35 -4 70t-14 62.5t-26.5 45t-41.5 17.5t-42 -17.5t-27.5 -45 t-15.5 -62.5t-5 -70zM791 610h145q0 63 -21.5 90t-50.5 27t-51 -28.5t-22 -88.5z" />
<glyph unicode="&#x178;" horiz-adv-x="1261" d="M-123 1403v33h422l178 -344l92 -195h4l105 203l172 336h414v-33l-500 -852v-551h-385v551zM201 1536v266h311v-266h-311zM647 1536v266h311v-266h-311z" />
<glyph unicode="&#x2c6;" horiz-adv-x="858" d="M-61 1145v14l274 279h254l287 -279v-14h-336l-74 80l-78 -80h-327z" />
<glyph unicode="&#x2dc;" horiz-adv-x="702" d="M-20 1450q25 55 55.5 100t68 71t83.5 31t100 -20q27 -12 51 -24.5t48 -16.5t43.5 6.5t35.5 47.5l194 -99q-18 -55 -49.5 -103t-74.5 -78t-95.5 -34t-113.5 31q-20 12 -43 22.5t-44.5 11.5t-42 -10.5t-36.5 -44.5z" />
<glyph unicode="&#x2000;" horiz-adv-x="941" />
<glyph unicode="&#x2001;" horiz-adv-x="1883" />
<glyph unicode="&#x2002;" horiz-adv-x="941" />
<glyph unicode="&#x2003;" horiz-adv-x="1883" />
<glyph unicode="&#x2004;" horiz-adv-x="627" />
<glyph unicode="&#x2005;" horiz-adv-x="470" />
<glyph unicode="&#x2006;" horiz-adv-x="313" />
<glyph unicode="&#x2007;" horiz-adv-x="313" />
<glyph unicode="&#x2008;" horiz-adv-x="235" />
<glyph unicode="&#x2009;" horiz-adv-x="376" />
<glyph unicode="&#x200a;" horiz-adv-x="104" />
<glyph unicode="&#x2010;" horiz-adv-x="792" d="M-2 457v309h666v-309h-666z" />
<glyph unicode="&#x2011;" horiz-adv-x="792" d="M-2 457v309h666v-309h-666z" />
<glyph unicode="&#x2012;" horiz-adv-x="792" d="M-2 457v309h666v-309h-666z" />
<glyph unicode="&#x2013;" horiz-adv-x="921" d="M-2 547v301h797v-301h-797z" />
<glyph unicode="&#x2014;" horiz-adv-x="1077" d="M4 549v299h950v-299h-950z" />
<glyph unicode="&#x2018;" horiz-adv-x="512" d="M-18 954l182 484h260l-96 -484h-346z" />
<glyph unicode="&#x2019;" horiz-adv-x="542" d="M2 952l96 484h346l-182 -484h-260z" />
<glyph unicode="&#x201a;" horiz-adv-x="520" d="M-53 -268l96 483h371l-183 -483h-284z" />
<glyph unicode="&#x201c;" horiz-adv-x="921" d="M-18 952l182 484h272l-108 -484h-346zM391 952l166 484h277l-97 -484h-346z" />
<glyph unicode="&#x201d;" horiz-adv-x="952" d="M2 952l96 484h346l-165 -484h-277zM399 952l109 484h346l-182 -484h-273z" />
<glyph unicode="&#x201e;" horiz-adv-x="948" d="M-53 -268l96 483h371l-183 -483h-284zM332 -268l139 483h371l-226 -483h-284z" />
<glyph unicode="&#x2022;" horiz-adv-x="540" d="M-59 694q0 117 69.5 187.5t175.5 70.5q51 0 96.5 -18.5t78 -52t52 -81.5t19.5 -106q0 -59 -19.5 -106t-52 -80t-78 -51.5t-96.5 -18.5q-106 0 -175.5 70t-69.5 186z" />
<glyph unicode="&#x2026;" horiz-adv-x="1345" d="M-4 0v326h352v-326h-352zM432 0v326h352v-326h-352zM870 0v326h353v-326h-353z" />
<glyph unicode="&#x202f;" horiz-adv-x="376" />
<glyph unicode="&#x2039;" horiz-adv-x="694" d="M-16 676l231 457h373l-230 -457l226 -459h-369z" />
<glyph unicode="&#x203a;" horiz-adv-x="704" d="M4 1133h373l231 -457l-231 -459h-369l225 459z" />
<glyph unicode="&#x205f;" horiz-adv-x="470" />
<glyph unicode="&#x20ac;" horiz-adv-x="1351" d="M-10 453v243h653v-243h-164q29 -68 77 -107t122 -39q98 0 153.5 58.5t77.5 160.5l353 -77q-53 -225 -198.5 -353.5t-385.5 -128.5t-389.5 130t-204.5 356h-94zM-10 748v243h92q53 225 201.5 353.5t394.5 128.5q242 0 383 -126t196 -356l-339 -67q-29 94 -84.5 152.5 t-155.5 58.5q-80 0 -127 -39t-74 -105h166v-243h-653z" />
<glyph unicode="&#x2122;" horiz-adv-x="1441" d="M-43 1212v222h530v-222h-133v-403h-266v403h-131zM551 809v627h262l119 -170l117 170h268v-627h-250v321l-70 -149h-129l-71 149v-321h-246z" />
<glyph unicode="&#x25fc;" horiz-adv-x="972" d="M0 0v973h973v-973h-973z" />
<glyph unicode="&#xfb01;" horiz-adv-x="1165" d="M-70 707v268h119v82q0 123 57.5 211t145.5 134t191.5 49t195.5 -46l-64 -287q-16 14 -43.5 23.5t-55 5.5t-48 -26.5t-20.5 -69.5v-76h630v-975h-350v707h-280v-707h-359v707h-119zM688 1081v353h350v-353h-350z" />
<glyph unicode="&#xfb02;" horiz-adv-x="1165" d="M-70 707v268h119v82q0 123 57.5 211t145.5 134t191.5 49t195.5 -46l-64 -287q-16 14 -43.5 23.5t-55 5.5t-48 -26.5t-20.5 -69.5v-76h180v-268h-180v-707h-359v707h-119zM688 0v1434h350v-1434h-350z" />
</font>
</defs>
</svg>
