<?xml version="1.0" standalone="no"?>
<!DOCTYPE svg PUBLIC "-//W3C//DTD SVG 1.1//EN" "http://www.w3.org/Graphics/SVG/1.1/DTD/svg11.dtd" >
<svg xmlns="http://www.w3.org/2000/svg">
<metadata></metadata>
<defs>
<font id="gabriel_sansblack" horiz-adv-x="1658" >
<font-face units-per-em="2048" ascent="1536" descent="-512" />
<missing-glyph horiz-adv-x="495" />
<glyph horiz-adv-x="2048" />
<glyph horiz-adv-x="2048" />
<glyph unicode="&#xd;" horiz-adv-x="2048" />
<glyph unicode=" "  horiz-adv-x="495" />
<glyph unicode="&#x09;" horiz-adv-x="495" />
<glyph unicode="&#xa0;" horiz-adv-x="495" />
<glyph unicode="!" horiz-adv-x="548" d="M47 0v322h359v-322h-359zM47 391v1043h361v-1043h-361z" />
<glyph unicode="&#x22;" horiz-adv-x="737" d="M-37 827v617h320v-617h-320zM362 827v617h316v-617h-316z" />
<glyph unicode="#" horiz-adv-x="1351" d="M-31 375v303h242l25 110h-189v318h250l65 330h334l-63 -330h143l68 330h327l-67 -330h174v-318h-238l-22 -110h180v-303h-242l-73 -375h-330l74 375h-142l-73 -375h-338l76 375h-181zM524 666h181l26 137h-178z" />
<glyph unicode="$" horiz-adv-x="1527" d="M-23 506h385q18 -92 75 -135t124 -60v260q-96 6 -196.5 24.5t-181.5 62.5t-132 124t-51 209q0 125 50 210t130 139.5t180.5 82t200.5 37.5v160h301v-160q96 -12 189.5 -41.5t167 -87t119.5 -145.5t48 -217h-374q-2 59 -43 95t-107 54v-235q113 -10 215.5 -36t179 -75 t121.5 -127t45 -192q0 -100 -40 -179t-106.5 -138.5t-152.5 -97.5t-180 -56l-82 -13v-141h-301v145q-102 12 -203.5 44t-182.5 94.5t-135 159t-63 235.5zM387 1001q0 -59 50 -78.5t124 -25.5v233q-76 -14 -126 -46t-48 -83zM862 311q66 12 119 41t55 84q0 59 -51 87t-123 38 v-250z" />
<glyph unicode="%" horiz-adv-x="1531" d="M-49 1098q0 61 21.5 121.5t63.5 107.5t106.5 76t150.5 29t149.5 -29t106.5 -77t64.5 -107.5t21.5 -120.5q0 -63 -21.5 -124t-64.5 -107t-106.5 -74.5t-149.5 -28.5t-150.5 28.5t-106.5 75.5t-63.5 107.5t-21.5 122.5zM23 -33l993 1493h391l-991 -1493h-393zM215 1098 q0 -29 18.5 -52.5t59.5 -23.5t59.5 23.5t18.5 52.5t-18.5 52.5t-59.5 23.5t-59.5 -24t-18.5 -52zM795 324q0 61 21.5 121.5t63.5 107.5t106.5 75.5t150.5 28.5t149.5 -28.5t106.5 -76.5t64.5 -107.5t21.5 -120.5q0 -63 -21.5 -124t-64.5 -107t-106.5 -74.5t-149.5 -28.5 t-150.5 28.5t-106.5 75.5t-63.5 107.5t-21.5 122.5zM1059 324q0 -29 18.5 -52.5t59.5 -23.5t59 23.5t18 52.5t-18 52t-59 23t-59.5 -23.5t-18.5 -51.5z" />
<glyph unicode="&#x26;" horiz-adv-x="1593" d="M0 469q4 92 63.5 177t165.5 132q-63 51 -87.5 113.5t-24.5 103.5q0 115 47 200t121.5 140.5t167 82t180.5 26.5q104 0 198.5 -24.5t166 -80t113.5 -145.5t46 -221h-336q-4 49 -21.5 79.5t-44 48t-57 23.5t-59.5 6q-78 0 -119 -37.5t-41 -97.5q0 -29 15.5 -50t35.5 -36 l435 -350q2 23 2 59.5v77.5h340q0 -131 -11.5 -217t-40.5 -149l301 -305v-25h-442l-92 78q-90 -59 -188.5 -81t-194.5 -22q-123 0 -239.5 26t-207 83t-143.5 151.5t-49 233.5zM352 471q0 -63 44 -106t105.5 -63.5t129 -18.5t114.5 28l-333 262q-59 -43 -60 -102z" />
<glyph unicode="'" horiz-adv-x="421" d="M2 819v617h315v-617h-315z" />
<glyph unicode="(" horiz-adv-x="708" d="M14 729q0 131 30 262t91.5 256t153.5 237.5t217 205.5l194 -220q-164 -141 -254 -324t-90 -417q0 -229 88 -421.5t254 -334.5l-188 -241q-125 90 -218 207.5t-154.5 248.5t-92.5 269.5t-31 271.5z" />
<glyph unicode=")" horiz-adv-x="765" d="M-55 1470l194 220q125 -92 217.5 -205t153.5 -238t91 -256t30 -262q0 -133 -31 -271.5t-92.5 -269.5t-154.5 -248.5t-218 -207.5l-188 241q166 141 254 334t88 422q0 233 -90 416.5t-254 324.5z" />
<glyph unicode="*" horiz-adv-x="690" d="M-51 1110l67 231l168 -59l-4 164h242l-14 -166l176 63l61 -229l-158 -45l121 -135l-196 -143l-111 145l-111 -152l-192 140l119 145z" />
<glyph unicode="+" horiz-adv-x="950" d="M-14 575v289h278v281h320v-281h280v-289h-280v-284h-320v284h-278z" />
<glyph unicode="," horiz-adv-x="546" d="M-57 -295l116 555h377l-192 -555h-301z" />
<glyph unicode="-" horiz-adv-x="923" d="M4 512v322h791v-322h-791z" />
<glyph unicode="." horiz-adv-x="452" d="M10 0v326h334v-326h-334z" />
<glyph unicode="/" horiz-adv-x="1028" d="M-80 -131l725 1630h359l-725 -1630h-359z" />
<glyph unicode="0" horiz-adv-x="1517" d="M2 709.5q0 136.5 43 267.5t130 233.5t218 165t305 62.5t305.5 -62.5t218.5 -165t130 -233.5t43 -267.5t-44 -267.5t-131 -233.5t-217.5 -164.5t-304.5 -62t-304 62t-217 164.5t-131 233.5t-44 267.5zM385 711.5q0 -103.5 35 -191.5t104.5 -147.5t173.5 -59.5t175 59.5 t106 147.5t35 191.5t-36 191.5t-105.5 147.5t-174.5 59.5q-104 0 -173.5 -59.5t-104.5 -147.5t-35 -191.5z" />
<glyph unicode="1" horiz-adv-x="813" d="M-88 1014l422 418h344v-1432h-352v950l-199 -170z" />
<glyph unicode="2" horiz-adv-x="1449" d="M43 328l766 526q72 51 88 104.5t-10.5 96.5t-89 69.5t-148.5 24.5q-109 -4 -179.5 -60.5t-74.5 -160.5h-352q0 143 43 244.5t122 166t188.5 94t244.5 29.5q106 0 210.5 -14t191.5 -54t149.5 -108.5t85.5 -177.5q20 -96 9 -177t-48 -148.5t-96.5 -123t-134.5 -100.5 l-400 -235l660 8v-332h-1098z" />
<glyph unicode="3" horiz-adv-x="1527" d="M23 541h342q6 -78 42.5 -123t88 -67.5t106.5 -30t96 -7.5q78 0 134.5 13.5t92.5 36t53 50t17 58.5q0 66 -71.5 92.5t-202.5 26.5h-260v301h260q117 0 177 32.5t60 84.5q0 29 -21.5 51t-59 36.5t-87 21.5t-100.5 7q-57 0 -111.5 -11t-97.5 -32.5t-69.5 -55.5t-26.5 -77 h-352q0 150 65.5 247t163.5 152.5t212 77t210 21.5q104 0 219 -21.5t210 -74t155.5 -137.5t58.5 -214q-2 -35 -10 -71.5t-26.5 -70.5t-49.5 -63.5t-78 -50.5q109 -47 154 -121.5t45 -164.5q0 -113 -51 -202t-139.5 -150.5t-204 -94.5t-246.5 -33q-129 0 -253 33 t-222.5 101.5t-159.5 175t-63 254.5z" />
<glyph unicode="4" horiz-adv-x="1492" d="M-35 514l907 916h312v-873h151v-319h-151v-236h-363v236h-723zM455 553h370v375z" />
<glyph unicode="5" horiz-adv-x="1484" d="M27 475h350q0 -47 24.5 -83t66.5 -59.5t94 -35.5t108 -12q57 0 114.5 12t102.5 36.5t72.5 60.5t29.5 85q2 55 -22.5 94t-67.5 64t-100.5 36t-118.5 13q-66 2 -133.5 -4t-130 -20.5t-113.5 -35t-84 -44.5l-160 135l70 717h1118v-322h-817q-2 -20 -3 -34.5t-3 -28t-5 -31 t-5 -45.5q63 16 132.5 25.5t141.5 7.5q119 -2 237.5 -28t213 -85t153 -159.5t58.5 -252.5q0 -143 -62.5 -244.5t-161 -166t-221.5 -94t-241 -29.5q-111 0 -223.5 22.5t-205 82t-150.5 161.5t-58 262z" />
<glyph unicode="6" horiz-adv-x="1507" d="M37 473v461q0 160 78 269.5t201.5 174t275 85t298 1t271.5 -77t197 -147.5l-221 -231q-43 47 -114 77.5t-153 45t-165.5 9.5t-151.5 -31t-112 -72t-44 -115v-64q66 68 140.5 103.5t183.5 39.5q111 4 227.5 -21.5t214 -87t157.5 -160.5t58 -240q-2 -72 -26.5 -145 t-75.5 -138.5t-128.5 -120.5t-186.5 -88q-66 -18 -130.5 -26.5t-128.5 -8.5q-61 0 -125.5 6t-125.5 27q-82 27 -157 71t-132.5 103t-91 135t-33.5 166zM398 481q3 -49 38 -92t102.5 -70.5t163.5 -27.5q104 0 174 28.5t103 72.5t31 94.5t-38 93.5t-106.5 70.5t-173.5 25.5 q-102 -2 -168.5 -31t-97.5 -72t-28 -92z" />
<glyph unicode="7" horiz-adv-x="1357" d="M14 1104v328h1162l98 -234l-795 -1194h-420v16l578 857l170 227h-793z" />
<glyph unicode="8" horiz-adv-x="1546" d="M8 418q-2 41 12.5 89t44 94t73.5 87t104 68q-37 12 -73 38.5t-62.5 62.5t-43 78t-14.5 83q0 141 69.5 229t171 137.5t216.5 66.5t207 17q61 0 134 -7t147.5 -26.5t143 -51t123 -82t86 -120t31.5 -163.5q2 -41 -14 -83t-43 -78t-62.5 -62.5t-72.5 -38.5q57 -27 101 -68 t74 -87t45 -94t13 -89q-4 -94 -37.5 -165t-89 -121t-126 -82t-147.5 -50t-155 -25.5t-147 -7.5h-8q-70 0 -148 7.5t-153.5 25.5t-146.5 50t-126 82t-89 121t-38 165zM393 442q0 -39 28 -67.5t73 -48t102 -29.5t117 -10q61 0 118.5 10t102.5 29.5t72.5 48t27.5 67.5 q0 41 -27.5 72t-72.5 51.5t-102.5 29.5t-118.5 7q-59 2 -116.5 -7t-102.5 -29.5t-73 -51.5t-28 -72zM436 1020q0 -39 23.5 -67.5t62.5 -47t89.5 -28t101.5 -9.5t101 9.5t90 28t63.5 47t23.5 67.5q0 37 -23.5 65.5t-61.5 47t-88 28.5t-105 10q-53 0 -103.5 -10t-88.5 -28.5 t-61.5 -47t-23.5 -65.5z" />
<glyph unicode="9" horiz-adv-x="1562" d="M23 942q2 70 26.5 142.5t75.5 138t128.5 118.5t186.5 86q66 20 130.5 27.5t125.5 7.5t126 -6t126 -26q82 -27 157 -70t131 -101.5t91 -133t35 -164.5v-455q0 -158 -78 -266.5t-200.5 -172t-274.5 -83t-298 -1t-272 75t-196 146.5l221 229q43 -47 114 -77.5t152.5 -44 t164.5 -8.5t150.5 29.5t110.5 70t45 112.5v64q-66 -66 -140.5 -102t-180.5 -40q-111 -4 -227.5 21.5t-214 86t-159 159t-56.5 237.5zM391 948q2 -49 38 -92t105.5 -70.5t172.5 -25.5q102 2 168.5 30.5t97.5 71.5t27.5 91t-38 90t-102.5 70t-164 28q-104 0 -172.5 -29 t-101.5 -72t-31 -92z" />
<glyph unicode=":" horiz-adv-x="493" d="M16 0v344h334v-344h-334zM16 633v344h334v-344h-334z" />
<glyph unicode=";" horiz-adv-x="518" d="M-68 -301l115 547h365l-187 -547h-293zM49 633v344h334v-344h-334z" />
<glyph unicode="&#x3c;" horiz-adv-x="821" d="M-45 608v27l432 424h363v-19l-420 -415l426 -414v-18h-371z" />
<glyph unicode="=" horiz-adv-x="964" d="M6 301v277h852v-277h-852zM6 649v279h852v-279h-852z" />
<glyph unicode="&#x3e;" horiz-adv-x="837" d="M-31 193v18l426 414l-420 415v19h363l432 -424v-27l-430 -415h-371z" />
<glyph unicode="?" horiz-adv-x="1376" d="M2 932q0 152 52 253t138.5 161.5t195 87t218.5 26.5q113 0 228.5 -23.5t210 -80t150.5 -148.5t48 -229q-10 -98 -44 -159.5t-84 -100.5t-116.5 -58.5t-142.5 -31.5q-57 -10 -91 -37t-34 -103v-98h-346v92q0 129 35 206t90 121t123.5 65.5t136.5 37.5h-2q49 12 88 34 t41 73q0 49 -30.5 76.5t-74.5 43t-95.5 18.5t-92.5 3q-49 0 -97 -11t-87 -38t-62.5 -71t-23.5 -109h-332zM385 0v322h352v-322h-352z" />
<glyph unicode="@" horiz-adv-x="1822" d="M2 500q0 201 74 352.5t195.5 252.5t276 151.5t316.5 50.5q178 0 332 -49.5t267.5 -148.5t179 -247.5t65.5 -347.5q0 -244 -100.5 -385t-286.5 -141q-31 0 -63.5 8t-61.5 26.5t-52.5 49t-33.5 75.5q-23 -45 -56.5 -73.5t-69.5 -44t-70.5 -21.5t-59.5 -6q-111 0 -206 36 t-165.5 101.5t-110.5 157.5t-40 203t40 204t110.5 160.5t165.5 104.5t204 35q82 -2 141.5 -39t91.5 -95l13 95l139 -19q-72 51 -166 78t-207 27q-100 0 -202.5 -32t-185.5 -99.5t-135 -172t-52 -247.5q0 -145 52 -249t134 -169.5t182.5 -95t196.5 -29.5q49 0 109.5 14.5 t134.5 61.5l123 -226q-111 -61 -199 -81.5t-174 -20.5q-154 0 -304.5 47t-271 144.5t-195.5 247t-75 356.5zM627 502q0 -45 14 -87t43 -75t72 -52.5t100 -19.5q111 0 168 72t57 172q0 92 -55 158.5t-168 66.5q-57 0 -100 -20.5t-73 -53t-44 -74.5t-14 -87zM1350 246 q25 14 40 57t23 99.5t8 122t-7 124t-23.5 105.5t-40.5 67v-575z" />
<glyph unicode="A" d="M-92 0v27l715 1415h309l717 -1424v-18h-414l-145 285h-635l-146 -285h-401zM614 604h318l-49 101l-107 286l-108 -278z" />
<glyph unicode="B" horiz-adv-x="1492" d="M63 0v1434h777q131 0 225 -36t153 -94q60 -56 88 -128q27 -67 27 -135v-9q-4 -84 -45 -155.5t-125 -112.5q117 -39 178.5 -133t61.5 -201q0 -90 -35 -168t-105.5 -136t-177 -92t-245.5 -34h-777zM451 322h378q92 0 138.5 40.5t46.5 90t-46 90.5t-139 41h-378v-262z M451 905h372q63 0 93 33q27 30 27 65v7q-3 39 -37 71.5t-95 32.5h-360v-209z" />
<glyph unicode="C" horiz-adv-x="1511" d="M-14 721q0 164 57 301t158.5 237.5t243 155.5t309.5 55q104 0 209.5 -24.5t198.5 -80.5t169 -150.5t119 -233.5l-326 -115q-37 82 -81 133.5t-92 80t-98 38.5t-99 10q-127 0 -211 -61t-125 -152.5t-41 -198t42 -197.5t126 -152.5t209 -61.5q49 0 99 8.5t96 35t88 75.5 t77 133l344 -108q-53 -145 -131 -238.5t-170 -148t-194.5 -76t-208.5 -21.5q-168 0 -309.5 56.5t-243 157t-158.5 239.5t-57 303z" />
<glyph unicode="D" horiz-adv-x="1552" d="M45 0v1434h680q162 0 295 -54.5t228 -150.5t147.5 -227.5t52.5 -284.5q0 -154 -52.5 -285t-147.5 -227t-228 -150.5t-295 -54.5h-680zM434 324h291q111 0 185.5 58t112.5 146q37 86 37 184v6q-1 102 -38 189.5t-111.5 146t-185.5 58.5h-291v-788z" />
<glyph unicode="E" horiz-adv-x="1341" d="M57 0v1434h1182v-320h-807v-240h774v-321h-774v-231h807v-322h-1182z" />
<glyph unicode="F" horiz-adv-x="1308" d="M57 0v1434h1180v-324h-793v-250h750v-321h-750v-539h-387z" />
<glyph unicode="G" horiz-adv-x="1613" d="M-8 713q0 166 54 304t154.5 239.5t242 157.5t317.5 56q102 0 201.5 -18t188.5 -66.5t161.5 -130t120.5 -211.5l-324 -116q-31 68 -71 106.5t-86 59t-95 26.5t-96 6q-84 0 -153.5 -30.5t-119 -85t-77 -130t-27.5 -165.5q0 -111 36 -188.5t93 -127t130 -72t146 -22.5 q104 0 190.5 31t133.5 108v103h-461v301h807v-469q-39 -106 -112.5 -183t-169 -127.5t-203 -75t-213.5 -24.5q-168 0 -308.5 54.5t-243 152.5t-159.5 234.5t-57 302.5z" />
<glyph unicode="H" horiz-adv-x="1599" d="M63 0v1434h386v-562h593v562h383v-1434h-383v549h-593v-549h-386z" />
<glyph unicode="I" horiz-adv-x="540" d="M43 0v1434h385v-1434h-385z" />
<glyph unicode="J" horiz-adv-x="1599" d="M12 709h367q0 -129 30.5 -207t80 -121t112 -57.5t125.5 -14.5q66 0 124 24.5t101 73t69 120t26 167.5v422h-572v318h952v-740q0 -156 -49 -287t-139 -226t-220 -149.5t-292 -54.5q-160 0 -291 40t-225 128t-146.5 227.5t-52.5 336.5z" />
<glyph unicode="K" horiz-adv-x="1617" d="M66 0v1434h383v-598l200 215l432 383h488v-25l-699 -635l740 -754v-20h-477l-531 547l-153 -133v-414h-383z" />
<glyph unicode="L" horiz-adv-x="1306" d="M57 0v1434h389v-1098h791v-336h-1180z" />
<glyph unicode="M" horiz-adv-x="1923" d="M70 0v1434h348l483 -639q121 156 245 320.5t243 318.5h342v-1434h-385v799q-86 -113 -172.5 -227.5t-169.5 -221.5h-209l-340 445v-795h-385z" />
<glyph unicode="N" horiz-adv-x="1667" d="M66 0v1434h323l709 -824l20 -28l-4 41v811h375v-1434h-348l-699 827v-827h-376z" />
<glyph unicode="O" horiz-adv-x="1660" d="M4 721q0 186 66.5 326.5t175 234.5t248 141t285 47t284.5 -47t247.5 -140t175 -234.5t66.5 -327.5q0 -188 -66.5 -330.5t-175 -237t-247.5 -141.5t-284.5 -47t-285 47t-248 141.5t-175 237t-66.5 330.5zM393 721q0 -139 57.5 -231.5t142.5 -138.5t185.5 -46t185.5 46 t142 138.5t57 231.5q0 137 -57 228t-142 137.5t-185.5 46.5t-185.5 -46.5t-142.5 -137.5t-57.5 -228z" />
<glyph unicode="P" horiz-adv-x="1458" d="M59 0v1434h715q129 0 237.5 -31t188.5 -93.5t124 -157.5t44 -224q0 -133 -48 -231.5t-130 -162t-190.5 -94t-229.5 -30.5h-328v-410h-383zM442 723h330q53 0 93 18.5t66.5 46t40 63.5t13.5 73t-13.5 70.5t-39 59t-65.5 42t-93 16.5h-332v-389z" />
<glyph unicode="Q" horiz-adv-x="1685" d="M6 719q0 164 57.5 301t159 236.5t242.5 154.5t311 55q166 0 308.5 -53t247 -150.5t163.5 -235.5q57 -133 57 -295v-11q0 -115 -31.5 -238t-107.5 -211l264 -270v-10h-420l-67 69q-39 -27 -92.5 -45t-109.5 -29.5t-111.5 -16.5t-100.5 -5q-170 0 -311 55.5t-242.5 155.5 t-159 238.5t-57.5 304.5zM395 719q0 -90 28 -166t78 -131t119.5 -86t153.5 -31q80 0 148 27l-304 307v12h422l101 -102q14 31 21 83q5 40 5 69v16q-4 104 -37.5 182t-88 130t-123 78t-140.5 26t-141.5 -27t-122.5 -79t-86 -129t-33 -179z" />
<glyph unicode="R" horiz-adv-x="1480" d="M63 0v1434h746q47 0 100.5 -6.5t107.5 -19.5t107.5 -36.5t98.5 -60.5q82 -66 125 -163t43 -196q0 -78 -26 -151.5t-73 -134t-111.5 -103.5t-142.5 -59l389 -490v-14h-446l-356 481h-179v-481h-383zM446 793h371q63 0 105.5 23.5t63 59t20.5 76.5t-21.5 77t-66 59.5 t-109.5 23.5h-363v-319z" />
<glyph unicode="S" horiz-adv-x="1527" d="M-23 506h385q14 -72 53.5 -114t89.5 -62.5t105.5 -26.5t104.5 -6q31 0 85 5t106 19.5t91 42t39 72.5q0 55 -47 84t-112.5 39t-135 10h-112.5q-100 4 -211 18.5t-204 57.5t-153.5 124t-60.5 222q0 143 65.5 235.5t166 144.5t220 73.5t228.5 23.5h23q103 0 213 -16 q124 -18 227.5 -72.5t172 -153t70.5 -257.5h-374q0 45 -27 77.5t-71 54t-102 31t-122 9.5q-57 0 -111.5 -8.5t-97.5 -24.5t-68.5 -43t-25.5 -64t20.5 -57t55.5 -30.5t79 -14.5t93 -6q147 -2 288.5 -17.5t252 -61.5t179 -132t68.5 -229q0 -100 -40 -179t-106.5 -138.5 t-152.5 -97.5t-180 -56q-90 -18 -225 -19q-117 0 -243 22.5t-232.5 82t-180 166t-86.5 272.5z" />
<glyph unicode="T" horiz-adv-x="1415" d="M-51 1112v322h1413v-322h-514v-1112h-385v1112h-514z" />
<glyph unicode="U" horiz-adv-x="1734" d="M63 752v682h386v-682q0 -115 30.5 -200t79.5 -141.5t112.5 -86t129.5 -29.5t130 27.5t114.5 85t82 143.5t31.5 201v682h383v-682q0 -197 -63.5 -345.5t-167 -247t-236.5 -147.5t-270 -49q-139 0 -272.5 49t-238 147.5t-168 247t-63.5 345.5z" />
<glyph unicode="V" horiz-adv-x="1705" d="M-92 1409v25h418l325 -662l140 -328l139 328l325 662h418v-25l-721 -1417h-323z" />
<glyph unicode="W" horiz-adv-x="2586" d="M-57 1405v33h403l309 -715l90 -238l101 248l235 502h273l231 -490l113 -262l96 265l293 690h410v-21l-635 -1421h-318l-327 678l-318 -678h-324z" />
<glyph unicode="X" horiz-adv-x="1558" d="M-111 0v16l617 701l-586 700v17h455l362 -449q90 111 181.5 226.5t177.5 222.5h458v-19l-583 -698q70 -82 150.5 -173t163.5 -183.5t163 -182.5t149 -168v-10h-454l-406 463l-407 -463h-441z" />
<glyph unicode="Y" horiz-adv-x="1576" d="M-123 1417v17h440l410 -543l408 543h442v-19l-657 -858v-557h-385v557z" />
<glyph unicode="Z" horiz-adv-x="1454" d="M-57 268l659 633l240 209l-830 -2v326h1297l92 -258l-666 -635l-260 -217l907 4v-328h-1333z" />
<glyph unicode="[" horiz-adv-x="638" d="M51 -297v2046h574v-297h-219v-1436h219v-313h-574z" />
<glyph unicode="\" horiz-adv-x="1026" d="M-82 1499h371l729 -1620h-371z" />
<glyph unicode="]" horiz-adv-x="755" d="M-27 16h220v1436h-220v297h574v-2046h-574v313z" />
<glyph unicode="^" horiz-adv-x="1171" d="M-78 662v18l494 760h207l514 -760v-18h-387l-132 200l-96 176l-98 -176l-125 -200h-377z" />
<glyph unicode="_" horiz-adv-x="985" d="M-53 -16h979v-301h-979v301z" />
<glyph unicode="`" horiz-adv-x="485" d="M-43 1419v15h342l166 -326v-21h-270z" />
<glyph unicode="a" horiz-adv-x="1150" d="M-4 324q0 92 42 151.5t107.5 94t146.5 48t159 13.5h172q-4 49 -48.5 73.5t-105.5 24.5t-131 -21.5t-123 -64.5l-160 191q59 68 151 108q94 42 198 54q45 5 89 5q59 1 119 -9q104 -16 187.5 -62.5t135.5 -123.5t52 -185v-379l17 -242h-271l-47 117q-43 -73 -120 -103 q-72 -29 -156 -28h-11q-72 0 -144.5 17t-129.5 57t-93 104.5t-36 159.5zM378 280q26 -22 79 -22q31 0 61.5 9t55 25.5t41 42t16.5 60.5h-180q-49 1 -75 -21q-25 -21 -25 -46q0 -26 27 -48z" />
<glyph unicode="b" horiz-adv-x="1273" d="M47 0v1434h354v-557q57 59 126 82.5t137 23.5q119 0 208 -41t148 -109.5t90 -155.5t31 -179v-12q0 -90 -29 -176q-31 -92 -94.5 -164t-157.5 -115t-221 -43q-78 0 -151.5 28.5t-118.5 100.5l-37 -117h-285zM391 481q0 -78 54.5 -131t146.5 -53q49 0 86 17.5t61.5 44 t36.5 60.5t12 68q0 35 -12 70t-36.5 61.5t-61.5 43t-86 16.5q-96 0 -150 -56q-52 -54 -51 -135v-6z" />
<glyph unicode="c" horiz-adv-x="1077" d="M-14 485q0 115 36.5 209t104.5 161t163 103.5t212 36.5q193 0 316.5 -83t162.5 -277l-299 -64q-29 66 -73 89.5t-95 23.5q-68 0 -122 -50t-54 -149q0 -47 15.5 -83.5t41 -61.5t58 -37t67.5 -12q53 2 100.5 29.5t63.5 93.5l307 -54q-20 -106 -69.5 -178.5t-116 -117 t-145 -62.5t-154.5 -18q-113 0 -208 35.5t-165 102t-108.5 159t-38.5 204.5z" />
<glyph unicode="d" horiz-adv-x="1263" d="M0 498q0 92 30.5 179t90 155.5t148.5 109.5t208 41q68 0 136.5 -23.5t125.5 -82.5v557h355v-1434h-285l-37 117q-45 -72 -118.5 -100.5t-151.5 -28.5q-127 0 -221.5 43t-158.5 115q-64 73 -94 164q-29 85 -28 176v12zM352 487q0 -35 12.5 -68.5t37 -60t61.5 -44t86 -17.5 q92 0 146.5 53t54.5 131v6q0 81 -52 135q-54 56 -149 56q-49 0 -86 -16.5t-61.5 -43t-37 -61.5t-12.5 -70z" />
<glyph unicode="e" horiz-adv-x="1161" d="M-8 496q0 94 32.5 183t98 158.5t164 112.5t231.5 43q213 0 339 -107.5t161 -279.5q11 -53 11 -107v-9q-1 -58 -11 -113h-670q12 -57 57.5 -88t99.5 -35q9 -1 18 -1q45 -1 89 17q52 20 78 64l275 -107q-66 -135 -181.5 -190t-259.5 -55q-113 0 -210 35.5t-168.5 102 t-112.5 162t-41 214.5zM344 608h348q-16 61 -65 91t-104.5 30t-106.5 -29.5t-72 -91.5z" />
<glyph unicode="f" horiz-adv-x="860" d="M-68 696v279h172v82q0 106 42 182t107.5 123t149.5 66q64 15 128 15l40 -1q84 -6 160 -35t129 -80l-141 -240q-25 27 -69 41q-36 13 -72 13q-8 0 -15 -1q-43 -3 -74.5 -26.5t-31.5 -71.5v-67h297v-279h-297v-696h-353v696h-172z" />
<glyph unicode="g" horiz-adv-x="1218" d="M22 354q37 52 103 66q-47 35 -65.5 94.5t-18.5 112.5q2 100 45 170.5t115.5 113.5t168.5 61q87 15 180 15h21l420 -6l117 -2v-219h-55l-66 4q59 -39 86 -102q20 -47 20 -96q0 -18 -3 -36q-12 -90 -63.5 -147t-123.5 -89t-158 -43t-172 -11q-76 0 -133 12t-123 16 q-37 2 -53 -12t-15 -31.5t14 -33t34 -15.5h268q88 0 191.5 -6t192.5 -37t148.5 -94.5t59.5 -179.5q0 -119 -54 -192t-138 -111.5t-186.5 -52t-198.5 -13.5q-121 0 -228.5 16.5t-189.5 56.5t-129 106.5t-47 164.5q2 78 45 134.5t119 78.5q-90 18 -129 75q-38 55 -38 114 q0 64 39 118zM332 -145q8 -43 69.5 -72t161.5 -29q121 0 183 29q59 27 59 70v6q-2 37 -44 65.5t-132 28.5q-59 0 -120 -1t-120 -1q-59 -23 -59 -75q0 -10 2 -21zM397 609q0 -36 18.5 -65.5t57.5 -50t96 -20.5t95 20.5t55.5 50t17.5 65.5t-19.5 66t-57.5 50t-93 20t-93 -20 t-57.5 -50t-19.5 -66z" />
<glyph unicode="h" horiz-adv-x="1228" d="M47 0v1434h354v-557q45 66 114 89t140 23q113 0 190 -35.5t125 -99t69.5 -151t21.5 -187.5v-516h-356v518q0 51 -11.5 83t-31 50.5t-46 25.5t-53.5 7q-31 0 -59.5 -10t-51 -31.5t-37 -56.5t-14.5 -86v-500h-354z" />
<glyph unicode="i" horiz-adv-x="487" d="M27 0v975h350v-975h-350zM27 1081v351h350v-351h-350z" />
<glyph unicode="j" horiz-adv-x="475" d="M-352 -334l139 246q35 -27 75 -37q21 -5 40 -5q18 0 34 4q33 9 55.5 42t22.5 94v965h355v-963q0 -176 -72 -283.5t-179 -150.5q-71 -28 -150 -28q-41 0 -84 8q-126 22 -236 108zM14 1081v351h351v-351h-351z" />
<glyph unicode="k" horiz-adv-x="1157" d="M47 0v1432h350v-760l133 166l148 137h438v-31l-448 -416l462 -508v-20h-409l-295 319l-27 -24v-295h-352z" />
<glyph unicode="l" horiz-adv-x="483" d="M27 0v1432h352v-1432h-352z" />
<glyph unicode="m" horiz-adv-x="1757" d="M63 0v975h291l27 -103q37 63 109 91q63 25 129 25q10 0 19 -1q77 -4 142.5 -38t89.5 -91q39 57 109 90q69 33 151 39q18 1 36 1q64 0 131 -16q85 -22 155 -76t114 -142t44 -211v-543h-353v514q0 31 -4 62.5t-16 55.5q-11 26 -35 40q-21 13 -54 12h-9q-68 -2 -99.5 -46 t-31.5 -124v-514h-338v514q0 29 -5.5 59.5t-18.5 56t-36.5 42t-60.5 14.5q-78 -2 -104.5 -54t-26.5 -128v-504h-355z" />
<glyph unicode="n" horiz-adv-x="1226" d="M47 0v975h320l34 -98q43 66 112 89t140 23q113 0 191 -35.5t125 -99t68.5 -151t21.5 -187.5v-516h-354v518q0 51 -11.5 83t-31 50.5t-46 25.5t-53.5 7q-31 0 -59.5 -10t-51 -31.5t-37 -56.5t-14.5 -86v-500h-354z" />
<glyph unicode="o" horiz-adv-x="1193" d="M4 492q0 111 41 203.5t112.5 159.5t171 103.5t216.5 36.5q115 0 213 -36.5t169.5 -103.5t112.5 -160t41 -203q0 -113 -41 -206t-112.5 -161t-169.5 -104.5t-213 -36.5q-117 0 -216.5 36.5t-171 104.5t-112.5 161t-41 206zM354 492q0 -86 53.5 -141.5t137.5 -55.5 q82 0 134 55.5t52 141.5t-52 139t-134 53q-84 0 -137.5 -53t-53.5 -139z" />
<glyph unicode="p" horiz-adv-x="1275" d="M47 -444v1419h285l37 -119q45 72 119.5 100.5t150.5 28.5q127 0 222 -43t157.5 -115.5t93.5 -165t31 -186.5q-2 -92 -33 -179t-90 -154.5t-148.5 -109.5t-207.5 -42q-66 0 -135.5 20.5t-127.5 79.5v-534h-354zM391 494v-6q0 -80 51 -134q54 -57 150 -57q49 0 86 16.5 t61.5 43t36.5 61.5t12 69q0 33 -12 68t-36.5 61.5t-61.5 44t-86 17.5q-92 0 -146.5 -53.5t-54.5 -130.5z" />
<glyph unicode="q" horiz-adv-x="1263" d="M-2 475q0 94 30.5 186.5t93 165t158 115.5t222.5 43q76 0 150.5 -28.5t119.5 -100.5l35 119h287v-1419h-355v540q-27 -37 -58.5 -57.5t-65 -31.5t-69.5 -14t-69 -3q-119 0 -208 42t-149.5 109.5t-91 154.5t-30.5 179zM352 487q0 -35 12.5 -69.5t37 -61t61.5 -43t86 -16.5 q94 0 149 57q52 54 52 134v6q0 78 -54.5 131t-146.5 53q-49 0 -86 -17.5t-61.5 -44t-37 -61.5t-12.5 -68z" />
<glyph unicode="r" horiz-adv-x="913" d="M41 0v979h285l34 -109q45 74 123 107q72 30 147 30h14q83 -3 158 -37t116 -93l-166 -256q-46 45 -108 59q-28 6 -54 6q-32 0 -64 -10q-56 -18 -95.5 -70.5t-39.5 -142.5v-463h-350z" />
<glyph unicode="s" horiz-adv-x="1105" d="M-6 332h350q0 -47 48 -69.5t106 -24.5h11q50 0 93 15q47 17 47 52q0 37 -56 47t-136 17q-72 6 -153 16t-147.5 39t-109.5 83q-41 52 -41 142v8q0 96 47 162t119 105t157 55t163 16t163.5 -13t156.5 -50t117 -103.5t46 -173.5h-340q0 39 -43 58.5t-94.5 19.5t-94.5 -17.5 t-43 -53.5q0 -16 16.5 -26.5t41 -16t55.5 -6.5t62 -1q88 0 174 -13t152.5 -49t106.5 -98q38 -60 38 -152v-9q-2 -84 -47.5 -143.5t-117 -97.5t-163.5 -55.5t-186 -17.5t-183.5 19.5t-159 62.5t-112.5 110t-43 163z" />
<glyph unicode="t" horiz-adv-x="874" d="M-39 696v279h160v452h350v-452h309v-279h-309v-282v-8q1 -53 27 -80q28 -29 70 -35q15 -2 30 -2q28 0 60 7q48 11 83 30l101 -256q-80 -53 -155 -69.5t-128 -16.5q-215 2 -326.5 110.5t-111.5 319.5v282h-160z" />
<glyph unicode="u" horiz-adv-x="1210" d="M45 457v518h356v-520q0 -51 11.5 -83t31 -49.5t45 -24.5t54.5 -7q31 0 59.5 9t51 30.5t37 56.5t14.5 88v500h354v-975h-322l-32 96q-43 -63 -113 -86.5t-141 -25.5q-113 0 -190 35.5t-125 99t-69.5 149.5t-21.5 189z" />
<glyph unicode="v" horiz-adv-x="1226" d="M-88 946v29h379l172 -344l92 -238l90 238l172 344h379v-29l-500 -948h-284z" />
<glyph unicode="w" horiz-adv-x="1765" d="M-82 948v27h375l147 -326l90 -260l185 471h246l182 -469l94 262l145 322h375v-27l-444 -952h-309l-168 350l-164 -350h-310z" />
<glyph unicode="x" horiz-adv-x="1146" d="M-94 0v14l389 480l-363 452v29h410l100 -146l95 -161l100 170l98 137h406v-29l-361 -452l389 -480v-14h-413l-109 137l-110 170l-113 -174l-105 -133h-413z" />
<glyph unicode="y" horiz-adv-x="1218" d="M-111 965v10h398l164 -316l108 -225l113 240l157 301h383v-21l-755 -1396h-375v24l287 531z" />
<glyph unicode="z" horiz-adv-x="1050" d="M-39 213l295 283l215 180h-465v299h877l100 -230l-287 -266l-209 -182h490v-297h-889z" />
<glyph unicode="{" horiz-adv-x="727" d="M35 551v332q39 0 64.5 9t39 24.5t18.5 33t5 35.5v340q0 98 30.5 179t96 139.5t166 91t241.5 32.5v-315q-104 0 -144 -26.5t-40 -100.5v-340q0 -76 -36 -153.5t-101 -116.5q84 -51 110.5 -122t26.5 -144v-355q0 -31 7 -55.5t26.5 -39.5t54.5 -23.5t90 -8.5v-323 q-137 0 -237.5 32.5t-165 93t-95 143.5t-30.5 181v355q0 18 -5 35.5t-18.5 32.5t-39 24.5t-64.5 9.5z" />
<glyph unicode="|" horiz-adv-x="614" d="M80 -154v1762h348v-1762h-348z" />
<glyph unicode="}" horiz-adv-x="694" d="M-55 1452v315q141 0 241.5 -32.5t166 -91t96 -139.5t30.5 -179v-340q0 -18 5 -35.5t18.5 -33t38 -24.5t65.5 -9v-332q-41 0 -65.5 -9.5t-38 -24.5t-18.5 -32.5t-5 -35.5v-355q0 -98 -30.5 -181t-95 -143.5t-165 -93t-237.5 -32.5v323q55 0 90 8.5t54.5 23.5t26.5 39.5 t7 55.5v355q0 74 26.5 144.5t110.5 121.5q-66 39 -101.5 116.5t-35.5 153.5v340q0 74 -40 100.5t-144 26.5z" />
<glyph unicode="~" horiz-adv-x="1075" d="M-35 518q27 88 68 147.5t89 95.5t101 50t105 14q49 0 92 -19.5t81 -43t70.5 -44t63.5 -22.5t61.5 21.5t61.5 89.5l258 -96q-25 -68 -61.5 -127.5t-84 -102.5t-102.5 -66.5t-117 -23.5q-51 0 -96 19.5t-85 44t-77 45t-69.5 22.5t-62.5 -20.5t-58 -85.5z" />
<glyph unicode="&#xa1;" horiz-adv-x="581" d="M47 -461v1043h361v-1043h-361zM49 651v322h359v-322h-359z" />
<glyph unicode="&#xa2;" horiz-adv-x="1077" d="M-14 485q0 100 27.5 184.5t79.5 149t127 107.5t167 59v156h238v-156q141 -23 232 -105.5t124 -244.5l-299 -64q-25 53 -57 80v-329q20 16 35.5 37.5t23.5 54.5l307 -54q-16 -86 -52 -149.5t-85 -107.5t-108.5 -69.5t-120.5 -37.5v-162h-238v162q-90 16 -163.5 59 t-126 105.5t-82 145.5t-29.5 179zM319 485q0 -51 18.5 -90t49.5 -63v313q-68 -49 -68 -160z" />
<glyph unicode="&#xa3;" horiz-adv-x="1415" d="M-14 541v262h110q-4 18 -9 41.5t-8 49.5t-5 49.5t-2 39.5q2 123 58 210t144 143.5t194.5 82t209.5 25.5q106 0 211.5 -25.5t191.5 -87t142.5 -164t62.5 -254.5h-315q-4 129 -82 186.5t-201 57.5q-127 0 -191.5 -53t-66.5 -125q-2 -29 6 -78t31 -98h461v-262h-389 q0 -20 -3.5 -49t-10.5 -57.5t-21.5 -56.5t-34.5 -44q74 16 140.5 17t144.5 -23q68 -18 118 -30.5t93 -8.5t85 27.5t91 74.5l184 -225q-94 -98 -201.5 -145.5t-189.5 -47.5q-63 0 -123.5 14.5t-120 31t-118 30.5t-119.5 14q-41 0 -97.5 -23.5t-138.5 -88.5l-192 242 q59 41 93 87t50 91t20.5 89t4.5 81h-207z" />
<glyph unicode="&#xa4;" horiz-adv-x="1052" d="M-66 344l119 119q-35 80 -35 158q0 86 39 176l-123 118l248 248l123 -125q74 25 158 25q43 0 83 -7t79 -20l127 127l245 -248l-116 -116q20 -47 26 -87t6 -87q0 -88 -30 -164l114 -117l-243 -244l-125 123q-35 -10 -77 -17t-81 -7q-45 0 -86 7t-80 19l-123 -127zM317 631 q0 -61 40 -109.5t108 -48.5q72 0 108.5 48t36.5 110q0 59 -36.5 108t-108.5 49q-35 0 -61.5 -13t-46 -35.5t-30 -51.5t-10.5 -57z" />
<glyph unicode="&#xa5;" horiz-adv-x="1576" d="M-123 1417v17h440l263 -349l147 -235l160 254l248 330h442v-19l-461 -602h131v-278h-327v-54h327v-276h-327v-205h-385v205h-340v276h340v54h-340v278h143z" />
<glyph unicode="&#xa6;" horiz-adv-x="524" d="M47 -180v776h346v-776h-346zM47 672v768h346v-768h-346z" />
<glyph unicode="&#xa7;" horiz-adv-x="1159" d="M16 332h351q0 -47 48 -69.5t105.5 -24.5t104.5 15t47 52q0 29 -33 44.5t-119 15.5q-61 0 -121.5 3t-117 17t-105.5 43t-84 80q-29 41 -38 93t-1 102.5t33 91.5t66 59q-47 18 -83 70.5t-34 117.5q0 96 47 162t118.5 105t156.5 55t163 16t164 -13t156.5 -50t117 -103.5 t46.5 -173.5h-340q0 39 -43 58.5t-94.5 19.5t-94.5 -17.5t-43 -53.5q0 -16 16.5 -26.5t41 -16t55 -6.5t61.5 -1q88 0 174 -13t152.5 -49t106.5 -98.5t38 -160.5q-2 -55 -33.5 -101.5t-89.5 -74.5q66 -41 92.5 -91.5t24.5 -117.5q-2 -84 -47 -143.5t-116.5 -97.5t-164 -55.5 t-186.5 -17.5t-183 19.5t-159 62.5t-113 110t-43 163zM375 676q0 -43 48 -65.5t105.5 -22.5t105.5 22.5t48 65.5t-48 64.5t-105.5 21.5t-105.5 -21.5t-48 -64.5z" />
<glyph unicode="&#xa8;" horiz-adv-x="921" d="M-31 1147v289h346v-289h-346zM471 1147v289h346v-289h-346z" />
<glyph unicode="&#xa9;" horiz-adv-x="1605" d="M31 700q0 135 46 267.5t139 235t232.5 166t325.5 63.5t325.5 -63.5t232.5 -166t140.5 -234.5t47.5 -268q0 -137 -47.5 -268t-140.5 -233.5t-232.5 -165t-325.5 -62.5t-325.5 62.5t-232.5 165t-139 233.5t-46 268zM268 700q0 -98 32 -191t94.5 -166t157.5 -118t222 -45 q125 0 220.5 45t160 118t96 166t31.5 191t-31.5 191.5t-96 167.5t-160 119t-220.5 45q-127 0 -222 -45t-157.5 -119t-94.5 -167t-32 -192zM360 700q0 98 36 177t95.5 134.5t135 86t157.5 30.5q57 0 115.5 -14t110 -45t92.5 -78t65 -112l-172 -82q-23 39 -49 61.5t-53 34.5 t-53.5 15t-46.5 3q-37 0 -73 -15t-63.5 -43t-44 -66.5t-16.5 -86.5q0 -47 16.5 -84.5t43 -65.5t62.5 -42t73 -14q47 0 96 23.5t96 100.5l182 -92q-70 -131 -170 -191.5t-202 -60.5q-82 0 -160 31t-138.5 86t-97.5 134t-37 175z" />
<glyph unicode="&#xaa;" horiz-adv-x="782" d="M10 993q0 61 28 102.5t73 65t99 32.5t107 9h117q-2 29 -31.5 44.5t-71.5 16.5t-89 -13.5t-84 -43.5l-107 133q41 45 103.5 73t132 36t140.5 -3t127 -43t92 -83t36 -125v-256l10 -164h-182l-33 78q-29 -47 -81 -68.5t-113 -19.5q-49 0 -97.5 12t-87.5 39t-63.5 71 t-24.5 107zM250 995.5q0 -18.5 18.5 -33t53.5 -14.5q41 0 79.5 23.5t38.5 70.5h-123q-35 0 -51 -14t-16 -32.5z" />
<glyph unicode="&#xab;" horiz-adv-x="1157" d="M-33 614l287 457h371l-285 -457l283 -458h-369zM422 614l287 457h370l-284 -457l282 -458h-368z" />
<glyph unicode="&#xac;" horiz-adv-x="958" d="M-8 578v282h839v-528h-309v246h-530z" />
<glyph unicode="&#xad;" horiz-adv-x="923" d="M4 512v322h791v-322h-791z" />
<glyph unicode="&#xae;" horiz-adv-x="1611" d="M33 694q0 137 46 268.5t139 234.5t232.5 166.5t327.5 63.5q186 0 326.5 -63.5t235 -166.5t140.5 -234.5t46 -268.5t-46 -268t-140.5 -234.5t-235 -166t-326.5 -62.5q-188 0 -327.5 62.5t-232.5 166t-139 234.5t-46 268zM270 694q0 -98 32 -192t95.5 -168t158.5 -119 t222 -45t223.5 45t161 119t96 168t31.5 192t-31.5 192.5t-96 169t-161 120t-223.5 45.5q-135 0 -231 -45.5t-157.5 -120t-90.5 -168.5t-29 -193zM469 324v778h358q61 0 119 -13.5t101 -43t69.5 -77.5t26.5 -118q0 -88 -51.5 -152.5t-124.5 -93.5l184 -246l-31 -34h-196 l-191 266h-43v-266h-221zM690 766h137q45 0 68 22.5t21.5 48t-25 48t-66.5 22.5h-135v-141z" />
<glyph unicode="&#xb0;" horiz-adv-x="565" d="M-10 1219q0 59 21.5 104t57 74.5t82 45t93.5 15.5t92 -15.5t81 -45t57.5 -74.5t21.5 -104t-21.5 -104.5t-57.5 -75t-82 -45t-93 -15.5t-93.5 15.5t-81 45t-56 75t-21.5 104.5zM182 1217.5q0 -21.5 14.5 -39t45.5 -17.5t45 17.5t14 39t-14 39t-43 17.5q-31 0 -46.5 -17.5 t-15.5 -39z" />
<glyph unicode="&#xb1;" horiz-adv-x="921" d="M-25 -4v301h865v-301h-865zM-25 631v305h269v272h323v-272h273v-305h-273v-277h-323v277h-269z" />
<glyph unicode="&#xb2;" horiz-adv-x="825" d="M0 866l401 273q39 25 55.5 43t16.5 35q0 31 -33.5 41t-64.5 10q-23 0 -45.5 -3t-41 -13.5t-30.5 -28t-12 -43.5h-228q4 80 33 135t77 89t110.5 49t136.5 15q63 0 126.5 -15t115 -47t84 -80t32.5 -114q0 -74 -46 -127t-105 -94l-140 -67l283 6v-217h-662z" />
<glyph unicode="&#xb3;" horiz-adv-x="876" d="M18 1081h232q4 -57 51 -76.5t109 -19.5q47 0 88 12.5t41 38.5q0 23 -34 37t-114 14h-88v177h88q139 -4 139 41q0 23 -33.5 37t-99.5 14q-25 0 -50 -3t-46.5 -12.5t-35 -26t-13.5 -42.5h-225q0 76 33.5 128t86 85t117 46t123.5 13q66 0 133.5 -9t122.5 -33.5t91 -68.5 t38 -112q2 -43 -26.5 -83t-77.5 -58q53 -18 86.5 -58.5t33.5 -89.5q0 -84 -40.5 -134t-102 -77.5t-132.5 -35t-132 -5.5q-55 2 -118.5 17.5t-117 50.5t-89.5 92t-38 141z" />
<glyph unicode="&#xb4;" horiz-adv-x="489" d="M-51 1087v21l166 326h342v-15l-238 -332h-270z" />
<glyph unicode="&#xb6;" horiz-adv-x="1597" d="M-12 897q0 100 34.5 196.5t105.5 172t174.5 122t242.5 46.5h983v-310h-170v-1566h-350v1566h-234v-1566h-352v817q-109 20 -190.5 71.5t-136 122t-81 155.5t-26.5 173z" />
<glyph unicode="&#xb7;" horiz-adv-x="432" d="M-10 559v318h332v-318h-332z" />
<glyph unicode="&#xb8;" horiz-adv-x="782" d="M-10 -291l153 141q25 -35 64 -51t65 -16q35 0 52.5 16.5t16.5 36t-18.5 35.5t-52.5 16q-14 0 -31.5 -4t-37.5 -16l-82 57l71 207h250l-32 -104q61 -6 104 -31t67.5 -60.5t31.5 -77.5t-3 -83q-12 -57 -44 -99.5t-75 -70t-95 -39.5t-105 -12q-94 2 -173 39.5t-126 115.5z " />
<glyph unicode="&#xb9;" horiz-adv-x="581" d="M-31 1241l244 211h258v-733h-252v459l-119 -88z" />
<glyph unicode="&#xba;" horiz-adv-x="737" d="M-10 1106q0 70 20.5 134.5t62.5 114.5t105.5 79.5t149.5 29.5q84 0 147.5 -30.5t106.5 -82t64.5 -114.5t21.5 -131t-21.5 -132.5t-64.5 -114.5t-106.5 -80.5t-147.5 -30.5q-86 0 -149.5 30.5t-105.5 80.5t-62.5 114.5t-20.5 132.5zM227 1106q0 -53 25 -96t76 -43 q47 0 72.5 43t25.5 96t-25.5 96t-72.5 43q-51 0 -76 -43t-25 -96z" />
<glyph unicode="&#xbb;" horiz-adv-x="1210" d="M-18 1071h370l287 -457l-287 -458h-368l282 458zM436 1071h371l287 -457l-287 -458h-369l283 458z" />
<glyph unicode="&#xbc;" horiz-adv-x="1552" d="M-20 1208l243 211h258v-733h-252v459l-104 -84zM33 -72l1093 1538h306l-1094 -1538h-305zM680 98v158l483 483h191v-440h92v-201h-92v-98h-234v98h-440zM983 293h143v141z" />
<glyph unicode="&#xbd;" horiz-adv-x="1703" d="M-2 1200l244 211h258v-733h-252v459l-105 -84zM12 -70l1080 1520h319l-1081 -1520h-318zM842 156l401 272q39 25 55.5 43t16.5 35q0 31 -34 41t-64 10q-23 0 -45.5 -3t-41 -13.5t-31 -27.5t-12.5 -44h-227q4 80 33 135t77 89t110.5 49.5t136.5 15.5q63 0 126.5 -15.5 t114.5 -47t84 -80t33 -113.5q0 -74 -46 -127t-106 -94l-139 -68l283 6v-217h-662z" />
<glyph unicode="&#xbe;" d="M-6 995h231q4 -57 51.5 -76.5t108.5 -19.5q47 0 88 12.5t41 38.5q0 23 -34 37t-113 14h-88v177h88q139 -4 139 41q0 23 -34 37t-99 14q-25 0 -50.5 -3t-47 -12.5t-35 -26t-13.5 -42.5h-225q0 76 34 128t86 85t116.5 46t123.5 13q66 0 133.5 -9t123 -33.5t91 -68.5 t38.5 -112q2 -43 -27 -83t-78 -58q53 -18 87 -58.5t34 -89.5q0 -84 -41 -134t-102.5 -77.5t-132 -35t-132.5 -5.5q-55 2 -118.5 17.5t-116.5 50.5t-89 92t-38 141zM141 -72l1172 1538h311l-1171 -1538h-312zM807 98v158l483 483h191v-440h92v-201h-92v-98h-232v98h-442z M1106 293h151v141z" />
<glyph unicode="&#xbf;" horiz-adv-x="1351" d="M23 -2q10 98 43.5 160.5t84 101.5t117 58.5t142.5 31.5q57 10 91 37t34 102v99l344 2v-94q0 -129 -34 -206t-89.5 -122t-123 -65.5t-134.5 -36.5h2q-49 -12 -89 -35t-42 -72q2 -49 31.5 -76.5t74.5 -43t95.5 -18.5t91.5 -3q49 0 98 11t87 38t62.5 71t24.5 109l330 2 q0 -152 -52.5 -253t-137.5 -162.5t-193.5 -87t-221.5 -27.5q-111 0 -227.5 23.5t-209.5 78.5t-149.5 147.5t-49.5 229.5zM530 657v320l351 2v-322h-351z" />
<glyph unicode="&#xc0;" d="M-92 0v27l715 1415h309l717 -1424v-18h-414l-145 285h-635l-146 -285h-401zM399 1868v12h361l176 -301v-18h-287zM614 604h318l-49 101l-107 286l-108 -278z" />
<glyph unicode="&#xc1;" d="M-92 0v27l715 1415h309l717 -1424v-18h-414l-145 285h-635l-146 -285h-401zM614 604h318l-49 101l-107 286l-108 -278zM621 1565v18l172 291h350v-12l-244 -297h-278z" />
<glyph unicode="&#xc2;" d="M-92 0v27l715 1415h309l717 -1424v-18h-414l-145 285h-635l-146 -285h-401zM377 1552v15l311 297h166l320 -297v-15h-318l-84 86l-82 -86h-313zM614 604h318l-49 101l-107 286l-108 -278z" />
<glyph unicode="&#xc3;" d="M-92 0v27l715 1415h309l717 -1424v-18h-414l-145 285h-635l-146 -285h-401zM387 1655q53 106 130 163.5t192 22.5q33 -10 63.5 -29.5t58 -28.5t54 1t53.5 59l207 -82q-35 -72 -75 -121t-89 -72.5t-108.5 -17.5t-133.5 45q-61 33 -97 22t-69 -63zM614 604h318l-49 101 l-107 286l-108 -278z" />
<glyph unicode="&#xc4;" d="M-92 0v27l715 1415h309l717 -1424v-18h-414l-145 285h-635l-146 -285h-401zM373 1577v278h329v-278h-329zM614 604h318l-49 101l-107 286l-108 -278zM850 1577v278h332v-278h-332z" />
<glyph unicode="&#xc5;" d="M-92 0v27l715 1415h309l717 -1424v-18h-414l-145 285h-635l-146 -285h-401zM514 1729q0 53 22.5 94t59.5 68.5t84 41t96 13.5t95.5 -13.5t83 -41t59 -68.5t22.5 -94q0 -55 -22.5 -95.5t-59 -68t-83 -41t-95.5 -13.5t-96 13.5t-84 41t-59.5 68t-22.5 95.5zM614 604h318 l-49 101l-107 286l-108 -278zM700 1729.5q0 -21.5 18.5 -40t53.5 -18.5q37 0 54.5 18.5t17.5 40t-18.5 40t-53.5 18.5q-37 0 -54.5 -18.5t-17.5 -40z" />
<glyph unicode="&#xc6;" horiz-adv-x="2396" d="M-76 0v18l1055 1416h1315v-334h-797v-221h764v-328h-764v-215h797v-336h-1151v305h-555l-217 -305h-447zM815 635h334v467z" />
<glyph unicode="&#xc7;" horiz-adv-x="1511" d="M-14 721q0 164 57 301t158.5 237.5t243 155.5t309.5 55q104 0 209.5 -24.5t198.5 -80.5t169 -150.5t119 -233.5l-326 -115q-37 82 -81 133.5t-92 80t-98 38.5t-99 10q-127 0 -211 -61t-125 -152.5t-41 -198t42 -197.5t126 -152.5t209 -61.5q49 0 99 8.5t96 35t88 75.5 t77 133l344 -108q-47 -123 -110.5 -209t-139 -142.5t-160.5 -86t-176 -40.5l-20 -55q61 -6 105 -28.5t69 -55.5t32 -72t-3 -75q-12 -51 -44 -88t-76 -61.5t-96.5 -36t-105.5 -11.5q-94 2 -174 36t-127 103l154 135q27 -31 65.5 -41t65.5 -10q33 0 49 12.5t16 28t-17 28.5 t-50 13q-14 0 -31.5 -3t-38.5 -13l-84 49l62 149q-141 20 -259 84t-202 161t-130 225t-46 276z" />
<glyph unicode="&#xc8;" horiz-adv-x="1341" d="M57 0v1434h1182v-320h-807v-240h774v-321h-774v-231h807v-322h-1182zM326 1862v12h348l170 -303v-21h-277z" />
<glyph unicode="&#xc9;" horiz-adv-x="1341" d="M57 0v1434h1182v-320h-807v-240h774v-321h-774v-231h807v-322h-1182zM528 1544v19l166 301h344v-13l-239 -307h-271z" />
<glyph unicode="&#xca;" horiz-adv-x="1341" d="M57 0v1434h1182v-320h-807v-240h774v-321h-774v-231h807v-322h-1182zM240 1552v15l331 291h177l337 -291v-15h-335l-91 84l-86 -84h-333z" />
<glyph unicode="&#xcb;" horiz-adv-x="1341" d="M57 0v1434h1182v-320h-807v-240h774v-321h-774v-231h807v-322h-1182zM250 1556v252h342v-252h-342zM745 1556v252h340v-252h-340z" />
<glyph unicode="&#xcc;" horiz-adv-x="540" d="M-147 1855v15h354l172 -309v-19h-281zM43 0v1434h385v-1434h-385z" />
<glyph unicode="&#xcd;" horiz-adv-x="540" d="M43 0v1434h385v-1434h-385zM68 1548v19l184 295h379v-15l-262 -299h-301z" />
<glyph unicode="&#xce;" horiz-adv-x="540" d="M-190 1548v17l323 305h172l328 -305v-17h-326l-88 90l-84 -90h-325zM43 0v1434h385v-1434h-385z" />
<glyph unicode="&#xcf;" horiz-adv-x="540" d="M-178 1559v268h332v-268h-332zM43 0v1434h385v-1434h-385zM305 1559v268h334v-268h-334z" />
<glyph unicode="&#xd0;" horiz-adv-x="1585" d="M-86 551v321h164v562h680q162 0 295 -54.5t228 -150.5t147.5 -227.5t52.5 -284.5q0 -154 -52.5 -285t-147.5 -227t-228 -150.5t-295 -54.5h-680v551h-164zM467 324h291q111 0 185.5 58t111.5 146t38 189.5t-37 189.5t-113 146.5t-185 58.5h-291v-240h215v-321h-215v-227z " />
<glyph unicode="&#xd1;" horiz-adv-x="1667" d="M66 0v1434h323l709 -824l20 -28l-4 41v811h375v-1434h-348l-699 827v-827h-376zM367 1655q27 55 60.5 100t74.5 72.5t90 35t108 -11.5q35 -10 67 -30.5t60.5 -30.5t56 1t56.5 62l215 -86q-37 -76 -78 -128t-92 -75.5t-112.5 -17.5t-139.5 47q-66 35 -102.5 23t-69.5 -66z " />
<glyph unicode="&#xd2;" horiz-adv-x="1660" d="M4 721q0 186 66.5 326.5t175 234.5t248 141t285 47t284.5 -47t247.5 -140t175 -234.5t66.5 -327.5q0 -188 -66.5 -330.5t-175 -237t-247.5 -141.5t-284.5 -47t-285 47t-248 141.5t-175 237t-66.5 330.5zM393 721q0 -139 57.5 -231.5t142.5 -138.5t185.5 -46t185.5 46 t142 138.5t57 231.5q0 137 -57 228t-142 137.5t-185.5 46.5t-185.5 -46.5t-142.5 -137.5t-57.5 -228zM426 1880v12h352l170 -303v-20h-276z" />
<glyph unicode="&#xd3;" horiz-adv-x="1660" d="M4 721q0 186 66.5 326.5t175 234.5t248 141t285 47t284.5 -47t247.5 -140t175 -234.5t66.5 -327.5q0 -188 -66.5 -330.5t-175 -237t-247.5 -141.5t-284.5 -47t-285 47t-248 141.5t-175 237t-66.5 330.5zM393 721q0 -139 57.5 -231.5t142.5 -138.5t185.5 -46t185.5 46 t142 139.5t57 230.5t-57 228t-142 137.5t-185.5 46.5t-185.5 -46.5t-142.5 -137.5t-57.5 -228zM631 1565v20l174 303h360v-12l-250 -311h-284z" />
<glyph unicode="&#xd4;" horiz-adv-x="1660" d="M4 721q0 186 66.5 326.5t175 234.5t248 141t285 47t284.5 -47t247.5 -140t175 -234.5t66.5 -327.5q0 -188 -66.5 -330.5t-175 -237t-247.5 -141.5t-284.5 -47t-285 47t-248 141.5t-175 237t-66.5 330.5zM356 1567v14l332 291h176l338 -291v-14h-336l-90 84l-86 -84h-334z M393 721q0 -139 57.5 -231.5t142.5 -138.5t185.5 -46t185.5 46t142 138.5t57 231.5q0 137 -57 228t-142 137.5t-185.5 46.5t-185.5 -46.5t-142.5 -137.5t-57.5 -228z" />
<glyph unicode="&#xd5;" horiz-adv-x="1660" d="M4 721q0 186 66.5 326.5t175 234.5t248 141t285 47t284.5 -47t247.5 -140t175 -234.5t66.5 -327.5q0 -188 -66.5 -330.5t-175 -237t-247.5 -141.5t-284.5 -47t-285 47t-248 141.5t-175 237t-66.5 330.5zM393 721q0 -139 57.5 -231.5t142.5 -138.5t185.5 -46t185.5 46 t142 138.5t57 231.5q0 137 -57 228t-142 137.5t-185.5 46.5t-185.5 -46.5t-142.5 -137.5t-57.5 -228zM397 1673q53 106 130 163.5t192 23.5q33 -10 63.5 -30t58 -29t54.5 1t53 60l207 -82q-35 -72 -75 -121t-89 -72.5t-108.5 -17.5t-132.5 45q-61 33 -97.5 21.5t-68.5 -62.5 z" />
<glyph unicode="&#xd6;" horiz-adv-x="1660" d="M4 721q0 186 66.5 326.5t175 234.5t248 141t285 47t284.5 -47t247.5 -140t175 -234.5t66.5 -327.5q0 -188 -66.5 -330.5t-175 -237t-247.5 -141.5t-284.5 -47t-285 47t-248 141.5t-175 237t-66.5 330.5zM367 1583v260h340v-260h-340zM393 721q0 -139 57.5 -231.5 t142.5 -138.5t185.5 -46t185.5 46t142 138.5t57 231.5q0 137 -57 228t-142 137.5t-185.5 46.5t-185.5 -46.5t-142.5 -137.5t-57.5 -228zM860 1583v260h340v-260h-340z" />
<glyph unicode="&#xd7;" horiz-adv-x="894" d="M-23 479l191 189l-188 188l231 223l182 -190l176 186l228 -229l-185 -189l203 -200l-223 -215l-195 196l-186 -192z" />
<glyph unicode="&#xd8;" horiz-adv-x="1660" d="M4 721q0 150 44 269.5t119 209.5t175 150.5t212 90t229.5 28.5t230.5 -31l98 168h358l-180 -308q117 -94 189.5 -237t72.5 -340q0 -154 -45 -275.5t-120.5 -213t-177 -152t-215 -89t-232.5 -26.5t-232 35l-96 -164h-358l180 309q-113 94 -182.5 237.5t-69.5 338.5z M393 721q0 -72 16.5 -132.5t45.5 -107.5l376 645q-78 10 -156.5 -9t-141 -70.5t-101.5 -132t-39 -193.5zM711 311q80 -14 160.5 5.5t145 70.5t105.5 134t41 200q0 76 -18.5 136.5t-48.5 107.5z" />
<glyph unicode="&#xd9;" horiz-adv-x="1734" d="M63 752v682h386v-682q0 -115 30.5 -200t79.5 -141.5t112.5 -86t129.5 -29.5t130 27.5t114.5 85t82 143.5t31.5 201v682h383v-682q0 -197 -63.5 -345.5t-167 -247t-236.5 -147.5t-270 -49q-139 0 -272.5 49t-238 147.5t-168 247t-63.5 345.5zM457 1870v14h354l172 -297 v-18h-281z" />
<glyph unicode="&#xda;" horiz-adv-x="1734" d="M63 752v682h386v-682q0 -115 30.5 -200t79.5 -141.5t112.5 -86t129.5 -29.5t130 27.5t114.5 85t82 143.5t31.5 201v682h383v-682q0 -197 -63.5 -345.5t-167 -247t-236.5 -147.5t-270 -49q-139 0 -272.5 49t-238 147.5t-168 247t-63.5 345.5zM655 1552v21l179 323h364v-14 l-254 -330h-289z" />
<glyph unicode="&#xdb;" horiz-adv-x="1734" d="M63 752v682h386v-682q0 -115 30.5 -200t79.5 -141.5t112.5 -86t129.5 -29.5t130 27.5t114.5 85t82 143.5t31.5 201v682h383v-682q0 -197 -63.5 -345.5t-167 -247t-236.5 -147.5t-270 -49q-139 0 -272.5 49t-238 147.5t-168 247t-63.5 345.5zM385 1575v14l332 291h176 l338 -291v-14h-336l-90 84l-86 -84h-334z" />
<glyph unicode="&#xdc;" horiz-adv-x="1734" d="M63 752v682h386v-682q0 -115 30.5 -200t79.5 -141.5t112.5 -86t129.5 -29.5t130 27.5t114.5 85t82 143.5t31.5 201v682h383v-682q0 -197 -63.5 -345.5t-167 -247t-236.5 -147.5t-270 -49q-139 0 -272.5 49t-238 147.5t-168 247t-63.5 345.5zM350 1542v297h344v-297h-344z M893 1542v297h342v-297h-342z" />
<glyph unicode="&#xdd;" horiz-adv-x="1576" d="M-123 1417v17h440l410 -543l408 543h442v-19l-657 -858v-557h-385v557zM578 1546v21l178 327h364v-14l-254 -334h-288z" />
<glyph unicode="&#xde;" horiz-adv-x="1490" d="M72 0v1434h381v-207h331q123 -2 229.5 -33t186.5 -93.5t125 -157.5t45 -224q0 -133 -49 -230.5t-131 -161t-188.5 -93t-221.5 -29.5h-327v-205h-381zM453 526h329q92 4 148.5 52.5t56.5 142.5q0 92 -58.5 138t-144.5 46h-331v-379z" />
<glyph unicode="&#xdf;" horiz-adv-x="1253" d="M53 0v1038q0 106 43 183t114 127.5t164 74t191 23.5q100 0 194.5 -26.5t167 -82t113.5 -137.5t35 -192q0 -29 -10 -62t-28.5 -65.5t-47 -61t-67.5 -45.5q68 -27 113.5 -69.5t74.5 -98t38 -117t3 -124.5q-10 -94 -59.5 -165t-123 -119t-162.5 -72.5t-179 -24.5 q-78 0 -160 24v324q41 -20 71.5 -25.5t59.5 -5.5q104 0 155.5 46t49.5 102.5t-58.5 102.5t-166.5 46h-115v324h106q43 0 71 11t44 28.5t22.5 38t6.5 38.5q0 55 -45 82t-100.5 27t-100.5 -26.5t-45 -82.5v-1038h-369z" />
<glyph unicode="&#xe0;" horiz-adv-x="1150" d="M-4 324q0 92 42 151.5t107.5 94t146.5 48t159 13.5h172q-4 49 -48.5 73.5t-105.5 24.5t-131 -21.5t-123 -64.5l-160 191q59 68 151.5 108.5t197 53t208 -4t187.5 -62.5t136 -123t52 -185v-379l17 -242h-271l-47 117q-43 -72 -120 -102.5t-167 -28.5q-72 0 -144.5 17 t-129.5 57t-93 104.5t-36 159.5zM186 1419v15h346l170 -297v-19h-274zM351 326.5q1 -25.5 26.5 -47t79.5 -21.5q31 0 61.5 9t55 25.5t41 42t16.5 60.5h-180q-49 0 -75 -21.5t-25 -47z" />
<glyph unicode="&#xe1;" horiz-adv-x="1150" d="M-4 324q0 92 42 151.5t107.5 94t146.5 48t159 13.5h172q-4 49 -48.5 73.5t-105.5 24.5t-131 -21.5t-123 -64.5l-160 191q59 68 151.5 108.5t197 53t208 -4t187.5 -62.5t136 -123t52 -185v-379l17 -242h-271l-47 117q-43 -72 -120 -102.5t-167 -28.5q-72 0 -144.5 17 t-129.5 57t-93 104.5t-36 159.5zM348 1112v21l166 301h340v-13l-236 -309h-270zM351 326.5q1 -25.5 26.5 -47t79.5 -21.5q31 0 61.5 9t55 25.5t41 42t16.5 60.5h-180q-49 0 -75 -21.5t-25 -47z" />
<glyph unicode="&#xe2;" horiz-adv-x="1150" d="M-4 324q0 92 42 151.5t107.5 94t146.5 48t159 13.5h172q-4 49 -48.5 73.5t-105.5 24.5t-131 -21.5t-123 -64.5l-160 191q59 68 151.5 108.5t197 53t208 -4t187.5 -62.5t136 -123t52 -185v-379l17 -242h-271l-47 117q-43 -72 -120 -102.5t-167 -28.5q-72 0 -144.5 17 t-129.5 57t-93 104.5t-36 159.5zM119 1135v14l313 287h166l320 -287v-14h-318l-86 82l-80 -82h-315zM351 326.5q1 -25.5 26.5 -47t79.5 -21.5q31 0 61.5 9t55 25.5t41 42t16.5 60.5h-180q-49 0 -75 -21.5t-25 -47z" />
<glyph unicode="&#xe3;" horiz-adv-x="1150" d="M-4 324q0 92 42 151.5t107.5 94t146.5 48t159 13.5h172q-4 49 -48.5 73.5t-105.5 24.5t-131 -21.5t-123 -64.5l-160 191q59 68 151.5 108.5t197 53t208 -4t187.5 -62.5t136 -123t52 -185v-379l17 -242h-271l-47 117q-43 -72 -120 -102.5t-167 -28.5q-72 0 -144.5 17 t-129.5 57t-93 104.5t-36 159.5zM141 1229q27 53 58.5 96t71.5 69.5t88.5 34t105.5 -11.5q35 -10 65.5 -29.5t58 -28.5t54.5 1t53 59l209 -82q-35 -74 -76 -124t-90 -73.5t-108.5 -17.5t-134.5 45q-61 35 -97.5 24t-68.5 -65zM351 326.5q1 -25.5 26.5 -47t79.5 -21.5 q31 0 61.5 9t55 25.5t41 42t16.5 60.5h-180q-49 0 -75 -21.5t-25 -47z" />
<glyph unicode="&#xe4;" horiz-adv-x="1150" d="M-4 324q0 92 42 151.5t107.5 94t146.5 48t159 13.5h172q-4 49 -48.5 73.5t-105.5 24.5t-131 -21.5t-123 -64.5l-160 191q59 68 151.5 108.5t197 53t208 -4t187.5 -62.5t136 -123t52 -185v-379l17 -242h-271l-47 117q-43 -72 -120 -102.5t-167 -28.5q-72 0 -144.5 17 t-129.5 57t-93 104.5t-36 159.5zM164 1167v256h297v-256h-297zM351 326.5q1 -25.5 26.5 -47t79.5 -21.5q31 0 61.5 9t55 25.5t41 42t16.5 60.5h-180q-49 0 -75 -21.5t-25 -47zM596 1167v256h297v-256h-297z" />
<glyph unicode="&#xe5;" horiz-adv-x="1150" d="M-4 324q0 92 42 151.5t107.5 94t146.5 48t159 13.5h172q-4 49 -48.5 73.5t-105.5 24.5t-131 -21.5t-123 -64.5l-160 191q59 68 151.5 108.5t197 53t208 -4t187.5 -62.5t136 -123t52 -185v-379l17 -242h-271l-47 117q-43 -72 -120 -102.5t-167 -28.5q-72 0 -144.5 17 t-129.5 57t-93 104.5t-36 159.5zM248 1251q0 53 22.5 93t59.5 66t84 39t96 13t96 -13t84 -39t59.5 -65.5t22.5 -93.5q0 -53 -22.5 -93t-59.5 -65.5t-84 -39t-96 -13.5t-96 13.5t-84 39t-59.5 65.5t-22.5 93zM351 326.5q1 -25.5 26.5 -47t79.5 -21.5q31 0 61.5 9t55 25.5 t41 42t16.5 60.5h-180q-49 0 -75 -21.5t-25 -47zM434 1252.5q0 -21.5 18.5 -39t53.5 -17.5q37 0 55.5 17.5t17.5 39t-19.5 39t-53.5 17.5q-37 0 -54.5 -17.5t-17.5 -39z" />
<glyph unicode="&#xe6;" horiz-adv-x="1792" d="M-4 324q0 92 42 151.5t107.5 94t146.5 48t159 13.5h180q-4 49 -49 73.5t-108.5 24.5t-134.5 -21.5t-124 -64.5l-160 191q72 82 188.5 120.5t241.5 38.5q96 0 183.5 -30.5t152.5 -102.5q53 61 140.5 97t187.5 36q213 0 339 -107.5t161 -279.5q12 -57 11 -115.5t-11 -113.5 h-680q12 -57 59 -88t103.5 -35t109.5 16.5t80 63.5l274 -107q-63 -131 -181 -188t-259 -57q-111 0 -204 35.5t-163 125.5q-39 -55 -89 -86.5t-103 -48t-104.5 -19.5t-92.5 -3q-72 0 -144.5 17t-129.5 57t-93 104.5t-36 159.5zM351 326.5q1 -25.5 26.5 -47t79.5 -21.5 q31 0 62.5 9t58 25.5t44 42t17.5 60.5h-188q-49 0 -75 -21.5t-25 -47zM965 608h358q-16 61 -67.5 92t-110 31t-110.5 -30.5t-70 -92.5z" />
<glyph unicode="&#xe7;" horiz-adv-x="1077" d="M-14 485q0 115 36.5 209t104.5 161t163 103.5t212 36.5q193 0 316.5 -83t162.5 -277l-299 -64q-29 66 -73 89.5t-95 23.5q-68 0 -122 -50t-54 -149q0 -47 15.5 -83.5t41 -61.5t58 -37t67.5 -12q53 2 100.5 29.5t63.5 93.5l307 -54q-16 -86 -52 -149.5t-85 -107.5 t-108.5 -69.5t-122.5 -37.5l-9 -29q59 -6 100.5 -26.5t65 -50t29.5 -64.5t-2 -70q-12 -47 -42 -82.5t-72 -58.5t-91 -34t-100 -11q-92 2 -166 33.5t-121 97.5l147 119q23 -29 61 -43.5t62 -14.5q33 0 49.5 13.5t16.5 31t-17.5 30.5t-50.5 13q-12 0 -29.5 -3t-35.5 -13 l-80 47l45 115q-88 18 -162 60t-126 105.5t-80.5 145.5t-28.5 178z" />
<glyph unicode="&#xe8;" horiz-adv-x="1161" d="M-8 496q0 94 32.5 183t98 158.5t164 112.5t231.5 43q213 0 339 -107.5t161 -279.5q12 -57 11 -115.5t-11 -113.5h-670q12 -57 57.5 -88t99.5 -35t106.5 16.5t78.5 63.5l275 -107q-66 -135 -181.5 -190t-259.5 -55q-113 0 -210 35.5t-168.5 102t-112.5 162t-41 214.5z M182 1421v15h340l166 -297v-19h-268zM344 608h348q-16 61 -65 91t-104.5 30t-106.5 -29.5t-72 -91.5z" />
<glyph unicode="&#xe9;" horiz-adv-x="1161" d="M-8 496q0 94 32.5 183t98 158.5t164 112.5t231.5 43q213 0 339 -107.5t161 -279.5q12 -57 11 -115.5t-11 -113.5h-670q12 -57 57.5 -88t99.5 -35t106.5 16.5t78.5 63.5l275 -107q-66 -135 -181.5 -190t-259.5 -55q-113 0 -210 35.5t-168.5 102t-112.5 162t-41 214.5z M344 608h348q-16 61 -65 91t-104.5 30t-106.5 -29.5t-72 -91.5zM365 1108v18l163 308h338v-15l-233 -311h-268z" />
<glyph unicode="&#xea;" horiz-adv-x="1161" d="M-8 496q0 94 32.5 183t98 158.5t164 112.5t231.5 43q213 0 339 -107.5t161 -279.5q12 -57 11 -115.5t-11 -113.5h-670q12 -57 57.5 -88t99.5 -35t106.5 16.5t78.5 63.5l275 -107q-66 -135 -181.5 -190t-259.5 -55q-113 0 -210 35.5t-168.5 102t-112.5 162t-41 214.5z M131 1120v15l311 295h166l320 -295v-15h-318l-84 86l-82 -86h-313zM344 608h348q-16 61 -65 91t-104.5 30t-106.5 -29.5t-72 -91.5z" />
<glyph unicode="&#xeb;" horiz-adv-x="1161" d="M-8 496q0 94 32.5 183t98 158.5t164 112.5t231.5 43q213 0 339 -107.5t161 -279.5q12 -57 11 -115.5t-11 -113.5h-670q12 -57 57.5 -88t99.5 -35t106.5 16.5t78.5 63.5l275 -107q-66 -135 -181.5 -190t-259.5 -55q-113 0 -210 35.5t-168.5 102t-112.5 162t-41 214.5z M160 1130v265h301v-265h-301zM344 608h348q-16 61 -65 91t-104.5 30t-106.5 -29.5t-72 -91.5zM598 1130v265h301v-265h-301z" />
<glyph unicode="&#xec;" horiz-adv-x="487" d="M-129 1419v15h338l162 -308v-18h-267zM27 0v975h350v-975h-350z" />
<glyph unicode="&#xed;" horiz-adv-x="487" d="M20 1092v20l166 318h342v-13l-237 -325h-271zM27 0v975h350v-975h-350z" />
<glyph unicode="&#xee;" horiz-adv-x="487" d="M-193 1133v14l302 293h159l307 -293v-14h-305l-82 84l-77 -84h-304zM27 0v975h350v-975h-350z" />
<glyph unicode="&#xef;" horiz-adv-x="487" d="M-154 1165v271h306v-271h-306zM27 0v975h350v-975h-350zM229 1165v271h295v-271h-295z" />
<glyph unicode="&#xf0;" horiz-adv-x="1189" d="M18 487q0 86 34 179.5t109 163t193.5 98t290.5 -16.5q-14 29 -32.5 48.5t-41.5 35.5l-45 -47l-182 88l47 62q-47 16 -95 22t-97 10l63 300q92 -14 165 -31t132 -47l78 104l205 -151l-70 -82q88 -76 144.5 -159t89 -172t45 -184.5t12.5 -195.5q0 -117 -36 -214 t-102.5 -167t-163.5 -108.5t-220 -38.5q-131 0 -228.5 43t-163 113.5t-98.5 160.5t-33 186zM371 489q0 -37 10 -70.5t31.5 -61t53.5 -44t75 -16.5t74.5 16.5t52 44t31 61.5t10.5 70q0 35 -10.5 70t-31 61.5t-52 43t-74.5 16.5t-75 -16.5t-53.5 -43t-31.5 -61.5t-10 -70z" />
<glyph unicode="&#xf1;" horiz-adv-x="1226" d="M47 0v975h320l34 -98q43 66 112 89t140 23q113 0 191 -35.5t125 -99t68.5 -151t21.5 -187.5v-516h-354v518q0 51 -11.5 83t-31 50.5t-46 25.5t-53.5 7q-31 0 -59.5 -10t-51 -31.5t-37 -56.5t-14.5 -86v-500h-354zM176 1245q53 106 130 163.5t192 23.5q33 -10 63.5 -30 t58 -29t54 1t53.5 60l207 -82q-35 -72 -75 -121t-89 -72.5t-108.5 -17.5t-133.5 45q-61 33 -97 21.5t-69 -62.5z" />
<glyph unicode="&#xf2;" horiz-adv-x="1193" d="M4 492q0 111 41 203.5t112.5 159.5t171 103.5t216.5 36.5q115 0 213 -36.5t169.5 -103.5t112.5 -160t41 -203q0 -113 -41 -206t-112.5 -161t-169.5 -104.5t-213 -36.5q-117 0 -216.5 36.5t-171 104.5t-112.5 161t-41 206zM188 1419v15h342l166 -312v-20h-270zM354 492 q0 -86 53.5 -141.5t137.5 -55.5q82 0 134 55.5t52 141.5t-52 139t-134 53q-84 0 -137.5 -53t-53.5 -139z" />
<glyph unicode="&#xf3;" horiz-adv-x="1193" d="M4 492q0 111 41 203.5t112.5 159.5t171 103.5t216.5 36.5q115 0 213 -36.5t169.5 -103.5t112.5 -160t41 -203q0 -113 -41 -206t-112.5 -161t-169.5 -104.5t-213 -36.5q-117 0 -216.5 36.5t-171 104.5t-112.5 161t-41 206zM354 492q0 -86 53.5 -141.5t137.5 -55.5 q82 0 134 55.5t52 141.5t-52 139t-134 53q-84 0 -137.5 -53t-53.5 -139zM379 1108v18l172 310h350v-15l-244 -313h-278z" />
<glyph unicode="&#xf4;" horiz-adv-x="1193" d="M4 492q0 111 41 203.5t112.5 159.5t171 103.5t216.5 36.5q115 0 213 -36.5t169.5 -103.5t112.5 -160t41 -203q0 -113 -41 -206t-112.5 -161t-169.5 -104.5t-213 -36.5q-117 0 -216.5 36.5t-171 104.5t-112.5 161t-41 206zM143 1126v15l314 289h166l319 -289v-15h-317 l-86 78l-82 -78h-314zM354 492q0 -86 53.5 -141.5t137.5 -55.5q82 0 134 55.5t52 141.5t-52 139t-134 53q-84 0 -137.5 -53t-53.5 -139z" />
<glyph unicode="&#xf5;" horiz-adv-x="1193" d="M4 492q0 111 41 203.5t112.5 159.5t171 103.5t216.5 36.5q115 0 213 -36.5t169.5 -103.5t112.5 -160t41 -203q0 -113 -41 -206t-112.5 -161t-169.5 -104.5t-213 -36.5q-117 0 -216.5 36.5t-171 104.5t-112.5 161t-41 206zM176 1227q53 106 130 163.5t192 22.5 q33 -10 63.5 -29.5t58 -28.5t54 1t53.5 59l207 -82q-35 -72 -75 -121t-89 -72.5t-108.5 -17.5t-133.5 45q-61 33 -97 22t-69 -63zM354 492q0 -86 53.5 -141.5t137.5 -55.5q82 0 134 55.5t52 141.5t-52 139t-134 53q-84 0 -137.5 -53t-53.5 -139z" />
<glyph unicode="&#xf6;" horiz-adv-x="1193" d="M4 492q0 111 41 203.5t112.5 159.5t171 103.5t216.5 36.5q115 0 213 -36.5t169.5 -103.5t112.5 -160t41 -203q0 -113 -41 -206t-112.5 -161t-169.5 -104.5t-213 -36.5q-117 0 -216.5 36.5t-171 104.5t-112.5 161t-41 206zM166 1153v270h307v-270h-307zM354 492 q0 -86 53.5 -141.5t137.5 -55.5q82 0 134 55.5t52 141.5t-52 139t-134 53q-84 0 -137.5 -53t-53.5 -139zM610 1153v270h310v-270h-310z" />
<glyph unicode="&#xf7;" horiz-adv-x="1042" d="M-14 463v311h950v-311h-950zM293 111v276h338v-276h-338zM293 852v276h338v-276h-338z" />
<glyph unicode="&#xf8;" horiz-adv-x="1193" d="M4 492q0 111 41 203.5t112.5 159.5t171 103.5t216.5 36.5q35 0 68.5 -4t66.5 -10l84 149h276l-141 -251q86 -68 134 -166.5t48 -220.5q0 -113 -41 -206t-112.5 -161t-169.5 -104.5t-213 -36.5q-76 0 -135 14l-82 -148h-277l137 248q-86 68 -135 168.5t-49 225.5zM340 494 q0 -49 16 -88l164 294q-80 -8 -130 -64t-50 -142zM569 274q80 10 129.5 68.5t49.5 146.5q0 20 -4.5 41t-10.5 39z" />
<glyph unicode="&#xf9;" horiz-adv-x="1228" d="M45 457v518h356v-520q0 -51 11.5 -83t31 -49.5t45 -24.5t54.5 -7q31 0 59.5 9t51 30.5t37 56.5t14.5 88v500h354v-975h-322l-32 96q-43 -63 -113 -86.5t-141 -25.5q-113 0 -190 35.5t-125 99t-69.5 149.5t-21.5 189zM195 1421v13h344l168 -301v-19h-273z" />
<glyph unicode="&#xfa;" horiz-adv-x="1228" d="M45 457v518h356v-520q0 -51 11.5 -83t31 -49.5t45 -24.5t54.5 -7q31 0 59.5 9t51 30.5t37 56.5t14.5 88v500h354v-975h-322l-32 96q-43 -63 -113 -86.5t-141 -25.5q-113 0 -190 35.5t-125 99t-69.5 149.5t-21.5 189zM412 1110v20l166 304h346v-13l-240 -311h-272z" />
<glyph unicode="&#xfb;" horiz-adv-x="1228" d="M45 457v518h356v-520q0 -51 11.5 -83t31 -49.5t45 -24.5t54.5 -7q31 0 59.5 9t51 30.5t37 56.5t14.5 88v500h354v-975h-322l-32 96q-43 -63 -113 -86.5t-141 -25.5q-113 0 -190 35.5t-125 99t-69.5 149.5t-21.5 189zM123 1124v15l332 291h176l338 -291v-15h-336l-90 84 l-86 -84h-334z" />
<glyph unicode="&#xfc;" horiz-adv-x="1228" d="M45 457v518h356v-520q0 -51 11.5 -83t31 -49.5t45 -24.5t54.5 -7q31 0 59.5 9t51 30.5t37 56.5t14.5 88v500h354v-975h-322l-32 96q-43 -63 -113 -86.5t-141 -25.5q-113 0 -190 35.5t-125 99t-69.5 149.5t-21.5 189zM176 1157v279h313v-279h-313zM631 1157v279h311v-279 h-311z" />
<glyph unicode="&#xfd;" horiz-adv-x="1218" d="M-111 965v10h398l164 -316l108 -225l113 240l157 301h383v-21l-755 -1396h-375v24l287 531zM403 1098v20l166 316h344v-15l-239 -321h-271z" />
<glyph unicode="&#xfe;" horiz-adv-x="1249" d="M47 -444v1876h354v-541q29 33 72 54.5t93 30.5t104.5 6t105.5 -19q88 -27 152.5 -76t106.5 -112.5t62.5 -137.5t20.5 -150q0 -86 -24.5 -163.5t-71.5 -141t-113.5 -109.5t-150.5 -69q-45 -12 -94.5 -14t-96.5 7t-90 29.5t-76 57.5v-528h-354zM391 494q-2 -84 48 -140.5 t141 -56.5q45 0 79.5 16.5t58 43t35 61.5t11.5 69q0 33 -11.5 68t-35 61.5t-58 44t-79.5 17.5q-86 0 -137.5 -53.5t-51.5 -130.5z" />
<glyph unicode="&#xff;" horiz-adv-x="1218" d="M-111 965v10h398l164 -316l108 -225l113 240l157 301h383v-21l-755 -1396h-375v24l287 531zM141 1137v284h332v-284h-332zM625 1137v284h333v-284h-333z" />
<glyph unicode="&#x152;" horiz-adv-x="2310" d="M4 721q0 152 44 272.5t121 210.5t177 149.5t214 88t233.5 26.5t232.5 -34h1182v-320h-836v-240h803v-321h-803v-231h836v-322h-1182v2q-113 -33 -231.5 -36t-232 25.5t-215 88t-177.5 151t-121 214t-45 276.5zM393 721q0 -145 65.5 -243.5t163 -147.5t207 -46t197.5 60 v737q-55 37 -123.5 51.5t-139.5 8.5t-137.5 -36t-117.5 -82t-83 -128t-32 -174z" />
<glyph unicode="&#x153;" horiz-adv-x="1884" d="M4 492q0 111 41 203.5t112.5 159.5t171 103.5t216.5 36.5q104 0 194 -38.5t160 -120.5q121 158 342 157q213 0 339 -107.5t161 -279.5q12 -57 11 -115.5t-11 -113.5h-660q14 -49 56.5 -76t92.5 -31t99 13.5t76 54.5l283 -111q-66 -135 -181.5 -190t-259.5 -55 q-104 0 -197.5 36.5t-156.5 108.5q-66 -72 -155 -107.5t-193 -35.5q-117 0 -216.5 36.5t-171 104.5t-112.5 161t-41 206zM354 492q0 -86 53.5 -141.5t137.5 -55.5q82 0 140 55.5t58 141.5t-58 139t-140 53q-84 0 -137.5 -53t-53.5 -139zM1071 608h344q-16 51 -66.5 78 t-105.5 27t-105.5 -25.5t-66.5 -79.5z" />
<glyph unicode="&#x178;" horiz-adv-x="1576" d="M-123 1417v17h440l410 -543l408 543h442v-19l-657 -858v-557h-385v557zM299 1587v293h346v-293h-346zM801 1587v293h346v-293h-346z" />
<glyph unicode="&#x2c6;" horiz-adv-x="870" d="M-27 1124v15l332 291h176l338 -291v-15h-336l-90 84l-86 -84h-334z" />
<glyph unicode="&#x2dc;" horiz-adv-x="806" d="M-8 1307q53 106 130 163.5t191 22.5q33 -10 64 -29.5t58.5 -29t54 1t53.5 59.5l207 -82q-35 -72 -75 -121t-89 -72.5t-108.5 -17.5t-133.5 45q-61 33 -97 21.5t-69 -62.5z" />
<glyph unicode="&#x2000;" horiz-adv-x="973" />
<glyph unicode="&#x2001;" horiz-adv-x="1946" />
<glyph unicode="&#x2002;" horiz-adv-x="973" />
<glyph unicode="&#x2003;" horiz-adv-x="1946" />
<glyph unicode="&#x2004;" horiz-adv-x="648" />
<glyph unicode="&#x2005;" horiz-adv-x="486" />
<glyph unicode="&#x2006;" horiz-adv-x="324" />
<glyph unicode="&#x2007;" horiz-adv-x="324" />
<glyph unicode="&#x2008;" horiz-adv-x="243" />
<glyph unicode="&#x2009;" horiz-adv-x="389" />
<glyph unicode="&#x200a;" horiz-adv-x="108" />
<glyph unicode="&#x2010;" horiz-adv-x="923" d="M4 512v322h791v-322h-791z" />
<glyph unicode="&#x2011;" horiz-adv-x="923" d="M4 512v322h791v-322h-791z" />
<glyph unicode="&#x2012;" horiz-adv-x="923" d="M4 512v322h791v-322h-791z" />
<glyph unicode="&#x2013;" horiz-adv-x="1099" d="M-8 528v293h981v-293h-981z" />
<glyph unicode="&#x2014;" horiz-adv-x="1271" d="M-4 532v299h1175v-299h-1175z" />
<glyph unicode="&#x2018;" horiz-adv-x="489" d="M-51 891l182 547h283l-111 -547h-354z" />
<glyph unicode="&#x2019;" horiz-adv-x="477" d="M-39 889l111 547h354l-182 -547h-283z" />
<glyph unicode="&#x201a;" horiz-adv-x="546" d="M-57 -295l116 555h377l-192 -555h-301z" />
<glyph unicode="&#x201c;" horiz-adv-x="868" d="M-66 887l197 547h283l-135 -547h-345zM350 887l176 547h287l-108 -547h-355z" />
<glyph unicode="&#x201d;" horiz-adv-x="851" d="M-68 885l109 547h354l-176 -547h-287zM332 885l135 547h344l-197 -547h-282z" />
<glyph unicode="&#x201e;" horiz-adv-x="980" d="M-57 -295l116 555h377l-192 -555h-301zM399 -295l117 555h377l-193 -555h-301z" />
<glyph unicode="&#x2022;" horiz-adv-x="706" d="M2 698q0 61 21.5 112.5t60.5 88.5t91 57.5t114 20.5q61 0 113.5 -20.5t90 -57.5t60 -88t22.5 -113q0 -61 -22.5 -112t-60 -87t-90 -55.5t-113.5 -19.5t-113.5 19.5t-91.5 55.5t-60.5 87t-21.5 112z" />
<glyph unicode="&#x2026;" horiz-adv-x="1357" d="M10 0v326h334v-326h-334zM463 0v326h334v-326h-334zM915 0v326h334v-326h-334z" />
<glyph unicode="&#x202f;" horiz-adv-x="389" />
<glyph unicode="&#x2039;" horiz-adv-x="706" d="M-33 614l287 457h371l-285 -457l283 -458h-369z" />
<glyph unicode="&#x203a;" horiz-adv-x="716" d="M-31 1071h371l287 -457l-287 -458h-369l283 458z" />
<glyph unicode="&#x205f;" horiz-adv-x="486" />
<glyph unicode="&#x20ac;" horiz-adv-x="1599" d="M-68 449v239h142v33v20h-142v242h183q37 111 106.5 200t162.5 153.5t209 99t249 34.5q104 0 209.5 -24.5t198.5 -80.5t169 -150.5t119 -233.5l-326 -115q-37 82 -81 133.5t-92 80t-98 38.5t-99 10q-102 0 -176 -39.5t-121 -105.5h239v-242h-319v-53h319v-239h-235 q47 -66 119.5 -105t173.5 -39q49 0 99 8.5t96 35t88 75.5t77 133l344 -108q-53 -145 -131 -238.5t-170 -148t-194.5 -76t-208.5 -21.5q-131 0 -246 35t-208 97.5t-161.5 151.5t-107.5 200h-187z" />
<glyph unicode="&#x2122;" horiz-adv-x="1619" d="M-6 1212v222h620v-222h-182v-403h-258v403h-180zM676 809v627h278l133 -170l134 170h278v-627h-256v201l14 120l-94 -149h-151l-94 149l14 -120v-201h-256z" />
<glyph unicode="&#x25fc;" horiz-adv-x="972" d="M0 0v973h973v-973h-973z" />
<glyph unicode="&#xfb01;" horiz-adv-x="1372" d="M-57 696v279h172v82q0 106 40 184t105.5 129t146 73.5t162.5 20.5t157 -28.5t128 -77.5l-145 -244q-25 27 -66 37t-81 2t-67.5 -35.5t-27.5 -75.5v-67h297v-279h-297v-696h-352v696h-172zM909 0v975h351v-975h-351zM909 1081v351h351v-351h-351z" />
<glyph unicode="&#xfb02;" horiz-adv-x="1366" d="M-57 696v279h172v82q0 106 40 184t105.5 129t146 73.5t162.5 20.5t157 -28.5t128 -77.5l-145 -244q-25 27 -66 37t-81 2t-67.5 -35.5t-27.5 -75.5v-67h297v-279h-297v-696h-352v696h-172zM909 0v1432h351v-1432h-351z" />
</font>
</defs>
</svg>
