<?xml version="1.0" standalone="no"?>
<!DOCTYPE svg PUBLIC "-//W3C//DTD SVG 1.1//EN" "http://www.w3.org/Graphics/SVG/1.1/DTD/svg11.dtd" >
<svg xmlns="http://www.w3.org/2000/svg">
<metadata></metadata>
<defs>
<font id="gabriel_sans_condlight_italic" horiz-adv-x="1030" >
<font-face units-per-em="2048" ascent="1536" descent="-512" />
<missing-glyph horiz-adv-x="413" />
<glyph horiz-adv-x="2048" />
<glyph horiz-adv-x="2048" />
<glyph unicode="&#xd;" horiz-adv-x="2048" />
<glyph unicode=" "  horiz-adv-x="413" />
<glyph unicode="&#x09;" horiz-adv-x="413" />
<glyph unicode="&#xa0;" horiz-adv-x="413" />
<glyph unicode="!" horiz-adv-x="391" d="M123 0l29 162h96l-29 -162h-96zM180 311l197 1123h92l-197 -1123h-92z" />
<glyph unicode="&#x22;" horiz-adv-x="428" d="M213 975l80 459h78l-80 -459h-78zM418 975l80 459h77l-79 -459h-78z" />
<glyph unicode="#" horiz-adv-x="1118" d="M88 471l14 86h203l137 416h-225l16 88h246l148 444h90l-148 -444h389l150 444h88l-147 -444h186l-16 -88h-207l-135 -416h227l-14 -86h-246l-160 -471h-90l160 471h-389l-158 -471h-92l159 471h-186zM393 555h398l137 420h-398z" />
<glyph unicode="$" horiz-adv-x="1263" d="M113 397h90q-12 -84 12.5 -145.5t74.5 -101t119.5 -61t147.5 -28.5l113 635q-80 8 -156 22.5t-134 47.5t-93 89t-35 149q0 113 47 195.5t124 138t176 84t204 32.5l24 135h82l-24 -135q88 -4 165.5 -28.5t133 -70.5t83 -117t13.5 -167h-90q8 74 -13.5 128t-66.5 90 t-107.5 55.5t-132.5 23.5l-104 -594q4 -2 16 -2q80 -8 156 -23.5t135.5 -48t96 -90t36.5 -151.5q0 -125 -51 -215t-133 -149.5t-186.5 -89.5t-210.5 -32l-29 -153h-82l29 155q-98 6 -184.5 34t-145.5 79t-88 128t-12 181zM348 1016q0 -68 26.5 -110t73 -66.5t107.5 -36.5 t129 -21l104 586q-86 -4 -165.5 -27.5t-141 -66.5t-97.5 -106.5t-36 -151.5zM639 59q86 2 170 26t150.5 70t106.5 117.5t40 169.5q0 72 -29.5 117t-79 70.5t-114 38t-133.5 20.5z" />
<glyph unicode="%" horiz-adv-x="1220" d="M100 -31l1125 1499h86l-1123 -1499h-88zM209 1024q0 90 24.5 167t68.5 133t103.5 88t129.5 32q104 0 155 -70.5t51 -189.5q0 -96 -26.5 -176t-71.5 -137.5t-104 -89t-127 -31.5q-98 0 -150.5 78.5t-52.5 195.5zM293 1034q0 -92 37 -150.5t98 -58.5q78 0 137.5 77 t81.5 194q25 129 -7 201.5t-118 72.5q-49 0 -91 -28.5t-72.5 -76.5t-48 -108.5t-17.5 -122.5zM696 264q0 90 24.5 167t69 133.5t103.5 88t129 31.5q104 0 155.5 -70.5t51.5 -189.5q0 -96 -26.5 -176t-72 -137.5t-105.5 -89t-126 -31.5q-98 0 -150.5 78.5t-52.5 195.5z M778 274q0 -92 37 -150t98 -58q78 0 138.5 76.5t83.5 193.5q25 129 -8 201.5t-119 72.5q-49 0 -91.5 -28.5t-73 -76.5t-48 -108.5t-17.5 -122.5z" />
<glyph unicode="&#x26;" horiz-adv-x="1257" d="M92 354q0 82 26.5 153t70.5 127t102.5 97t122.5 62q-37 39 -56.5 106.5t-19.5 132.5q0 92 37 170t100.5 135.5t147.5 90t180 32.5q80 0 147.5 -21.5t114.5 -66.5t67.5 -114.5t6.5 -165.5h-82q12 78 -7.5 133t-58.5 89t-92 49t-108 15q-72 0 -137.5 -23.5t-117 -66.5 t-81 -105.5t-29.5 -140.5q0 -61 22.5 -116.5t55.5 -94.5l489 -559q41 57 76 130t51 161h84q-20 -106 -61 -192t-94 -154l184 -201l-8 -16h-101l-143 156q-98 -94 -211 -139.5t-223 -45.5q-72 0 -152 18.5t-147.5 62.5t-111.5 118t-44 184zM186 375q0 -84 36 -144.5 t90.5 -99.5t120 -56.5t124.5 -17.5q90 0 186.5 36t182.5 118l-455 524q-55 -12 -106.5 -44t-91.5 -79t-63.5 -107.5t-23.5 -129.5z" />
<glyph unicode="'" horiz-adv-x="251" d="M227 958l84 478h78l-84 -478h-78z" />
<glyph unicode="(" horiz-adv-x="512" d="M158 473q0 150 31.5 303.5t97 297t166 270t235.5 223.5l31 -58q-115 -88 -204 -203.5t-149.5 -248.5t-91 -277.5t-30.5 -292.5q0 -88 11 -177t34.5 -171t58.5 -151.5t84 -120.5l-55 -62q-55 53 -97 129t-69 163t-40 183.5t-13 192.5z" />
<glyph unicode=")" horiz-adv-x="542" d="M-31 -133q113 86 202 202.5t150.5 253t94.5 285t33 295.5q0 88 -11.5 176t-35 167t-58.5 146.5t-84 116.5l51 60q57 -55 100.5 -130t70 -162t40 -182.5t13.5 -191.5q0 -154 -32 -308.5t-97.5 -296.5t-166 -268t-237.5 -223z" />
<glyph unicode="*" horiz-adv-x="573" d="M258 1321l31 61l164 -65l34 215h66l-41 -215l184 65l13 -59l-185 -61l84 -185l-57 -43l-82 205l-156 -205l-43 43l150 185z" />
<glyph unicode="+" horiz-adv-x="808" d="M154 700l14 76h289l63 371h86l-63 -371h288l-14 -76h-289l-65 -376h-86l65 376h-288z" />
<glyph unicode="," horiz-adv-x="282" d="M-41 -231l154 360h96l-182 -360h-68z" />
<glyph unicode="-" horiz-adv-x="808" d="M184 649l15 86h577l-14 -86h-578z" />
<glyph unicode="." horiz-adv-x="292" d="M66 0l24 135h92l-24 -135h-92z" />
<glyph unicode="/" horiz-adv-x="688" d="M-66 -162l900 1698h81l-901 -1698h-80z" />
<glyph unicode="0" horiz-adv-x="1298" d="M143 565q0 170 53.5 331t147.5 286t225 200.5t289 75.5q113 0 197 -47t141 -127t86 -187.5t29 -226.5q0 -170 -53.5 -330.5t-148.5 -285.5t-226 -201t-287 -76q-113 0 -198 47.5t-141 127t-85 186t-29 227.5zM240 578q0 -104 23.5 -197.5t69.5 -163.5t116.5 -110.5 t162.5 -40.5q131 0 242 67.5t191.5 179t126 254t45.5 291.5q0 104 -24 197.5t-71 164t-117.5 111.5t-162.5 41q-131 0 -242 -67.5t-190.5 -179t-124.5 -255t-45 -292.5z" />
<glyph unicode="1" horiz-adv-x="690" d="M186 1012l449 422h121l-252 -1434h-92l237 1346l-413 -396z" />
<glyph unicode="2" horiz-adv-x="1265" d="M82 90l883 625q102 72 153 152.5t68 162.5q14 86 -8.5 150.5t-74.5 106.5t-127 62.5t-161 22.5q-76 -2 -148.5 -17.5t-136 -51t-110.5 -96t-70 -152.5q-23 0 -45 1t-45 1q27 111 83 187.5t133 123.5t168 68.5t187 21.5q102 0 186.5 -24.5t144 -70.5t92 -113.5 t32.5 -153.5q0 -129 -65.5 -236.5t-223.5 -218.5l-776 -555q72 0 152 1t153 1l596 4l-16 -92h-1016z" />
<glyph unicode="3" horiz-adv-x="1325" d="M121 412h90q-12 -86 18.5 -150.5t91 -107.5t141.5 -64.5t167 -21.5q78 0 169 18t168.5 62.5t129 119t51.5 189.5q0 74 -35 126t-89 83.5t-120.5 47t-130.5 15.5h-192l12 76h166q80 0 164 16.5t151.5 53t110.5 98t43 151.5q0 72 -35 120t-89 77t-119.5 41t-129.5 12 q-74 0 -153.5 -15.5t-149.5 -50t-122 -91t-69 -140.5h-90q20 100 81 173t144 120t178 69.5t183 22.5q86 0 169 -18.5t148.5 -58t106.5 -102t41 -150.5q0 -141 -91 -238.5t-249 -128.5q115 -31 189.5 -100.5t74.5 -194.5q0 -133 -59.5 -225t-151.5 -150.5t-202.5 -85 t-215.5 -26.5q-106 0 -203.5 26.5t-168 79.5t-105.5 133t-18 189z" />
<glyph unicode="4" horiz-adv-x="1253" d="M84 426l1032 1014h105l-183 -1043h174l-16 -88h-174l-55 -309h-97l56 309h-820zM168 397h774l164 930l-107 -117l-831 -811v-2z" />
<glyph unicode="5" horiz-adv-x="1308" d="M129 399h84q-12 -90 20.5 -153.5t91 -103.5t131 -59.5t140.5 -21.5q94 0 192.5 25t180.5 80t134 142t52 212q0 96 -39 158.5t-100.5 99.5t-135 51.5t-141.5 14.5q-127 0 -252 -32t-217 -85q-10 12 -21 23.5t-22 23.5l170 660h910l-15 -86h-833l-127 -506 q92 43 200.5 65.5t215.5 22.5q68 0 154.5 -14.5t163.5 -56.5t130 -119.5t53 -202.5q0 -154 -62.5 -260.5t-157.5 -174t-212 -98.5t-223 -31q-92 0 -181 23.5t-157 76t-104.5 132.5t-22.5 194z" />
<glyph unicode="6" horiz-adv-x="1296" d="M180 446l92 527q20 123 79 214t141.5 151.5t182 90t204.5 29.5q76 0 144.5 -9t127.5 -33.5t105.5 -70t76.5 -114.5l-73 -47q-23 61 -69 98t-101.5 57.5t-115 26.5t-108.5 6q-84 0 -166 -22.5t-151.5 -70.5t-118.5 -123t-68 -181l-43 -244q39 59 94.5 104.5t117 75t128 44 t132.5 14.5q111 0 202.5 -31t153 -94.5t86 -157.5t4.5 -219q-23 -125 -81 -217t-141 -153.5t-185.5 -92.5t-213.5 -31q-90 0 -177 27t-152.5 84t-97 146t-9.5 216zM268 387q0 -90 29 -151.5t78 -99.5t112.5 -56.5t135.5 -20.5q106 0 201.5 29t168 88.5t114.5 149.5t42 215 q0 84 -27.5 147.5t-78 106.5t-119 64.5t-150.5 21.5q-90 0 -180 -29t-163 -89.5t-118 -153.5t-45 -222z" />
<glyph unicode="7" horiz-adv-x="1097" d="M129 0l2 6l995 1340v2h-854l15 86h942l4 -91l-1002 -1343h-102z" />
<glyph unicode="8" horiz-adv-x="1331" d="M111 322q0 90 29.5 162.5t84 128t127 92t158.5 55.5q-59 12 -107.5 41.5t-80 73t-44 99.5t0.5 120q23 111 85 182.5t148 114.5t184.5 59t190.5 16q84 0 168 -16t151.5 -54t109.5 -99.5t42 -153.5q0 -76 -31 -142.5t-82 -118t-117.5 -83t-136.5 -39.5q68 -10 124 -43 t93 -82t52.5 -112.5t3.5 -137.5q-25 -129 -93.5 -210t-162 -128t-201 -64.5t-207.5 -17.5q-90 0 -177 17.5t-156.5 59.5t-112.5 109.5t-43 170.5zM207 336q0 -78 33.5 -131t89 -88t125 -50.5t139.5 -15.5q92 0 194.5 11.5t189.5 51.5t143.5 115.5t56.5 204.5q0 74 -31 127 t-85 88t-128 52.5t-160 17.5q-117 0 -219 -19.5t-180 -64.5t-123 -119t-45 -180zM369 1047q0 -123 98 -183.5t272 -60.5q115 0 211.5 17.5t166 55t108.5 99t39 149.5q0 74 -37 123t-94.5 80t-127 43t-135.5 12q-80 0 -169 -13t-162.5 -50t-121.5 -102.5t-48 -169.5z" />
<glyph unicode="9" horiz-adv-x="1296" d="M131 203l74 47q25 -61 71 -99t101 -57.5t114.5 -27t108.5 -7.5q84 0 166 22.5t150.5 71t117.5 123t68 181.5l43 243q-41 -59 -95.5 -104t-116 -74.5t-128 -44t-129.5 -14.5q-113 0 -204 31.5t-152.5 94t-87 157t-3.5 221.5q23 125 80.5 217t140 153.5t185 91t213.5 29.5 q88 0 176 -26.5t153.5 -84t98.5 -147.5t10 -215l-92 -526q-23 -123 -81 -214t-140 -151.5t-182.5 -90.5t-204.5 -30q-76 0 -144.5 9.5t-127 35t-105.5 69.5t-78 116zM317 893q0 -84 28 -148.5t78 -107.5t118.5 -64.5t150.5 -21.5q88 0 178.5 29.5t163 90t117.5 154t45 222.5 q0 88 -28.5 149t-78 99t-112.5 56.5t-133 20.5q-106 0 -201.5 -28.5t-168.5 -87t-115 -148.5t-42 -215z" />
<glyph unicode=":" horiz-adv-x="309" d="M66 0l24 139h88l-24 -139h-88zM211 827l27 148h88l-27 -148h-88z" />
<glyph unicode=";" horiz-adv-x="258" d="M-37 -170l113 287h88l-141 -287h-60zM199 827l26 148h88l-26 -148h-88z" />
<glyph unicode="&#x3c;" horiz-adv-x="552" d="M102 662l9 51l444 395h100l-2 -12l-460 -410l321 -407l-2 -13h-104z" />
<glyph unicode="=" horiz-adv-x="886" d="M127 449l14 83h711l-14 -83h-711zM190 805l15 82h710l-14 -82h-711z" />
<glyph unicode="&#x3e;" horiz-adv-x="561" d="M63 246l3 12l464 408l-317 409l2 12h100l306 -395l-9 -51l-444 -395h-105z" />
<glyph unicode="?" horiz-adv-x="1200" d="M221 1038q18 104 74.5 183t136.5 132.5t178.5 80t200.5 26.5q88 0 169 -21.5t143.5 -65.5t99.5 -111.5t37 -161.5q0 -121 -35 -196t-90.5 -121t-125 -71.5t-139.5 -43.5q-66 -18 -119 -51t-87 -91q-25 -41 -36.5 -96t-23.5 -123h-84q10 61 26.5 131t35.5 107 q41 82 101 121t127 60.5t132.5 36.5t117.5 48t85 95.5t33 180.5q0 76 -34 130.5t-87 89t-122 51t-138 16.5q-86 0 -169 -21.5t-151.5 -63.5t-117 -104.5t-64.5 -146.5h-74zM463 0l26 154h91l-27 -154h-90z" />
<glyph unicode="@" horiz-adv-x="1531" d="M127 371q0 209 70.5 387t187.5 308t266.5 202.5t306.5 72.5q123 0 225.5 -38.5t175.5 -117.5t112.5 -197t39.5 -275q0 -68 -10 -147t-30.5 -156.5t-50 -150.5t-67.5 -128t-84 -88t-98 -33q-70 0 -90 65.5t-8 170.5q-63 -104 -159.5 -161.5t-192.5 -57.5q-147 0 -243.5 96 t-96.5 291q0 139 43 251.5t115.5 191.5t166 122t191.5 43q94 0 171 -50t106 -153q12 45 22 88t21 88h73l-143 -809q-6 -41 5 -66.5t34 -25.5q49 0 93 62.5t77 154.5t52 196.5t19 190.5q0 143 -35.5 249t-99 175.5t-153 103.5t-195.5 34q-137 0 -268 -66t-234.5 -182.5 t-166 -279.5t-62.5 -357q0 -135 35 -241.5t97.5 -181.5t147.5 -114t185 -39q156 0 307 95l23 -68q-86 -55 -174.5 -81t-171.5 -26q-115 0 -213.5 46.5t-170 132.5t-111.5 205.5t-40 267.5zM465 426q0 -162 75.5 -241t192.5 -79q76 0 147.5 37t127 104.5t89 162t33.5 206.5 q0 145 -60 233.5t-187 88.5q-80 0 -156 -33t-134 -97.5t-93 -160.5t-35 -221z" />
<glyph unicode="A" horiz-adv-x="1286" d="M-27 0l842 1440h98l334 -1440h-104l-88 395h-746l-227 -395h-109zM358 481h676l-110 486l-76 385l-211 -385z" />
<glyph unicode="B" horiz-adv-x="1220" d="M100 0l252 1434h570q63 0 119.5 -18.5t98.5 -55.5t66.5 -93t24.5 -132q0 -59 -17.5 -120t-49 -112t-76 -89t-97.5 -56q51 -12 87 -42t58.5 -72t33 -90t10.5 -97q0 -129 -47.5 -216t-118 -140.5t-156.5 -77t-162 -23.5h-596zM209 86h502q57 0 123.5 14.5t124 55.5 t95.5 113.5t38 189.5q0 74 -24 122t-61.5 76.5t-87 41t-98.5 12.5h-502zM336 797h489q135 4 223.5 86t88.5 241q0 63 -20.5 106.5t-52.5 69t-73 37t-84 11.5h-475z" />
<glyph unicode="C" horiz-adv-x="1251" d="M145 563q0 156 47.5 314.5t139.5 287.5t231 210t324 81q184 0 301 -91t151 -265l-79 -33q-35 143 -131.5 223t-254.5 80q-160 0 -278.5 -74.5t-196 -191.5t-116.5 -257t-39 -269q0 -96 21.5 -188.5t69.5 -164t124 -115.5t186 -44q170 0 293 80.5t207 236.5l72 -31 q-98 -180 -245 -276t-345 -96q-129 0 -220.5 48t-149.5 130t-85 186t-27 219z" />
<glyph unicode="D" horiz-adv-x="1314" d="M100 0l252 1434h510q123 0 211 -49.5t144.5 -130t82 -185t25.5 -213.5q0 -156 -49 -308.5t-141.5 -274t-224.5 -197.5t-300 -76h-510zM213 86h414q133 0 243.5 63.5t189.5 170t123 242.5t44 282q0 102 -22.5 193t-68.5 161t-118 110t-168 40h-414z" />
<glyph unicode="E" horiz-adv-x="1103" d="M100 0l252 1434h867l-15 -86h-772l-104 -588h743l-14 -86h-744l-104 -588h772l-14 -86h-867z" />
<glyph unicode="F" horiz-adv-x="1085" d="M100 0l252 1434h865l-15 -86h-770l-104 -590h731l-15 -88h-731l-118 -670h-95z" />
<glyph unicode="G" horiz-adv-x="1335" d="M156 559q0 104 20.5 212t62.5 207t103 186t144 151.5t186.5 102.5t226.5 38q182 0 297 -87t150 -257l-84 -31q-35 141 -126.5 215t-250.5 74q-160 0 -279 -75.5t-196.5 -192.5t-116.5 -257t-39 -272q0 -98 21.5 -189t68.5 -162.5t123 -115t186 -43.5q158 0 283 62.5 t205 220.5l51 299h-465q4 23 8 42.5t8 41.5h557l-73 -412q-98 -178 -250 -259t-338 -81q-129 0 -221 48.5t-150.5 128t-85 185t-26.5 220.5z" />
<glyph unicode="H" horiz-adv-x="1316" d="M102 0l252 1434h97l-119 -674h837l119 674h96l-251 -1434h-97l119 674h-838l-118 -674h-97z" />
<glyph unicode="I" horiz-adv-x="387" d="M106 0l252 1434h95l-252 -1434h-95z" />
<glyph unicode="J" horiz-adv-x="1306" d="M136 334q-9 53 -9 114q0 79 16 173h88q-13 -77 -13 -147q0 -35 3 -68q10 -101 54 -176.5t126 -118.5t205 -43q92 0 176 27.5t154 91t121 168t80 259.5l129 734h-527l15 86h624l-145 -820q-27 -154 -85 -271.5t-141 -198.5t-189.5 -121.5t-231.5 -40.5q-117 0 -211 36.5 t-155.5 115.5t-83.5 200z" />
<glyph unicode="K" horiz-adv-x="1232" d="M102 0l252 1434h95l-158 -904l485 453l500 451h125v-9l-709 -641l494 -778l-2 -6h-43h-76l-453 723l-344 -313l-71 -410h-95z" />
<glyph unicode="L" horiz-adv-x="1085" d="M100 0l252 1434h97l-238 -1348h768l-14 -86h-865z" />
<glyph unicode="M" horiz-adv-x="1566" d="M102 0l252 1434h117l371 -877l680 877h114l-252 -1434h-96l131 739l109 570l-678 -863h-57l-371 863l-92 -570l-131 -739h-97z" />
<glyph unicode="N" horiz-adv-x="1325" d="M102 0l252 1434h105l622 -1309l76 502l141 807h97l-252 -1434h-107l-616 1292l-80 -485l-141 -807h-97z" />
<glyph unicode="O" horiz-adv-x="1372" d="M154 563q0 156 47 314.5t140 286.5t233.5 209t324.5 81q129 0 221 -48t150.5 -129t85 -186.5t26.5 -218.5q0 -156 -47 -315.5t-140 -288.5t-232.5 -210t-323.5 -81q-129 0 -221 48.5t-150.5 130.5t-86 187t-27.5 220zM252 575q0 -96 20.5 -188t67.5 -163.5t124 -116 t189 -44.5q106 0 194.5 35t159 94.5t122 138.5t86 167t52 181t17.5 179q0 96 -19.5 187.5t-65.5 163t-122.5 115.5t-191.5 44q-160 0 -280 -74.5t-197.5 -191.5t-116.5 -257t-39 -270z" />
<glyph unicode="P" horiz-adv-x="1179" d="M100 0l252 1434h553q88 0 152.5 -28t106.5 -77t61.5 -115.5t19.5 -142.5q0 -106 -37 -201.5t-102.5 -167t-156.5 -113.5t-201 -42h-457l-96 -547h-95zM305 633h457q88 0 159.5 32.5t123 90t79 135.5t27.5 168q0 125 -63.5 207t-196.5 82h-459z" />
<glyph unicode="Q" horiz-adv-x="1386" d="M156 563q0 156 47 314.5t140 286.5t233.5 209t324.5 81q129 0 221 -48t150.5 -129t85 -186.5t26.5 -218.5q0 -184 -65.5 -362t-200.5 -322l111 -176l-2 -12h-101l-77 123q-82 -68 -183.5 -107t-224.5 -39q-129 0 -221 48.5t-150.5 130.5t-86 187t-27.5 220zM254 575 q0 -96 21.5 -188t69.5 -163.5t124 -116t186 -44.5q104 0 190.5 36t158.5 98l-170 268l2 8h102l133 -209q111 131 163 286t52 308q0 96 -21.5 187.5t-68.5 163t-123 115.5t-186 44q-160 0 -280 -74.5t-197.5 -191.5t-116.5 -257t-39 -270z" />
<glyph unicode="R" horiz-adv-x="1210" d="M100 0l252 1434h574q78 0 159.5 -22.5t137.5 -88.5q35 -41 50 -101.5t15 -123.5q0 -129 -40 -221.5t-112.5 -151.5t-177 -88t-233.5 -29l389 -602l-2 -6h-115l-387 606h-307l-106 -606h-97zM319 692h492q96 4 168 37t119 86t69.5 124t22.5 151q0 78 -25.5 128t-65.5 78.5 t-90.5 40t-97.5 11.5h-477z" />
<glyph unicode="S" horiz-adv-x="1263" d="M113 397h90q-3 -27 -4 -51q-1 -60 21 -106q30 -64 89.5 -104t139 -58.5t165.5 -18.5q90 0 179.5 21.5t159 68t112.5 119t43 174.5q0 76 -33 122t-87 72t-124.5 37t-146.5 19q-84 8 -168 21.5t-149.5 44t-106.5 88t-41 155.5q0 119 50 205t133 141.5t188.5 82t214.5 26.5 q96 0 183 -21.5t149 -67.5q64 -45 94 -119q21 -50 21 -115q0 -29 -5 -62h-90q3 23 3 43q-1 54 -19 94q-26 56 -78 92.5t-122.5 53t-148.5 16.5q-92 0 -178 -20.5t-152.5 -63.5t-106.5 -109.5t-40 -158.5q0 -80 37 -125t98.5 -68.5t139 -34t159.5 -18.5q80 -10 156 -24.5 t135.5 -47t96 -90t36.5 -151.5q0 -127 -53 -219.5t-139 -151.5t-194.5 -87t-219.5 -28q-109 0 -204 23.5t-163.5 75t-102.5 132.5q-23 54 -23 122q0 34 6 71z" />
<glyph unicode="T" horiz-adv-x="1153" d="M227 1348l15 86h1110l-15 -86h-506l-237 -1348h-96l237 1348h-508z" />
<glyph unicode="U" horiz-adv-x="1413" d="M211 360q-11 58 -11 125q0 90 19 197l133 752h97l-134 -752q-19 -102 -19 -186q0 -54 8 -101q20 -119 72 -193.5t131 -108.5t167 -34t179 34t170 108.5t139.5 193.5t90.5 287l133 752h97l-133 -752q-33 -188 -106 -322.5t-167 -220.5t-202.5 -126t-215.5 -40 q-106 0 -200 40t-158.5 126.5t-89.5 220.5z" />
<glyph unicode="V" horiz-adv-x="1269" d="M221 1432v2h105l206 -965l74 -401l213 401l547 965h104v-2l-831 -1444h-96z" />
<glyph unicode="W" horiz-adv-x="1869" d="M223 1434h103l133 -889l53 -412h4l207 418l324 612h94l106 -612l60 -418h4l196 412l447 889h102l-729 -1446h-82l-133 774l-39 291l-141 -291l-406 -774h-80z" />
<glyph unicode="X" horiz-adv-x="1128" d="M-29 0l2 6l633 711l-360 708v9h112l203 -408l113 -250l198 250l347 408h108v-11l-604 -706l381 -713v-4h-113l-221 408l-119 247l-205 -247l-364 -408h-111z" />
<glyph unicode="Y" horiz-adv-x="1181" d="M221 1425l2 9h113l205 -465l133 -320l250 328l362 457h113l-2 -7l-690 -852l-103 -575h-96l102 575z" />
<glyph unicode="Z" horiz-adv-x="1155" d="M18 84l873 942l305 320v2h-907l14 86h995l15 -80l-916 -989l-268 -281h952l-14 -86h-1036z" />
<glyph unicode="[" horiz-adv-x="489" d="M63 -231l322 1820h336l-14 -76h-254l-293 -1669h254l-15 -75h-336z" />
<glyph unicode="\" horiz-adv-x="665" d="M242 1552h88l301 -1697h-86z" />
<glyph unicode="]" horiz-adv-x="530" d="M-53 -231l14 75h254l293 1669h-254l14 76h336l-321 -1820h-336z" />
<glyph unicode="^" horiz-adv-x="870" d="M121 719l495 717h62l250 -717l-2 -2h-88l-105 307l-102 317l-213 -317l-209 -307h-86z" />
<glyph unicode="_" horiz-adv-x="804" d="M-37 -125l12 72h768l-12 -72h-768z" />
<glyph unicode="`" horiz-adv-x="411" d="M285 1446v2h108l101 -234v-4h-84z" />
<glyph unicode="a" d="M113 379q0 111 32.5 220.5t97 197.5t162 143t226.5 55h8q119 0 189 -58q72 -60 87 -177l43 213h76l-172 -973h-71l28 211q-59 -111 -154.5 -171t-213.5 -60q-90 0 -155 32.5t-105.5 88t-59 127t-18.5 151.5zM205 391q0 -63 13 -122.5t44 -105.5t81 -75t124 -29 q104 0 181 54.5t127 135.5t74.5 173t24.5 170q0 66 -15 125t-47 103t-80 69.5t-114 25.5q-104 0 -181 -49t-129 -125.5t-77.5 -170t-25.5 -179.5z" />
<glyph unicode="b" horiz-adv-x="1038" d="M84 0l254 1436h88l-119 -664q57 104 153 164q93 59 201 59h7q90 0 153.5 -32.5t104.5 -87t60.5 -127t19.5 -152.5q0 -111 -33 -221.5t-98.5 -197.5t-162 -142t-225.5 -55q-115 0 -190.5 63t-93.5 170l-45 -213h-74zM248 406q0 -61 13 -123t42 -112t77 -81t120 -31 q109 0 186.5 50.5t128.5 127t74.5 168t23.5 175.5q0 63 -12 123.5t-43 107.5t-81 75.5t-126 28.5q-90 0 -164.5 -43t-128 -113.5t-82 -162.5t-28.5 -190z" />
<glyph unicode="c" horiz-adv-x="907" d="M111 379q0 106 31.5 214.5t95 198t160 145.5t225.5 56q115 0 197.5 -60.5t103.5 -187.5l-78 -32q-23 109 -88.5 153.5t-149.5 44.5q-104 0 -180 -50t-126 -127t-74.5 -169t-24.5 -174q0 -61 13 -120.5t43 -105.5t79 -74t121 -28q45 0 88 9.5t83 34t76.5 66.5t71.5 108 l74 -23q-61 -129 -166 -202.5t-244 -73.5q-88 0 -151.5 32.5t-103.5 87t-58 126t-18 151.5z" />
<glyph unicode="d" horiz-adv-x="1034" d="M121 299q-4 35 -4 71q0 58 10 117q18 98 59 189.5t103.5 162t148.5 113.5t195 43h7q106 0 180 -57q76 -59 93 -166l117 664h88l-254 -1436h-69l28 205q-59 -111 -155.5 -168t-214.5 -57q-102 0 -172 43t-110 113.5t-50 162.5zM208 309q9 -76 41 -131t87 -87t133 -32 q106 0 183 54.5t127 135.5t74 174t24 169q0 66 -15.5 125t-47.5 103t-80 69.5t-113 25.5q-92 0 -162 -39.5t-120 -102t-81 -141.5t-45 -157q-9 -55 -9 -104q0 -32 4 -62z" />
<glyph unicode="e" horiz-adv-x="942" d="M112 305q-3 31 -4 62q0 63 13 129q25 135 76 228t120.5 151.5t149.5 85t162 26.5q59 0 114.5 -14.5t98.5 -46t68.5 -80.5t25.5 -117q-2 -76 -29.5 -129t-74 -87t-107.5 -49t-129 -15h-389q-6 -45 -6 -87q0 -30 3 -58q7 -68 36.5 -121.5t85 -85t141.5 -31.5q94 0 172 42 t131 128l68 -29q-76 -121 -180.5 -171t-206.5 -50q-109 0 -180.5 43t-110 113.5t-48.5 162.5zM219 522h389q109 0 173.5 45t68.5 160v8q0 42 -18 74q-20 35 -53.5 56.5t-76.5 31.5t-88 10q-57 0 -117.5 -20.5t-114.5 -66.5t-97 -119.5t-66 -178.5z" />
<glyph unicode="f" horiz-adv-x="651" d="M80 -463l242 1366h-175l13 70h174l22 131q14 86 48 151.5t82.5 108.5t105.5 64.5t119 21.5q47 -2 92 -12.5t80 -38.5l-49 -64q-27 20 -63 29q-29 6 -58 6h-13q-57 0 -101 -22.5t-74.5 -59.5t-51 -85t-29.5 -99l-22 -131h338l-12 -70h-338l-242 -1366h-88z" />
<glyph unicode="g" d="M57 -242l78 35q27 -90 101.5 -133t166.5 -43q57 0 116 19.5t110 59.5t88 102.5t53 150.5l45 239q-55 -104 -154.5 -157.5t-209.5 -53.5q-109 0 -179.5 43t-108.5 114t-46 162q-3 30 -3 61q0 63 11 128q18 98 58 189.5t102.5 162t148.5 113.5t195 43h8q115 0 187 -59 q73 -62 94 -172l47 211h67l-180 -1024q-18 -106 -65.5 -184t-111 -128.5t-138 -75t-148.5 -24.5q-57 0 -110.5 13.5t-97.5 41t-76.5 68.5t-47.5 98zM204 320q7 -72 36.5 -130.5t85 -95.5t141.5 -37q90 0 165 43t127 114t80.5 163t28.5 192q0 72 -11 134.5t-38.5 109.5 t-77 73.5t-125.5 26.5q-96 0 -165.5 -39.5t-118.5 -104t-79 -144.5t-44 -160q-8 -45 -8 -91q0 -27 3 -54z" />
<glyph unicode="h" horiz-adv-x="1026" d="M84 0l254 1436h90l-113 -629q57 100 146.5 143t191.5 43q100 0 166 -36.5t99.5 -99t39.5 -145.5q2 -23 3 -47q0 -62 -13 -128l-94 -537h-90l94 539q12 74 12 130q0 31 -4 57q-10 72 -42.5 114.5t-82 58.5t-106.5 16q-53 0 -108.5 -16t-104.5 -55t-88 -102.5t-58 -155.5 l-102 -586h-90z" />
<glyph unicode="i" horiz-adv-x="346" d="M88 0l172 973h90l-172 -973h-90zM307 1245l29 162h88l-29 -162h-88z" />
<glyph unicode="j" horiz-adv-x="391" d="M-291 -422l51 68q33 -27 64 -33t74 -6q49 0 84.5 22.5t60.5 58.5t40 77.5t21 80.5l199 1127h90l-198 -1127q-10 -61 -35 -118.5t-64 -101.5t-93 -70.5t-124 -28.5h-14q-37 0 -74 8q-45 10 -82 43zM348 1243l29 162h90l-29 -162h-90z" />
<glyph unicode="k" horiz-adv-x="856" d="M82 0l254 1436h90l-186 -1047l256 250l356 334h109l-3 -4l-458 -428l305 -541h-100l-269 479l-217 -200l-49 -279h-88z" />
<glyph unicode="l" horiz-adv-x="358" d="M84 0l254 1436h90l-254 -1436h-90z" />
<glyph unicode="m" horiz-adv-x="1585" d="M82 0l172 973h74l-27 -199q53 98 135 157.5t193 59.5q51 0 97 -13t81 -44t57.5 -82t26.5 -125q29 74 69.5 124t89 82t100.5 46t105 14q104 0 163 -37q58 -38 84 -100q24 -58 24 -133v-12q-2 -82 -17 -170l-96 -541h-90l96 541q11 72 17 138l2 32q0 47 -12 87 q-16 52 -61.5 83.5t-135.5 31.5q-72 0 -129.5 -31.5t-100.5 -84t-70.5 -121t-39.5 -141.5l-94 -535h-90l94 535q14 85 14 148q0 17 -1 33q-5 72 -30.5 117.5t-68.5 63.5t-97 18q-55 0 -111 -25.5t-103.5 -74.5t-83 -121.5t-54.5 -165.5l-92 -528h-90z" />
<glyph unicode="n" horiz-adv-x="1021" d="M82 0l172 973h70l-17 -166q55 100 147.5 143t194.5 43t168 -36.5t99.5 -99t39.5 -145.5q2 -23 2 -47q0 -62 -12 -128l-94 -537h-90l94 537q12 72 12 140t-23.5 121.5t-74.5 85t-139 31.5q-53 0 -108.5 -16t-104.5 -55t-87 -102.5t-57 -155.5l-102 -586h-90z" />
<glyph unicode="o" horiz-adv-x="1005" d="M115 381q0 113 32.5 222.5t98 196.5t163 140t224.5 53q90 0 154.5 -32.5t105.5 -87t60.5 -127t19.5 -152.5q0 -111 -33 -220.5t-98.5 -196.5t-161.5 -141t-225 -54q-90 0 -154.5 32.5t-105.5 87t-60.5 127t-19.5 152.5zM207 395q0 -61 13 -121.5t44 -106.5t81 -75 t124 -29q104 0 181 48.5t129 124t78 167t26 175.5q0 66 -13.5 126t-45 106t-82 73.5t-124.5 27.5q-104 0 -182 -49t-129 -124.5t-75.5 -167t-24.5 -175.5z" />
<glyph unicode="p" horiz-adv-x="1040" d="M0 -463l254 1436h72l-31 -213q59 113 153 174q92 59 208 59h8q90 0 154.5 -32.5t105.5 -88t59 -127t18 -151.5q0 -111 -31.5 -220.5t-96 -197.5t-162 -143.5t-226.5 -55.5q-111 0 -183.5 57.5t-98.5 155.5l-115 -653h-88zM240 381q0 -141 63.5 -232.5t194.5 -91.5 q104 0 182 49.5t130 126t77.5 169t25.5 178.5q0 63 -12 122.5t-43 106.5t-82 75.5t-129 28.5q-104 0 -181 -54t-127 -135t-74.5 -174t-24.5 -169z" />
<glyph unicode="q" horiz-adv-x="1034" d="M117 296q-3 30 -3 61q0 63 11 128q18 98 58 189.5t103.5 162t149.5 113.5t195 43h7q118 0 186 -65q69 -68 89 -178l48 223h73l-252 -1436h-88l113 641q-59 -100 -151.5 -150.5t-202.5 -50.5q-109 0 -179.5 43t-109.5 114t-47 162zM206 334q5 -74 33.5 -135.5t84 -101.5 t145.5 -40t165 43t127 114t80.5 163t28.5 192q0 61 -13 123t-42 111t-78 79.5t-119 30.5q-94 0 -163.5 -38.5t-118.5 -102t-79 -141.5t-44 -154q-8 -48 -8 -99q0 -22 1 -44z" />
<glyph unicode="r" horiz-adv-x="712" d="M84 0l172 973h78l-27 -189q57 109 144.5 157t175.5 48q55 0 105 -19.5t89 -54.5l-53 -75q-69 65 -155 65h-3q-59 0 -115.5 -27.5t-101.5 -76.5t-77.5 -116t-47.5 -146l-94 -539h-90z" />
<glyph unicode="s" horiz-adv-x="897" d="M82 270h90q-2 -15 -2 -30q0 -35 14 -63q20 -40 56 -66.5t85.5 -39t102.5 -12.5q57 0 109.5 12.5t93.5 39t69.5 67.5t38.5 98q2 15 2 28q-1 40 -19 68q-24 36 -66 53t-94 23.5t-99 12.5q-53 6 -104.5 17t-91.5 34t-64.5 61.5t-24.5 100.5q0 86 35 146.5t91 99t127 56 t142 17.5q63 0 125 -11t108 -41t70 -80q16 -34 17 -80q0 -23 -4 -48h-86q1 12 1 24q0 39 -16 66q-20 35 -57 54.5t-83 26.5t-87 7q-127 0 -209 -56t-82 -167q0 -47 21.5 -74.5t57.5 -43t83 -22.5t100 -11q68 -6 128.5 -21.5t102.5 -46.5q41 -31 61 -79q11 -27 12 -63 q0 -27 -7 -59q-14 -80 -54 -135t-96 -89t-125 -49t-142 -15q-68 0 -132.5 16t-112.5 51q-49 35 -73 91q-16 37 -16 84q0 23 4 48z" />
<glyph unicode="t" horiz-adv-x="684" d="M170 903l12 70h170l47 272l84 47h17l-58 -319h324l-12 -70h-324l-102 -584q-8 -55 -8 -97q0 -12 1 -24q3 -48 23.5 -78t61 -43.5t106.5 -13.5q51 0 104 29l19 -72q-72 -38 -142 -38h-4q-72 0 -127 17t-87.5 57t-42.5 104q-4 25 -5 54q0 47 11 105l102 584h-170z" />
<glyph unicode="u" horiz-adv-x="1021" d="M148 263q-2 23 -2 47q0 62 12 128l94 535h90l-94 -535q-11 -66 -11 -130v-10q1 -68 25.5 -121.5t75.5 -85.5t135 -32q53 0 108.5 16.5t104.5 55.5t87 102.5t56 155.5l103 584h90l-170 -973h-70l15 168q-53 -100 -146.5 -143t-195.5 -43t-167 36.5t-99.5 99t-40.5 145.5z " />
<glyph unicode="v" horiz-adv-x="876" d="M133 967l2 6h98l123 -535l62 -327l180 327l311 535h101l-2 -6l-572 -975h-76z" />
<glyph unicode="w" horiz-adv-x="1349" d="M141 967l2 6h93l94 -586l35 -295l137 277l223 426h104l78 -426l37 -277l137 295l301 586h101l-2 -6l-506 -973h-90l-68 323l-51 390l-191 -390l-182 -323h-90z" />
<glyph unicode="x" horiz-adv-x="796" d="M-31 0l2 8l428 479l-245 480l2 6h102l205 -426l98 131l252 295h107l-2 -6l-412 -480l258 -479l-2 -8h-98l-222 428l-106 -135l-258 -293h-109z" />
<glyph unicode="y" horiz-adv-x="882" d="M76 -461l2 10l276 471l-221 947v6h98l131 -557l60 -293h2l154 285l325 565h98v-6l-827 -1428h-98z" />
<glyph unicode="z" horiz-adv-x="819" d="M4 84l488 504l301 305h-615l15 80h688l14 -84l-487 -506l-293 -303h635l-15 -80h-715z" />
<glyph unicode="{" horiz-adv-x="557" d="M162 627l14 80q76 0 126 68.5t67 166.5l45 256q16 92 43.5 157.5t70.5 105.5t103.5 58.5t142.5 18.5l-12 -70q-61 0 -105.5 -12t-75 -42t-50 -82t-33.5 -132l-43 -248q-16 -98 -61.5 -171.5t-119.5 -112.5q39 -18 59.5 -50t27 -74t2 -93.5t-14.5 -106.5l-45 -254 q-23 -127 21.5 -180t148.5 -57l-12 -74q-139 6 -205 79.5t-37 231.5l45 254q10 61 11 112.5t-10 89.5t-36.5 59.5t-66.5 21.5z" />
<glyph unicode="|" horiz-adv-x="374" d="M59 -244l316 1790h84l-316 -1790h-84z" />
<glyph unicode="}" horiz-adv-x="608" d="M-25 -221l13 74q106 4 169.5 57t86.5 180l47 272q20 113 58 200t130 124q-59 39 -77.5 112.5t-2.5 172.5l41 235q14 80 12.5 132.5t-22 82t-59.5 42t-101 12.5l13 69q164 0 219 -76.5t22 -263.5l-43 -243q-20 -98 6.5 -167t102.5 -69l-12 -80q-41 0 -74 -21.5 t-58.5 -59.5t-43 -89t-27.5 -113l-47 -272q-29 -160 -119 -232.5t-234 -78.5z" />
<glyph unicode="~" horiz-adv-x="876" d="M102 528q51 94 112.5 135.5t133.5 41.5q51 0 89 -27t73 -57.5t69.5 -57t82.5 -26.5q49 0 98 35.5t80 107.5l63 -23q-49 -98 -118.5 -147t-147.5 -49q-53 0 -92 25.5t-73 57t-67.5 57.5t-76.5 26q-45 0 -89 -32t-79 -95z" />
<glyph unicode="&#xa1;" horiz-adv-x="364" d="M14 -453l197 1112h90l-197 -1112h-90zM236 817l28 164h96l-28 -164h-96z" />
<glyph unicode="&#xa2;" horiz-adv-x="933" d="M111 383q0 117 39.5 221.5t105.5 184t152 131t178 61.5l22 135h76l-22 -133q102 -8 175.5 -63.5t108.5 -165.5l-74 -39q-29 94 -89 135t-138 49l-149 -852q86 8 171 60.5t144 160.5l63 -32q-72 -125 -176 -194t-217 -77l-24 -139h-76l25 141q-66 8 -120.5 43t-93 90.5 t-60 127t-21.5 155.5zM201 393q0 -68 16 -128t45 -105t69 -75t89 -36l149 846q-70 -10 -136 -53t-117.5 -109.5t-83 -154t-31.5 -185.5z" />
<glyph unicode="&#xa3;" horiz-adv-x="1208" d="M66 70q111 94 180 226t69 288v39h-184l12 73h154q-6 39 -13.5 77t-11.5 77t-4 82t11 90q20 117 79.5 200t139.5 137t173 78.5t183 24.5q86 0 165 -20.5t135 -68.5t83 -127t8 -195h-82q14 92 -5 153.5t-63 100t-110.5 55t-144.5 16.5q-94 0 -180.5 -25.5t-153 -77.5 t-105.5 -132t-39 -191q0 -66 10.5 -129t18.5 -125h428l-12 -73h-404q-2 -33 -5 -72t-9 -74q-10 -55 -24.5 -100t-36 -85t-51 -78t-68.5 -81l2 -2q59 31 111.5 43t93.5 12t82 -10t84 -26q37 -16 68.5 -31t62 -27t63.5 -19t74 -7q31 0 56.5 4t52 14t56 30.5t68.5 53.5l43 -68 q-82 -70 -153.5 -96.5t-134.5 -26.5q-61 0 -116.5 18.5t-111 41t-113 41t-120.5 18.5q-59 0 -131 -24.5t-137 -73.5q-10 16 -21.5 34.5t-21.5 37.5z" />
<glyph unicode="&#xa4;" horiz-adv-x="866" d="M47 250l148 153q-16 37 -24.5 86.5t-8.5 98.5q0 100 34.5 188t92.5 160l-94 154l77 67l93 -156q102 90 221 91q121 0 192 -91l148 156l51 -67l-148 -154q16 -37 24.5 -88t8.5 -100q0 -98 -33.5 -184.5t-93.5 -160.5l94 -153l-75 -68l-92 156q-100 -88 -222 -88 q-123 0 -192 88l-148 -156zM246 608q0 -57 15 -107t43 -88t68 -59.5t89 -21.5q61 0 118.5 33.5t102.5 90t71.5 129t26.5 150.5q0 55 -14 105.5t-41 88.5t-64.5 60.5t-87.5 22.5q-66 0 -125 -34t-104 -90.5t-71.5 -129t-26.5 -150.5z" />
<glyph unicode="&#xa5;" horiz-adv-x="1181" d="M221 1425l2 9h113l205 -465l127 -307h14l242 315l362 457h113l-2 -7l-621 -765h287l-12 -74h-334l-10 -13l-33 -182h342l-12 -74h-342l-58 -319h-96l57 319h-338l13 74h338l32 182l-6 13h-330l13 74h282z" />
<glyph unicode="&#xa6;" horiz-adv-x="399" d="M94 -178l129 729h90l-129 -729h-90zM250 705l129 729h90l-129 -729h-90z" />
<glyph unicode="&#xa7;" horiz-adv-x="1048" d="M82 248l90 2q-10 -66 17.5 -111t75.5 -71.5t109.5 -38t119.5 -11.5q70 0 137 14.5t119.5 44t85 74t32.5 105.5q0 78 -57 124t-152 56q-37 4 -84 7t-96 10.5t-97 20.5t-85 38t-59.5 62.5t-22.5 95.5q0 94 69.5 173t186.5 105q-100 16 -139 70.5t-39 120.5q0 94 44 157.5 t111.5 102.5t148.5 55t155 16q66 0 135 -12t124.5 -45t87 -87t19.5 -138h-86q8 57 -14.5 97t-64.5 64.5t-99 36t-119 11.5q-72 0 -137.5 -14.5t-114.5 -45t-77.5 -78t-28.5 -112.5q0 -59 43 -98t129 -50q35 -4 81 -7t85 -7q66 -8 122 -23.5t96 -43t62.5 -67.5t22.5 -97 q0 -94 -63.5 -169t-172.5 -108q84 -23 129 -78t45 -133q0 -90 -42 -151.5t-111.5 -99.5t-156.5 -55t-175 -17q-68 0 -142.5 14t-135 50t-94 94.5t-17.5 146.5zM303 711q-10 -57 14.5 -94t69.5 -58.5t102.5 -30t110.5 -8.5q37 0 93.5 5t110.5 26.5t92 64.5t38 117 q0 82 -77 132t-206 50q-61 0 -119.5 -12t-105.5 -36.5t-80 -63.5t-43 -92z" />
<glyph unicode="&#xa8;" horiz-adv-x="546" d="M289 1423l20 119h103l-21 -119h-102zM629 1423l20 119h103l-21 -119h-102z" />
<glyph unicode="&#xa9;" horiz-adv-x="1304" d="M150 571q0 168 59 322t159.5 270.5t228.5 185t267 68.5q106 0 191.5 -46t146 -125t93 -186.5t32.5 -230.5q0 -170 -59.5 -322.5t-158.5 -268t-229.5 -184t-269.5 -68.5q-104 0 -189 46t-145.5 125t-93 185.5t-32.5 228.5zM244 588q0 -104 27.5 -196.5t77.5 -160 t121 -106.5t159 -39q117 0 226.5 58.5t194.5 158.5t135 232.5t50 277.5q0 106 -27.5 198.5t-79 160t-123 106.5t-159.5 39q-117 0 -225.5 -59.5t-192.5 -160t-134 -232.5t-50 -277zM426 631q0 94 34 178t90 147.5t127 100.5t144 37q86 0 152.5 -52.5t87.5 -167.5l-76 -34 q-23 92 -71 125.5t-107 33.5q-53 0 -105.5 -27.5t-93.5 -74.5t-65.5 -111.5t-24.5 -138.5q0 -51 13.5 -95t37 -78t57 -53.5t74.5 -19.5q63 0 130 42t118 135l68 -33q-66 -117 -155 -177.5t-177 -60.5q-57 0 -105.5 24.5t-82 68.5t-52 103.5t-18.5 127.5z" />
<glyph unicode="&#xaa;" horiz-adv-x="630" d="M193 975q0 51 21.5 91t55 66.5t76.5 40t84 13.5h205q8 47 -1 80.5t-30.5 55t-51.5 31t-63 9.5q-82 0 -153 -59l-31 53q43 39 95.5 58.5t105.5 19.5q49 0 91 -14.5t69.5 -45.5t39 -77t-0.5 -109l-66 -373h-55q2 25 4 57.5t4 59.5q-35 -59 -94.5 -92t-126.5 -33 q-84 0 -131 48t-47 120zM268 985q0 -47 31 -75.5t84 -28.5q86 0 149.5 52t90.5 187h-203q-55 0 -103.5 -36.5t-48.5 -98.5z" />
<glyph unicode="&#xab;" horiz-adv-x="667" d="M160 635l299 440h90v-4l-301 -432l147 -436h-90zM367 645l299 430h90v-4l-299 -432l145 -436h-90z" />
<glyph unicode="&#xac;" horiz-adv-x="743" d="M129 590l14 82h605l-60 -340h-76l45 258h-528z" />
<glyph unicode="&#xad;" horiz-adv-x="808" d="M184 649l15 86h577l-14 -86h-578z" />
<glyph unicode="&#xae;" horiz-adv-x="1333" d="M168 580q0 172 59.5 325.5t158.5 270t229 184t270 67.5q104 0 189 -44t145.5 -121.5t93.5 -184t33 -231.5q0 -172 -59.5 -326.5t-159 -271.5t-228.5 -184.5t-268 -67.5q-104 0 -190.5 45t-147 123t-93 185.5t-32.5 230.5zM258 594q0 -109 28.5 -200t80 -157.5t123 -104.5 t159.5 -38q117 0 226.5 59.5t193.5 160t135 234.5t51 281q0 106 -27.5 198.5t-78.5 160t-123 105.5t-160 38q-119 0 -228.5 -57t-194.5 -157.5t-135 -234.5t-50 -288zM459 340l133 756h291q78 -2 134 -46t56 -139q0 -61 -19.5 -109t-53 -83t-76.5 -54.5t-93 -21.5l168 -303 h-47h-61l-170 303h-121l-53 -303h-88zM614 727h207q33 4 61.5 11t50 25.5t35 50.5t13.5 83q0 31 -10 51.5t-26.5 32.5t-37 17.5t-41.5 5.5h-202z" />
<glyph unicode="&#xb0;" horiz-adv-x="460" d="M237.5 1289q10.5 48 38 91t71.5 71t102 28q57 0 90.5 -28t45 -71t2.5 -91t-36 -91t-72 -70.5t-102 -27.5q-59 0 -93 27.5t-45.5 70.5t-1 91zM304 1289q-9 -46 12.5 -84t76.5 -38q51 0 84 38t41 84t-11.5 85t-70.5 39q-55 0 -89 -39t-43 -85z" />
<glyph unicode="&#xb1;" horiz-adv-x="772" d="M43 94l14 80h658l-15 -80h-657zM154 725l14 78h287l65 373h82l-65 -373h288l-14 -78h-289l-65 -373h-82l65 373h-286z" />
<glyph unicode="&#xb2;" horiz-adv-x="684" d="M199 946q164 115 255 178.5t132 92.5q49 35 57 38q66 47 83 81t17 71t-14 59.5t-38.5 33.5t-54.5 15.5t-61 4.5q-33 0 -65.5 -5.5t-61 -20.5t-50 -43t-33.5 -73h-80q14 61 47 103.5t75 68t90 37.5t97 12q41 0 83 -8t75.5 -29.5t54 -56.5t20.5 -86q0 -41 -13 -74.5 t-34.5 -62.5t-48 -51.5t-53.5 -40.5l-356 -244h426l-15 -78h-524z" />
<glyph unicode="&#xb3;" horiz-adv-x="690" d="M215 1075h82q-6 -39 8 -64.5t42 -42t65 -23.5t75 -7q43 0 83 11.5t71 31.5t50.5 51t19.5 72q0 33 -16.5 54.5t-43 33.5t-61.5 17t-72 5h-65l12 72h65q78 0 141.5 25.5t78.5 81.5q10 66 -32 99.5t-132 33.5q-37 0 -74 -6.5t-66.5 -20.5t-51 -37.5t-29.5 -58.5h-80 q12 53 42.5 91t73.5 61.5t94.5 35t104.5 11.5q45 0 89 -10.5t77 -31t53.5 -54t20.5 -79.5q0 -74 -49.5 -122t-126.5 -52q61 -10 98 -49t37 -92q0 -68 -32 -116t-80 -77.5t-105.5 -43t-110.5 -13.5q-47 0 -96 10.5t-88 35t-60.5 65.5t-11.5 102z" />
<glyph unicode="&#xb4;" horiz-adv-x="352" d="M244 1202v4l182 234h109v-2l-207 -236h-84z" />
<glyph unicode="&#xb6;" horiz-adv-x="1333" d="M191.5 912.5q25.5 134.5 96 251t181.5 193.5t256 77h809l-16 -91h-197l-320 -1806h-94l320 1806h-436l-320 -1806h-94l151 854q-145 0 -227 77t-108.5 193.5t-1 251z" />
<glyph unicode="&#xb7;" horiz-adv-x="301" d="M160 588l24 139h119l-24 -139h-119z" />
<glyph unicode="&#xb8;" horiz-adv-x="514" d="M-43 -324l59 45q14 -45 52 -70.5t80 -26.5t80 22.5t51 77.5q8 33 -6.5 55t-40 34.5t-57.5 14.5t-58 -6l-21 41l62 135h75l-49 -109q96 8 144.5 -43t31.5 -125q-18 -78 -74.5 -121.5t-121 -50t-123.5 24.5t-84 102z" />
<glyph unicode="&#xb9;" horiz-adv-x="405" d="M248 1430l184 169h111l-125 -708h-84l108 622l-151 -137z" />
<glyph unicode="&#xba;" horiz-adv-x="692" d="M242 1163q0 92 25.5 173t70.5 140.5t108.5 93.5t139.5 34q106 0 162.5 -77t56.5 -200q0 -92 -25.5 -173t-71.5 -140.5t-108.5 -93t-138.5 -33.5q-106 0 -162.5 75.5t-56.5 200.5zM328 1178q0 -94 37.5 -148.5t109.5 -54.5q104 0 173 88t69 252q0 98 -38 150.5t-108 52.5 q-53 0 -98 -26t-78 -72t-50 -107.5t-17 -134.5z" />
<glyph unicode="&#xbb;" horiz-adv-x="690" d="M92 203l299 436l-145 432v4h90l147 -430l-301 -442h-90zM299 203l301 436l-147 432v4h90l143 -440l-297 -432h-90z" />
<glyph unicode="&#xbc;" horiz-adv-x="1271" d="M33 -94l1280 1620h100l-1280 -1620h-100zM215 1237l217 199h109l-125 -709h-84l108 621l-186 -172zM602 131l14 72l527 516h65l-90 -506h84l-14 -82h-84l-23 -131h-84l23 131h-418zM733 213h301l66 371z" />
<glyph unicode="&#xbd;" horiz-adv-x="1349" d="M14 -94l1280 1620h101l-1280 -1620h-101zM274 1239l218 199h108l-125 -709h-82l109 623l-189 -174zM721 80q164 115 255 178.5t132 91.5q49 35 57 39q66 47 83.5 81t17.5 71t-14.5 59.5t-38 35.5t-53.5 17t-60 4q-33 0 -66 -6t-62.5 -22.5t-51 -44t-33.5 -72.5h-80 q14 61 47 103t76 70t91 40t97 12q41 0 82 -9t75 -30.5t54.5 -57.5t20.5 -87q0 -41 -13.5 -75t-35 -62.5t-48 -51t-53.5 -40.5l-356 -244h426l-15 -78h-524z" />
<glyph unicode="&#xbe;" horiz-adv-x="1433" d="M180 -94l1282 1620h101l-1282 -1620h-101zM182 926h82q-6 -39 8.5 -64.5t42 -42t64.5 -24t76 -7.5q43 0 83 11.5t70.5 32t50 51t19.5 71.5q0 33 -16.5 54.5t-43 34t-61.5 17.5t-72 5h-65l12 72h66q78 0 141 25.5t78 80.5q10 66 -32 99.5t-132 33.5q-37 0 -74 -6 t-66.5 -20.5t-51 -38t-29.5 -58.5h-80q12 53 43 91t74 62t94 35t104 11q45 0 89 -10t77 -30.5t53.5 -54.5t20.5 -79q0 -74 -49 -122t-127 -52q61 -10 98 -49t37 -92q0 -68 -32 -116t-80 -78t-105 -43t-111 -13q-47 0 -96 10t-88 34.5t-60.5 65.5t-11.5 103zM760 131l12 72 l528 516h70l-88 -506h84l-14 -82h-84l-23 -131h-88l23 131h-420zM891 213h303l66 371z" />
<glyph unicode="&#xbf;" horiz-adv-x="1230" d="M35 -123q0 119 34.5 194.5t90 122t125 72t139.5 43.5q66 18 119 51t88 91q25 41 36 96t23 123h84q-10 -61 -26.5 -131t-34.5 -107q-41 -82 -101.5 -121t-126 -60.5t-131 -36.5t-118 -48t-85 -96.5t-32.5 -180.5q0 -76 32.5 -130t87 -89t122 -51t137.5 -16q86 0 169 21.5 t151.5 63.5t116.5 104.5t64 146.5h74q-18 -104 -74.5 -183.5t-136.5 -132.5t-178 -79.5t-201 -26.5q-86 0 -166.5 21.5t-143 65.5t-100.5 111.5t-38 161.5zM715 823l28 154h91l-29 -154h-90z" />
<glyph unicode="&#xc0;" horiz-adv-x="1286" d="M-27 0l842 1440h98l334 -1440h-106l-88 395h-746l-227 -395h-107zM356 481h676l-108 486l-76 385l-211 -385zM717 1767v2h108l101 -233v-4h-84z" />
<glyph unicode="&#xc1;" horiz-adv-x="1286" d="M-27 0l842 1440h98l334 -1440h-104l-88 395h-746l-227 -395h-109zM358 481h676l-110 486l-76 385l-211 -385zM850 1530v4l182 233h109v-2l-207 -235h-84z" />
<glyph unicode="&#xc2;" horiz-adv-x="1286" d="M-27 0l842 1440h98l334 -1440h-104l-88 395h-746l-227 -395h-109zM358 481h676l-110 486l-76 385l-211 -385zM618 1530l3 10l272 213h59l199 -213l-2 -10h-96l-142 158l-196 -158h-97z" />
<glyph unicode="&#xc3;" horiz-adv-x="1286" d="M-27 0l842 1440h98l334 -1440h-104l-88 395h-746l-227 -395h-109zM358 481h676l-110 486l-76 385l-211 -385zM637 1571q29 57 66.5 98t109.5 41q27 0 49.5 -14.5t44 -31.5t42 -32.5t43 -17.5t48 15.5t56.5 66.5l63 -23q-31 -57 -76 -96t-104 -39q-41 0 -76 27.5t-66.5 48 t-65.5 13.5t-71 -77z" />
<glyph unicode="&#xc4;" horiz-adv-x="1286" d="M-27 0l842 1440h98l334 -1440h-104l-88 395h-746l-227 -395h-109zM358 481h676l-110 486l-76 385l-211 -385zM651 1546l21 119h102l-20 -119h-103zM991 1546l21 119h102l-20 -119h-103z" />
<glyph unicode="&#xc5;" horiz-adv-x="1286" d="M-27 0l842 1440h98l334 -1440h-104l-88 395h-746l-227 -395h-109zM358 481h676l-110 486l-76 385l-211 -385zM735 1645q0 31 12.5 61.5t37 55t59.5 40t82 15.5q72 0 105.5 -39t33.5 -88q0 -31 -12.5 -62t-37 -54.5t-60 -38.5t-81.5 -15q-72 0 -105.5 38.5t-33.5 86.5z M807 1667q0 -2 29.5 -7t65.5 -6t65.5 4t29.5 23q0 41 -29.5 59.5t-65.5 15.5t-65.5 -25.5t-29.5 -63.5z" />
<glyph unicode="&#xc6;" horiz-adv-x="1871" d="M-8 0l1104 1434h891l-15 -88h-735l-104 -588h706l-14 -84h-707l-104 -590h735l-14 -84h-822l72 412h-573l-310 -412h-110zM477 498h527l149 848h-43l-135 -207z" />
<glyph unicode="&#xc7;" horiz-adv-x="1251" d="M145 563q0 156 47.5 314.5t139.5 287.5t231 210t324 81q184 0 301 -91t149 -265l-80 -33q-35 143 -130 223t-253 80q-160 0 -278.5 -74.5t-196 -191.5t-116.5 -257t-39 -269q0 -96 21.5 -188.5t68.5 -164t122.5 -115.5t186.5 -44q170 0 294 80.5t208 236.5l72 -31 q-94 -174 -233.5 -268t-326.5 -102l-39 -93q96 8 144.5 -43t32.5 -125q-18 -78 -74.5 -121.5t-122.5 -50t-124 24.5t-83 102l60 45q12 -45 50 -70.5t81 -26.5t80.5 22.5t50.5 77.5q8 33 -6.5 55t-41 34.5t-58.5 14.5t-58 -6l-19 41l54 119q-117 8 -201 58t-136 130 t-77 182.5t-25 210.5z" />
<glyph unicode="&#xc8;" horiz-adv-x="1103" d="M100 0l252 1434h867l-15 -86h-772l-104 -588h743l-14 -86h-744l-104 -588h772l-14 -86h-867zM696 1772v2h109l100 -234v-4h-84z" />
<glyph unicode="&#xc9;" horiz-adv-x="1103" d="M100 0l252 1434h867l-15 -86h-772l-104 -588h743l-14 -86h-744l-104 -588h772l-14 -86h-867zM741 1538v4l183 234h108v-2l-207 -236h-84z" />
<glyph unicode="&#xca;" horiz-adv-x="1103" d="M100 0l252 1434h867l-15 -86h-772l-104 -588h743l-14 -86h-744l-104 -588h772l-14 -86h-867zM563 1544l2 10l273 213h59l199 -213l-2 -10h-97l-141 158l-197 -158h-96z" />
<glyph unicode="&#xcb;" horiz-adv-x="1103" d="M100 0l252 1434h867l-15 -86h-772l-104 -588h743l-14 -86h-744l-104 -588h772l-14 -86h-867zM608 1554l21 119h102l-20 -119h-103zM948 1554l21 119h102l-20 -119h-103z" />
<glyph unicode="&#xcc;" horiz-adv-x="385" d="M106 0l252 1434h95l-252 -1434h-95zM250 1772v2h108l101 -234v-4h-84z" />
<glyph unicode="&#xcd;" horiz-adv-x="385" d="M106 0l252 1434h95l-252 -1434h-95zM375 1536v4l182 234h109v-2l-207 -236h-84z" />
<glyph unicode="&#xce;" horiz-adv-x="387" d="M106 0l252 1434h95l-252 -1434h-95zM190 1526l3 10l243 223h53l166 -223l-2 -10h-90l-114 160l-166 -160h-93z" />
<glyph unicode="&#xcf;" horiz-adv-x="387" d="M106 0l252 1434h95l-252 -1434h-95zM252 1536l20 119h103l-21 -119h-102zM489 1536l21 119h102l-20 -119h-103z" />
<glyph unicode="&#xd0;" horiz-adv-x="1314" d="M88 688l14 76h134l116 670h510q123 0 211 -49.5t144.5 -130t83 -185t26.5 -213.5q0 -147 -49 -300t-141.5 -276.5t-225.5 -201.5t-301 -78h-510l121 688h-133zM213 86h414q133 0 243.5 63.5t189.5 170t123 242.5t44 282q0 102 -23.5 193t-71 161t-118 110t-164.5 40h-414 l-102 -584h346l-14 -76h-347z" />
<glyph unicode="&#xd1;" horiz-adv-x="1325" d="M102 0l252 1434h105l622 -1309l76 502l141 807h97l-252 -1434h-107l-616 1292l-80 -485l-141 -807h-97zM662 1567q29 61 73 97t99 36q35 0 57 -15.5t40.5 -33t36 -32.5t44.5 -15q33 0 56.5 22.5t41.5 61.5l66 -25q-29 -61 -75 -98t-102 -37q-35 0 -56 14t-39.5 32.5 t-37 33t-45.5 14.5q-61 0 -98 -78z" />
<glyph unicode="&#xd2;" horiz-adv-x="1372" d="M182 563q0 156 47 314.5t140.5 286.5t233.5 209t325 81q129 0 221 -48t150.5 -129t85 -186.5t26.5 -218.5q0 -156 -47 -315.5t-140.5 -288.5t-232.5 -210t-323 -81q-129 0 -221.5 48.5t-150.5 130.5t-86 187t-28 220zM281 575q0 -96 20.5 -188t67.5 -163.5t123.5 -116 t189.5 -44.5q106 0 194.5 35t159 94.5t121.5 138.5t86 167t52.5 181t17.5 179q0 96 -19.5 187.5t-65.5 163t-123 115.5t-192 44q-160 0 -279.5 -74.5t-197.5 -191.5t-116.5 -257t-38.5 -270zM780 1794v2h109l100 -233v-4h-84z" />
<glyph unicode="&#xd3;" horiz-adv-x="1372" d="M182 563q0 156 47 314.5t140.5 286.5t233.5 209t325 81q129 0 221 -48t150.5 -129t85 -186.5t26.5 -218.5q0 -156 -47 -315.5t-140.5 -288.5t-232.5 -210t-323 -81q-129 0 -221.5 48.5t-150.5 130.5t-86 187t-28 220zM281 575q0 -96 20.5 -188t67.5 -163.5t123.5 -116 t189.5 -44.5q106 0 194.5 35t159 94.5t121.5 138.5t86 167t52.5 181t17.5 179q0 96 -19.5 187.5t-65.5 163t-123 115.5t-192 44q-160 0 -279.5 -74.5t-197.5 -191.5t-116.5 -257t-38.5 -270zM868 1554v5l183 233h108v-2l-207 -236h-84z" />
<glyph unicode="&#xd4;" horiz-adv-x="1372" d="M182 563q0 156 47 314.5t140.5 286.5t233.5 209t325 81q129 0 221 -48t150.5 -129t85 -186.5t26.5 -218.5q0 -156 -47 -315.5t-140.5 -288.5t-232.5 -210t-323 -81q-129 0 -221.5 48.5t-150.5 130.5t-86 187t-28 220zM281 575q0 -96 20.5 -188t67.5 -163.5t123.5 -116 t189.5 -44.5q106 0 194.5 35t159 94.5t121.5 138.5t86 167t52.5 181t17.5 179q0 96 -19.5 187.5t-65.5 163t-123 115.5t-192 44q-160 0 -279.5 -74.5t-197.5 -191.5t-116.5 -257t-38.5 -270zM659 1554l3 11l272 213h59l199 -213l-2 -11h-96l-142 158l-196 -158h-97z" />
<glyph unicode="&#xd5;" horiz-adv-x="1372" d="M182 563q0 156 47 314.5t140.5 286.5t233.5 209t325 81q129 0 221 -48t150.5 -129t85 -186.5t26.5 -218.5q0 -156 -47 -315.5t-140.5 -288.5t-232.5 -210t-323 -81q-129 0 -221.5 48.5t-150.5 130.5t-86 187t-28 220zM281 575q0 -96 20.5 -188t67.5 -163.5t123.5 -116 t189.5 -44.5q106 0 194.5 35t159 94.5t121.5 138.5t86 167t52.5 181t17.5 179q0 96 -19.5 187.5t-65.5 163t-123 115.5t-192 44q-160 0 -279.5 -74.5t-197.5 -191.5t-116.5 -257t-38.5 -270zM688 1602q29 61 73 97t99 36q35 0 57.5 -15.5t41 -33t36 -33t43.5 -15.5 q33 0 56.5 22.5t42.5 61.5l65 -24q-29 -61 -75 -98t-101 -37q-35 0 -56.5 14t-40 32.5t-37 33t-44.5 14.5q-61 0 -98 -78z" />
<glyph unicode="&#xd6;" horiz-adv-x="1372" d="M182 563q0 156 47 314.5t140.5 286.5t233.5 209t325 81q129 0 221 -48t150.5 -129t85 -186.5t26.5 -218.5q0 -156 -47 -315.5t-140.5 -288.5t-232.5 -210t-323 -81q-129 0 -221.5 48.5t-150.5 130.5t-86 187t-28 220zM281 575q0 -96 20.5 -188t67.5 -163.5t123.5 -116 t189.5 -44.5q106 0 194.5 35t159 94.5t121.5 138.5t86 167t52.5 181t17.5 179q0 96 -19.5 187.5t-65.5 163t-123 115.5t-192 44q-160 0 -279.5 -74.5t-197.5 -191.5t-116.5 -257t-38.5 -270zM694 1563l21 118h102l-20 -118h-103zM1034 1563l21 118h102l-20 -118h-103z" />
<glyph unicode="&#xd7;" horiz-adv-x="684" d="M70 340l284 260l-190 258l69 57l189 -253l285 258l49 -58l-289 -262l199 -264l-72 -57l-195 260l-278 -256z" />
<glyph unicode="&#xd8;" horiz-adv-x="1372" d="M147 -147l162 241q-41 39 -70.5 91.5t-48 113.5t-27.5 129t-9 135q0 156 47 314.5t140 286.5t233.5 209t324.5 81q86 0 153.5 -19.5t121.5 -54.5l112 170h96l-147 -219q78 -78 112.5 -202.5t34.5 -256.5q0 -156 -47 -315.5t-141 -288.5t-232.5 -210t-322.5 -81 q-158 0 -266 68l-129 -192h-97zM252 573q0 -55 6 -110t20.5 -107.5t36 -98.5t52.5 -79l749 1120q-45 33 -102 51.5t-131 18.5q-160 0 -279 -74.5t-197.5 -191.5t-116.5 -257t-38 -272zM426 125q45 -29 100 -45.5t127 -16.5q106 0 194.5 35t159 94.5t122 138.5t86 167t52 181 t17.5 179q0 104 -24.5 211t-81.5 174z" />
<glyph unicode="&#xd9;" horiz-adv-x="1413" d="M211 359.5q-25 134.5 8 322.5l133 752h97l-134 -752q-31 -168 -11 -287t72 -193.5t131 -108.5t167 -34t179 34t170 108.5t139.5 193.5t90.5 287l133 752h97l-133 -752q-33 -188 -106 -322.5t-167 -220.5t-202.5 -126t-215.5 -40q-106 0 -200 40t-158.5 126t-89.5 220.5z M805 1765v2h108l101 -233v-4h-84z" />
<glyph unicode="&#xda;" horiz-adv-x="1413" d="M211 359.5q-25 134.5 8 322.5l133 752h97l-134 -752q-31 -168 -11 -287t72 -193.5t131 -108.5t167 -34t179 34t170 108.5t139.5 193.5t90.5 287l133 752h97l-133 -752q-33 -188 -106 -322.5t-167 -220.5t-202.5 -126t-215.5 -40q-106 0 -200 40t-158.5 126t-89.5 220.5z M850 1530v4l182 233h109v-2l-207 -235h-84z" />
<glyph unicode="&#xdb;" horiz-adv-x="1413" d="M211 359.5q-25 134.5 8 322.5l133 752h97l-134 -752q-31 -168 -11 -287t72 -193.5t131 -108.5t167 -34t179 34t170 108.5t139.5 193.5t90.5 287l133 752h97l-133 -752q-33 -188 -106 -322.5t-167 -220.5t-202.5 -126t-215.5 -40q-106 0 -200 40t-158.5 126t-89.5 220.5z M670 1528l2 10l272 213h60l198 -213l-2 -10h-96l-141 158l-197 -158h-96z" />
<glyph unicode="&#xdc;" horiz-adv-x="1413" d="M211 359.5q-25 134.5 8 322.5l133 752h97l-134 -752q-31 -168 -11 -287t72 -193.5t131 -108.5t167 -34t179 34t170 108.5t139.5 193.5t90.5 287l133 752h97l-133 -752q-33 -188 -106 -322.5t-167 -220.5t-202.5 -126t-215.5 -40q-106 0 -200 40t-158.5 126t-89.5 220.5z M709 1528l20 119h107l-21 -119h-106zM1044 1528l21 119h106l-20 -119h-107z" />
<glyph unicode="&#xdd;" horiz-adv-x="1181" d="M221 1425l2 9h113l205 -465l133 -320l250 328l362 457h113l-2 -7l-690 -852l-103 -575h-96l102 575zM748 1530v4l182 233h108v-2l-207 -235h-83z" />
<glyph unicode="&#xde;" horiz-adv-x="1179" d="M98 0l252 1432h92l-47 -269h459q74 0 139.5 -21.5t113.5 -64.5t76.5 -110.5t28.5 -159.5q0 -133 -42 -233.5t-113.5 -168t-165.5 -102.5t-197 -35h-456l-48 -268h-92zM254 354h459q80 0 153.5 26t129 80t88 138t32.5 199q0 80 -23.5 134t-62.5 86t-89 46t-101 14h-459z " />
<glyph unicode="&#xdf;" horiz-adv-x="1038" d="M98 0l191 1079q16 90 58 160t101.5 118t131 72.5t145.5 24.5q63 0 119.5 -19.5t98.5 -57.5t66.5 -94t24.5 -130q0 -51 -16.5 -109.5t-48 -111.5t-80.5 -93t-113 -53q98 -23 152.5 -92t68 -161.5t-14.5 -192.5t-95 -184q-70 -88 -171.5 -131t-211.5 -43q-115 0 -199 71 l14 84q37 -35 88.5 -54.5t104.5 -19.5q88 0 174 35t141 111q68 92 82.5 187.5t-18.5 172t-109.5 125.5t-189.5 49h-141l12 74h139q70 0 132.5 20.5t109.5 60.5t74.5 100.5t27.5 142.5q0 57 -19.5 101t-51 72.5t-74.5 44t-88 15.5q-123 0 -216.5 -75.5t-117.5 -219.5 l-82 -463l-109 -616h-90z" />
<glyph unicode="&#xe0;" d="M113 379q0 111 32.5 220.5t97 197.5t162 143t226.5 55q125 2 196.5 -58t87.5 -177l43 213h76l-172 -973h-71l28 211q-59 -111 -154.5 -171t-213.5 -60q-90 0 -155 32.5t-105.5 88t-59 127t-18.5 151.5zM205 391q0 -63 13 -122.5t44 -105.5t81 -75t124 -29q104 0 181 54.5 t127 135.5t74.5 173t24.5 170q0 66 -15 125t-47 103t-80 69.5t-114 25.5q-104 0 -181 -49t-129 -125.5t-77.5 -170t-25.5 -179.5zM557 1405v2h105l100 -233v-5h-80z" />
<glyph unicode="&#xe1;" d="M113 379q0 111 32.5 220.5t97 197.5t162 143t226.5 55q125 2 196.5 -58t87.5 -177l43 213h76l-172 -973h-71l28 211q-59 -111 -154.5 -171t-213.5 -60q-90 0 -155 32.5t-105.5 88t-59 127t-18.5 151.5zM205 391q0 -63 13 -122.5t44 -105.5t81 -75t124 -29q104 0 181 54.5 t127 135.5t74.5 173t24.5 170q0 66 -15 125t-47 103t-80 69.5t-114 25.5q-104 0 -181 -49t-129 -125.5t-77.5 -170t-25.5 -179.5zM608 1167v4l183 234h104v-2l-207 -236h-80z" />
<glyph unicode="&#xe2;" d="M113 379q0 111 32.5 220.5t97 197.5t162 143t226.5 55q125 2 196.5 -58t87.5 -177l43 213h76l-172 -973h-71l28 211q-59 -111 -154.5 -171t-213.5 -60q-90 0 -155 32.5t-105.5 88t-59 127t-18.5 151.5zM205 391q0 -63 13 -122.5t44 -105.5t81 -75t124 -29q104 0 181 54.5 t127 135.5t74.5 173t24.5 170q0 66 -15 125t-47 103t-80 69.5t-114 25.5q-104 0 -181 -49t-129 -125.5t-77.5 -170t-25.5 -179.5zM424 1169l2 11l250 221h53l182 -221l-2 -11h-88l-129 162l-180 -162h-88z" />
<glyph unicode="&#xe3;" d="M113 379q0 111 32.5 220.5t97 197.5t162 143t226.5 55q125 2 196.5 -58t87.5 -177l43 213h76l-172 -973h-71l28 211q-59 -111 -154.5 -171t-213.5 -60q-90 0 -155 32.5t-105.5 88t-59 127t-18.5 151.5zM205 391q0 -63 13 -122.5t44 -105.5t81 -75t124 -29q104 0 181 54.5 t127 135.5t74.5 173t24.5 170q0 66 -15 125t-47 103t-80 69.5t-114 25.5q-104 0 -181 -49t-129 -125.5t-77.5 -170t-25.5 -179.5zM467 1245q29 59 69 92t93 33q33 0 55.5 -14.5t38.5 -30.5t33.5 -30.5t42.5 -14.5q31 0 53 21.5t41 58.5l61 -25q-29 -57 -71.5 -92t-96.5 -35 q-33 0 -53 14.5t-37.5 31t-35 30.5t-42.5 14q-31 0 -53 -19t-41 -54z" />
<glyph unicode="&#xe4;" d="M113 379q0 111 32.5 220.5t97 197.5t162 143t226.5 55q125 2 196.5 -58t87.5 -177l43 213h76l-172 -973h-71l28 211q-59 -111 -154.5 -171t-213.5 -60q-90 0 -155 32.5t-105.5 88t-59 127t-18.5 151.5zM205 391q0 -63 13 -122.5t44 -105.5t81 -75t124 -29q104 0 181 54.5 t127 135.5t74.5 173t24.5 170q0 66 -15 125t-47 103t-80 69.5t-114 25.5q-104 0 -181 -49t-129 -125.5t-77.5 -170t-25.5 -179.5zM506 1237l20 119h103l-21 -119h-102zM795 1237l20 119h103l-21 -119h-102z" />
<glyph unicode="&#xe5;" d="M113 379q0 111 32.5 220.5t97 197.5t162 143t226.5 55q125 2 196.5 -58t87.5 -177l43 213h76l-172 -973h-71l28 211q-59 -111 -154.5 -171t-213.5 -60q-90 0 -155 32.5t-105.5 88t-59 127t-18.5 151.5zM205 391q0 -63 13 -122.5t44 -105.5t81 -75t124 -29q104 0 181 54.5 t127 135.5t74.5 173t24.5 170q0 66 -15 125t-47 103t-80 69.5t-114 25.5q-104 0 -181 -49t-129 -125.5t-77.5 -170t-25.5 -179.5zM539 1251q0 31 12 61.5t36.5 55.5t60.5 40t81 15q72 0 104.5 -38.5t32.5 -88.5q0 -31 -12 -61.5t-36.5 -54t-59.5 -39t-80 -15.5 q-72 0 -105.5 39t-33.5 86zM608 1274q0 -2 30 -7t66.5 -6t66.5 4t30 23q0 41 -30 59.5t-66.5 15.5t-66.5 -25.5t-30 -63.5z" />
<glyph unicode="&#xe6;" horiz-adv-x="1677" d="M113 379q0 111 32.5 220.5t97 197.5t162 143t226.5 55q125 2 198.5 -58t90.5 -177l38 213h76l-35 -195q76 117 173.5 163t193.5 46q57 0 112.5 -14.5t98.5 -45t69.5 -76.5t26.5 -110q0 -80 -27.5 -135t-73.5 -91t-107.5 -51t-131.5 -15h-391q-14 -82 -7 -152t39 -121 t88 -80.5t142 -29.5q94 0 172 42t131 128l68 -29q-76 -121 -180.5 -171t-206.5 -50q-117 0 -192.5 47t-104.5 157l-31 -190h-72l33 211q-59 -111 -155.5 -171t-214.5 -60q-90 0 -155 32.5t-105.5 88t-59 127t-18.5 151.5zM205 391q0 -63 13 -122.5t44 -105.5t81 -75t124 -29 q88 0 156.5 41t119 103.5t82 140.5t43.5 152l4 22q14 80 5 152.5t-40.5 127t-87 86t-131.5 31.5q-104 0 -181 -49t-129 -125.5t-77.5 -170t-25.5 -179.5zM954 522h392q106 0 173.5 45t67.5 160q0 45 -20.5 80t-53 56.5t-74.5 32.5t-87 11q-57 0 -117.5 -20.5t-115 -66.5 t-98.5 -119.5t-67 -178.5z" />
<glyph unicode="&#xe7;" horiz-adv-x="907" d="M111 377q0 106 31.5 215.5t95 199t160 145.5t225.5 56q115 0 197.5 -60.5t103.5 -187.5l-78 -32q-23 109 -88.5 153.5t-149.5 44.5q-104 0 -180 -50t-126 -127t-74.5 -169t-24.5 -174q0 -61 13 -120.5t43 -105.5t79 -74t121 -28q45 0 88 9.5t83 34t76.5 66.5t71.5 108 l74 -23q-59 -125 -157.5 -196.5t-229.5 -77.5l-35 -74q94 6 142.5 -41t31.5 -115q-18 -72 -72.5 -110.5t-117 -42.5t-120.5 24.5t-83 93.5l57 41q14 -41 51 -63.5t79 -24.5t78 17.5t48 66.5q8 31 -6 50.5t-39.5 30.5t-57.5 12t-56 -7l-21 43l47 101q-76 8 -129 42.5t-87 88 t-49 121t-15 139.5z" />
<glyph unicode="&#xe8;" horiz-adv-x="942" d="M111.5 305q-9.5 92 9.5 191q25 135 76 228t120.5 151.5t149.5 85t162 26.5q59 0 114.5 -14.5t98.5 -46t68.5 -80.5t25.5 -117q-2 -76 -29.5 -129t-74 -87t-107.5 -49t-129 -15h-389q-10 -76 -3 -144.5t36.5 -122t85 -85t141.5 -31.5q94 0 172 42t131 128l68 -29 q-76 -121 -180.5 -171t-206.5 -50q-109 0 -180.5 43t-110.5 113.5t-48.5 162.5zM219 522h389q109 0 173.5 45t68.5 160q2 47 -18.5 82t-53.5 56.5t-76 31.5t-88 10q-57 0 -117.5 -20.5t-114.5 -66.5t-97 -119.5t-66 -178.5zM524 1403v2h109l100 -234v-4h-84z" />
<glyph unicode="&#xe9;" horiz-adv-x="942" d="M111.5 305q-9.5 92 9.5 191q25 135 76 228t120.5 151.5t149.5 85t162 26.5q59 0 114.5 -14.5t98.5 -46t68.5 -80.5t25.5 -117q-2 -76 -29.5 -129t-74 -87t-107.5 -49t-129 -15h-389q-10 -76 -3 -144.5t36.5 -122t85 -85t141.5 -31.5q94 0 172 42t131 128l68 -29 q-76 -121 -180.5 -171t-206.5 -50q-109 0 -180.5 43t-110.5 113.5t-48.5 162.5zM219 522h389q109 0 173.5 45t68.5 160q2 47 -18.5 82t-53.5 56.5t-76 31.5t-88 10q-57 0 -117.5 -20.5t-114.5 -66.5t-97 -119.5t-66 -178.5zM596 1171v5l182 233h109v-2l-207 -236h-84z" />
<glyph unicode="&#xea;" horiz-adv-x="942" d="M111.5 305q-9.5 92 9.5 191q25 135 76 228t120.5 151.5t149.5 85t162 26.5q59 0 114.5 -14.5t98.5 -46t68.5 -80.5t25.5 -117q-2 -76 -29.5 -129t-74 -87t-107.5 -49t-129 -15h-389q-10 -76 -3 -144.5t36.5 -122t85 -85t141.5 -31.5q94 0 172 42t131 128l68 -29 q-76 -121 -180.5 -171t-206.5 -50q-109 0 -180.5 43t-110.5 113.5t-48.5 162.5zM219 522h389q109 0 173.5 45t68.5 160q2 47 -18.5 82t-53.5 56.5t-76 31.5t-88 10q-57 0 -117.5 -20.5t-114.5 -66.5t-97 -119.5t-66 -178.5zM385 1159v10l250 228h53l180 -228v-10h-88 l-129 168l-180 -168h-86z" />
<glyph unicode="&#xeb;" horiz-adv-x="942" d="M111.5 305q-9.5 92 9.5 191q25 135 76 228t120.5 151.5t149.5 85t162 26.5q59 0 114.5 -14.5t98.5 -46t68.5 -80.5t25.5 -117q-2 -76 -29.5 -129t-74 -87t-107.5 -49t-129 -15h-389q-10 -76 -3 -144.5t36.5 -122t85 -85t141.5 -31.5q94 0 172 42t131 128l68 -29 q-76 -121 -180.5 -171t-206.5 -50q-109 0 -180.5 43t-110.5 113.5t-48.5 162.5zM219 522h389q109 0 173.5 45t68.5 160q2 47 -18.5 82t-53.5 56.5t-76 31.5t-88 10q-57 0 -117.5 -20.5t-114.5 -66.5t-97 -119.5t-66 -178.5zM465 1229l20 119h103l-21 -119h-102zM782 1229 l21 119h102l-20 -119h-103z" />
<glyph unicode="&#xec;" horiz-adv-x="348" d="M86 0l172 977h90l-172 -977h-90zM174 1409v2h109l100 -233v-4h-84z" />
<glyph unicode="&#xed;" horiz-adv-x="344" d="M86 0l172 977h90l-172 -977h-90zM287 1169v5l182 233h109v-2l-207 -236h-84z" />
<glyph unicode="&#xee;" horiz-adv-x="348" d="M86 0l172 977h90l-172 -977h-90zM123 1186l2 10l233 207h50l159 -207l-2 -10h-86l-110 147l-158 -147h-88z" />
<glyph unicode="&#xef;" horiz-adv-x="348" d="M86 0l172 977h90l-172 -977h-90zM188 1280l21 119h102l-20 -119h-103zM430 1280l21 119h102l-21 -119h-102z" />
<glyph unicode="&#xf0;" horiz-adv-x="993" d="M115 379q0 121 37.5 231.5t105.5 194.5t159.5 134t200.5 50q41 0 83 -12t79 -37t64.5 -60.5t40.5 -80.5q-4 121 -54.5 224t-117.5 175l-125 -133l-43 57l114 123q-41 41 -86 71t-98 48l31 76q72 -23 124 -52.5t101 -76.5l125 129l41 -58l-113 -118q92 -106 140.5 -256 t48.5 -326q0 -160 -42 -290t-112.5 -222t-166 -142.5t-201.5 -50.5q-86 0 -148.5 32t-104.5 86.5t-62.5 127t-20.5 156.5zM207 389q0 -147 66.5 -239.5t189.5 -92.5q84 0 157.5 43t128 115t86 164t31.5 188q0 68 -16 130.5t-49 108.5t-79 73.5t-108 27.5q-86 0 -159.5 -41 t-129 -110.5t-87 -164.5t-31.5 -202z" />
<glyph unicode="&#xf1;" horiz-adv-x="1021" d="M82 0l172 973h70l-17 -166q55 100 147.5 143t194.5 43t168 -36.5t99.5 -99t40 -145.5t-10.5 -175l-94 -537h-90l94 537q12 72 12 140t-23.5 121.5t-74.5 85t-139 31.5q-53 0 -108.5 -16t-104.5 -55t-87 -102.5t-57 -155.5l-102 -586h-90zM442 1268q29 61 73 97t99 36 q35 0 57.5 -15.5t41 -33t36 -32.5t44.5 -15q33 0 56 22.5t42 61.5l65 -25q-29 -61 -74.5 -98t-101.5 -37q-35 0 -56.5 14t-39.5 32.5t-36.5 33t-45.5 14.5q-61 0 -98 -78z" />
<glyph unicode="&#xf2;" horiz-adv-x="1005" d="M115 381q0 113 32.5 222.5t98 196.5t163 140t224.5 53q90 0 154.5 -32.5t105.5 -87t60.5 -127t19.5 -152.5q0 -111 -33 -220.5t-98.5 -196.5t-161.5 -141t-225 -54q-90 0 -154.5 32.5t-105.5 87t-60.5 127t-19.5 152.5zM207 395q0 -61 13 -121.5t44 -106.5t81 -75 t124 -29q104 0 181 48.5t129 124t78 167t26 175.5q0 66 -13.5 126t-45 106t-82 73.5t-124.5 27.5q-104 0 -182 -49t-129 -124.5t-75.5 -167t-24.5 -175.5zM510 1401v2h108l101 -234v-4h-84z" />
<glyph unicode="&#xf3;" horiz-adv-x="1005" d="M115 381q0 113 32.5 222.5t98 196.5t163 140t224.5 53q90 0 154.5 -32.5t105.5 -87t60.5 -127t19.5 -152.5q0 -111 -33 -220.5t-98.5 -196.5t-161.5 -141t-225 -54q-90 0 -154.5 32.5t-105.5 87t-60.5 127t-19.5 152.5zM207 395q0 -61 13 -121.5t44 -106.5t81 -75 t124 -29q104 0 181 48.5t129 124t78 167t26 175.5q0 66 -13.5 126t-45 106t-82 73.5t-124.5 27.5q-104 0 -182 -49t-129 -124.5t-75.5 -167t-24.5 -175.5zM612 1171v5l183 233h108v-2l-207 -236h-84z" />
<glyph unicode="&#xf4;" horiz-adv-x="1005" d="M115 381q0 113 32.5 222.5t98 196.5t163 140t224.5 53q90 0 154.5 -32.5t105.5 -87t60.5 -127t19.5 -152.5q0 -111 -33 -220.5t-98.5 -196.5t-161.5 -141t-225 -54q-90 0 -154.5 32.5t-105.5 87t-60.5 127t-19.5 152.5zM207 395q0 -61 13 -121.5t44 -106.5t81 -75 t124 -29q104 0 181 48.5t129 124t78 167t26 175.5q0 66 -13.5 126t-45 106t-82 73.5t-124.5 27.5q-104 0 -182 -49t-129 -124.5t-75.5 -167t-24.5 -175.5zM434 1176l2 10l240 217h51l160 -217l-2 -10h-90l-109 153l-162 -153h-90z" />
<glyph unicode="&#xf5;" horiz-adv-x="1005" d="M115 381q0 113 32.5 222.5t98 196.5t163 140t224.5 53q90 0 154.5 -32.5t105.5 -87t60.5 -127t19.5 -152.5q0 -111 -33 -220.5t-98.5 -196.5t-161.5 -141t-225 -54q-90 0 -154.5 32.5t-105.5 87t-60.5 127t-19.5 152.5zM207 395q0 -61 13 -121.5t44 -106.5t81 -75 t124 -29q104 0 181 48.5t129 124t78 167t26 175.5q0 66 -13.5 126t-45 106t-82 73.5t-124.5 27.5q-104 0 -182 -49t-129 -124.5t-75.5 -167t-24.5 -175.5zM442 1255q29 61 73 97.5t99 36.5q35 0 57.5 -15.5t41 -33t36 -33t44.5 -15.5q33 0 56 22.5t42 61.5l65 -24 q-29 -61 -74.5 -98t-101.5 -37q-35 0 -56.5 14t-39.5 32.5t-36.5 33t-45.5 14.5q-61 0 -98 -78z" />
<glyph unicode="&#xf6;" horiz-adv-x="1005" d="M115 381q0 113 32.5 222.5t98 196.5t163 140t224.5 53q90 0 154.5 -32.5t105.5 -87t60.5 -127t19.5 -152.5q0 -111 -33 -220.5t-98.5 -196.5t-161.5 -141t-225 -54q-90 0 -154.5 32.5t-105.5 87t-60.5 127t-19.5 152.5zM207 395q0 -61 13 -121.5t44 -106.5t81 -75 t124 -29q104 0 181 48.5t129 124t78 167t26 175.5q0 66 -13.5 126t-45 106t-82 73.5t-124.5 27.5q-104 0 -182 -49t-129 -124.5t-75.5 -167t-24.5 -175.5zM502 1249l20 119h103l-21 -119h-102zM782 1249l21 119h102l-20 -119h-103z" />
<glyph unicode="&#xf7;" horiz-adv-x="849" d="M150 621l16 90h686l-16 -90h-686zM383 285l23 129h102l-23 -129h-102zM494 911l22 131h102l-22 -131h-102z" />
<glyph unicode="&#xf8;" horiz-adv-x="1005" d="M82 -162l143 221q-57 51 -83.5 139.5t-26.5 182.5q0 111 32.5 220.5t98 196.5t163 141t224.5 54q104 0 176 -41l109 168h90l-140 -211q55 -53 81 -139t26 -178q0 -111 -33 -219.5t-98.5 -195.5t-162.5 -141t-226 -54q-51 0 -92 9t-76 25l-117 -178h-88zM207 395 q0 -72 16.5 -141.5t55.5 -112.5l479 733q-59 37 -140 37q-104 0 -182 -49t-129 -124.5t-75.5 -167t-24.5 -175.5zM338 94q51 -31 131 -31q104 0 181 48.5t129 124t78 165.5t26 174q0 68 -16.5 136.5t-51.5 113.5z" />
<glyph unicode="&#xf9;" horiz-adv-x="1021" d="M147.5 263q-6.5 83 10.5 175l94 535h90l-94 -535q-12 -72 -11 -140.5t25.5 -121.5t75.5 -85t135 -32q53 0 108.5 16.5t104.5 55.5t87 102.5t56 155.5l103 584h90l-170 -973h-70l15 168q-53 -100 -146.5 -143t-195.5 -43t-167 36.5t-99.5 99t-41 145.5zM524 1407v2h109 l100 -233v-5h-84z" />
<glyph unicode="&#xfa;" horiz-adv-x="1021" d="M147.5 263q-6.5 83 10.5 175l94 535h90l-94 -535q-12 -72 -11 -140.5t25.5 -121.5t75.5 -85t135 -32q53 0 108.5 16.5t104.5 55.5t87 102.5t56 155.5l103 584h90l-170 -973h-70l15 168q-53 -100 -146.5 -143t-195.5 -43t-167 36.5t-99.5 99t-41 145.5zM604 1161v4 l182 234h109v-2l-207 -236h-84z" />
<glyph unicode="&#xfb;" horiz-adv-x="1021" d="M147.5 263q-6.5 83 10.5 175l94 535h90l-94 -535q-12 -72 -11 -140.5t25.5 -121.5t75.5 -85t135 -32q53 0 108.5 16.5t104.5 55.5t87 102.5t56 155.5l103 584h90l-170 -973h-70l15 168q-53 -100 -146.5 -143t-195.5 -43t-167 36.5t-99.5 99t-41 145.5zM442 1169l2 11 l238 215h49l162 -215l-2 -11h-88l-111 156l-162 -156h-88z" />
<glyph unicode="&#xfc;" horiz-adv-x="1021" d="M147.5 263q-6.5 83 10.5 175l94 535h90l-94 -535q-12 -72 -11 -140.5t25.5 -121.5t75.5 -85t135 -32q53 0 108.5 16.5t104.5 55.5t87 102.5t56 155.5l103 584h90l-170 -973h-70l15 168q-53 -100 -146.5 -143t-195.5 -43t-167 36.5t-99.5 99t-41 145.5zM498 1255l20 119 h103l-21 -119h-102zM819 1255l21 119h102l-20 -119h-103z" />
<glyph unicode="&#xfd;" horiz-adv-x="874" d="M68 -461l2 10l276 471l-221 947v6h98l131 -557l60 -293h2l153 285l326 565h98v-6l-827 -1428h-98zM539 1180v4l182 233h108v-2l-206 -235h-84z" />
<glyph unicode="&#xfe;" horiz-adv-x="1042" d="M4 -440l330 1874h86l-115 -658q31 55 73 96t91 69t100.5 41t98.5 13q82 0 144 -31.5t105.5 -87t65 -129t21.5 -159.5q0 -119 -38 -228.5t-105.5 -192.5t-164 -133t-213.5 -50q-47 0 -92 13t-84 38.5t-67.5 64.5t-38.5 90l-111 -630h-86zM240 397q0 -147 73.5 -237 t204.5 -90q88 0 161 43t124 113.5t79.5 161.5t28.5 190q0 74 -17 134t-51 105t-83.5 69.5t-112.5 24.5q-88 0 -162.5 -40t-129 -109.5t-85 -163.5t-30.5 -201z" />
<glyph unicode="&#xff;" horiz-adv-x="874" d="M68 -461l2 10l276 471l-221 947v6h98l131 -557l60 -293h2l153 285l326 565h98v-6l-827 -1428h-98zM397 1239l21 119h102l-20 -119h-103zM737 1239l21 119h102l-20 -119h-103z" />
<glyph unicode="&#x152;" horiz-adv-x="1961" d="M156 571q0 193 60 354.5t162.5 279.5t237 184.5t283.5 66.5q94 0 177 -28.5t143 -104.5l20 111h840l-17 -86h-751l-103 -588h723l-16 -86h-723l-102 -588h751l-16 -86h-840l19 109q-86 -72 -177.5 -100.5t-187.5 -28.5q-111 0 -200 43t-151.5 120.5t-97 186t-34.5 241.5z M252 580q0 -117 28.5 -212.5t82 -162t127 -102t165.5 -35.5q102 0 191.5 27.5t175.5 109.5l180 1022q-57 86 -137 114.5t-180 28.5q-127 0 -241 -57.5t-202 -161.5t-139 -249.5t-51 -321.5z" />
<glyph unicode="&#x153;" horiz-adv-x="1691" d="M115 381q0 111 32.5 220.5t98 196.5t163 141t224.5 54q145 0 228 -79.5t93 -211.5q33 76 82 130.5t106.5 89t119 50t116.5 15.5q57 0 112.5 -14.5t99.5 -45t71 -76.5t27 -110q0 -80 -28 -135t-75 -91t-109.5 -51t-132.5 -15h-391q-10 -78 -2 -148t38 -122t85 -82.5 t141 -30.5q94 0 173 42t133 128l67 -29q-76 -121 -180 -171t-207 -50q-145 0 -226 74.5t-95 209.5q-70 -141 -174.5 -214.5t-249.5 -73.5q-90 0 -154.5 32.5t-105.5 87t-60.5 127t-19.5 152.5zM207 395q0 -61 14.5 -121.5t45 -106.5t80.5 -75t122 -29q86 0 155.5 37 t121 96.5t84 135.5t47.5 153v2q14 78 8 154t-36 136.5t-86 97t-145 36.5q-104 0 -182 -49t-129 -124.5t-75.5 -167t-24.5 -175.5zM967 522h391q53 0 98 10.5t77 35t49 63.5t17 96q0 45 -20 80t-53 56.5t-75 32.5t-87 11q-57 0 -117.5 -20.5t-115 -66.5t-98.5 -119.5 t-66 -178.5z" />
<glyph unicode="&#x178;" horiz-adv-x="1181" d="M221 1425l2 9h113l205 -465l133 -320l250 328l362 457h113l-2 -7l-690 -852l-103 -575h-96l102 575zM606 1526l21 119h102l-20 -119h-103zM946 1526l21 119h102l-20 -119h-103z" />
<glyph unicode="&#x2c6;" horiz-adv-x="671" d="M264 1206l2 11l273 213h59l199 -213l-2 -11h-97l-141 158l-197 -158h-96z" />
<glyph unicode="&#x2dc;" horiz-adv-x="581" d="M266 1405q29 61 73 97t99 36q35 0 57.5 -15.5t41 -32.5t36 -32.5t43.5 -15.5q33 0 56.5 22.5t42.5 61.5l65 -25q-29 -61 -75 -98t-101 -37q-35 0 -56.5 14.5t-40 33t-36.5 32.5t-45 14q-61 0 -98 -78z" />
<glyph unicode="&#x2000;" horiz-adv-x="908" />
<glyph unicode="&#x2001;" horiz-adv-x="1817" />
<glyph unicode="&#x2002;" horiz-adv-x="908" />
<glyph unicode="&#x2003;" horiz-adv-x="1817" />
<glyph unicode="&#x2004;" horiz-adv-x="605" />
<glyph unicode="&#x2005;" horiz-adv-x="454" />
<glyph unicode="&#x2006;" horiz-adv-x="302" />
<glyph unicode="&#x2007;" horiz-adv-x="302" />
<glyph unicode="&#x2008;" horiz-adv-x="227" />
<glyph unicode="&#x2009;" horiz-adv-x="363" />
<glyph unicode="&#x200a;" horiz-adv-x="100" />
<glyph unicode="&#x2010;" horiz-adv-x="808" d="M184 649l15 86h577l-14 -86h-578z" />
<glyph unicode="&#x2011;" horiz-adv-x="808" d="M184 649l15 86h577l-14 -86h-578z" />
<glyph unicode="&#x2012;" horiz-adv-x="808" d="M184 649l15 86h577l-14 -86h-578z" />
<glyph unicode="&#x2013;" horiz-adv-x="901" d="M129 569l14 80h770l-14 -80h-770z" />
<glyph unicode="&#x2014;" horiz-adv-x="1085" d="M131 567l14 78h947l-15 -78h-946z" />
<glyph unicode="&#x2018;" horiz-adv-x="251" d="M201 1085l172 357h69l-147 -357h-94z" />
<glyph unicode="&#x2019;" horiz-adv-x="249" d="M205 1085l147 357h94l-172 -357h-69z" />
<glyph unicode="&#x201a;" horiz-adv-x="280" d="M-43 -231l154 360h96l-182 -360h-68z" />
<glyph unicode="&#x201c;" horiz-adv-x="462" d="M199 1085l172 357h69l-151 -357h-90zM412 1085l172 357h69l-149 -357h-92z" />
<glyph unicode="&#x201d;" horiz-adv-x="448" d="M203 1083l149 357h92l-172 -357h-69zM416 1083l151 357h90l-172 -357h-69z" />
<glyph unicode="&#x201e;" horiz-adv-x="432" d="M-43 -231l154 360h96l-182 -360h-68zM172 -231l154 360h96l-182 -360h-68z" />
<glyph unicode="&#x2022;" horiz-adv-x="432" d="M154 657q0 92 53 147.5t125 55.5q53 0 87 -37t34 -100q0 -90 -54.5 -145.5t-126.5 -55.5q-53 0 -85.5 37t-32.5 98z" />
<glyph unicode="&#x2026;" horiz-adv-x="878" d="M29 0l22 125h92l-22 -125h-92zM352 0l23 125h92l-23 -125h-92zM676 0l22 125h93l-23 -125h-92z" />
<glyph unicode="&#x202f;" horiz-adv-x="363" />
<glyph unicode="&#x2039;" horiz-adv-x="493" d="M160 639l299 440h98v-4l-301 -432l147 -436h-98z" />
<glyph unicode="&#x203a;" horiz-adv-x="497" d="M88 182l299 436l-145 433v4h92l145 -430l-37 -56l-262 -387h-92z" />
<glyph unicode="&#x205f;" horiz-adv-x="454" />
<glyph unicode="&#x20ac;" horiz-adv-x="1308" d="M51 547l15 80h145q4 23 6 46t6 46q4 25 8.5 49.5t12.5 48.5h-146l15 80h153q39 113 100.5 214t146.5 178t192.5 122t238.5 45q184 0 301 -91t152 -265l-80 -33q-35 143 -131 223t-254 80q-109 0 -199 -39t-160.5 -104.5t-123 -150.5t-87.5 -179h521l-15 -80h-534 q-6 -25 -11.5 -49.5t-9.5 -48.5q-10 -47 -12 -92h535l-15 -80h-520q0 -96 21.5 -183.5t68.5 -153t124 -105t187 -39.5q170 0 293 80.5t207 236.5l72 -31q-98 -180 -244.5 -276t-345.5 -96q-133 0 -225 46t-149.5 123.5t-83 180t-23.5 217.5h-152z" />
<glyph unicode="&#x2122;" horiz-adv-x="1089" d="M215 1362l12 72h445l-13 -72h-184l-80 -457h-78l80 457h-182zM651 905l92 527h68l145 -275l242 275h68l-92 -527h-80l22 129l47 260l-202 -231h-48l-114 231l-45 -260l-23 -129h-80z" />
<glyph unicode="&#x25fc;" horiz-adv-x="972" d="M0 0v973h973v-973h-973z" />
<glyph unicode="&#xfb01;" horiz-adv-x="839" d="M80 -463l242 1366h-175l13 70h174l22 131q14 86 45 155.5t78 114.5t113.5 63.5t157.5 4.5l-19 -76q-127 29 -193.5 -46t-91.5 -216l-22 -131h420l-172 -973h-86l159 903h-333l-242 -1366h-90zM811 1276l27 160h84l-27 -160h-84z" />
<glyph unicode="&#xfb02;" horiz-adv-x="839" d="M80 -463l242 1366h-175l13 70h174l22 131q14 86 45 155.5t78 114.5t113.5 63.5t157.5 4.5l-19 -76q-127 29 -193.5 -46t-91.5 -216l-22 -131h235l-12 -70h-235l-242 -1366h-90zM586 0l252 1434h86l-252 -1434h-86z" />
</font>
</defs>
</svg>
