<?xml version="1.0" standalone="no"?>
<!DOCTYPE svg PUBLIC "-//W3C//DTD SVG 1.1//EN" "http://www.w3.org/Graphics/SVG/1.1/DTD/svg11.dtd" >
<svg xmlns="http://www.w3.org/2000/svg">
<metadata></metadata>
<defs>
<font id="gabriel_sansnormal_italic" horiz-adv-x="1351" >
<font-face units-per-em="2048" ascent="1536" descent="-512" />
<missing-glyph horiz-adv-x="659" />
<glyph horiz-adv-x="2048" />
<glyph horiz-adv-x="2048" />
<glyph unicode="&#xd;" horiz-adv-x="2048" />
<glyph unicode=" "  horiz-adv-x="659" />
<glyph unicode="&#x09;" horiz-adv-x="659" />
<glyph unicode="&#xa0;" horiz-adv-x="659" />
<glyph unicode="!" horiz-adv-x="620" d="M248 0l43 248h170l-43 -248h-170zM311 367l189 1067h170l-189 -1067h-170z" />
<glyph unicode="&#x22;" horiz-adv-x="765" d="M283 864l102 578h160l-103 -578h-159zM614 864l103 578h160l-103 -578h-160z" />
<glyph unicode="#" horiz-adv-x="1476" d="M111 471l24 143h287l133 359h-262l26 147h295l158 414h164l-158 -414h443l159 414h162l-160 -414h252l-26 -147h-285l-133 -359h260l-25 -143h-292l-177 -471h-161l176 471h-443l-176 -471h-164l177 471h-254zM578 608h456l137 371h-456z" />
<glyph unicode="$" horiz-adv-x="1591" d="M147 418l166 6q-10 -78 45.5 -149.5t151.5 -106.5q51 -20 109.5 -31.5t121.5 -17.5l97 549q-66 4 -135.5 9t-135 18.5t-122 37t-95.5 62.5t-55 98t-2 143q12 76 53 138.5t102.5 110.5t140.5 82t165 56q113 29 223 35l37 205h143l-37 -205q47 -4 93.5 -10t89.5 -16 q82 -20 151.5 -55.5t116.5 -84.5t69.5 -113.5t12.5 -144.5l-172 -6q8 59 -6.5 103.5t-47 76t-81 52t-105.5 34.5q-35 8 -70.5 13.5t-74.5 9.5l-90 -514q72 -4 149.5 -10.5t149 -21.5t132 -43t98.5 -76t49 -119.5t-15 -174.5q-20 -80 -71.5 -141t-122 -104t-152.5 -72 t-164 -45q-47 -10 -97.5 -14.5t-103.5 -8.5l-35 -202h-143l35 204q-141 10 -258 48q-70 23 -131.5 57.5t-104.5 82.5t-64.5 111.5t-9.5 143.5zM465 1034q-10 -74 19.5 -115.5t86 -63t133 -30t160.5 -12.5l88 504q-88 -6 -182 -29q-49 -12 -99 -31.5t-93 -50t-74 -72.5 t-39 -100zM885 117q51 4 101 10t97 18q117 29 206 83.5t112 136.5q31 109 -3 168t-103.5 86.5t-155.5 32.5t-160 7z" />
<glyph unicode="%" horiz-adv-x="1585" d="M158 -129l1310 1649h168l-1308 -1649h-170zM274 1128q12 70 47 131.5t87.5 106.5t120 70.5t143.5 25.5t134 -25.5t95 -70.5t51.5 -106.5t1.5 -131.5q-12 -70 -48 -131t-88 -106t-119.5 -70.5t-143.5 -25.5t-134.5 25.5t-95 70.5t-50 106.5t-1.5 130.5zM440 1128 q-16 -84 21 -140t119 -56t136 56t70 140q14 84 -20.5 140.5t-116.5 56.5t-138 -56.5t-71 -140.5zM879 309q12 70 48 131.5t88 106.5t119.5 70.5t143.5 25.5t134 -25.5t95 -70.5t50.5 -106.5t1.5 -131.5q-12 -72 -48 -132t-88.5 -105t-120 -71t-143.5 -26t-134 26t-95 71 t-50.5 105.5t-0.5 131.5zM1047 309q-14 -84 20.5 -140t116.5 -56t138 56t71 140q16 84 -21 140.5t-119 56.5q-82 -2 -136 -57.5t-70 -139.5z" />
<glyph unicode="&#x26;" horiz-adv-x="1718" d="M193 379q0 76 26.5 142.5t72.5 119.5t107.5 92t132.5 60q-18 20 -34.5 41.5t-26.5 46.5q-31 68 -28 141.5t35 142t88.5 128t133.5 100.5q74 37 169.5 53t192.5 12t182 -28.5t138 -71.5q59 -51 86 -124t13 -169l-156 -2q10 61 -9.5 106t-53.5 78q-43 37 -104.5 56.5 t-130.5 21.5t-138.5 -12.5t-126.5 -42.5q-43 -23 -76 -59.5t-52.5 -80t-22.5 -87.5t14 -80q12 -29 33.5 -53.5t48.5 -45.5l598 -534q84 98 110 241h162q-18 -102 -60 -186t-104 -154l238 -211l-2 -20h-222l-139 121q-78 -55 -171 -90t-197 -51q-96 -14 -187.5 -10.5 t-177.5 24.5q-74 18 -139.5 49t-115.5 78t-80 110.5t-27 147.5zM362 406q0 -102 69 -169t177 -98q72 -23 152 -25.5t162 11.5q66 10 131 34.5t123 59.5l-535 473q-53 -12 -103.5 -36.5t-88 -61.5t-62.5 -84t-25 -104z" />
<glyph unicode="'" horiz-adv-x="438" d="M289 858l102 578h160l-102 -578h-160z" />
<glyph unicode="(" horiz-adv-x="798" d="M253.5 314q-20.5 169 11.5 349.5t112 349.5t206 314.5t294 241.5l55 -119q-139 -92 -242.5 -219t-170 -271.5t-93.5 -296t-11.5 -296t75 -271.5t165.5 -219l-98 -119q-133 96 -208 241.5t-95.5 314.5z" />
<glyph unicode=")" horiz-adv-x="782" d="M82 -127q139 92 242.5 219t170 271.5t93 296t11.5 296t-74.5 270.5t-166.5 220l99 119q133 -96 207.5 -241.5t95 -314.5t-11 -349.5t-111.5 -349.5t-206 -314.5t-294 -241.5z" />
<glyph unicode="*" horiz-adv-x="1003" d="M420 1294l61 131l197 -67l31 209h135l-45 -209l223 67l14 -131l-213 -53l111 -178l-121 -80l-104 197l-174 -197l-93 80l172 178z" />
<glyph unicode="+" horiz-adv-x="968" d="M182 637l23 127h340l61 346h148l-62 -346h340l-22 -127h-340l-62 -348h-147l61 348h-340z" />
<glyph unicode="," horiz-adv-x="509" d="M39 -281l182 474h178l-235 -474h-125z" />
<glyph unicode="-" horiz-adv-x="1058" d="M262 555l27 143h717l-27 -143h-717z" />
<glyph unicode="." horiz-adv-x="495" d="M166 0l33 195h159l-32 -195h-160z" />
<glyph unicode="/" horiz-adv-x="931" d="M-37 -168l1065 1722h168l-1069 -1722h-164z" />
<glyph unicode="0" horiz-adv-x="1654" d="M207 431q-29 136 0 290q27 154 102.5 289t191 236.5t265 159.5t321.5 58t300.5 -58t208 -159.5t107.5 -237t1 -288.5q-29 -154 -104.5 -290t-190.5 -237.5t-264.5 -161t-321.5 -59.5t-301 59.5t-207.5 161t-107.5 237.5zM381.5 486.5q19.5 -109.5 79 -191.5t158 -130 t231.5 -48t247.5 48t203 130t146.5 191.5t81 234.5q20 123 0.5 232.5t-78.5 191.5t-157.5 130t-231.5 48t-248 -48t-203 -130t-146 -191.5t-79 -232.5q-23 -125 -3.5 -234.5z" />
<glyph unicode="1" horiz-adv-x="886" d="M238 1042l481 392h229l-252 -1434h-168l228 1292l-428 -352z" />
<glyph unicode="2" horiz-adv-x="1564" d="M168 156l1038 592q72 41 121 86t78 92q68 109 38 194.5t-118 130.5q-61 31 -148 47.5t-181.5 15.5t-185.5 -18.5t-159 -52.5q-63 -31 -113.5 -86t-64.5 -125l-156 6q23 104 96.5 192.5t178.5 141.5q88 45 201.5 66.5t230.5 22.5t225.5 -18.5t186.5 -58.5q74 -37 120 -93 t61 -125.5t-2.5 -150.5t-68.5 -165q-43 -66 -113.5 -130.5t-168.5 -119.5l-512 -297l-330 -158l1028 11l-27 -156h-1239z" />
<glyph unicode="3" horiz-adv-x="1667" d="M188 424l164 2q-14 -88 39 -150.5t152 -99.5q59 -23 127.5 -36t141.5 -15t146.5 5t141.5 24q51 12 105.5 33.5t100.5 53t79.5 76.5t44.5 107q14 80 -32 133t-119 85t-156 44t-142 12h-225l24 144h226q51 0 129.5 9t155.5 34.5t136.5 73t71.5 120.5q10 63 -25.5 105.5 t-80.5 66.5q-68 37 -163 56.5t-197.5 18.5t-204 -22.5t-181.5 -64.5q-57 -31 -97 -71t-56 -109l-162 6q23 100 89 174t165 125q100 51 222 78.5t245 29t237.5 -21.5t200.5 -68q94 -51 148.5 -127.5t37.5 -183.5q-10 -53 -41.5 -102t-80 -89t-109 -69t-125.5 -43l-2 -2 q70 -18 127 -48t97 -71t57.5 -95t5.5 -122q-16 -90 -63.5 -158.5t-114 -119t-147.5 -84t-163 -54.5q-80 -18 -166 -26t-171 -5t-167 17t-151 41q-72 27 -127 62.5t-92 82.5t-51.5 106.5t-4.5 131.5z" />
<glyph unicode="4" horiz-adv-x="1552" d="M133 461l1223 983h188l-180 -1022h195l-27 -148h-195l-47 -274h-170l47 274h-974zM307 422h887l145 829z" />
<glyph unicode="5" horiz-adv-x="1638" d="M186 420l142 8q-4 -41 10 -79t43 -70.5t67.5 -59t83.5 -43.5q119 -47 267 -47q143 -4 288 35q106 31 191.5 95.5t122.5 141.5q20 41 24.5 90.5t-8.5 88.5q-23 82 -89 131t-159.5 73.5t-202 25.5t-217 -12.5t-207 -40t-167.5 -59.5l-88 78l184 658h1147l-25 -144h-999 l-113 -401q141 41 298 56.5t304 -1.5q76 -8 155 -25.5t147.5 -51t121 -86t74.5 -130.5q18 -66 11 -142.5t-36 -148.5q-57 -129 -179 -213t-271 -124q-80 -23 -165 -34.5t-171 -8.5q-86 2 -166 15t-149 40q-135 51 -211 147.5t-58 237.5z" />
<glyph unicode="6" horiz-adv-x="1628" d="M201 465q23 127 44 253t44 253q25 141 109.5 240.5t219.5 162.5q100 47 216 70.5t232 24.5t225.5 -19t195.5 -61q84 -41 142.5 -102.5t78.5 -147.5l-149 -47q-14 47 -58.5 93t-103.5 72q-70 33 -161 50.5t-189.5 17.5t-194.5 -19.5t-178 -56.5q-86 -41 -143.5 -114.5 t-73.5 -163.5l-31 -176q61 78 143 118.5t164 59.5q135 31 274.5 27.5t260.5 -37.5q82 -25 154.5 -68t122.5 -103.5t71.5 -138.5t5.5 -176q-16 -94 -66.5 -170t-120 -132t-154.5 -95t-171 -62q-141 -39 -289.5 -38.5t-277.5 36.5q-84 25 -154 65t-117 96t-67.5 128t-3.5 160z M373 367.5q12 -56.5 44 -97.5t82 -69.5t111 -46.5q109 -33 235 -33t245 35q68 18 129 47.5t109 69.5t80 90.5t42 111.5q12 68 -2 123t-49 98t-87 75t-114 52q-104 35 -222 37t-235 -29q-66 -16 -127 -42.5t-110 -66.5t-83 -94.5t-46 -125.5q-14 -78 -2 -134.5z" />
<glyph unicode="7" horiz-adv-x="1519" d="M270 0v4l770 860l404 428h-1106l24 142h1268l10 -136l-1163 -1298h-207z" />
<glyph unicode="8" horiz-adv-x="1669" d="M160 389q4 66 34.5 128.5t82 113.5t119 89t147.5 54q-66 14 -112 48t-71.5 77t-35 89t-0.5 87q16 84 62 147.5t110.5 108.5t141.5 75t156.5 46t156.5 23.5t141 7.5q63 0 138 -7.5t148.5 -23.5t140 -46t114.5 -75t72 -108.5t11 -147.5q-6 -41 -30.5 -87t-66.5 -89 t-99.5 -77t-128.5 -48q74 -16 128 -54t87.5 -89t42 -113.5t-10.5 -128.5q-29 -102 -101.5 -177t-176.5 -128q-131 -66 -265.5 -85t-267.5 -19t-261 19t-234 85q-86 53 -133 128t-39 177zM328 401q-4 -59 24.5 -106t81.5 -82q88 -59 196.5 -74.5t221.5 -15.5t226.5 15.5 t224.5 74.5q66 35 110.5 82t61.5 106q23 80 -14.5 138.5t-112 95.5t-179 53.5t-215.5 16.5t-220 -16.5t-197 -53.5t-145.5 -95.5t-63.5 -138.5zM494 1085q-14 -66 22.5 -111.5t106 -74.5t164 -42t192.5 -13t196.5 13t178.5 42t133 75t63 111q12 78 -41 127.5t-132 78 t-166 39.5t-144 11t-148.5 -11t-180.5 -39.5t-158.5 -78t-85.5 -127.5z" />
<glyph unicode="9" horiz-adv-x="1626" d="M174 309l148 49q14 -47 58 -93t103 -75q70 -33 162 -50t190.5 -16t194.5 19.5t178 57.5q84 39 141.5 113.5t73.5 164.5l33 174q-61 -78 -144 -117.5t-165 -58.5q-135 -31 -275.5 -27.5t-261.5 37.5q-82 25 -153.5 67t-120.5 102.5t-70.5 139t-5.5 177.5q16 94 66.5 169 t120 132t154.5 96t171 62q141 37 289.5 36.5t277.5 -34.5q84 -25 154 -65t116 -96t66.5 -129t5.5 -161q-23 -125 -44 -251t-44 -255q-25 -141 -110.5 -240.5t-220.5 -160.5q-100 -47 -216 -70.5t-232 -24.5t-225.5 19t-195.5 61q-84 39 -143.5 100.5t-75.5 147.5zM428 973 q-12 -68 3 -122t50 -98t87.5 -76t113.5 -52q104 -33 222 -35t235 26q66 16 127 43t110 67t84 95.5t47 126.5q14 76 2 133.5t-44.5 98.5t-83 68.5t-111.5 45.5q-106 35 -232.5 35t-246.5 -35q-135 -39 -237.5 -118.5t-125.5 -202.5z" />
<glyph unicode=":" horiz-adv-x="532" d="M207 0l41 238h160l-41 -238h-160zM326 680l41 238h159l-41 -238h-159z" />
<glyph unicode=";" horiz-adv-x="532" d="M59 -260l183 473h176l-234 -473h-125zM336 737l41 238h160l-41 -238h-160z" />
<glyph unicode="&#x3c;" horiz-adv-x="849" d="M184 610l15 80l499 381h213l-4 -18l-542 -402l401 -403l-4 -19h-213z" />
<glyph unicode="=" horiz-adv-x="1101" d="M178 420l25 143h893l-25 -143h-893zM240 770l24 143h893l-24 -143h-893z" />
<glyph unicode="&#x3e;" horiz-adv-x="849" d="M166 229l4 19l545 403l-404 402l4 18h213l365 -381l-14 -80l-500 -381h-213z" />
<glyph unicode="?" horiz-adv-x="1544" d="M262 1010q18 86 64.5 154.5t114 122.5t153.5 91t184 58q141 29 290 24.5t271 -47.5q74 -27 133.5 -66.5t97.5 -94t50 -123t-8 -152.5q-31 -125 -93.5 -189.5t-141.5 -97.5t-164 -49t-159.5 -44t-131 -83t-76.5 -166h-158q20 109 60 179.5t92.5 115.5t114 69.5t125 40 t124 30t111.5 38t87 62.5t52 104q25 98 -32.5 176t-157.5 113q-106 37 -234.5 40t-251.5 -22q-143 -31 -239.5 -107.5t-118.5 -176.5h-158zM629 0l41 236h157l-41 -236h-157z" />
<glyph unicode="@" horiz-adv-x="2068" d="M295 616q31 174 125 324t229 259.5t300 172t337 62.5q190 0 335.5 -55.5t239 -161t127 -257t1.5 -344.5q-16 -92 -45 -181t-80 -173q-47 -80 -123 -124t-145.5 -45t-117.5 43t-42 140q-78 -80 -179.5 -125t-214.5 -45q-111 0 -200.5 38t-151 105.5t-88.5 162t-6 204.5 q18 111 78.5 206.5t146.5 165t190.5 108.5t215.5 39t197.5 -43t134.5 -121l47 104h131l-138 -780q-6 -35 7.5 -48.5t36 -9t48 25t42.5 50.5q41 72 61.5 151t34.5 152q27 160 1 286t-99.5 214t-192.5 134t-276 46q-139 0 -273.5 -53t-245 -145t-187.5 -216t-101 -266 q-35 -199 32.5 -350t201.5 -234t314.5 -88t370.5 91l43 -117q-152 -74 -301 -96.5t-283.5 1t-246 91.5t-186 170t-104.5 236.5t-1 295.5zM756 616q-14 -78 4 -142t61 -110.5t106.5 -72t141.5 -25.5q84 0 155.5 24.5t127 72t93.5 113t52 149.5q29 168 -48 259t-251 91 q-78 0 -151.5 -26.5t-133 -75t-101.5 -114t-56 -143.5z" />
<glyph unicode="A" horiz-adv-x="1695" d="M29 0l989 1448h172l479 -1448h-186l-121 377h-891l-256 -377h-186zM567 518h748l-236 750z" />
<glyph unicode="B" horiz-adv-x="1574" d="M190 0l252 1434h738q90 0 174 -21.5t145 -81.5q55 -53 73 -135q8 -39 8 -78q0 -44 -10 -88q-20 -84 -76 -157.5t-148 -108.5v-4q72 -16 118 -60q48 -43 70 -100q22 -55 21 -119v-5q-1 -68 -23.5 -135t-65.5 -127t-106 -105q-98 -68 -207 -88.5t-199 -20.5h-764zM383 141 h596q59 0 141 12.5t154 65.5q43 33 70.5 85t37.5 108q5 27 4 53q0 29 -6 56q-10 52 -45 87q-49 47 -120.5 62.5t-141.5 15.5h-596zM502 821h590q51 0 113.5 15.5t109.5 50.5q39 29 63.5 75t32.5 96q4 25 4 49t-4 47q-8 46 -35 75q-39 41 -100.5 52t-118.5 11h-571z" />
<glyph unicode="C" horiz-adv-x="1591" d="M236 721q29 166 108.5 303t197 235.5t266 152.5t314.5 54q102 0 200.5 -23.5t178.5 -72.5t136.5 -125t74.5 -180l-151 -33q-23 86 -69 142.5t-107.5 89t-135 46t-153.5 13.5q-129 0 -244 -44t-206 -124t-153.5 -190.5t-84.5 -243.5q-13 -75 -13 -141q-1 -62 11 -117 q24 -113 86.5 -190.5t162 -117.5t228.5 -40q74 0 153.5 17.5t156.5 53t143.5 91t113.5 133.5l147 -35q-66 -113 -149.5 -191t-178.5 -125t-200 -68.5t-211 -21.5q-166 0 -294 56.5t-211 157t-115 238.5q-16 72 -16 150q0 72 14 150z" />
<glyph unicode="D" horiz-adv-x="1587" d="M109 0l251 1438h664q158 0 279.5 -54.5t198.5 -151.5q76 -96 104 -228q14 -68 15 -141q0 -69 -13 -144q-29 -170 -102.5 -303t-184.5 -225.5t-251 -141.5t-298 -49h-663zM303 137h494q123 0 230.5 43t192.5 119t142 180.5t80 229.5q12 82 12 152q0 180 -80 283 q-110 142 -373 142h-493z" />
<glyph unicode="E" horiz-adv-x="1421" d="M190 0l252 1434h1110l-24 -142h-940l-90 -506h903l-25 -141h-903l-88 -502h940l-25 -143h-1110z" />
<glyph unicode="F" horiz-adv-x="1347" d="M190 0l252 1434h1108l-24 -142h-940l-90 -506h890l-24 -141h-891l-113 -645h-168z" />
<glyph unicode="G" horiz-adv-x="1683" d="M225 715q29 168 110 306t199.5 237.5t267 153.5t314.5 54q102 0 198.5 -23.5t175.5 -72.5t134 -126t74 -181l-152 -31q-25 88 -68.5 143.5t-104 88t-132.5 45t-151 12.5q-129 0 -245 -46t-208 -127t-154.5 -193.5t-87.5 -245.5q-13 -74 -13 -139q0 -63 12 -117 q24 -111 88.5 -187t165 -113.5t229.5 -37.5q74 0 152.5 13t154.5 44t141.5 81t112.5 126l43 244h-537l25 141h686q-16 -102 -36 -205.5t-36 -208.5q-61 -104 -145 -177t-180.5 -118t-200 -64.5t-205.5 -19.5q-166 0 -295 55.5t-212 155t-115 235.5q-18 73 -18 154 q0 69 13 144z" />
<glyph unicode="H" horiz-adv-x="1703" d="M188 0l252 1434h170l-114 -646h989l114 646h168l-251 -1434h-168l112 647h-989l-113 -647h-170z" />
<glyph unicode="I" horiz-adv-x="550" d="M193 0l251 1434h168l-252 -1434h-167z" />
<glyph unicode="J" horiz-adv-x="1591" d="M133 702h156q-12 -74 -12 -138q0 -74 16 -134q29 -111 93.5 -180.5t155.5 -101t193 -31.5q98 0 197.5 34.5t185.5 106.5t149.5 179.5t88.5 252.5l114 600h-684l25 144h760h86l-15 -86l-116 -658q-27 -154 -98.5 -285t-178 -226t-244 -149.5t-296.5 -54.5 q-156 0 -276 55.5t-195.5 154t-103.5 231.5q-14 68 -14 141q0 70 13 145z" />
<glyph unicode="K" horiz-adv-x="1638" d="M190 0l252 1434h168l-149 -852l280 227l826 625h250l-867 -648l649 -786h-210l-566 690l-395 -295l-70 -395h-168z" />
<glyph unicode="L" horiz-adv-x="1318" d="M190 0l252 1434h170l-227 -1293h938l-25 -141h-1108z" />
<glyph unicode="M" horiz-adv-x="2060" d="M190 0l252 1434h179l505 -840l818 840h178l-252 -1434h-170l209 1194l-758 -780h-100l-484 780l-209 -1194h-168z" />
<glyph unicode="N" horiz-adv-x="1728" d="M190 0l252 1434h172l795 -1203l213 1203h168l-252 -1434h-172l-797 1202l-211 -1202h-168z" />
<glyph unicode="O" horiz-adv-x="1734" d="M238 723q29 168 108.5 306t197.5 234.5t266 149.5t314 53t294 -55t211 -154.5t116 -235.5q18 -72 17 -152q0 -70 -13 -146q-29 -168 -109.5 -305t-198.5 -235.5t-265.5 -152t-313.5 -53.5t-295 55.5t-212 155t-115 235.5q-16 71 -16 149q0 72 14 151zM406 464 q24 -112 87.5 -188.5t164 -115.5t229.5 -39t244.5 44t207 124t153.5 190.5t87 243.5q11 70 11 133q0 66 -12 123q-24 113 -87.5 188.5t-163.5 115.5t-229 40t-245 -44t-207 -123t-153.5 -189.5t-84.5 -243.5q-13 -76 -13 -142q0 -63 11 -117z" />
<glyph unicode="P" horiz-adv-x="1542" d="M190 0l252 1436h703q109 0 210 -28t173 -99q60 -63 80 -159q10 -48 10 -96q0 -50 -10 -100q-20 -100 -73.5 -194t-137.5 -156q-96 -72 -207 -94.5t-217 -22.5h-531l-84 -487h-168zM469 629h532q74 0 156 19.5t150 72.5q55 43 91 107q36 66 49 136q7 38 7 74q0 32 -5 62 q-11 66 -48 108q-49 55 -127 69.5t-154 14.5h-534z" />
<glyph unicode="Q" horiz-adv-x="1757" d="M238 723q29 168 108.5 306t197.5 234.5t266 149.5t314 53t294 -55t211 -154.5t116 -235.5q18 -72 18 -152q0 -70 -14 -146q-27 -147 -94.5 -273t-167.5 -225l178 -219v-6h-186l-109 131q-111 -74 -239 -114t-269 -40q-166 0 -295 55.5t-212 155t-115 235.5 q-16 71 -16 149q0 72 14 151zM406 469q24 -113 87.5 -189.5t164 -117.5t229.5 -41q111 0 209 31.5t182 91.5l-215 266l2 6h188l140 -174q145 154 188 381q14 75 14 142q0 58 -11 109q-23 111 -87.5 189t-167 119t-231.5 41t-245 -44t-207 -123t-153.5 -189.5t-84.5 -243.5 q-13 -73 -13 -138q0 -61 11 -116z" />
<glyph unicode="R" horiz-adv-x="1558" d="M190 0l252 1434h738q47 0 99 -5.5t102.5 -17.5t97.5 -34.5t84 -57.5q61 -59 83 -147q12 -49 11 -100q1 -41 -7 -84q-18 -95 -72 -183t-140 -148q-147 -98 -387 -102v-2h-37l465 -543v-10h-201l-469 553h-352l-97 -553h-170zM481 694h592q178 6 279 82q51 37 86 96.5 t48 121.5q8 39 8 76q0 23 -3 44q-8 57 -41 94q-27 27 -64.5 44.5t-78.5 25.5t-81 11t-71 3h-567z" />
<glyph unicode="S" horiz-adv-x="1595" d="M152 414l167 6q-2 -17 -2 -32q-1 -74 45 -126q56 -64 152 -98q124 -46 278 -52q24 -1 48 0q129 0 247 29q119 29 206 83.5t112 137.5q14 52 14 92q1 26 -5 46q-14 54 -54.5 85t-98 45.5t-119 19.5t-121.5 5t-103 4q-66 4 -142 8.5t-150.5 14.5t-141 31.5t-114.5 61.5 q-48 41 -70 103q-12 36 -12 81q0 34 7 73q14 76 54 138.5t99.5 111.5t136.5 84t163 57q68 16 142.5 23.5t145.5 9.5h17q132 0 252 -29q84 -20 153.5 -55t117.5 -84q48 -50 70 -114q14 -41 14 -89q0 -27 -5 -55l-166 -4q3 20 3 38q0 36 -10 66q-16 44 -49.5 74.5t-81.5 51 t-106 34.5q-96 25 -202 25h-29q-125 0 -238 -31q-49 -12 -101 -31.5t-95 -50.5t-74 -73t-39 -99q-4 -23 -4 -44q1 -56 29 -88q38 -44 110 -62.5t165 -21.5t189 -11q74 -6 156 -10.5t160 -17.5t145.5 -39.5t111.5 -75.5q45 -48 59 -122q5 -25 4 -54q0 -57 -19 -130 q-20 -80 -69.5 -141t-117 -104t-147.5 -72t-160 -45q-73 -14 -153 -20q-52 -4 -104 -3q-29 0 -58 1q-82 3 -160 15.5t-141 32.5q-72 23 -132.5 60t-103.5 86q-43 50 -65 112q-14 41 -14 88q0 24 4 50z" />
<glyph unicode="T" horiz-adv-x="1425" d="M246 1292l24 142h1389l-25 -142h-610l-227 -1292h-168l227 1292h-610z" />
<glyph unicode="U" horiz-adv-x="1841" d="M324 768l116 666h170l-116 -666q-17 -89 -17 -166q1 -66 13 -123q26 -123 90 -203q66 -81 160 -120q92 -38 194 -38h5q105 1 215 43t204 124t163.5 202.5t98.5 280.5l117 666h170l-117 -666q-35 -201 -123 -349.5t-209 -247.5t-261 -148.5t-278.5 -49.5t-261 50.5 t-209 149.5t-122.5 247q-19 76 -19 165q0 86 17 183z" />
<glyph unicode="V" horiz-adv-x="1724" d="M283 1432v2h188l305 -957l101 -366l233 368l649 955h189v-4l-1002 -1455h-180z" />
<glyph unicode="W" horiz-adv-x="2711" d="M307 1434h187l243 -936l82 -348l211 348l467 704h139l211 -706l86 -346l205 348l584 936h186l-926 -1459h-147l-219 727l-84 308l-180 -295l-486 -740h-149z" />
<glyph unicode="X" horiz-adv-x="1558" d="M51 0v6l772 717l-477 707v4h199l399 -619l219 234l389 385h209v-4l-729 -713l520 -711v-6h-190l-449 625l-200 -205l-455 -420h-207z" />
<glyph unicode="Y" horiz-adv-x="1589" d="M283 1430v4h196l432 -729l701 729h200v-4l-833 -863l-98 -567h-170l98 567z" />
<glyph unicode="Z" horiz-adv-x="1509" d="M88 150l1370 1140v4h-1091l24 144h1282l23 -135l-1366 -1135q-8 -6 -14.5 -12t-14.5 -13h1155l-24 -143h-1326z" />
<glyph unicode="[" horiz-adv-x="720" d="M166 -250l319 1813h443l-25 -136h-282l-271 -1542h283l-25 -135h-442z" />
<glyph unicode="\" horiz-adv-x="937" d="M274 1565h175l460 -1721h-174z" />
<glyph unicode="]" horiz-adv-x="727" d="M29 -250l24 135h283l270 1542h-282l24 136h443l-320 -1813h-442z" />
<glyph unicode="^" horiz-adv-x="1298" d="M233 702l615 732h102l357 -732l-7 -6h-170l-264 555l-467 -555h-163z" />
<glyph unicode="_" horiz-adv-x="991" d="M-23 -186l23 133h958l-24 -133h-957z" />
<glyph unicode="`" horiz-adv-x="667" d="M387 1434v2h197l157 -269l-2 -8h-155z" />
<glyph unicode="a" d="M192 492q22 132 103.5 245t215.5 187.5t316 74.5q109 0 204 -34.5t140 -116.5l41 129h144l-172 -977h-148l13 145q-72 -82 -181.5 -121.5t-220.5 -39.5q-180 0 -289 74q-108 74 -148 188q-26 73 -26 153q0 46 8 93zM348 492q-7 -38 -8 -75q0 -57 18 -107 q28 -83 104.5 -139t207.5 -56q92 0 167.5 26.5t134 73.5t96.5 112.5t52 143.5l13 64q6 33 6 64q1 109 -69 179q-88 90 -267 90q-129 0 -225.5 -56t-154 -139t-75.5 -181z" />
<glyph unicode="b" horiz-adv-x="1349" d="M168 0l252 1436h158l-107 -600q72 82 181.5 121.5t221.5 39.5q133 0 227.5 -44t150.5 -115q54 -72 74 -163q11 -52 12 -106q0 -41 -6 -81q-14 -96 -63.5 -186.5t-129.5 -162t-191.5 -115.5t-251.5 -44q-113 0 -207 31.5t-141 117.5l-39 -129h-141zM391 444q-6 -35 -6 -67 q1 -37 9 -70q16 -61 59 -105t110.5 -67.5t155.5 -23.5q125 0 220 56t155 139q60 84 80 182q8 42 9 80q1 53 -15 101q-26 83 -104.5 139t-211.5 56q-92 0 -169 -26.5t-135.5 -74.5t-96 -113.5t-50.5 -141.5z" />
<glyph unicode="c" horiz-adv-x="1150" d="M182 483q20 119 74.5 214.5t134.5 163t181.5 103t218.5 35.5q78 0 148.5 -17t125.5 -53t90 -90.5t43 -127.5l-137 -31q-14 55 -44 91t-69 57.5t-85 29.5t-95 8q-86 0 -157.5 -28.5t-126 -79.5t-91.5 -122t-51 -153q-8 -49 -8 -92q0 -110 53 -180q74 -98 248 -98 q49 0 98 8t97.5 30.5t91.5 61.5t77 100l134 -32q-37 -84 -93.5 -141.5t-124 -92.5t-145.5 -51t-158 -16q-113 0 -200.5 35.5t-145.5 102.5q-60 66 -82 158q-12 49 -11 104q0 49 9 103z" />
<glyph unicode="d" d="M194 487q22 131 100.5 245t212.5 188.5t318 74.5q113 0 206 -37.5t138 -123.5l107 602h160l-252 -1436h-142l5 129q-78 -86 -183.5 -117.5t-216.5 -31.5q-178 0 -285 74q-108 74 -149 188q-27 74 -27 157q1 43 8 88zM344 488q-7 -39 -7 -76q1 -56 17 -106 q28 -83 105.5 -139t210.5 -56q88 0 163.5 23.5t133 67.5t96.5 105.5t53 136.5l10 64q7 38 7 74t-7 68q-14 66 -55 113.5t-108.5 74t-159.5 26.5q-129 0 -225.5 -56t-156 -139t-77.5 -181z" />
<glyph unicode="e" horiz-adv-x="1204" d="M188 487q20 123 77 218.5t140.5 160t188 97t219.5 32.5q113 0 195 -26.5t131 -69.5t69 -99q12 -34 11 -69q0 -23 -5 -47q-23 -111 -121 -186.5t-284 -75.5h-467q-1 -16 -1 -32q1 -60 19 -106q24 -58 67.5 -96t103 -56.5t124.5 -20.5h10q93 1 179 35q92 36 160 135 l129 -43q-86 -141 -221.5 -199.5t-284.5 -58.5q-113 0 -203 36.5t-148 103.5q-58 68 -82 162q-13 53 -14 111q0 45 8 94zM367 551h467q106 0 166.5 38t70.5 97q2 10 2 21q0 23 -9 45q-13 32 -47 57t-91.5 40t-139.5 15q-152 0 -265 -83t-154 -230z" />
<glyph unicode="f" horiz-adv-x="915" d="M168 -442l227 1284h-207l23 131h207l12 69q16 92 57 173t102.5 140.5t144.5 93.5t184 34h15q119 0 191 -60l-65 -118q-29 29 -71 39t-85 10q-68 0 -121 -25.5t-93 -70t-65.5 -100.5t-35.5 -116l-13 -69h398l-23 -131h-397l-227 -1284h-158z" />
<glyph unicode="g" d="M92 -193l127 78q45 -117 135 -164t211 -47q76 0 152 23.5t139.5 66.5t109.5 106.5t60 147.5l23 132q-72 -82 -181.5 -124t-220.5 -42q-180 0 -288.5 74.5t-150.5 187.5q-27 74 -27 156q0 44 7 90q23 131 104 244.5t216 188t319 74.5q111 0 204 -32.5t140 -118.5l41 129 h144l-170 -961q-23 -121 -84.5 -209t-149.5 -147t-192.5 -89t-210.5 -32h-17q-144 0 -261 63q-124 66 -179 205zM346 492q-8 -43 -8 -82q0 -52 16 -100q27 -83 104 -139t212 -56q92 0 167.5 26.5t134 73.5t96.5 112.5t52 143.5l13 64q6 33 6 64q0 108 -69 179 q-89 90 -267 90q-125 0 -221.5 -56t-155.5 -139t-80 -181z" />
<glyph unicode="h" horiz-adv-x="1337" d="M170 0l113 639l139 797h160l-109 -623q72 98 169 142t210 46h13q83 -1 161 -25q84 -26 144 -86q62 -61 88 -159q14 -51 14 -116q0 -58 -12 -126l-86 -489h-158l86 492q10 61 10 110q0 42 -7 74q-15 72 -53 115t-94.5 60t-117.5 17q-66 0 -134.5 -24.5t-128 -72.5 t-103.5 -122t-60 -172l-84 -477h-17h-143z" />
<glyph unicode="i" horiz-adv-x="491" d="M170 0l170 973h158l-170 -973h-158zM379 1192l43 244h156l-43 -244h-156z" />
<glyph unicode="j" horiz-adv-x="520" d="M-332 -414l82 111q29 -23 57.5 -28t59.5 -5q70 0 125 31t96 79t66.5 108.5t35.5 123.5l172 971h160l-170 -963q-18 -98 -60 -186t-107.5 -155.5t-150.5 -106.5t-190 -39q-55 2 -95 15.5t-81 43.5zM393 1192l43 244h160l-43 -244h-160z" />
<glyph unicode="k" horiz-adv-x="1167" d="M170 0l252 1436h158l-172 -975l178 145l493 367h207v-6l-561 -428l412 -535v-4h-185l-346 451l-231 -181l-47 -270h-158z" />
<glyph unicode="l" horiz-adv-x="499" d="M170 0l252 1436h160l-252 -1436h-160z" />
<glyph unicode="m" horiz-adv-x="2019" d="M170 0l113 639l57 336h141l-8 -141q72 92 161 125.5t200 35.5h10q132 0 221 -51q92 -53 117 -182q76 131 177 181t236 52h14q82 1 151 -21q75 -24 124 -81q48 -57 66 -155q7 -40 8 -88q0 -71 -16 -161l-87 -489h-155l86 492q14 83 14 145q0 21 -2 39q-6 72 -32.5 116 t-73.5 62t-109 18q-80 0 -148.5 -31.5t-120.5 -86t-87 -123t-47 -142.5l-86 -489h-158l86 492q14 80 14 140q0 20 -2 38q-6 72 -32.5 116.5t-72.5 64t-108 19.5q-66 0 -131 -24.5t-120.5 -73.5t-96.5 -123t-59 -172l-84 -477h-17h-143z" />
<glyph unicode="n" horiz-adv-x="1339" d="M170 0l113 639l57 334h141l-8 -148q72 92 171 130t210 40h13q81 1 160 -23q85 -26 145 -86q60 -59 86 -156q14 -51 14 -115q0 -58 -12 -126l-86 -489h-156l86 492q10 61 10 110q0 42 -7 74q-15 72 -54 116t-95.5 62t-117.5 18q-66 0 -133.5 -24.5t-127 -74.5t-103.5 -124 t-62 -172l-84 -477h-17h-143z" />
<glyph unicode="o" horiz-adv-x="1277" d="M186 489q18 119 75.5 213.5t140.5 160t188.5 100t222.5 34.5t208 -37.5t151 -105.5t84 -161q13 -53 14 -111q0 -45 -8 -93q-20 -117 -77 -211t-140.5 -160.5t-188 -102t-221.5 -35.5t-209 37.5t-152 104.5q-60 68 -84 162q-13 51 -13 106q0 48 9 99zM346 328 q16 -70 58 -118t106.5 -72.5t146.5 -24.5t156 27.5t133.5 76.5t99 119t56.5 153q7 46 7 87q-1 124 -67 196q-88 94 -251 94q-82 0 -157 -27.5t-133.5 -76.5t-99.5 -119t-55 -154q-8 -46 -8 -86t8 -75z" />
<glyph unicode="p" horiz-adv-x="1353" d="M90 -442l254 1433h143l-6 -129q78 88 183.5 120t216.5 32q135 0 229 -44t149.5 -116t74.5 -163q11 -51 11 -103q0 -41 -7 -83q-15 -95 -64 -186.5t-130 -163t-192.5 -115.5t-251.5 -44q-111 0 -206 41t-136 121l-108 -600h-160zM399 485q-7 -37 -7 -71q0 -38 8 -72 q16 -66 57 -113t108.5 -73.5t159.5 -26.5q129 0 225.5 56.5t154.5 139.5t75 181q7 38 7 74q0 56 -17 107q-27 83 -105 139.5t-209 56.5q-88 0 -163 -23.5t-133 -67.5t-96 -105.5t-50 -137.5z" />
<glyph unicode="q" horiz-adv-x="1353" d="M198 506q23 131 104 244.5t214 188.5t315 75q111 0 205 -32t142 -120l41 129h141l-254 -1433h-160l109 600q-72 -80 -182.5 -120t-221.5 -40q-180 0 -287.5 74.5t-147.5 188.5q-26 73 -26 153q0 45 8 92zM350 506q-7 -39 -7 -75q0 -56 17 -106q29 -83 106 -139.5 t210 -56.5q92 0 169 26.5t134 73.5t95 113t50 143l13 64q6 33 6 64q0 108 -69 179q-89 91 -267 91q-129 0 -225.5 -56.5t-154.5 -139.5t-77 -181z" />
<glyph unicode="r" horiz-adv-x="960" d="M170 0l170 971h143l-6 -129q63 76 147 112q83 36 168 44q25 2 48 3q58 1 114 -13q78 -18 131 -52l-90 -133q-80 51 -172 57q-13 1 -25 1q-78 -1 -150 -33q-83 -38 -145.5 -115.5t-82.5 -190.5l-90 -522h-160z" />
<glyph unicode="s" horiz-adv-x="1191" d="M141 287l148 6q-1 -7 0 -13q-1 -38 19 -67q24 -33 67 -54.5t99 -32.5t118 -13h25q51 0 103 6q66 8 120.5 28.5t93.5 52t51 76.5q6 20 6 37q-1 27 -17 45q-26 29 -79 44.5t-127 20.5t-150.5 12t-150.5 19.5t-129 41t-83 78.5q-18 32 -18 78q0 25 5 53q14 84 71.5 140 t133 90t159.5 48t154 16q82 0 166 -14t150 -48q67 -33 104 -91q27 -43 28 -101q0 -20 -4 -43h-147q1 8 1 16q0 44 -30 72q-35 33 -87 50.5t-108.5 21.5t-95.5 4q-53 0 -110.5 -10t-105.5 -31.5t-81.5 -52.5t-40.5 -72q-2 -10 -1 -19q0 -37 26 -59q33 -26 91 -39.5t135 -19.5 t155 -13t149.5 -22.5t121.5 -48.5t70 -88q8 -24 8 -53q0 -40 -15 -90q-23 -72 -78 -122t-131 -83t-166 -48t-178 -15q-94 0 -179 20t-147.5 58t-95.5 96q-25 44 -25 99q0 16 2 34z" />
<glyph unicode="t" horiz-adv-x="874" d="M184 842l23 131h207l82 461h159l-82 -461h398l-23 -131h-397l-76 -424q-7 -39 -7 -78q0 -20 2 -38q5 -56 29.5 -100t69.5 -70t113 -26q35 0 73 8.5t72 28.5l19 -125q-90 -43 -197 -43q-100 0 -170.5 35t-111.5 94.5t-55 140.5q-6 37 -6 76q0 47 9 97l76 424h-207z" />
<glyph unicode="u" horiz-adv-x="1335" d="M248 483l86 492h155l-86 -494q-13 -64 -13 -115q0 -38 7 -70q17 -74 57 -116.5t97 -61t117 -18.5q66 0 134 25t127.5 74t103.5 122.5t61 172.5l84 481h16h143l-112 -643l-58 -332h-135l8 145q-70 -92 -172 -128.5t-213 -39.5h-13q-83 0 -161 24q-84 26 -145 85 q-60 58 -86 156q-14 50 -14 113q0 59 12 128z" />
<glyph unicode="v" horiz-adv-x="1245" d="M203 975h178q51 -150 102.5 -292t102.5 -292q18 -66 33.5 -130t25.5 -130h2q31 68 70 132.5t82 129.5l407 582h178l-686 -983h-153z" />
<glyph unicode="w" horiz-adv-x="1925" d="M219 969v6h172l164 -576q6 -25 14.5 -57.5t14.5 -66t11 -67.5t7 -61h4q10 27 26.5 60t34 66.5t37 65.5t35.5 56l297 434h140l147 -448q6 -23 14.5 -52.5t15.5 -61t12 -62.5t7 -53h2q29 68 59.5 122t67.5 119l371 582h174v-2l-629 -981h-143l-178 540q-4 31 -9.5 66 t-9.5 64h-4q-16 -31 -31.5 -67t-31.5 -65l-367 -538h-143z" />
<glyph unicode="x" horiz-adv-x="1159" d="M39 0v4l518 481l-352 488v2h198l275 -402h2l141 150l262 252h211v-2l-524 -488l350 -483v-2h-186l-285 395h-2l-147 -153l-254 -242h-207z" />
<glyph unicode="y" horiz-adv-x="1298" d="M203 973v2h178l225 -604l76 -236h4l143 236l433 604h174v-4l-1026 -1430h-179l338 467z" />
<glyph unicode="z" horiz-adv-x="1120" d="M123 141l854 699h-686l22 133h822l41 -144l-857 -698h728l-23 -131h-862z" />
<glyph unicode="{" horiz-adv-x="731" d="M195 553l22 129q51 0 87 22.5t60.5 58.5t39 80t22.5 87l23 137q14 86 54 157.5t100.5 125t140 83t174.5 33.5l-25 -139q-123 -2 -192.5 -70.5t-92.5 -189.5l-22 -137q-8 -41 -23.5 -88t-40 -90t-56.5 -79t-73 -55q33 -20 53.5 -56t28.5 -79t7 -89t-7 -89l-24 -137 q-23 -121 23 -188.5t169 -69.5l-31 -139q-188 6 -270 115.5t-51 281.5l24 137q8 43 9.5 87t-10 80t-40 58.5t-79.5 22.5z" />
<glyph unicode="|" horiz-adv-x="864" d="M307 -242l295 1678h160l-295 -1678h-160z" />
<glyph unicode="}" horiz-adv-x="731" d="M37 -231l18 139q123 2 191.5 69.5t91.5 188.5l24 137q6 43 21.5 89t40.5 89t57.5 79t73.5 56q-35 18 -54.5 54.5t-28.5 79.5t-8 90t7 88l25 137q23 121 -22.5 189.5t-168.5 70.5l31 139q186 -6 268 -116.5t51 -282.5l-24 -137q-6 -43 -8 -87t10 -80t39.5 -58.5 t79.5 -22.5l-23 -129q-51 0 -87 -22.5t-60.5 -58.5t-39 -80t-20.5 -87l-24 -137q-16 -86 -54 -157.5t-97.5 -124t-137.5 -83t-172 -32.5z" />
<glyph unicode="~" horiz-adv-x="1144" d="M160 512q41 68 94 113t114.5 67.5t126 20.5t126.5 -31q55 -27 94 -64.5t92 -60.5q78 -31 147.5 -6.5t118.5 119.5l113 -47q-39 -70 -90.5 -119t-110.5 -77t-123.5 -30t-128.5 25q-31 12 -55.5 29.5t-46 35t-43 34t-47.5 28.5q-76 37 -146.5 16.5t-124.5 -106.5z" />
<glyph unicode="&#xa1;" horiz-adv-x="653" d="M154 -446l188 1067h170l-188 -1067h-170zM362 739l44 248h169l-43 -248h-170z" />
<glyph unicode="&#xa2;" horiz-adv-x="1216" d="M180 461q18 100 70.5 188t128.5 155.5t168 110.5t190 58l23 123h133l-21 -119q123 -10 220.5 -73.5t148.5 -174.5l-127 -67q-41 82 -110.5 124.5t-155.5 53.5l-133 -756q100 10 192 58t164 147l113 -60q-88 -125 -220.5 -198.5t-273.5 -83.5l-22 -131h-133l22 135 q-92 14 -170 57t-129 110.5t-73.5 154.5t-4.5 188zM338 461q-12 -72 1 -134.5t47 -110.5t84 -81t112 -45l131 744q-66 -14 -127.5 -47t-112.5 -81.5t-87 -109.5t-48 -135z" />
<glyph unicode="&#xa3;" horiz-adv-x="1574" d="M160 113q55 49 104 102t86 111.5t56.5 123t13.5 132.5h-227l24 141h172l-4 6q-18 63 -31.5 128t2.5 151q23 121 97.5 205.5t176 138t216.5 79t217 27.5q100 0 205.5 -22.5t187.5 -74.5t127 -135t29 -202h-164q14 98 -44 163.5t-153.5 97.5t-214 30t-225 -37 t-186.5 -103.5t-99 -168.5q-8 -37 -4 -74t12.5 -72t19.5 -69.5t19 -67.5h533l-25 -141h-489q0 -55 -9.5 -109.5t-32 -106t-59 -95.5t-92.5 -78l2 -5q92 33 152.5 43.5t112 5t104.5 -23.5t133 -43q57 -18 116.5 -32.5t123 -13.5t131 21.5t141.5 69.5l74 -123 q-102 -70 -190.5 -97.5t-167 -28.5t-152.5 17.5t-148 41.5q-61 18 -127.5 36.5t-138 21.5t-153.5 -16.5t-174 -72.5z" />
<glyph unicode="&#xa4;" horiz-adv-x="1089" d="M119 305l143 123q-25 53 -32 115.5t4.5 126t40 126t73.5 115.5l-100 123l131 113l102 -125q111 63 252 63t228 -63l147 125l94 -113l-145 -123q27 -53 34 -115.5t-4.5 -126t-41 -126t-74.5 -115.5l102 -123l-133 -112l-102 124q-111 -63 -252 -63t-228 63l-147 -124z M386 669.5q-13 -75.5 6.5 -139t71.5 -106.5t144 -43q90 0 159 43t111 106.5t55 139t-6.5 139t-72.5 106.5t-143 43t-159 -43t-111 -106.5t-55 -139z" />
<glyph unicode="&#xa5;" horiz-adv-x="1589" d="M281 1430v4h200l434 -738l695 738h200v-4l-747 -773h344l-25 -137h-413l-21 -125h414l-25 -131h-413l-45 -264h-170l45 264h-414l25 131h413l21 125h-414l25 137h344z" />
<glyph unicode="&#xa6;" horiz-adv-x="864" d="M315 -180l131 747h162l-131 -747h-162zM469 688l131 746h162l-131 -746h-162z" />
<glyph unicode="&#xa7;" horiz-adv-x="1392" d="M176 266l156 6q-8 -55 30.5 -92t97 -59.5t123 -31.5t105.5 -11q127 -6 242 18q86 18 149.5 64.5t77.5 93.5q16 53 -13.5 83t-90 45t-142.5 22.5t-168 15.5t-167.5 22.5t-142 44t-92.5 80.5t-17 133q12 74 69.5 128.5t147.5 91.5q-43 12 -74 34.5t-50.5 53t-26.5 64.5 t-1 69q16 90 82 149.5t152 95t179 50t167 16.5q76 0 168 -12.5t169.5 -47t127 -95t36.5 -154.5l-153 -4q6 45 -23.5 78.5t-82 57t-120 34t-139.5 10.5t-140.5 -12.5t-124.5 -35t-94 -55t-44 -75.5q-10 -53 59 -84q70 -35 157 -46.5t177 -17.5q49 -4 98.5 -7t93.5 -12 t82.5 -24.5t69.5 -40.5q51 -43 69.5 -101t4.5 -118.5t-63.5 -115t-133.5 -87.5q88 -35 133 -98t17 -156q-33 -104 -134.5 -169.5t-236.5 -94.5q-68 -16 -139.5 -22t-143.5 -2q-74 2 -162.5 19.5t-163.5 54t-122 97t-35 150.5zM483 700q-8 -45 25 -74.5t89 -47t129 -22.5 t143.5 -3t131 12.5t95.5 24.5q37 16 64.5 38.5t39.5 49.5t6 55.5t-35 54.5q-43 39 -119.5 56.5t-163.5 17.5t-172 -15.5t-141 -41.5q-37 -20 -61.5 -45t-30.5 -60z" />
<glyph unicode="&#xa8;" horiz-adv-x="958" d="M418 1405l35 194h159l-34 -194h-160zM852 1405l35 194h160l-35 -194h-160z" />
<glyph unicode="&#xa9;" horiz-adv-x="1894" d="M320.5 446.5q-23.5 133.5 0 272.5t94 272t182.5 237.5t264.5 168t340.5 63.5t317.5 -63.5t205 -168t99 -237.5t-1 -272t-94 -272.5t-182 -238t-264.5 -168t-340 -63.5t-317 63.5t-205 168t-99.5 238zM473.5 495.5q18.5 -108.5 77.5 -194.5t161.5 -138t252.5 -52 q199 0 347 90t238 225t118 293t-14 293t-158.5 225t-315.5 90q-150 0 -271 -52t-211 -138t-146 -194.5t-76.5 -223.5t-2 -223.5zM651 719q18 109 79 194.5t141.5 142t174 82t179.5 13.5t155.5 -63.5t104.5 -149.5l-133 -74q-29 66 -76 99.5t-103.5 41t-115 -11t-109.5 -56.5 t-88 -93.5t-49 -124.5q-18 -104 28 -176t122.5 -97.5t169 2t169.5 125.5l109 -73q-70 -98 -158 -149.5t-179 -64t-175 13.5t-145.5 82t-90 142t-10.5 195z" />
<glyph unicode="&#xaa;" horiz-adv-x="905" d="M296 986q5 40 29.5 80t67.5 71q47 33 99.5 46t103.5 13h209q-4 51 -39 80t-84 34t-105.5 -10.5t-101.5 -52.5l-65 88q76 66 176 87.5t185 -1t137.5 -90t31.5 -180.5q-4 -23 -14.5 -81t-21.5 -121.5t-20 -112.5l-10 -50h-106l-16 70q-84 -72 -220 -72q-51 0 -97 13.5 t-79 42.5q-35 29 -50 67.5t-10 78.5zM429 990q-3 -32 26.5 -59.5t95.5 -27.5q37 0 76 6t71.5 24.5t57 50.5t35.5 85v8h-216q-70 0 -106.5 -27.5t-39.5 -59.5z" />
<glyph unicode="&#xab;" horiz-adv-x="1064" d="M219 549l361 448h165l-2 -10l-352 -438l199 -438l-2 -13h-166zM516 549l361 448h165l-2 -10l-352 -438l199 -438l-2 -13h-166z" />
<glyph unicode="&#xac;" horiz-adv-x="999" d="M188 553l25 141h778l-69 -403h-148l45 262h-631z" />
<glyph unicode="&#xad;" horiz-adv-x="1058" d="M262 555l27 143h717l-27 -143h-717z" />
<glyph unicode="&#xae;" horiz-adv-x="1894" d="M318.5 444.5q-23.5 133.5 1 272.5t95 272t182.5 237.5t264.5 168t340.5 63.5t318.5 -63.5t206 -168t98 -237.5t-2 -272t-94 -272.5t-182 -238t-265.5 -168t-341 -63.5t-317 63.5t-205 168t-99.5 238zM476.5 716.5q-27.5 -157.5 14 -292.5t158.5 -225t316 -90t347 90 t238 225t118 292.5t-14 293t-158.5 225.5t-315.5 90t-347.5 -90t-238.5 -225.5t-117.5 -293zM694 328l142 807h397q20 0 49 -2.5t57.5 -9.5t57 -20t53.5 -34q37 -37 50 -87t3 -103.5t-41.5 -102.5t-83.5 -84q-76 -49 -170 -59l199 -287l-2 -18h-176l-195 301h-127l-53 -301 h-160zM930 762h237q29 0 66 6t65 29q16 12 28.5 34.5t18 47t3.5 48t-15 38.5q-12 14 -31.5 22t-38 11t-34 3h-21.5h-235z" />
<glyph unicode="&#xb0;" horiz-adv-x="663" d="M341 1284q9 53 41 99.5t86 77t126 30.5t114 -30.5t58 -77t6 -99.5t-42 -99t-85 -77t-125 -31t-115 31t-58 77t-6 99zM459 1283q-6 -38 12.5 -70.5t67.5 -32.5t78.5 32.5t37 70.5t-11 70.5t-68.5 32.5q-49 0 -79.5 -32.5t-36.5 -70.5z" />
<glyph unicode="&#xb1;" horiz-adv-x="1001" d="M109 68l24 141h811l-24 -141h-811zM225 725l25 137h330l59 342h152l-60 -342h330l-25 -137h-329l-62 -342h-151l61 342h-330z" />
<glyph unicode="&#xb2;" horiz-adv-x="862" d="M258 995l510 283q61 37 79.5 70.5t4.5 60.5t-54 42t-96 15q-76 0 -141 -20.5t-82 -81.5l-153 4q16 63 57 107.5t97.5 72t123 39.5t131.5 12q45 0 93.5 -9t88 -28.5t67.5 -51t36 -80.5q6 -47 -6.5 -85t-39 -71t-63.5 -59.5t-75 -49.5l-316 -157h422l-24 -140h-631z" />
<glyph unicode="&#xb3;" horiz-adv-x="905" d="M281 1100h155q-4 -27 10.5 -48.5t41 -37t61.5 -22.5t74 -5q98 -6 159.5 24.5t69.5 80.5q10 47 -36 70.5t-167 23.5h-76l21 125h76q115 0 169 24.5t58 53.5q8 31 -41 59.5t-149 26.5q-37 0 -73 -6.5t-66.5 -18.5t-51 -29.5t-24.5 -38.5h-152q10 57 49 99.5t96 68.5 q53 27 115 39.5t125 12.5q61 0 122.5 -8.5t109 -31t76 -61.5t22.5 -98q-6 -61 -51.5 -97t-98.5 -51q66 -20 92.5 -62t18.5 -89q-14 -78 -62.5 -126t-112 -74.5t-133 -35t-126.5 -6.5q-53 2 -110.5 15.5t-103.5 41t-72 71.5t-15 110z" />
<glyph unicode="&#xb4;" horiz-adv-x="686" d="M348 1159l2 8l260 269h189v-2l-295 -275h-156z" />
<glyph unicode="&#xb6;" horiz-adv-x="1959" d="M278.5 706.5q-16.5 98.5 2 201t72 200.5t137 174t197.5 123t253 47h1112l-31 -168h-217l-305 -1726h-170l305 1726h-565l-305 -1726h-168l141 798q-139 2 -234 50.5t-151.5 125t-73 175z" />
<glyph unicode="&#xb7;" horiz-adv-x="495" d="M266 580l35 194h160l-35 -194h-160z" />
<glyph unicode="&#xb8;" horiz-adv-x="782" d="M96 -281l107 58q18 -33 44.5 -53.5t78.5 -22.5q61 -2 93 28.5t31 63.5t-37 54.5t-108 2.5l-51 60l68 137h137l-45 -94q115 0 157.5 -62.5t8.5 -152.5q-16 -43 -46 -73t-68 -48t-80 -25.5t-83 -7.5q-78 2 -129 34t-78 101z" />
<glyph unicode="&#xb9;" horiz-adv-x="593" d="M289 1415l241 184h199l-125 -710h-160l101 567l-185 -133z" />
<glyph unicode="&#xba;" horiz-adv-x="845" d="M321.5 1246q16.5 89 65.5 166t128 128t183 51t166 -51t83.5 -128t5 -166t-65.5 -165.5t-128.5 -128t-183.5 -51.5t-165.5 51.5t-83 128t-5 165.5zM476 1246q-9 -52 1 -97t40 -75t83 -30t93 30t65.5 75t35 97t0 97.5t-39 75t-82.5 29.5t-94 -29.5t-67 -75t-35 -97.5z" />
<glyph unicode="&#xbb;" horiz-adv-x="1067" d="M215 98l2 13l354 438l-200 438l2 10h166l204 -448l-362 -451h-166zM512 98l2 13l354 438l-200 438l2 10h166l204 -448l-362 -451h-166z" />
<glyph unicode="&#xbc;" horiz-adv-x="1622" d="M125 -78l1417 1596h184l-1417 -1596h-184zM297 1253l240 185h200l-125 -711h-159l100 563l-180 -133zM825 100q6 31 10.5 55.5t10.5 55.5l604 504h123l-84 -479h94l-24 -136h-95l-16 -100h-164l16 100h-475zM1073 236h252l43 249z" />
<glyph unicode="&#xbd;" horiz-adv-x="1699" d="M84 -74l1386 1594h185l-1387 -1594h-184zM295 1257l242 185h198l-127 -711h-157l100 561l-182 -131zM928 129l506 283q63 37 81.5 69.5t4 59t-54.5 42t-95 15.5q-76 0 -141.5 -20.5t-81.5 -81.5l-152 6q14 63 55.5 107t97.5 72t122.5 39t132.5 11q45 0 93 -9t88 -28.5 t67.5 -51.5t36.5 -81q6 -47 -7.5 -86t-39 -72.5t-62.5 -61.5t-78 -50l-92 -53l-225 -103l432 6l-29 -141h-651z" />
<glyph unicode="&#xbe;" horiz-adv-x="1859" d="M258 954h156q-4 -27 10 -46t41 -32.5t62.5 -20.5t72.5 -7q98 0 160.5 29.5t70.5 78.5q6 41 -40 62.5t-166 21.5h-76l22 125h76q115 0 168 24.5t59 53.5q6 31 -41 57.5t-145 24.5q-37 0 -73.5 -6t-68.5 -17.5t-53.5 -28t-25.5 -36.5h-152q12 57 50 99t96 69 q53 27 115.5 39t125.5 12q61 0 122 -8t109 -30.5t76.5 -61.5t22.5 -99q-6 -61 -47 -97t-96 -50q66 -20 88 -62t14 -90q-14 -78 -62 -126t-111.5 -74.5t-133.5 -34.5t-127 -6q-53 2 -109.5 15t-102.5 41t-71.5 72t-15.5 109zM340 -78l1440 1596h184l-1440 -1596h-184z M1042 100q6 31 10.5 55.5t10.5 55.5l608 504h123l-84 -479h98l-24 -136h-98l-17 -100h-164l17 100h-480zM1290 236h256l43 249z" />
<glyph unicode="&#xbf;" horiz-adv-x="1673" d="M154.5 -115.5q-11.5 68.5 9.5 152.5q29 125 92 189.5t141 97t164 49t161 44t130 83t76 166.5h157q-27 -145 -87 -224.5t-139 -121t-165 -59t-162.5 -40t-134 -64.5t-78.5 -130q-23 -98 34 -176t157 -113q109 -37 236.5 -40t248.5 21q143 31 239.5 108t119.5 177h157 q-18 -86 -64 -154.5t-113.5 -123t-153.5 -91t-185 -57.5q-141 -29 -289.5 -24.5t-271.5 47.5q-74 27 -133 66.5t-97 94t-49.5 123zM948 782l41 230h158l-41 -230h-158z" />
<glyph unicode="&#xc0;" horiz-adv-x="1695" d="M29 0l989 1448h172l479 -1448h-186l-121 377h-891l-256 -377h-186zM567 518h748l-236 750zM846 1841v2h196l158 -268l-2 -8h-156z" />
<glyph unicode="&#xc1;" horiz-adv-x="1695" d="M29 0l989 1448h172l479 -1448h-186l-121 377h-891l-256 -377h-186zM567 518h748l-236 750zM1059 1565l2 8l260 268h188v-2l-295 -274h-155z" />
<glyph unicode="&#xc2;" horiz-adv-x="1695" d="M29 0l989 1448h172l479 -1448h-186l-121 377h-891l-256 -377h-186zM567 518h748l-236 750zM788 1559l3 14l339 270h84l244 -270l-2 -14h-162l-145 145l-197 -145h-164z" />
<glyph unicode="&#xc3;" horiz-adv-x="1695" d="M29 0l989 1448h172l479 -1448h-186l-121 377h-891l-256 -377h-186zM567 518h748l-236 750zM838 1604q18 41 49 74.5t67.5 55t78.5 26.5t85 -11q33 -10 54.5 -32.5t50.5 -30.5q29 -10 58.5 8t41.5 45l115 -31q-20 -41 -50 -76t-66 -55.5t-76 -25.5t-83 12 q-29 16 -53.5 33.5t-50.5 25.5q-29 8 -62.5 -7.5t-46.5 -43.5z" />
<glyph unicode="&#xc4;" horiz-adv-x="1695" d="M29 0l989 1448h172l479 -1448h-186l-121 377h-891l-256 -377h-186zM567 518h748l-236 750zM823 1554l35 195h160l-35 -195h-160zM1257 1554l35 195h160l-35 -195h-160z" />
<glyph unicode="&#xc5;" horiz-adv-x="1695" d="M29 0l989 1448h172l479 -1448h-186l-121 377h-891l-256 -377h-186zM567 518h748l-236 750zM936 1698q12 66 52 108.5t91 64t106.5 21.5t99.5 -21.5t68.5 -64.5t12.5 -108q-10 -63 -50 -106.5t-91 -65t-107.5 -21.5t-100.5 21.5t-68.5 65t-12.5 106.5zM1054 1700 q-7 -37 10 -66.5t64 -29.5q49 0 79 29.5t37 66.5t-12.5 66.5t-68.5 29.5q-47 0 -74.5 -29.5t-34.5 -66.5z" />
<glyph unicode="&#xc6;" horiz-adv-x="2428" d="M29 0v2l1323 1432h1208l-25 -144h-913l-90 -504h876l-24 -141h-877l-88 -504h914l-25 -141h-1073l68 389h-713l-354 -389h-207zM719 530h608l135 760h-49z" />
<glyph unicode="&#xc7;" horiz-adv-x="1591" d="M235.5 441q-26.5 130 0.5 282q29 162 108.5 298t197 234.5t266 153.5t314.5 55q102 0 200.5 -23.5t178.5 -72.5t136.5 -125t74.5 -180l-151 -33q-23 82 -69 137.5t-108.5 89t-136 49t-151.5 15.5q-129 0 -244 -43t-206 -122t-153.5 -189.5t-84.5 -243.5 q-25 -133 -1.5 -243.5t87 -188.5t163 -121t228.5 -43q74 0 153.5 17.5t156.5 53t143.5 91t113.5 133.5l141 -33q-57 -98 -134 -172t-165 -123t-184 -76.5t-192 -33.5l-35 -78q115 0 157.5 -62.5t8.5 -152.5q-35 -84 -115 -120t-162 -34q-78 2 -129 34t-78 101l107 58 q18 -33 44.5 -53.5t78.5 -22.5q61 -2 93 28.5t31 63.5t-37 54.5t-108 2.5l-51 60l57 123q-147 12 -260.5 71.5t-185.5 156.5t-98.5 227z" />
<glyph unicode="&#xc8;" horiz-adv-x="1421" d="M190 0l252 1434h1110l-24 -142h-940l-90 -506h903l-25 -141h-903l-88 -502h940l-25 -143h-1110zM811 1837v2h197l157 -268l-2 -8h-155z" />
<glyph unicode="&#xc9;" horiz-adv-x="1421" d="M190 0l252 1434h1110l-24 -142h-940l-90 -506h903l-25 -141h-903l-88 -502h940l-25 -143h-1110zM924 1561l2 8l260 268h188v-2l-295 -274h-155z" />
<glyph unicode="&#xca;" horiz-adv-x="1421" d="M190 0l252 1434h1110l-24 -142h-940l-90 -506h903l-25 -141h-903l-88 -502h940l-25 -143h-1110zM715 1563l2 14l340 270h84l243 -270l-2 -14h-161l-146 145l-196 -145h-164z" />
<glyph unicode="&#xcb;" horiz-adv-x="1421" d="M190 0l252 1434h1110l-24 -142h-940l-90 -506h903l-25 -141h-903l-88 -502h940l-25 -143h-1110zM750 1554l34 195h160l-35 -195h-159zM1184 1554l35 195h159l-35 -195h-159z" />
<glyph unicode="&#xcc;" horiz-adv-x="550" d="M193 0l251 1434h168l-252 -1434h-167zM287 1841v2h196l158 -268l-2 -8h-156z" />
<glyph unicode="&#xcd;" horiz-adv-x="550" d="M193 0l251 1434h168l-252 -1434h-167zM455 1559l2 8l260 268h188v-2l-295 -274h-155z" />
<glyph unicode="&#xce;" horiz-adv-x="550" d="M193 0l251 1434h168l-252 -1434h-167zM211 1563l2 14l340 270h84l244 -270l-2 -14h-162l-146 145l-196 -145h-164z" />
<glyph unicode="&#xcf;" horiz-adv-x="550" d="M193 0l251 1434h168l-252 -1434h-167zM254 1571l35 194h160l-35 -194h-160zM688 1571l35 194h160l-35 -194h-160z" />
<glyph unicode="&#xd0;" horiz-adv-x="1662" d="M111 655l24 138h189l112 645h664q158 0 279.5 -54.5t198.5 -151.5t104.5 -228.5t0.5 -284.5q-29 -154 -102.5 -285t-184 -228t-250.5 -151.5t-298 -54.5h-664l115 655h-188zM381 131h493q123 0 229.5 44t191.5 121t142.5 182.5t80.5 230.5q20 125 0.5 230t-77 182 t-149.5 121t-215 44h-493l-86 -493h329l-24 -138h-330z" />
<glyph unicode="&#xd1;" horiz-adv-x="1728" d="M190 0l252 1434h172l795 -1203l213 1203h168l-252 -1434h-172l-797 1202l-211 -1202h-168zM893 1612q18 41 49 74.5t68 55t78.5 27t85.5 -11.5q33 -10 54 -32.5t50 -30.5q29 -10 58.5 8t41.5 45l115 -31q-20 -41 -50 -75.5t-66 -55t-75.5 -26t-82.5 11.5 q-29 16 -53.5 33.5t-51.5 25.5q-29 8 -62.5 -7t-45.5 -44z" />
<glyph unicode="&#xd2;" horiz-adv-x="1734" d="M238 723q29 168 108.5 306t197.5 234.5t266 149.5t314 53t294 -55t211 -154.5t116 -235.5t4 -298q-29 -168 -109.5 -305t-198.5 -235.5t-265.5 -152t-313.5 -53.5t-295 55.5t-212 155t-114.5 235.5t-2.5 300zM406.5 464q23.5 -112 87 -188.5t164 -115.5t229.5 -39 t244.5 44t207 124t153.5 190.5t87 243.5q23 143 -1 256t-87.5 188.5t-163.5 115.5t-229 40t-245 -44t-207 -123t-153.5 -189.5t-84.5 -243.5q-25 -147 -1.5 -259zM883 1843v2h196l158 -268l-2 -8h-156z" />
<glyph unicode="&#xd3;" horiz-adv-x="1734" d="M238 723q29 168 108.5 306t197.5 234.5t266 149.5t314 53t294 -55t211 -154.5t116 -235.5t4 -298q-29 -168 -109.5 -305t-198.5 -235.5t-265.5 -152t-313.5 -53.5t-295 55.5t-212 155t-114.5 235.5t-2.5 300zM406.5 464q23.5 -112 87 -188.5t164 -115.5t229.5 -39 t244.5 44t207 124t153.5 190.5t87 243.5q23 143 -1 256t-87.5 188.5t-163.5 115.5t-229 40t-245 -44t-207 -123t-153.5 -189.5t-84.5 -243.5q-25 -147 -1.5 -259zM1063 1573l2 8l260 268h188v-2l-294 -274h-156z" />
<glyph unicode="&#xd4;" horiz-adv-x="1734" d="M238 723q29 168 108.5 306t197.5 234.5t266 149.5t314 53t294 -55t211 -154.5t116 -235.5t4 -298q-29 -168 -109.5 -305t-198.5 -235.5t-265.5 -152t-313.5 -53.5t-295 55.5t-212 155t-114.5 235.5t-2.5 300zM406.5 464q23.5 -112 87 -188.5t164 -115.5t229.5 -39 t244.5 44t207 124t153.5 190.5t87 243.5q23 143 -1 256t-87.5 188.5t-163.5 115.5t-229 40t-245 -44t-207 -123t-153.5 -189.5t-84.5 -243.5q-25 -147 -1.5 -259zM809 1567l2 14l340 270h84l244 -270l-2 -14h-162l-146 145l-196 -145h-164z" />
<glyph unicode="&#xd5;" horiz-adv-x="1734" d="M238 723q29 168 108.5 306t197.5 234.5t266 149.5t314 53t294 -55t211 -154.5t116 -235.5t4 -298q-29 -168 -109.5 -305t-198.5 -235.5t-265.5 -152t-313.5 -53.5t-295 55.5t-212 155t-114.5 235.5t-2.5 300zM406.5 464q23.5 -112 87 -188.5t164 -115.5t229.5 -39 t244.5 44t207 124t153.5 190.5t87 243.5q23 143 -1 256t-87.5 188.5t-163.5 115.5t-229 40t-245 -44t-207 -123t-153.5 -189.5t-84.5 -243.5q-25 -147 -1.5 -259zM872 1634q18 41 49 75t68 55.5t79 26.5t85 -11q33 -10 54.5 -33t49.5 -31q29 -10 59 8.5t42 44.5l115 -30 q-20 -41 -50 -76t-66 -55.5t-76 -25.5t-83 11q-29 16 -53.5 34t-50.5 26q-29 8 -63 -7.5t-46 -43.5z" />
<glyph unicode="&#xd6;" horiz-adv-x="1734" d="M238 723q29 168 108.5 306t197.5 234.5t266 149.5t314 53t294 -55t211 -154.5t116 -235.5t4 -298q-29 -168 -109.5 -305t-198.5 -235.5t-265.5 -152t-313.5 -53.5t-295 55.5t-212 155t-114.5 235.5t-2.5 300zM406.5 464q23.5 -112 87 -188.5t164 -115.5t229.5 -39 t244.5 44t207 124t153.5 190.5t87 243.5q23 143 -1 256t-87.5 188.5t-163.5 115.5t-229 40t-245 -44t-207 -123t-153.5 -189.5t-84.5 -243.5q-25 -147 -1.5 -259zM870 1573l35 194h160l-35 -194h-160zM1305 1573l34 194h160l-35 -194h-159z" />
<glyph unicode="&#xd7;" horiz-adv-x="1009" d="M240 393l286 242l-196 239l133 107l192 -248l269 240l88 -107l-277 -241l197 -240l-121 -96l-197 239l-284 -243z" />
<glyph unicode="&#xd8;" horiz-adv-x="1734" d="M238 -147l194 258q-125 98 -177 255.5t-17 356.5q29 162 108.5 298t197.5 235.5t266 154.5t314 55q158 0 287 -53l139 184h183l-193 -256q131 -98 187.5 -257.5t21.5 -360.5q-29 -164 -109.5 -300t-198.5 -235.5t-265.5 -155t-313.5 -55.5q-86 0 -163.5 15.5t-143.5 44.5 l-139 -184h-178zM408 723q-29 -154 6 -275.5t121 -201.5l780 1038q-100 39 -217 39q-129 0 -245 -44t-207 -123t-153.5 -189.5t-84.5 -243.5zM653 166q103 -45 234 -45q129 0 244.5 44t207 124t153.5 190.5t87 243.5q29 158 -9 282.5t-130 202.5z" />
<glyph unicode="&#xd9;" horiz-adv-x="1841" d="M324 768l116 666h170l-116 -666q-31 -166 -4.5 -289t91 -203.5t159 -119.5t199.5 -38t215 43t204 124t163.5 202.5t98.5 280.5l117 666h170l-117 -666q-35 -201 -123 -349.5t-209 -247.5t-261 -148.5t-278.5 -49.5t-261 50.5t-209 149.5t-123 247.5t-1.5 347.5zM971 1841 v2h196l158 -268l-2 -8h-156z" />
<glyph unicode="&#xda;" horiz-adv-x="1841" d="M324 768l116 666h170l-116 -666q-31 -166 -4.5 -289t91 -203.5t159 -119.5t199.5 -38t215 43t204 124t163.5 202.5t98.5 280.5l117 666h170l-117 -666q-35 -201 -123 -349.5t-209 -247.5t-261 -148.5t-278.5 -49.5t-261 50.5t-209 149.5t-123 247.5t-1.5 347.5z M1085 1565l2 8l261 268h188v-2l-295 -274h-156z" />
<glyph unicode="&#xdb;" horiz-adv-x="1841" d="M324 768l116 666h170l-116 -666q-31 -166 -4.5 -289t91 -203.5t159 -119.5t199.5 -38t215 43t204 124t163.5 202.5t98.5 280.5l117 666h170l-117 -666q-35 -201 -123 -349.5t-209 -247.5t-261 -148.5t-278.5 -49.5t-261 50.5t-209 149.5t-123 247.5t-1.5 347.5zM877 1565 l2 14l340 270h84l243 -270l-2 -14h-162l-145 145l-197 -145h-163z" />
<glyph unicode="&#xdc;" horiz-adv-x="1841" d="M324 768l116 666h170l-116 -666q-31 -166 -4.5 -289t91 -203.5t159 -119.5t199.5 -38t215 43t204 124t163.5 202.5t98.5 280.5l117 666h170l-117 -666q-35 -201 -123 -349.5t-209 -247.5t-261 -148.5t-278.5 -49.5t-261 50.5t-209 149.5t-123 247.5t-1.5 347.5zM918 1569 l34 194h160l-35 -194h-159zM1352 1569l34 194h160l-35 -194h-159z" />
<glyph unicode="&#xdd;" horiz-adv-x="1589" d="M283 1430v4h196l432 -729l701 729h200v-4l-833 -863l-98 -567h-170l98 567zM950 1565l2 8l260 268h189v-2l-295 -274h-156z" />
<glyph unicode="&#xde;" horiz-adv-x="1542" d="M193 0q63 360 125.5 715.5t125.5 718.5h168l-43 -244h535q109 0 210 -26.5t173 -98.5q61 -66 79.5 -160t0 -193.5t-72.5 -192.5t-138 -157q-98 -70 -208 -95t-216 -25h-531l-41 -242h-167zM428 385h533q74 0 155.5 17.5t149.5 70.5q51 41 85.5 105.5t48 135t4.5 136 t-46 106.5q-49 55 -126 74t-153 19h-534z" />
<glyph unicode="&#xdf;" horiz-adv-x="1314" d="M170 0l186 1065q25 141 124.5 232.5t238.5 132.5q98 29 203.5 27.5t193.5 -36.5q55 -20 100.5 -53t73 -79t36.5 -104.5t-7 -127.5q-10 -39 -29.5 -80t-51.5 -78t-77 -66.5t-104 -46.5q76 -18 129 -54t82.5 -84t39 -105.5t1.5 -116.5q-14 -96 -62.5 -172t-118 -131 t-153.5 -90t-172 -47.5t-174 -3t-158 42.5l25 143q74 -49 178 -55.5t204.5 27.5t177.5 104.5t93 179.5q6 57 -8 104q-20 57 -58.5 93t-87.5 55.5t-106.5 27t-114.5 7.5h-182l22 133h174q53 0 114 10t113 35.5t92 67.5t54 108q20 86 -14.5 143.5t-99.5 85.5q-70 31 -158 31 t-166 -31q-78 -29 -135.5 -85t-73.5 -142l-184 -1067h-160z" />
<glyph unicode="&#xe0;" d="M192.5 491.5q22.5 131.5 103.5 245t215 188t316 74.5q109 0 204 -34.5t140 -116.5l41 129h144l-172 -977h-148l13 145q-72 -82 -181.5 -121.5t-220.5 -39.5q-180 0 -288.5 74.5t-148.5 188t-17.5 245zM347.5 491.5q-17.5 -98.5 10 -181.5t104.5 -139t208 -56 q92 0 167.5 26.5t134 73.5t96.5 112.5t52 143.5l13 64q25 152 -63.5 242.5t-266.5 90.5q-129 0 -225.5 -56t-154.5 -139t-75.5 -181.5zM662 1434v2h196l158 -269l-2 -8h-156z" />
<glyph unicode="&#xe1;" d="M192.5 490.5q16.5 95.5 66.5 187.5t131 162.5t190.5 114.5t246.5 44q109 0 204 -34.5t140 -116.5l41 129h144l-172 -977h-148l13 145q-72 -82 -181.5 -121.5t-220.5 -39.5q-135 0 -229 44t-150.5 114.5t-74 161.5t-1 186.5zM347.5 491.5q-17.5 -98.5 10 -181.5 t104.5 -139t208 -56q92 0 167.5 26.5t134 73.5t96.5 112.5t52 143.5l13 64q25 152 -63.5 242.5t-266.5 90.5q-129 0 -225.5 -56t-154.5 -139t-75.5 -181.5zM760 1159l2 8l260 269h188v-2l-295 -275h-155z" />
<glyph unicode="&#xe2;" d="M192.5 491.5q22.5 131.5 103.5 245t215 188t316 74.5q109 0 204 -34.5t140 -116.5l41 129h144l-172 -977h-148l13 145q-72 -82 -181.5 -121.5t-220.5 -39.5q-180 0 -288.5 74.5t-148.5 188t-17.5 245zM347.5 491.5q-17.5 -98.5 10 -181.5t104.5 -139t208 -56 q92 0 167.5 26.5t134 73.5t96.5 112.5t52 143.5l13 64q25 152 -63.5 242.5t-266.5 90.5q-129 0 -225.5 -56t-154.5 -139t-75.5 -181.5zM557 1149l2 14l340 271h84l244 -271l-2 -14h-162l-145 145l-197 -145h-164z" />
<glyph unicode="&#xe3;" d="M192.5 491.5q22.5 131.5 103.5 245t215 188t316 74.5q109 0 204 -34.5t140 -116.5l41 129h144l-172 -977h-148l13 145q-72 -82 -181.5 -121.5t-220.5 -39.5q-180 0 -288.5 74.5t-148.5 188t-17.5 245zM347.5 491.5q-17.5 -98.5 10 -181.5t104.5 -139t208 -56 q92 0 167.5 26.5t134 73.5t96.5 112.5t52 143.5l13 64q25 152 -63.5 242.5t-266.5 90.5q-129 0 -225.5 -56t-154.5 -139t-75.5 -181.5zM618 1255q18 41 49 75t68 55.5t79 26.5t85 -11q33 -10 54.5 -32.5t50.5 -31.5q29 -10 58.5 8.5t41.5 45.5l115 -31q-20 -41 -50 -76 t-66 -55.5t-76 -25.5t-83 11q-29 16 -53.5 34t-50.5 26q-29 8 -63 -7.5t-46 -43.5z" />
<glyph unicode="&#xe4;" d="M192.5 491.5q22.5 131.5 103.5 245t215 188t316 74.5q109 0 204 -34.5t140 -116.5l41 129h144l-172 -977h-148l13 145q-72 -82 -181.5 -121.5t-220.5 -39.5q-180 0 -288.5 74.5t-148.5 188t-17.5 245zM347.5 491.5q-17.5 -98.5 10 -181.5t104.5 -139t208 -56 q92 0 167.5 26.5t134 73.5t96.5 112.5t52 143.5l13 64q25 152 -63.5 242.5t-266.5 90.5q-129 0 -225.5 -56t-154.5 -139t-75.5 -181.5zM584 1219l34 194h160l-35 -194h-159zM1018 1219l35 194h159l-34 -194h-160z" />
<glyph unicode="&#xe5;" d="M192.5 491.5q22.5 131.5 103.5 245t215 188t316 74.5q109 0 204 -34.5t140 -116.5l41 129h144l-172 -977h-148l13 145q-72 -82 -181.5 -121.5t-220.5 -39.5q-180 0 -288.5 74.5t-148.5 188t-17.5 245zM347.5 491.5q-17.5 -98.5 10 -181.5t104.5 -139t208 -56 q92 0 167.5 26.5t134 73.5t96.5 112.5t52 143.5l13 64q25 152 -63.5 242.5t-266.5 90.5q-129 0 -225.5 -56t-154.5 -139t-75.5 -181.5zM680 1274q12 66 52 108.5t91 64t106.5 21.5t99.5 -21.5t68.5 -64.5t12.5 -108q-12 -63 -51 -106.5t-90 -65t-107.5 -21.5t-100.5 21.5 t-68.5 65t-12.5 106.5zM798 1276q-7 -37 10 -66.5t64 -29.5q49 0 79 29.5t37 66.5t-12.5 66.5t-68.5 29.5q-47 0 -74.5 -29.5t-34.5 -66.5z" />
<glyph unicode="&#xe6;" horiz-adv-x="2131" d="M201.5 491.5q23.5 131.5 103.5 245t212 188t310 74.5q55 0 109.5 -9t101.5 -29.5t85 -53.5t63 -78l26 148h140l-25 -131q84 72 189.5 110.5t224.5 38.5q113 0 194.5 -26.5t131 -69.5t68.5 -99.5t7 -115.5q-10 -53 -39.5 -100t-81 -83t-122 -57.5t-162.5 -21.5h-480 q-6 -76 20 -133.5t72 -96t107.5 -59t126.5 -22.5q100 -2 191.5 32.5t162.5 137.5l123 -43q-86 -141 -221 -199.5t-285 -58.5q-117 0 -210 38.5t-146 143.5l-27 -162h-135l25 150q-35 -41 -83 -72t-103.5 -52.5t-114 -31.5t-113.5 -10q-178 0 -283.5 74.5t-145.5 188 t-16.5 245zM351.5 491.5q-17.5 -98.5 10 -181.5t103.5 -139t205 -56q92 0 168.5 26.5t136 73.5t98.5 112.5t53 143.5l2 16l11 48q25 152 -66.5 242.5t-269.5 90.5q-129 0 -224.5 -56t-152.5 -139t-74.5 -181.5zM1282 551h479q106 0 167 38t71 97q6 33 -7.5 65.5t-47 57.5 t-91 40t-139.5 15q-154 0 -271.5 -79.5t-160.5 -233.5z" />
<glyph unicode="&#xe7;" horiz-adv-x="1150" d="M181.5 293q-17.5 86 0.5 190q20 117 74.5 212.5t135.5 163t182.5 104t218.5 36.5q78 0 148.5 -15t124.5 -50t89 -90.5t43 -132.5l-137 -31q-14 55 -44 91t-69 57.5t-85 29.5t-95 8q-86 0 -157.5 -28.5t-126 -79.5t-91.5 -122t-51 -153q-14 -80 -1 -147.5t52 -117.5 t99.5 -77.5t142.5 -27.5q49 0 98 8t97.5 30.5t91.5 61.5t77 100l129 -30q-33 -72 -83 -126.5t-111.5 -91t-130 -57t-139.5 -26.5l-31 -68q109 0 149.5 -56.5t10.5 -133.5q-16 -39 -44 -66t-64 -43t-76 -23.5t-79 -7.5q-74 2 -123 31t-75 90l102 53q16 -29 43 -48t74 -21 q59 0 89 26.5t29 56t-36 49t-105 3.5l-47 53l56 109q-94 12 -168 52t-122 104.5t-65.5 150.5z" />
<glyph unicode="&#xe8;" horiz-adv-x="1204" d="M188 487q20 123 77 218.5t140.5 160t188 97t219.5 32.5q113 0 195 -26.5t131 -69.5t68.5 -99.5t6.5 -115.5q-23 -111 -121 -186.5t-284 -75.5h-467q-6 -80 17.5 -138.5t67.5 -96t103.5 -56t124.5 -20.5q98 -2 189.5 34.5t159.5 135.5l129 -43q-86 -141 -221.5 -199.5 t-284.5 -58.5q-113 0 -203 36.5t-148.5 104t-82 161t-5.5 205.5zM367 551h467q106 0 166.5 38t70.5 97q6 33 -7 65.5t-47 57.5t-91.5 40t-139.5 15q-152 0 -265 -83t-154 -230zM600 1430v2h197l157 -269l-2 -8h-155z" />
<glyph unicode="&#xe9;" horiz-adv-x="1204" d="M188 487q20 123 77 218.5t140.5 160t188 97t219.5 32.5q113 0 195 -26.5t131 -69.5t68.5 -99.5t6.5 -115.5q-23 -111 -121 -186.5t-284 -75.5h-467q-6 -80 17.5 -138.5t67.5 -96t103.5 -56t124.5 -20.5q98 -2 189.5 34.5t159.5 135.5l129 -43q-86 -141 -221.5 -199.5 t-284.5 -58.5q-113 0 -203 36.5t-148.5 104t-82 161t-5.5 205.5zM367 551h467q106 0 166.5 38t70.5 97q6 33 -7 65.5t-47 57.5t-91.5 40t-139.5 15q-152 0 -265 -83t-154 -230zM719 1157l2 8l260 269h188v-2l-295 -275h-155z" />
<glyph unicode="&#xea;" horiz-adv-x="1204" d="M188 487q20 123 77 218.5t140.5 160t188 97t219.5 32.5q113 0 195 -26.5t131 -69.5t68.5 -99.5t6.5 -115.5q-23 -111 -121 -186.5t-284 -75.5h-467q-6 -80 17.5 -138.5t67.5 -96t103.5 -56t124.5 -20.5q98 -2 189.5 34.5t159.5 135.5l129 -43q-86 -141 -221.5 -199.5 t-284.5 -58.5q-113 0 -203 36.5t-148.5 104t-82 161t-5.5 205.5zM367 551h467q106 0 166.5 38t70.5 97q6 33 -7 65.5t-47 57.5t-91.5 40t-139.5 15q-152 0 -265 -83t-154 -230zM506 1143l2 14l340 270h84l244 -270l-2 -14h-162l-146 145l-196 -145h-164z" />
<glyph unicode="&#xeb;" horiz-adv-x="1204" d="M188 487q20 123 77 218.5t140.5 160t188 97t219.5 32.5q113 0 195 -26.5t131 -69.5t68.5 -99.5t6.5 -115.5q-23 -111 -121 -186.5t-284 -75.5h-467q-6 -80 17.5 -138.5t67.5 -96t103.5 -56t124.5 -20.5q98 -2 189.5 34.5t159.5 135.5l129 -43q-86 -141 -221.5 -199.5 t-284.5 -58.5q-113 0 -203 36.5t-148.5 104t-82 161t-5.5 205.5zM367 551h467q106 0 166.5 38t70.5 97q6 33 -7 65.5t-47 57.5t-91.5 40t-139.5 15q-152 0 -265 -83t-154 -230zM580 1219l34 172h160l-35 -172h-159zM1014 1219l35 172h159l-34 -172h-160z" />
<glyph unicode="&#xec;" horiz-adv-x="542" d="M170 0l170 975h158l-170 -975h-158zM182 1434v2h197l158 -269l-2 -8h-156z" />
<glyph unicode="&#xed;" horiz-adv-x="542" d="M170 0l170 975h158l-170 -975h-158zM350 1159l2 8l260 269h189v-2l-295 -275h-156z" />
<glyph unicode="&#xee;" horiz-adv-x="542" d="M129 1157l2 14l318 265h77l226 -265l-2 -14h-150l-135 141l-182 -141h-154zM170 0l170 975h158l-170 -975h-158z" />
<glyph unicode="&#xef;" horiz-adv-x="542" d="M170 0l170 975h158l-170 -975h-158zM197 1249l32 181h150l-33 -181h-149zM606 1249l33 181h149l-32 -181h-150z" />
<glyph unicode="&#xf0;" horiz-adv-x="1296" d="M191.5 488.5q23.5 132.5 101.5 246t207 189t303 75.5q127 0 223 -45q-10 16 -17.5 31.5t-17.5 32.5q-47 80 -117 139l-129 -108l-71 92l104 90q-88 53 -190 78l53 131q80 -16 145.5 -41t122.5 -60l125 107l72 -94l-105 -86q147 -143 210 -337t26 -411 q-18 -119 -71.5 -218t-133.5 -171t-184.5 -112t-224.5 -40q-174 0 -276.5 76t-140.5 189.5t-14.5 246zM349.5 489.5q-17.5 -98.5 8 -182.5t96 -140t191.5 -56t211 56t145.5 140t73 182.5t-8.5 182.5t-96.5 140t-191.5 56t-211 -56t-145 -140t-72.5 -182.5z" />
<glyph unicode="&#xf1;" horiz-adv-x="1339" d="M170 0l113 639l57 334h141l-8 -148q72 92 171 130t210 40q88 2 173 -23.5t144.5 -85t86 -156.5t2.5 -241l-86 -489h-156l86 492q18 111 3 183.5t-54 116.5t-95.5 62t-117.5 18q-66 0 -133.5 -24.5t-127 -74.5t-103.5 -124t-62 -172l-84 -477h-17h-143zM645 1296 q18 37 47 69t65 51.5t75.5 24.5t80.5 -9q31 -10 51.5 -31t49.5 -29t56.5 9.5t39.5 39.5l111 -26q-18 -39 -47 -71t-64 -51.5t-74 -24.5t-80 12q-29 14 -51 30.5t-49 24.5q-29 6 -60.5 -8.5t-41.5 -38.5z" />
<glyph unicode="&#xf2;" horiz-adv-x="1277" d="M186 489q18 119 75.5 213.5t140.5 160t188.5 100t222.5 34.5t208 -37.5t151.5 -105.5t84 -161t5.5 -204q-20 -117 -77 -211t-140.5 -160.5t-188 -102t-221.5 -35.5t-209 37.5t-152.5 105t-84 161t-3.5 205.5zM346 327.5q16 -69.5 58 -117.5t106.5 -72.5t146.5 -24.5 t156 27.5t133.5 76.5t99 119t56.5 153q29 188 -59.5 282.5t-251.5 94.5q-82 0 -157 -27.5t-133.5 -76.5t-99.5 -119t-55 -154q-16 -92 0 -161.5zM590 1436v2h196l158 -269l-2 -8h-156z" />
<glyph unicode="&#xf3;" horiz-adv-x="1277" d="M186 489q18 119 75.5 213.5t140.5 160t188.5 100t222.5 34.5t208 -37.5t151.5 -105.5t84 -161t5.5 -204q-20 -117 -77 -211t-140.5 -160.5t-188 -102t-221.5 -35.5t-209 37.5t-152.5 105t-84 161t-3.5 205.5zM346 327.5q16 -69.5 58 -117.5t106.5 -72.5t146.5 -24.5 t156 27.5t133.5 76.5t99 119t56.5 153q29 188 -59.5 282.5t-251.5 94.5q-82 0 -157 -27.5t-133.5 -76.5t-99.5 -119t-55 -154q-16 -92 0 -161.5zM754 1161l2 8l260 269h188v-2l-295 -275h-155z" />
<glyph unicode="&#xf4;" horiz-adv-x="1277" d="M186 489q18 119 75.5 213.5t140.5 160t188.5 100t222.5 34.5t208 -37.5t151.5 -105.5t84 -161t5.5 -204q-20 -117 -77 -211t-140.5 -160.5t-188 -102t-221.5 -35.5t-209 37.5t-152.5 105t-84 161t-3.5 205.5zM346 327.5q16 -69.5 58 -117.5t106.5 -72.5t146.5 -24.5 t156 27.5t133.5 76.5t99 119t56.5 153q29 188 -59.5 282.5t-251.5 94.5q-82 0 -157 -27.5t-133.5 -76.5t-99.5 -119t-55 -154q-16 -92 0 -161.5zM520 1153l2 14l340 271h84l244 -271l-2 -14h-162l-145 145l-197 -145h-164z" />
<glyph unicode="&#xf5;" horiz-adv-x="1277" d="M186 489q18 119 75.5 213.5t140.5 160t188.5 100t222.5 34.5t208 -37.5t151.5 -105.5t84 -161t5.5 -204q-20 -117 -77 -211t-140.5 -160.5t-188 -102t-221.5 -35.5t-209 37.5t-152.5 105t-84 161t-3.5 205.5zM346 327.5q16 -69.5 58 -117.5t106.5 -72.5t146.5 -24.5 t156 27.5t133.5 76.5t99 119t56.5 153q29 188 -59.5 282.5t-251.5 94.5q-82 0 -157 -27.5t-133.5 -76.5t-99.5 -119t-55 -154q-16 -92 0 -161.5zM590 1247q18 39 47 71t64.5 51.5t74.5 24.5t80 -10q29 -10 49.5 -31.5t48.5 -27.5q29 -10 55.5 7.5t39.5 41.5l108 -28 q-18 -39 -47 -72t-62.5 -52.5t-72.5 -24.5t-78 11q-29 14 -51.5 31.5t-46.5 24.5q-29 8 -59.5 -6.5t-43.5 -40.5z" />
<glyph unicode="&#xf6;" horiz-adv-x="1277" d="M186 489q18 119 75.5 213.5t140.5 160t188.5 100t222.5 34.5t208 -37.5t151.5 -105.5t84 -161t5.5 -204q-20 -117 -77 -211t-140.5 -160.5t-188 -102t-221.5 -35.5t-209 37.5t-152.5 105t-84 161t-3.5 205.5zM346 327.5q16 -69.5 58 -117.5t106.5 -72.5t146.5 -24.5 t156 27.5t133.5 76.5t99 119t56.5 153q29 188 -59.5 282.5t-251.5 94.5q-82 0 -157 -27.5t-133.5 -76.5t-99.5 -119t-55 -154q-16 -92 0 -161.5zM582 1237l32 182h156l-35 -182h-153zM1001 1237l33 182h154l-33 -182h-154z" />
<glyph unicode="&#xf7;" horiz-adv-x="1159" d="M233 592l27 143h899l-26 -143h-900zM537 205l36 205h160l-37 -205h-159zM662 907l34 207h160l-35 -207h-159zM662 907l34 207h160l-35 -207h-159z" />
<glyph unicode="&#xf8;" horiz-adv-x="1277" d="M186 489q18 111 75.5 204t140.5 161t188.5 105.5t222.5 37.5q94 0 168 -24l127 182h154l-164 -235q98 -66 143 -177.5t21 -253.5q-20 -113 -77 -206t-140.5 -160.5t-188 -105t-221.5 -37.5q-98 0 -174 24l-121 -176h-152l158 229q-98 66 -142 177.5t-18 254.5zM350 489 q-18 -98 5.5 -175.5t80.5 -127.5l461 666q-25 6 -51 10t-55 4q-82 0 -156 -27.5t-132.5 -76.5t-98 -119t-54.5 -154zM545 127q51 -14 112 -14q82 0 155 27.5t131 76.5t98 119t57 153q16 98 -7.5 176t-80.5 128z" />
<glyph unicode="&#xf9;" horiz-adv-x="1335" d="M248 483l86 492h155l-86 -494q-23 -111 -6 -184.5t57 -116.5t97 -61.5t117 -18.5q66 0 134 25t127.5 74t103.5 122.5t61 172.5l84 481h16h143l-112 -643l-58 -332h-135l8 145q-70 -92 -172 -128.5t-213 -39.5q-90 -2 -174 24t-144.5 85t-87 156.5t-1.5 240.5zM647 1432v2 h197l157 -269l-2 -8h-155z" />
<glyph unicode="&#xfa;" horiz-adv-x="1335" d="M248 483l86 492h155l-86 -494q-23 -111 -6 -184.5t57 -116.5t97 -61.5t117 -18.5q66 0 134 25t127.5 74t103.5 122.5t61 172.5l84 481h16h143l-112 -643l-58 -332h-135l8 145q-70 -92 -172 -128.5t-213 -39.5q-90 -2 -174 24t-144.5 85t-87 156.5t-1.5 240.5zM770 1159 l2 8l260 269h189v-2l-295 -275h-156z" />
<glyph unicode="&#xfb;" horiz-adv-x="1335" d="M248 483l86 492h155l-86 -494q-23 -111 -6 -184.5t57 -116.5t97 -61.5t117 -18.5q66 0 134 25t127.5 74t103.5 122.5t61 172.5l84 481h16h143l-112 -643l-58 -332h-135l8 145q-70 -92 -172 -128.5t-213 -39.5q-90 -2 -174 24t-144.5 85t-87 156.5t-1.5 240.5zM565 1165 l2 13l320 258h78l229 -258l-2 -13h-152l-137 138l-184 -138h-154z" />
<glyph unicode="&#xfc;" horiz-adv-x="1335" d="M248 483l86 492h155l-86 -494q-23 -111 -6 -184.5t57 -116.5t97 -61.5t117 -18.5q66 0 134 25t127.5 74t103.5 122.5t61 172.5l84 481h16h143l-112 -643l-58 -332h-135l8 145q-70 -92 -172 -128.5t-213 -39.5q-90 -2 -174 24t-144.5 85t-87 156.5t-1.5 240.5zM604 1241 l33 189h156l-35 -189h-154zM1024 1241l35 189h153l-32 -189h-156z" />
<glyph unicode="&#xfd;" horiz-adv-x="1298" d="M203 973v2h178l225 -604l76 -236h4l143 236l433 604h174v-4l-1026 -1430h-179l338 467zM762 1159l2 8l260 269h188v-2l-294 -275h-156z" />
<glyph unicode="&#xfe;" d="M92 -438q84 477 167 948t167 948h158l-105 -592q78 88 184.5 120t217.5 32q135 0 229 -44t150.5 -115t74 -163t1 -187t-66.5 -186.5t-131 -162t-190.5 -114.5t-245.5 -44q-111 0 -207 43t-139 123l-106 -606h-158zM406 518q-35 -184 48 -284.5t271 -100.5q129 0 224 56.5 t152.5 139.5t75 181t-10 181t-103.5 139.5t-205 56.5q-184 0 -301 -92.5t-151 -276.5z" />
<glyph unicode="&#xff;" horiz-adv-x="1298" d="M203 973v2h178l225 -604l76 -236h4l143 236l433 604h174v-4l-1026 -1430h-179l338 467zM590 1237l35 195h159l-34 -195h-160zM1024 1237l35 195h160l-35 -195h-160z" />
<glyph unicode="&#x152;" horiz-adv-x="2471" d="M236 719q29 162 109.5 298t198.5 235.5t265 154.5t313 55q125 0 229.5 -25.5t184.5 -105.5l18 103h1049l-25 -142h-890l-91 -506h854l-24 -139h-854l-88 -504h891l-25 -143h-1048l16 104q-98 -70 -216 -99.5t-243 -29.5q-166 0 -295 55.5t-212 155t-114.5 235.5t-2.5 298 zM406 719q-23 -133 0.5 -243.5t87 -189.5t164 -123t229.5 -44q135 0 252.5 32.5t210.5 118.5l155 889q-66 96 -168 128t-239 32q-129 0 -245 -44t-207 -123t-153.5 -189.5t-86.5 -243.5z" />
<glyph unicode="&#x153;" horiz-adv-x="2111" d="M186 489q18 111 75.5 204t140.5 161t188.5 105.5t222.5 37.5q147 0 258 -67.5t152 -192.5q90 129 220 193.5t277 64.5q113 0 195 -26.5t131 -69.5t68.5 -99.5t7.5 -115.5q-10 -53 -40 -100t-81 -83t-122 -57.5t-163 -21.5h-473q-6 -76 18.5 -133.5t69.5 -96t105.5 -59 t126.5 -22.5q100 -2 191 32.5t163 137.5l123 -43q-86 -141 -221.5 -199.5t-284.5 -58.5q-147 0 -250.5 64.5t-150.5 199.5q-88 -129 -219.5 -196.5t-278.5 -67.5q-117 0 -209 37.5t-152.5 105t-84 161t-3.5 205.5zM349.5 335.5q15.5 -69.5 56 -118.5t105 -76.5t146.5 -27.5 q80 0 153 25.5t132 72.5t101 113.5t59 148.5l6 33q12 80 -6.5 146.5t-61.5 114.5t-106.5 73.5t-142.5 25.5q-82 0 -156 -27.5t-132.5 -76.5t-98 -119t-54.5 -154q-16 -84 -0.5 -153.5zM1268 551h473q106 0 166.5 38t70.5 97q6 33 -7 65.5t-47 57.5t-91 40t-139 15 q-154 0 -268.5 -79.5t-157.5 -233.5z" />
<glyph unicode="&#x178;" horiz-adv-x="1589" d="M283 1430v4h196l432 -729l701 729h200v-4l-833 -863l-98 -567h-170l98 567zM774 1554l35 195h160l-35 -195h-160zM1208 1554l35 195h160l-35 -195h-160z" />
<glyph unicode="&#x2c6;" horiz-adv-x="942" d="M340 1151l2 14l340 271h84l244 -271l-2 -14h-162l-146 145l-196 -145h-164z" />
<glyph unicode="&#x2dc;" horiz-adv-x="862" d="M391 1417q18 41 49 75t68 55.5t79 26.5t85 -11q33 -10 54.5 -33t49.5 -31q29 -10 58.5 8.5t42.5 44.5l114 -30q-20 -41 -50 -76t-65.5 -55.5t-75.5 -25.5t-83 11q-29 16 -53.5 33.5t-51.5 26.5q-29 8 -62.5 -7.5t-45.5 -44.5z" />
<glyph unicode="&#x2000;" horiz-adv-x="946" />
<glyph unicode="&#x2001;" horiz-adv-x="1892" />
<glyph unicode="&#x2002;" horiz-adv-x="946" />
<glyph unicode="&#x2003;" horiz-adv-x="1892" />
<glyph unicode="&#x2004;" horiz-adv-x="630" />
<glyph unicode="&#x2005;" horiz-adv-x="473" />
<glyph unicode="&#x2006;" horiz-adv-x="315" />
<glyph unicode="&#x2007;" horiz-adv-x="315" />
<glyph unicode="&#x2008;" horiz-adv-x="236" />
<glyph unicode="&#x2009;" horiz-adv-x="378" />
<glyph unicode="&#x200a;" horiz-adv-x="105" />
<glyph unicode="&#x2010;" horiz-adv-x="1058" d="M262 555l27 143h717l-27 -143h-717z" />
<glyph unicode="&#x2011;" horiz-adv-x="1058" d="M262 555l27 143h717l-27 -143h-717z" />
<glyph unicode="&#x2012;" horiz-adv-x="1058" d="M262 555l27 143h717l-27 -143h-717z" />
<glyph unicode="&#x2013;" horiz-adv-x="1294" d="M246 539l24 139h961l-25 -139h-960z" />
<glyph unicode="&#x2014;" horiz-adv-x="1353" d="M170 539l25 139h1183l-24 -139h-1184z" />
<glyph unicode="&#x2018;" horiz-adv-x="454" d="M285 967l239 473h131l-180 -473h-190z" />
<glyph unicode="&#x2019;" horiz-adv-x="454" d="M215 969l182 473h191l-242 -473h-131z" />
<glyph unicode="&#x201a;" horiz-adv-x="512" d="M59 -260l183 473h190l-242 -473h-131z" />
<glyph unicode="&#x201c;" horiz-adv-x="792" d="M283 967l239 473h131l-180 -473h-190zM616 967l240 473h131l-180 -473h-191z" />
<glyph unicode="&#x201d;" horiz-adv-x="763" d="M238 965l180 473h190l-239 -473h-131zM571 965l181 473h190l-240 -473h-131z" />
<glyph unicode="&#x201e;" horiz-adv-x="876" d="M59 -260l183 473h190l-242 -473h-131zM412 -260l182 473h190l-241 -473h-131z" />
<glyph unicode="&#x2022;" horiz-adv-x="806" d="M256 645q18 104 95 165.5t177 61.5q98 0 151.5 -61t35.5 -166q-18 -104 -94.5 -165.5t-174.5 -61.5q-100 0 -154 61.5t-36 165.5z" />
<glyph unicode="&#x2026;" horiz-adv-x="1132" d="M166 0l41 238h160l-41 -238h-160zM485 0l41 238h160l-41 -238h-160zM805 0l41 238h160l-41 -238h-160z" />
<glyph unicode="&#x202f;" horiz-adv-x="378" />
<glyph unicode="&#x2039;" horiz-adv-x="768" d="M219 549l361 448h165l-2 -10l-352 -438l199 -438l-2 -13h-166z" />
<glyph unicode="&#x203a;" horiz-adv-x="768" d="M213 98l2 13l354 438l-200 438l2 10h166l204 -448l-362 -451h-166z" />
<glyph unicode="&#x205f;" horiz-adv-x="473" />
<glyph unicode="&#x20ac;" horiz-adv-x="1763" d="M193 481l24 146h176q4 23 6 45t7 45q4 23 10 46t10 46h-176l24 143h205q55 115 140.5 208t189.5 159.5t227 103.5t256 37q102 0 199.5 -23.5t178.5 -73.5t137.5 -126t74.5 -180l-149 -31q-23 80 -70 135.5t-108.5 89t-135 49t-151.5 15.5q-199 0 -358.5 -97.5 t-252.5 -265.5h510l-24 -143h-545q-6 -23 -12 -45.5t-11 -46.5q-4 -23 -6 -45.5t-4 -44.5h545l-25 -146h-510q33 -166 158 -263t324 -97q74 0 153.5 17.5t155.5 53t142.5 91t111.5 133.5l143 -33q-61 -106 -145 -183t-180.5 -127t-200.5 -74t-207 -24q-133 0 -242.5 36 t-191.5 102.5t-133 160t-66 207.5h-204z" />
<glyph unicode="&#x2122;" horiz-adv-x="1523" d="M301 1315l21 121h557l-21 -121h-209l-80 -453h-141l80 453h-207zM846 862l100 576h113l170 -226l244 226h114l-100 -576h-146l60 342l-154 -145h-90l-106 145l-60 -342h-145z" />
<glyph unicode="&#x25fc;" horiz-adv-x="972" d="M0 0v973h973v-973h-973z" />
<glyph unicode="&#xfb01;" horiz-adv-x="1406" d="M168 -442l227 1284h-207l23 131h207l12 69q16 92 57 173t102.5 140.5t144.5 93.5t184 34q129 4 206 -60l-65 -118q-29 29 -71 39t-85 10q-68 0 -121 -25.5t-93 -70t-65.5 -100.5t-35.5 -116l-13 -69h398l-23 -131h-397l-227 -1284h-158zM1085 0l170 973h158l-170 -973 h-158zM1294 1192l43 244h156l-43 -244h-156z" />
<glyph unicode="&#xfb02;" horiz-adv-x="1415" d="M168 -442l227 1284h-207l23 131h207l12 69q16 92 57 173t102.5 140.5t144.5 93.5t184 34q129 4 206 -60l-65 -118q-29 29 -71 39t-85 10q-68 0 -121 -25.5t-93 -70t-65.5 -100.5t-35.5 -116l-13 -69h398l-23 -131h-397l-227 -1284h-158zM168 -442l227 1284h-207l23 131 h207l12 69q16 92 57 173t102.5 140.5t144.5 93.5t184 34q129 4 206 -60l-65 -118q-29 29 -71 39t-85 10q-68 0 -121 -25.5t-93 -70t-65.5 -100.5t-35.5 -116l-13 -69h398l-23 -131h-397l-227 -1284h-158zM1085 0l252 1436h160l-252 -1436h-160z" />
</font>
</defs>
</svg>
