<?xml version="1.0" standalone="no"?>
<!DOCTYPE svg PUBLIC "-//W3C//DTD SVG 1.1//EN" "http://www.w3.org/Graphics/SVG/1.1/DTD/svg11.dtd" >
<svg xmlns="http://www.w3.org/2000/svg">
<metadata></metadata>
<defs>
<font id="gabriel_sans_condblack_italic" horiz-adv-x="1357" >
<font-face units-per-em="2048" ascent="1536" descent="-512" />
<missing-glyph horiz-adv-x="409" />
<glyph horiz-adv-x="2048" />
<glyph horiz-adv-x="2048" />
<glyph unicode="&#xd;" horiz-adv-x="2048" />
<glyph unicode=" "  horiz-adv-x="409" />
<glyph unicode="&#x09;" horiz-adv-x="409" />
<glyph unicode="&#xa0;" horiz-adv-x="409" />
<glyph unicode="!" horiz-adv-x="559" d="M39 0l57 322h369l-57 -322h-369zM113 418l178 1016h371l-179 -1016h-370z" />
<glyph unicode="&#x22;" horiz-adv-x="747" d="M88 827l109 619h313l-109 -619h-313zM465 827l108 619h314l-109 -619h-313z" />
<glyph unicode="#" horiz-adv-x="1251" d="M-4 375l53 303h211l45 110h-158l56 318h219l123 330h334l-121 -330h98l125 330h328l-125 -330h157l-55 -318h-221l-43 -110h164l-53 -303h-226l-139 -375h-330l140 375h-97l-139 -375h-338l141 375h-149zM571 666h136l51 137h-133z" />
<glyph unicode="$" horiz-adv-x="1216" d="M14.5 288q-18.5 91 1.5 210h392q-18 -127 51 -162l43 246q-74 12 -141.5 35.5t-119 64.5t-82 102.5t-30.5 147.5q0 121 41 214t111.5 157.5t167 103.5t208.5 51l21 119h244l-23 -123q92 -14 165 -51t118 -96.5t61.5 -140.5t-2.5 -185h-367q8 80 -36 117l-39 -224 q86 -12 164.5 -39.5t134 -77.5t80 -128t4.5 -191q-20 -117 -73.5 -199.5t-127.5 -138t-162 -86t-180 -41.5l-21 -114h-243l20 114q-104 14 -183 54.5t-129 105t-68.5 155.5zM512 977q0 -61 51 -86l41 231q-92 -43 -92 -145zM698 305q45 16 77 52t32 102q0 41 -18.5 64.5 t-47.5 35.5z" />
<glyph unicode="%" horiz-adv-x="1437" d="M27 -33l1052 1493h412l-1051 -1493h-413zM119 1032q0 74 24.5 147.5t71.5 133t115.5 96.5t156.5 37q61 0 107.5 -24.5t77 -64.5t45 -91.5t14.5 -106.5q0 -74 -25.5 -147.5t-73.5 -132t-115.5 -94t-151.5 -35.5q-66 0 -112 23.5t-76 63.5t-44 90t-14 105zM373 1079 q0 -23 10 -40t33 -17q29 0 48 27.5t19 62.5q0 23 -10.5 42.5t-30.5 19.5q-31 0 -50 -31t-19 -64zM786 258q0 74 25 147.5t72 133t115.5 96.5t158.5 37q61 0 107.5 -24.5t76 -64.5t44 -91.5t14.5 -106.5q0 -74 -25.5 -147.5t-73 -132t-115 -94.5t-151.5 -36q-66 0 -113 24 t-76.5 63.5t-44 90t-14.5 105.5zM1042 305q0 -23 9.5 -40t31.5 -17q29 0 48.5 27.5t19.5 62.5q0 23 -9 42t-32 19q-31 0 -49.5 -30.5t-18.5 -63.5z" />
<glyph unicode="&#x26;" horiz-adv-x="1265" d="M64.5 367q5.5 82 39 161.5t95 153.5t151.5 133q-23 41 -40 93.5t-17 107.5q0 121 51 206t130 138t173 76.5t182 23.5t166 -20.5t133.5 -69.5t81 -132t11.5 -208h-361q6 63 -14.5 89t-54.5 26q-31 0 -56.5 -14.5t-41 -42t-13.5 -67.5t27 -91l202 -367q16 41 23 84h289 q-6 -47 -18.5 -96t-32 -94t-48 -85t-65.5 -71l141 -252l-8 -49h-369l-45 80q-94 -70 -202.5 -96.5t-207 -11t-175 73.5t-107.5 159q-25 80 -19.5 162zM440.5 452.5q-14.5 -49.5 6 -86t68.5 -49t114 22.5l-117 201q-57 -39 -71.5 -88.5z" />
<glyph unicode="'" horiz-adv-x="378" d="M96 827l109 619h313l-108 -619h-314z" />
<glyph unicode="(" horiz-adv-x="700" d="M127 508q0 152 36 309.5t109.5 309t185 289.5t263.5 253l164 -201q-166 -160 -264.5 -360.5t-131 -406t2 -402.5t137.5 -346l-238 -242q-68 70 -118 163t-81.5 198.5t-48 217t-16.5 218.5z" />
<glyph unicode=")" horiz-adv-x="710" d="M-90 -59q88 84 169 188t142.5 226t97 258.5t35.5 281.5q0 172 -43 329.5t-114 264.5l243 186q68 -70 116 -157.5t80 -186t46 -202t14 -203.5q0 -164 -43 -332t-122.5 -326.5t-194.5 -300t-258 -250.5z" />
<glyph unicode="*" horiz-adv-x="579" d="M117 952l112 135l-110 41l100 220l109 -58l18 156h232l-50 -158l140 62l18 -217l-108 -46l65 -124l-215 -138l-49 140l-103 -146z" />
<glyph unicode="+" horiz-adv-x="800" d="M61 565l56 316h209l47 264h307l-47 -264h211l-56 -316h-210l-50 -274h-307l49 274h-209z" />
<glyph unicode="," horiz-adv-x="464" d="M-156 -268l183 483h370l-268 -483h-285z" />
<glyph unicode="-" horiz-adv-x="792" d="M78 457l55 309h666l-56 -309h-665z" />
<glyph unicode="." horiz-adv-x="454" d="M-4 0l57 326h336l-57 -326h-336z" />
<glyph unicode="/" horiz-adv-x="946" d="M-53 -131l8 45l844 1585h358l-8 -51l-842 -1579h-360z" />
<glyph unicode="0" horiz-adv-x="1230" d="M98 530q0 96 15.5 203t50.5 211.5t89 197.5t134 164.5t185.5 113.5t240.5 42q125 0 212 -46t139.5 -122.5t76 -178t23.5 -210.5q0 -98 -15.5 -205.5t-50.5 -211t-90 -196.5t-135 -164t-185.5 -113t-238.5 -42q-127 0 -213 46.5t-138.5 123t-76 178t-23.5 209.5zM477 559 q-2 -49 4 -93t20.5 -78t38 -54.5t54.5 -20.5q76 0 129 57.5t87 143.5t50.5 186.5t18.5 184.5q2 47 -3.5 90t-18.5 76.5t-35.5 54t-55.5 20.5q-55 0 -105.5 -37.5t-90.5 -109.5t-64.5 -178.5t-28.5 -241.5z" />
<glyph unicode="1" horiz-adv-x="735" d="M96 1042l443 392h315l-254 -1434h-356l155 874l-123 -98z" />
<glyph unicode="2" horiz-adv-x="1236" d="M100 330l668 506q61 47 85 91t24 95q0 55 -38 86t-87.5 28t-94.5 -41t-59 -120h-362q23 127 77 220t131.5 153.5t173 89t199.5 28.5q143 0 238.5 -44t147.5 -116.5t60.5 -164.5t-23.5 -189.5t-103.5 -190.5t-178.5 -165l-405 -274l573 12l-57 -334h-926z" />
<glyph unicode="3" horiz-adv-x="1271" d="M102.5 275.5q-14.5 89.5 8.5 220.5h364q-14 -86 16.5 -135.5t122.5 -49.5q96 0 146.5 49.5t50.5 118.5q0 39 -21.5 60.5t-54.5 33t-68.5 13.5t-64.5 2h-47l53 309h47q29 0 67 2t70.5 14.5t55 37t22.5 69.5q0 47 -34.5 75.5t-83.5 28.5q-20 0 -49 -4t-57 -18.5t-51.5 -42 t-31.5 -76.5h-352q18 106 70.5 194.5t131.5 150t181 95t223 33.5q94 0 181 -27.5t148.5 -83t89.5 -138.5t5 -195q-18 -92 -70.5 -161t-142.5 -108q78 -39 118 -106.5t40 -159.5q0 -137 -53.5 -234.5t-140.5 -158.5t-201.5 -90t-237.5 -29q-33 0 -84 3t-107.5 18.5 t-111.5 48.5t-94 92t-53.5 148.5z" />
<glyph unicode="4" horiz-adv-x="1257" d="M55 512l758 922h416l-154 -879h123l-57 -317h-123l-41 -238h-352l41 238h-535zM485 551h236l80 438h-8l-93 -168z" />
<glyph unicode="5" horiz-adv-x="1212" d="M106 451h355q-6 -41 4 -69t29.5 -46.5t47 -26.5t58.5 -8t66.5 12.5t67.5 39t52.5 69.5t20.5 102q0 66 -28.5 103t-72.5 51t-99.5 10t-106.5 -19.5t-93 -39t-63 -47.5l-151 139l186 713h883l-58 -322h-575l-33 -139q123 23 228.5 12.5t183 -57.5t123 -132t45.5 -210 q0 -170 -56.5 -289t-147.5 -192.5t-205 -107.5t-226 -34q-88 0 -177.5 17.5t-156 69.5t-97 147.5t-4.5 253.5z" />
<glyph unicode="6" horiz-adv-x="1206" d="M121 477l80 445q29 158 104.5 264t177 170.5t217 90.5t225 19.5t201 -40t142.5 -87.5l-189 -282q-20 25 -63 43t-96.5 25.5t-109.5 1t-105.5 -29t-85 -65.5t-46.5 -110l-4 -29q51 63 125 87t152 21q63 -2 123.5 -20t107.5 -62.5t76 -118t29 -184.5q0 -164 -50.5 -284.5 t-135.5 -200.5t-198.5 -119t-240.5 -39q-115 0 -205 31t-148.5 93.5t-82 156.5t-0.5 223zM490.5 487.5q-9.5 -49.5 1 -92.5t38 -71.5t78.5 -28.5q49 0 86 21.5t60.5 56.5t36 78t12.5 86q0 66 -31 106.5t-96 36.5q-51 0 -89 -28.5t-62.5 -71.5t-34 -92.5z" />
<glyph unicode="7" horiz-adv-x="1118" d="M57 0l2 16l738 1082h-588l57 336h916l65 -230l-801 -1204h-389z" />
<glyph unicode="8" horiz-adv-x="1239" d="M70 336q0 297 278 416q-63 33 -93 92t-30 129q0 117 43 208t121 154.5t187.5 97t242.5 33.5q119 0 209 -28.5t146.5 -85t76 -140.5t-1.5 -194q-18 -92 -69.5 -159.5t-143.5 -106.5q80 -39 119 -108t39 -159q0 -139 -49 -237t-135 -160.5t-203 -91.5t-252 -29 q-106 0 -195.5 20.5t-154 64.5t-100 114t-35.5 170zM465 436q0 -66 44 -93.5t107 -25.5q39 0 76 8.5t64.5 29t44 52t16.5 74.5q0 61 -49 85t-104 24q-33 0 -68 -7.5t-64.5 -24.5t-48 -47t-18.5 -75zM600 995q0 -51 36 -74.5t83 -23.5q27 0 55.5 8t52 24.5t38 41t14.5 57.5 q0 47 -35 76t-84 29q-29 0 -57.5 -10.5t-51 -29t-37 -43t-14.5 -55.5z" />
<glyph unicode="9" horiz-adv-x="1263" d="M88 106l184 295q18 -20 61.5 -38.5t96.5 -29.5t110.5 -11t107.5 15t87 50t49 96l13 64q-51 -61 -129 -85t-156 -22q-63 2 -123.5 20.5t-109 63.5t-77 119t-28.5 184q0 164 50 285t135 200t199 117.5t241 38.5q115 0 205 -30.5t148 -93t79.5 -156.5t1.5 -223l-84 -480 q-29 -164 -102.5 -268t-173 -161.5t-213 -74t-222 -3t-201 48t-149.5 79.5zM553 905q0 -66 29.5 -106.5t95.5 -36.5q51 0 90 28.5t63.5 71.5t33.5 92.5t0 92.5t-37.5 71.5t-79.5 28.5q-49 0 -85 -21.5t-60.5 -56.5t-37 -78t-12.5 -86z" />
<glyph unicode=":" horiz-adv-x="471" d="M6 0l57 326h336l-57 -326h-336zM121 647l57 326h336l-57 -326h-336z" />
<glyph unicode=";" horiz-adv-x="536" d="M-84 -268l182 483h369l-268 -483h-283zM160 651l57 326h336l-57 -326h-336z" />
<glyph unicode="&#x3c;" horiz-adv-x="770" d="M80 653l4 27l412 424h350l-4 -19l-383 -415l248 -414l-5 -18h-362z" />
<glyph unicode="=" horiz-adv-x="823" d="M63 283l48 268h690l-47 -268h-691zM123 623l47 264h690l-47 -264h-690z" />
<glyph unicode="&#x3e;" horiz-adv-x="747" d="M0 238l4 18l391 414l-235 415l4 19h350l260 -424l-4 -27l-408 -415h-362z" />
<glyph unicode="?" horiz-adv-x="1124" d="M180 961q27 150 86.5 247t137 152t166.5 77.5t175 22.5q88 0 175.5 -19.5t153 -70.5t97 -139t7.5 -223q-16 -88 -53.5 -143.5t-84.5 -92.5t-99 -63.5t-97 -54t-79 -65.5t-44 -100l-16 -98h-361l18 103q20 113 58.5 180t83.5 108t94 63.5t92 44t73 49.5t40 81 q8 49 -2 77.5t-29.5 43t-42 17.5t-39.5 3q-20 0 -43.5 -8t-45 -29.5t-39 -60.5t-30.5 -102h-352zM274 0l58 322h366l-57 -322h-367z" />
<glyph unicode="@" horiz-adv-x="1529" d="M59 344q0 236 78 416t202 301t279.5 183.5t311.5 62.5q123 0 227.5 -40t179 -119t117.5 -195.5t43 -272.5q0 -152 -32.5 -279t-91 -219t-138.5 -143t-174 -51q-25 0 -49.5 8t-44 26.5t-32.5 49t-13 75.5q-27 -45 -60 -72.5t-64.5 -43t-61 -20.5t-50.5 -5 q-76 0 -136.5 27.5t-103.5 80t-65.5 124t-22.5 161.5q0 127 41 238t110 190.5t160 124.5t191 43q66 -2 109 -34.5t59 -90.5l33 80l102 -4q-98 104 -278 105q-92 0 -193.5 -39t-184.5 -120t-137.5 -205t-54.5 -292q0 -147 55.5 -245.5t140.5 -145.5t186.5 -41t193.5 70 l59 -226q-162 -84 -320.5 -89t-285.5 63.5t-206 211t-79 351.5zM614 449q0 -66 29 -115t96 -49q47 0 85 23.5t66 61.5t42 87t14 102q0 68 -31.5 115t-97.5 47q-51 0 -89 -24.5t-63.5 -63.5t-38 -88t-12.5 -96zM1130 246q29 14 52.5 57t40 100.5t25.5 122t11.5 124t-5 105.5 t-23.5 66z" />
<glyph unicode="A" horiz-adv-x="1314" d="M-92 0l6 37l778 1411h338l281 -1411l-6 -37h-379l-41 217h-471l-117 -217h-389zM578 537h253l-34 239l-13 225l-92 -223z" />
<glyph unicode="B" horiz-adv-x="1255" d="M63 0l252 1434h557q104 0 188.5 -24t139.5 -73q54 -49 76 -125q11 -39 12 -86q0 -44 -10 -94q-18 -88 -74.5 -158.5t-142.5 -109.5q90 -33 138 -108.5t48 -172.5q0 -131 -53 -222t-139 -149.5t-195.5 -85t-222.5 -26.5h-574zM500 322h178q92 0 136 47t44 102 q0 45 -31.5 79t-103.5 34h-178zM602 905h178q43 0 74 33t40 73q3 14 3 26q1 25 -11 47q-18 32 -69 32h-178z" />
<glyph unicode="C" horiz-adv-x="1245" d="M86 549q0 195 51 364.5t150.5 295.5t246 199t334.5 73q123 0 212 -34t149.5 -97.5t92.5 -154.5t40 -206l-348 -63q-12 96 -57.5 154.5t-147.5 58.5q-145 0 -233.5 -141.5t-96.5 -407.5v-19q1 -49 9 -93q10 -52 32.5 -91t57 -61.5t84.5 -22.5q100 0 165.5 58.5 t106.5 162.5l342 -78q-94 -229 -264 -358t-412 -129q-129 0 -225 43t-160.5 120t-96.5 185.5t-32 241.5z" />
<glyph unicode="D" horiz-adv-x="1286" d="M45 0l252 1434h522q129 0 223.5 -48.5t157 -128t92 -185t29.5 -220.5q0 -154 -47 -306.5t-142.5 -273t-236.5 -196.5t-328 -76h-522zM492 324h133q76 0 140 58t107 146q44 88 64 190q14 68 13 130q0 30 -3 59q-10 88 -54 146.5t-128 58.5h-133z" />
<glyph unicode="E" horiz-adv-x="1136" d="M57 0l252 1434h977l-55 -318h-602l-43 -242h569l-55 -321h-570l-41 -231h603l-58 -322h-977z" />
<glyph unicode="F" horiz-adv-x="1105" d="M57 0l252 1434h977l-55 -322h-590l-45 -252h547l-58 -321h-546l-95 -539h-387z" />
<glyph unicode="G" horiz-adv-x="1349" d="M90 543q0 197 51.5 366.5t151.5 296.5t245.5 200t335.5 73q242 0 358 -119t134 -346l-352 -62q-10 92 -52 138.5t-141 46.5q-72 0 -133 -35t-105 -104.5t-70 -173t-26 -238.5q0 -59 10.5 -112.5t32 -92.5t55 -61.5t83.5 -22.5q123 0 189.5 56.5t88.5 185.5h-264l53 303 h615q-14 -80 -27.5 -161t-28.5 -159q-23 -133 -87 -237.5t-156.5 -178t-207 -112.5t-237.5 -39q-129 0 -226 42t-161.5 120t-96.5 185.5t-32 240.5z" />
<glyph unicode="H" horiz-adv-x="1398" d="M63 0l252 1434h387l-96 -555h393l97 555h383l-252 -1434h-383l96 543h-393l-96 -543h-388z" />
<glyph unicode="I" horiz-adv-x="540" d="M43 0l252 1434h385l-252 -1434h-385z" />
<glyph unicode="J" horiz-adv-x="1372" d="M113 420v20q0 122 22 252h377q-10 -57 -16 -124q-3 -22 -3 -44q0 -41 9 -78q12 -57 49 -95t111 -38t123 38t80.5 94.5t48 123t26.5 123.5l74 420h-441l56 322h825l-131 -742q-25 -141 -75 -272t-135 -231.5t-210 -161t-303 -60.5t-282.5 60.5t-153.5 161t-51 231.5z" />
<glyph unicode="K" horiz-adv-x="1355" d="M66 0l251 1434h379l-94 -543l191 215l321 328h457l-6 -37l-645 -625l432 -729l-9 -43h-446l-279 506l-100 -92l-74 -414h-378z" />
<glyph unicode="L" horiz-adv-x="1093" d="M57 0l252 1434h389l-192 -1098h577l-59 -336h-967z" />
<glyph unicode="M" horiz-adv-x="1732" d="M70 0l252 1434h383l262 -521l442 521h383l-252 -1434h-385l105 592l88 285h-13l-172 -244l-243 -283h-107l-147 285l-88 239h-13l-6 -280l-104 -594h-385z" />
<glyph unicode="N" horiz-adv-x="1466" d="M66 0l251 1434h400l172 -455l129 -453h8l43 441l82 467h389l-252 -1434h-397l-203 449l-117 405h-10l-43 -469l-67 -385h-385z" />
<glyph unicode="O" d="M111 549q0 193 51 361.5t150.5 292.5t243.5 195.5t331 71.5q129 0 224 -42t158.5 -117.5t95.5 -182t32 -235.5q0 -199 -53.5 -369t-152.5 -294t-243.5 -194.5t-326.5 -70.5q-127 0 -222.5 42t-160 119t-96 184.5t-31.5 238.5zM494 596v-26q0 -46 5 -86q7 -52 26.5 -91 t53 -61.5t87.5 -24.5h7q83 0 143 46q64 48 106.5 125t64 170t25.5 181q1 24 1 48.5t-1 50.5q-2 52 -17.5 95.5t-50.5 73t-100 33.5h-8q-68 0 -126 -30q-62 -32 -108.5 -100t-75 -169.5t-32.5 -234.5z" />
<glyph unicode="P" horiz-adv-x="1239" d="M59 0l252 1434h578q154 0 244 -46.5t134 -120t50 -164.5q2 -27 2 -55q0 -64 -10 -128q-18 -115 -66.5 -208.5t-122 -159t-171 -100t-214.5 -34.5h-213l-73 -418h-390zM578 729h188q43 0 79 28.5t60.5 70.5t35.5 92q7 31 7 59q0 18 -3 34q-7 42 -33.5 70.5t-77.5 28.5 h-189z" />
<glyph unicode="Q" horiz-adv-x="1320" d="M113 539q0 193 49 362.5t145 295.5t241.5 199.5t340.5 73.5q129 0 224 -45t157.5 -120.5t93.5 -173t31 -203.5q0 -100 -14.5 -202.5t-43 -196t-70.5 -172t-96 -130.5l146 -211l-4 -22h-359l-34 51q-72 -47 -145 -63.5t-152 -16.5q-131 0 -227.5 41t-159 117t-93 181.5 t-30.5 234.5zM498 580q0 -57 10 -107.5t32.5 -87.5t58.5 -58.5t85 -21.5q16 0 33.5 1t30.5 5l-140 193l4 33h359q39 90 59 195q14 66 14 127q0 34 -4 66q-12 89 -61 148.5t-150 59.5q-70 0 -121 -29t-87.5 -76t-60 -107.5t-38 -122t-19.5 -118.5t-5 -100z" />
<glyph unicode="R" horiz-adv-x="1236" d="M63 0l252 1434h576q129 0 215 -33t138 -87t74.5 -125t22.5 -147q0 -88 -26.5 -168.5t-74.5 -148.5t-116.5 -120t-154.5 -83l219 -497l-4 -25h-387l-185 479h-69l-84 -479h-396zM590 791h190q41 0 75 23.5t56.5 59t31.5 77.5q5 22 5 43q0 18 -4 35q-8 36 -33.5 59.5 t-74.5 23.5h-189z" />
<glyph unicode="S" horiz-adv-x="1257" d="M66 498h383q-2 -18 -2 -35q0 -27 6 -49q10 -35 33.5 -58.5t57.5 -35t70 -11.5q39 0 81 8.5t75 26.5t54.5 46t21.5 69q0 37 -16.5 57.5t-42 31.5t-58.5 15t-63 6q-90 6 -177.5 26.5t-157 62.5t-111.5 111t-42 171q0 137 51.5 236.5t139.5 164t205.5 94t248.5 29.5 q121 0 217.5 -30.5t159 -91t86.5 -150.5q13 -48 14 -106q0 -49 -10 -105h-362q1 10 1 19q-1 28 -9 48q-12 28 -34 45t-53.5 25t-66.5 8q-199 0 -199 -143q0 -53 41 -70.5t115 -23.5q102 -8 203.5 -28.5t176.5 -70t113 -133.5q24 -52 24 -123q0 -44 -9 -96 q-25 -141 -91.5 -232t-157.5 -144.5t-198 -75t-213 -21.5q-133 0 -236.5 33t-171 98.5t-93.5 165.5q-14 54 -15 117q0 56 11 119z" />
<glyph unicode="T" horiz-adv-x="1130" d="M145 1112l58 322h1128l-57 -322h-373l-196 -1112h-386l197 1112h-371z" />
<glyph unicode="U" horiz-adv-x="1445" d="M168 448.5q0 137.5 25 278.5l124 707h383l-125 -707q-10 -67 -19 -139q-4 -36 -4 -70t4 -64q9 -62 44 -102.5t115 -40.5t130 43t80.5 106.5t47 136.5t26.5 130l125 707h383l-125 -707q-25 -141 -73.5 -278.5t-133.5 -245t-213.5 -173t-308.5 -65.5q-182 0 -285.5 65.5 t-151.5 173t-48 245z" />
<glyph unicode="V" horiz-adv-x="1335" d="M154 1395l6 39h397l94 -523l37 -424h2l182 424l279 523h403l-6 -39l-776 -1407h-338z" />
<glyph unicode="W" horiz-adv-x="2146" d="M186 1386l9 50h401l94 -656l4 -297h11l366 750h291l100 -750h8l91 297l325 656h422l-8 -45l-733 -1395h-387l-64 317l-24 217h-9l-92 -217l-178 -317h-387z" />
<glyph unicode="X" horiz-adv-x="1234" d="M-111 0l7 31l563 682l-287 688l6 35h395l111 -303l49 -177h4l105 177l219 303h432l-6 -35l-531 -688l324 -682l-6 -31h-412l-102 231l-86 226h-6l-170 -226l-187 -231h-422z" />
<glyph unicode="Y" horiz-adv-x="1263" d="M125 1403l6 33h412l116 -344l58 -195h4l141 203l232 336h424l-7 -33l-649 -852l-98 -551h-385l98 551z" />
<glyph unicode="Z" horiz-adv-x="1155" d="M-10 268l801 844h-592l57 324h989l64 -258l-813 -850h628l-57 -328h-991z" />
<glyph unicode="[" horiz-adv-x="704" d="M29 -297l360 2046h516l-49 -285h-151l-259 -1458h152l-53 -303h-516z" />
<glyph unicode="\" horiz-adv-x="976" d="M215 1499h387l303 -1620h-385z" />
<glyph unicode="]" horiz-adv-x="681" d="M-76 -297l53 297h142l256 1458h-142l52 291h516l-361 -2046h-516z" />
<glyph unicode="^" horiz-adv-x="1034" d="M31 672l4 18l534 760h211l289 -760l-4 -18h-387l-51 200l-25 142l-78 -142l-123 -200h-370z" />
<glyph unicode="_" horiz-adv-x="876" d="M-123 -293l49 277h858l-49 -277h-858z" />
<glyph unicode="`" horiz-adv-x="546" d="M188 1421l2 15h342l89 -273l-5 -20h-272z" />
<glyph unicode="a" horiz-adv-x="1044" d="M70 367q0 106 26.5 216.5t85 200.5t149.5 148.5t220 58.5q63 0 114.5 -25.5t73.5 -93.5l49 103h285l-172 -975h-285l-12 104q-47 -66 -106.5 -91t-122.5 -25q-84 0 -142.5 30.5t-94.5 83t-52 121t-16 144.5zM428 430q-1 -10 -1 -20q1 -46 17 -78q20 -39 62 -39 q31 0 54.5 18.5t39.5 47t25.5 62.5t13.5 64q6 31 8 66q1 9 1 17q0 26 -5 48q-6 30 -21.5 50t-46.5 20q-37 0 -64.5 -27.5t-44.5 -66.5t-26.5 -84t-11.5 -78z" />
<glyph unicode="b" horiz-adv-x="1036" d="M-2 0l252 1434h352l-94 -543q41 53 101.5 74.5t121.5 23.5q70 0 127 -29.5t94 -91.5q38 -62 50 -156q4 -32 3 -66q0 -70 -16 -152q-16 -92 -52 -182.5t-92.5 -162t-137 -116.5t-187.5 -45q-63 0 -114.5 25.5t-73.5 90.5l-47 -104h-287zM425 394q3 -44 19.5 -72.5 t51.5 -28.5t62.5 28.5t46 72.5t27.5 94q6 35 6 67q0 14 -1 28q-4 44 -21.5 72.5t-50.5 28.5t-60.5 -28.5t-46.5 -72.5q-18 -45 -27 -95q-7 -38 -7 -72q0 -11 1 -22z" />
<glyph unicode="c" horiz-adv-x="915" d="M68 371q0 125 31.5 237.5t97 198.5t169 137t244.5 51q92 0 155.5 -28.5t103.5 -76.5t58.5 -113.5t20.5 -139.5l-315 -53q-8 55 -23.5 75.5t-44.5 22.5t-54.5 -21.5t-43.5 -60.5t-28.5 -83t-10.5 -91q0 -53 14.5 -93t49.5 -40q68 0 102 100l311 -49q-66 -166 -179.5 -264 t-293.5 -98q-96 0 -165.5 28.5t-113.5 80.5t-64.5 124t-20.5 156z" />
<glyph unicode="d" horiz-adv-x="1050" d="M68 375q0 152 38.5 267.5t102 193t143.5 116.5q76 37 154 37h8q61 -2 113.5 -23.5t74.5 -74.5l97 543h352l-252 -1434h-287l-12 104q-47 -66 -107.5 -91t-121.5 -25q-86 0 -144.5 32.5t-93.5 87t-50 124t-15 143.5zM430 394q4 -44 20.5 -72.5t51.5 -28.5t62.5 28.5 t46 72.5t26.5 94q5 34 5 65q0 15 -1 30q-4 44 -21.5 72.5t-50.5 28.5t-59.5 -28.5t-45.5 -72.5q-20 -45 -29 -95q-6 -35 -6 -66q0 -14 1 -28z" />
<glyph unicode="e" horiz-adv-x="944" d="M72 284q-8 48 -8 101t8 113q14 100 53 190t103.5 158.5t153.5 108.5t206 40q94 0 162.5 -25.5t111.5 -66.5q44 -41 62 -93q17 -47 16 -95v-10q-2 -59 -24.5 -118t-66.5 -106t-110.5 -75.5t-158.5 -28.5h-179q-8 -35 -3 -58.5t18.5 -38t32 -20.5t36.5 -6q39 0 62.5 20.5 t40.5 49.5l278 -78q-51 -129 -156.5 -197.5t-260.5 -68.5q-109 0 -188 36.5t-126 104t-63 163.5zM436 606h99q84 0 92 56q1 7 1 12q0 20 -16 33q-20 16 -57 16q-33 0 -69.5 -22.5t-49.5 -94.5z" />
<glyph unicode="f" horiz-adv-x="712" d="M51 0l125 707h-119l47 268h119l15 82q16 92 60 164.5t106.5 122t135.5 74.5q69 23 139 23h6q73 -1 141.5 -29t119.5 -85l-182 -213q-10 16 -36 25.5t-53.5 4.5t-53 -28.5t-33.5 -73.5l-13 -67h183l-47 -268h-183l-125 -707h-352z" />
<glyph unicode="g" horiz-adv-x="1048" d="M8 -190l291 88q10 -41 44 -63.5t75 -22.5q20 0 42.5 5t43 18t36 37t21.5 62l27 154q-47 -61 -109.5 -80.5t-134.5 -19.5q-70 0 -126 29.5t-93 91t-48 154.5q-4 33 -4 70q0 68 13 150q14 94 49 185.5t92.5 162t138 114.5t189.5 44q61 0 112.5 -25.5t73.5 -93.5l50 105h286 l-182 -1038q-23 -121 -70 -200t-112.5 -125t-145.5 -64.5t-166 -18.5h-9q-146 0 -250 67q-107 68 -134 214zM437 394q3 -44 20.5 -72.5t50.5 -28.5t60.5 28.5t47 72.5t28.5 94q7 38 7 73q0 11 -1 22q-3 44 -20 72.5t-52 28.5t-62 -28.5t-45 -72.5t-27 -95q-8 -38 -8 -73 q0 -10 1 -21z" />
<glyph unicode="h" horiz-adv-x="1085" d="M47 0l252 1434h354l-96 -555q41 66 102.5 91t131.5 25q90 0 141 -44t73.5 -110.5t22.5 -143t-12 -144.5l-98 -553h-353l99 555q4 27 4 49q0 32 -8 52q-14 36 -56 36q-35 0 -62.5 -29.5t-41.5 -107.5l-99 -555h-354z" />
<glyph unicode="i" horiz-adv-x="495" d="M35 0l172 975h350l-172 -975h-350zM225 1081l62 353h350l-62 -353h-350z" />
<glyph unicode="j" horiz-adv-x="491" d="M-330 -362l164 253q36 -23 65 -23h1q30 1 52.5 17.5t37 46t20.5 66.5l172 981h353l-173 -979q-27 -152 -94 -257t-160 -155q-79 -41 -171 -41q-17 0 -35 1q-113 10 -232 90zM201 1085l61 349h350l-61 -349h-350z" />
<glyph unicode="k" horiz-adv-x="991" d="M47 0l254 1436h352l-131 -734l107 134l119 139h374l-6 -31l-366 -416l223 -485l-8 -43h-340l-136 336l-36 -29l-2 -12l-52 -295h-352z" />
<glyph unicode="l" horiz-adv-x="483" d="M27 0l252 1434h352l-252 -1434h-352z" />
<glyph unicode="m" horiz-adv-x="1509" d="M63 0l173 975h309l18 -96q47 67 124 97q65 25 127 25q12 -1 24 -1q74 -6 130 -44t60 -108h6q39 78 112 112.5t142 34.5q90 0 136 -42q46 -43 62 -107q11 -44 11 -95q0 -23 -3 -47q-7 -78 -19 -151l-99 -553h-354l98 555q6 33 6 58q0 21 -4 37q-8 36 -43 36 q-23 0 -37 -14.5t-23 -34t-15.5 -43t-8.5 -41.5l-98 -553h-354l98 555q6 30 6 56q0 18 -3 35q-7 40 -42 40q-10 0 -21.5 -3t-23.5 -16.5t-23.5 -40t-19.5 -75.5l-96 -551h-355z" />
<glyph unicode="n" horiz-adv-x="1085" d="M47 0l172 975h307l17 -101q41 66 109.5 93.5t138.5 27.5q90 0 141 -44t73.5 -110.5t22.5 -143t-12 -144.5l-98 -553h-355l99 555q4 28 4 51q0 30 -8 50q-14 36 -54 36q-35 0 -62.5 -29.5t-41.5 -107.5l-99 -555h-354z" />
<glyph unicode="o" horiz-adv-x="1001" d="M80 389q4 113 41 221.5t105.5 194.5t168 138t228.5 52q94 0 163.5 -32.5t113.5 -89t65.5 -130t21.5 -155.5q0 -111 -34.5 -219.5t-103.5 -194.5t-170 -139t-235 -53q-96 0 -165.5 31.5t-114.5 86.5q-44 54 -66 128q-18 63 -19 134q0 14 1 27zM420 383q2 -43 24.5 -66.5 t51.5 -23.5q33 0 61.5 28.5t49 73.5t29.5 99q6 37 6 70q0 15 -1 30q-2 43 -21.5 65.5t-50.5 22.5q-35 0 -62.5 -30.5t-48 -76t-30.5 -97.5q-8 -43 -8 -80v-15z" />
<glyph unicode="p" horiz-adv-x="1083" d="M-35 -461l254 1436h287l8 -111q47 68 119 98.5t133 30.5q82 0 137 -30.5t89 -81t47.5 -115t13.5 -131.5q0 -166 -39 -289t-102.5 -204t-144.5 -120q-77 -38 -157 -38h-8q-61 2 -113.5 23.5t-74.5 74.5l-97 -543h-352zM474 394q3 -44 20.5 -72.5t50.5 -28.5t60.5 28.5 t47 72.5t28.5 94q7 38 7 73q0 11 -1 22q-3 44 -20.5 72.5t-52.5 28.5t-61.5 -28.5t-45 -72.5t-27.5 -95q-7 -37 -7 -72q0 -11 1 -22z" />
<glyph unicode="q" horiz-adv-x="1073" d="M72 268q-3 28 -3 59q0 79 19 179q16 88 48 175t84 156.5t129 112.5t183 43q63 0 124 -30.5t83 -98.5l49 111h287l-252 -1436h-352l94 537q-41 -53 -102.5 -71.5t-120.5 -20.5q-70 0 -128 29.5t-95 93t-47 161.5zM431 394q3 -44 20.5 -72.5t54.5 -28.5q33 0 60.5 28.5 t47 72.5t28.5 94q7 38 7 73q0 11 -1 22q-3 44 -19 72.5t-51 28.5t-63 -28.5t-48.5 -72.5t-29.5 -95q-7 -37 -7 -72q0 -11 1 -22z" />
<glyph unicode="r" horiz-adv-x="821" d="M41 0l172 975h287l24 -105q38 72 108 103q63 28 129 28h13q70 -2 129.5 -24.5t81.5 -71.5l-203 -254q-47 37 -96 38h-4q-47 -1 -88 -25q-43 -26 -75 -73.5t-42 -109.5l-84 -481h-352z" />
<glyph unicode="s" horiz-adv-x="907" d="M53 328h346q-4 -27 10.5 -43.5t41.5 -16.5q29 0 47 16.5t18 43.5q0 33 -33.5 45t-84 19t-105.5 17.5t-99 36.5t-67 80q-13 31 -13 75q0 32 7 71q18 96 68.5 159.5t116 100.5t138 52t136.5 15q57 0 123.5 -12t116.5 -47q50 -34 76 -98q13 -32 13 -76q0 -41 -12 -92h-324 q4 27 -11 38t-35.5 9t-38 -15.5t-17.5 -37.5q0 -25 35 -36t85 -20.5t107.5 -24t101.5 -47t66 -90.5q11 -31 11 -73q0 -37 -9 -82q-16 -84 -61 -143.5t-109.5 -97.5t-143.5 -55t-163 -17q-74 0 -142.5 19t-118.5 60t-74 108q-13 36 -12 80q0 37 9 79z" />
<glyph unicode="t" horiz-adv-x="724" d="M86 707l47 268h127l43 237l309 80h56l-56 -317h209l-47 -268h-209l-51 -295q-4 -26 -4 -47q0 -54 29 -72q16 -9 38 -9q36 0 89 25l39 -241q-84 -53 -155 -70.5t-118 -17.5q-178 2 -244 110q-42 69 -41 181q0 63 13 139l53 297h-127z" />
<glyph unicode="u" horiz-adv-x="1013" d="M98 268.5q0 75.5 13 143.5l98 563h356l-100 -565q-4 -26 -4 -46q0 -81 63 -81q35 0 62.5 29.5t42.5 107.5l98 555h354l-172 -975h-307l-16 100q-41 -66 -109.5 -93t-138.5 -27q-90 0 -141.5 41.5t-75 106.5t-23.5 140.5z" />
<glyph unicode="v" horiz-adv-x="968" d="M70 946l4 29h354l39 -354l2 -289h2l104 289l162 354h355l-5 -29l-475 -952h-403z" />
<glyph unicode="w" horiz-adv-x="1478" d="M86 948l4 27h352l62 -326l-12 -315h8l192 526h281l10 -526h8l96 315l177 326h354l-4 -27l-520 -952h-336l-35 217h-2h-2l-111 -217h-338z" />
<glyph unicode="x" horiz-adv-x="878" d="M-86 0l6 33l336 461l-158 452l6 29h351l71 -287l172 287h349l-7 -29l-317 -452l176 -461l-6 -33h-334l-96 299l-193 -299h-356z" />
<glyph unicode="y" horiz-adv-x="966" d="M-61 -459l4 25l319 538l-205 846l4 25h361l65 -313l21 -193h6l88 195l176 311h355l-5 -29l-839 -1405h-350z" />
<glyph unicode="z" horiz-adv-x="849" d="M-2 213l461 463h-344l53 299h688l57 -230l-454 -448h364l-51 -297h-719z" />
<glyph unicode="{" horiz-adv-x="686" d="M119 551l59 332q53 0 74.5 33.5t28.5 68.5l61 340q16 98 59 179t113 139.5t168 91t227 32.5l-49 -274q-80 0 -110.5 -47t-42.5 -121l-62 -340q-6 -37 -22.5 -78t-42 -77.5t-61.5 -67.5t-81 -47q33 -16 57.5 -46t39 -67t18.5 -77t-2 -76l-62 -355q-6 -31 -6 -58.5t9.5 -48 t31 -31.5t60.5 -11l-54 -301q-127 0 -212 32.5t-134 93t-63.5 143.5t4.5 181l61 355q2 18 2 35.5t-6 32.5t-21.5 24.5t-41.5 9.5z" />
<glyph unicode="|" horiz-adv-x="458" d="M-80 -242l326 1850h362l-325 -1850h-363z" />
<glyph unicode="}" horiz-adv-x="737" d="M-70 -356l54 301q76 0 106.5 43t40.5 106l62 355q6 37 24.5 76.5t46 76.5t61 66.5t74.5 46.5q-39 16 -63.5 47t-37.5 67.5t-14 77.5t5 78l59 340q12 74 -2 121t-94 47l49 274q129 0 216 -32.5t136 -91t63.5 -139.5t-3.5 -179l-62 -340q-4 -18 -3 -35.5t8.5 -33 t22.5 -24.5t42 -9l-59 -332q-53 0 -76 -34t-29 -68l-61 -355q-18 -98 -61.5 -181t-113 -143.5t-168 -93t-223.5 -32.5z" />
<glyph unicode="~" horiz-adv-x="954" d="M66 559q25 51 58.5 102.5t76.5 91.5t93 65.5t105 25.5q53 0 91 -15.5t66 -35t49.5 -37t44 -19.5t48 16.5t60.5 69.5l235 -94q-70 -137 -156.5 -216t-168.5 -83q-51 -2 -91 13.5t-73 36t-60.5 39t-53 22.5t-51.5 -13.5t-56 -70.5z" />
<glyph unicode="&#xa1;" horiz-adv-x="559" d="M-41 -453l178 1016h371l-178 -1016h-371zM158 659l55 322h369l-56 -322h-368z" />
<glyph unicode="&#xa2;" horiz-adv-x="884" d="M12 371q0 109 24.5 210t77 183t133.5 140.5t193 80.5l27 143h225l-26 -147q123 -31 174 -126t53 -218l-315 -53q-8 55 -23.5 75.5t-44.5 22.5t-54.5 -21.5t-44 -60.5t-28.5 -83t-10 -91q0 -53 14 -93t49 -40q68 0 103 100l311 -49q-53 -139 -141 -230t-217 -120l-21 -121 h-225l20 121q-135 29 -194.5 130t-59.5 247z" />
<glyph unicode="&#xa3;" horiz-adv-x="1122" d="M-43 188q55 27 89 74t54.5 99.5t30.5 104.5t16 91h-112l47 268h113l28 168q23 123 74 211t124 144.5t166 83t197 26.5q80 0 160 -16.5t139.5 -66.5t86 -142t-0.5 -242h-329q16 96 -15.5 133t-81.5 37q-133 0 -165 -168l-29 -168h334l-47 -268h-334q-4 -20 -10.5 -50 t-15.5 -63.5t-22.5 -68.5t-31.5 -64q45 31 88 36t86 -2t84 -18.5t80 -14.5t76.5 10.5t72.5 54.5l148 -215q-86 -104 -166 -142t-158 -38t-153.5 21.5t-153.5 33.5t-159 0t-169 -80z" />
<glyph unicode="&#xa4;" horiz-adv-x="1015" d="M-6 391l131 119q-10 51 -10 104q0 57 17.5 109.5t55.5 118.5l-94 119l275 245l92 -125q74 25 153 25q41 0 76 -7t68 -20l141 127l186 -245l-129 -117q4 -23 7.5 -49.5t3.5 -49.5q0 -68 -19.5 -125t-48.5 -112l86 -117l-270 -241l-94 122q-35 -10 -75 -17t-77 -7 q-41 0 -78 7t-72 19l-137 -127zM416 676.5q-10 -58.5 12.5 -107.5t83.5 -49q63 0 102 49t48.5 107.5t-13 108t-82.5 49.5q-61 0 -101 -49.5t-50 -108z" />
<glyph unicode="&#xa5;" d="M143 1403l7 33h421l117 -344l57 -195h5l141 203l231 336h414l-6 -33l-453 -592h97l-50 -276h-247l-11 -58h248l-49 -276h-248l-35 -201h-385l35 201h-258l49 276h258l11 58h-259l50 276h104z" />
<glyph unicode="&#xa6;" horiz-adv-x="444" d="M-76 -180l137 776h363l-137 -776h-363zM74 672l135 768h362l-135 -768h-362z" />
<glyph unicode="&#xa7;" horiz-adv-x="880" d="M2 328h352q-10 -55 47 -56q27 0 45.5 14.5t18.5 41.5q0 33 -34 45t-84 19t-105.5 17.5t-99.5 37t-66.5 80t-5.5 145.5q10 59 32.5 103t53.5 77q-29 45 -29 125q0 113 46 187.5t115.5 118.5t151.5 61.5t152 17.5q57 0 124.5 -12.5t120 -47t78 -98t0.5 -168.5h-340 q8 41 -36 41q-23 0 -38.5 -12t-15.5 -35q0 -18 18.5 -28.5t47.5 -17.5t66.5 -14t74.5 -18q25 -8 48.5 -15t41.5 -22q51 -31 79 -91t7 -167q-10 -53 -30.5 -91t-49.5 -66q25 -35 34 -84t-5 -121q-16 -84 -61 -143.5t-109.5 -97.5t-143.5 -55t-163 -17q-74 0 -142.5 19 t-118.5 60t-73.5 108t-3.5 159zM528.5 620q6.5 3 6.5 62q0 12 -1.5 4t-1.5 -12q-10 -57 -3.5 -54z" />
<glyph unicode="&#xa8;" horiz-adv-x="870" d="M168 1159l49 277h332l-49 -277h-332zM621 1159l49 277h334l-50 -277h-333z" />
<glyph unicode="&#xa9;" horiz-adv-x="1259" d="M59 575q0 156 51.5 314t148.5 284.5t235.5 206.5t314.5 80q127 0 219 -50t152.5 -134t89 -192.5t28.5 -223.5q0 -158 -52 -314.5t-148.5 -282.5t-236.5 -204.5t-314 -78.5q-127 0 -219 49t-151.5 132t-88.5 190.5t-29 223.5zM256 610q0 -82 18.5 -157.5t58.5 -134 t102.5 -93.5t148.5 -35q119 0 215 56.5t163.5 147.5t103.5 204t36 225q0 82 -19.5 159t-60.5 135.5t-103.5 94t-148.5 35.5q-121 0 -216 -57t-160.5 -148.5t-101.5 -205t-36 -226.5zM334 639q0 115 39 209t100.5 161.5t138 105.5t150.5 38q47 0 92 -14.5t81 -45t60.5 -78.5 t32.5 -116l-154 -82q-12 39 -29.5 61.5t-37 35t-39.5 15.5t-37 3q-35 0 -71.5 -18.5t-65.5 -52.5t-47.5 -81t-18.5 -102q0 -78 37 -124t90 -46q37 0 82 24.5t94 102.5l134 -92q-80 -133 -172.5 -194.5t-174.5 -61.5q-57 0 -109 24.5t-91 70.5t-61.5 111.5t-22.5 145.5z" />
<glyph unicode="&#xaa;" horiz-adv-x="636" d="M104 954q0 72 31 120t79 77t105.5 40t110.5 11h62q4 18 -7.5 32.5t-36 20t-62.5 -1t-87 -28.5l-74 151q53 41 117 64.5t143 23.5q53 0 103.5 -15t86.5 -47t53 -83t5 -125l-63 -420h-164l-23 78q-35 -47 -84 -68.5t-98 -19.5q-27 0 -60.5 9t-64.5 31.5t-51.5 59.5 t-20.5 90zM351 995.5q-3 -18.5 6 -33t32 -14.5q25 0 51.5 23.5t24.5 70.5h-59q-23 0 -37.5 -14t-17.5 -32.5z" />
<glyph unicode="&#xab;" horiz-adv-x="1148" d="M102 676l312 457h372l-309 -457l146 -459h-369zM557 676l311 457h373l-309 -457l145 -459h-368z" />
<glyph unicode="&#xac;" horiz-adv-x="782" d="M59 578l50 282h700l-92 -528h-295l43 246h-406z" />
<glyph unicode="&#xad;" horiz-adv-x="792" d="M78 457l55 309h666l-56 -309h-665z" />
<glyph unicode="&#xae;" horiz-adv-x="1228" d="M51 553q0 154 51.5 309.5t146.5 281.5t232 204.5t312 78.5q125 0 217 -49t150.5 -132t87 -189.5t28.5 -220.5q0 -154 -51 -309.5t-146.5 -280.5t-233.5 -204t-310 -79q-127 0 -218.5 49t-149.5 131t-87 188.5t-29 221.5zM246 588q0 -82 18.5 -157t58 -133t101 -93 t145.5 -35q119 0 214.5 56.5t162 146.5t102 202.5t35.5 223.5q0 82 -19.5 158.5t-59 135t-101 93.5t-147.5 35q-129 0 -224.5 -59.5t-159 -151.5t-95 -204t-31.5 -218zM350 324l137 778h287q43 0 82 -11.5t68.5 -35t47 -61.5t17.5 -93q0 -111 -58.5 -186.5t-131.5 -110.5 l104 -246l-31 -34h-157l-105 266h-35l-47 -266h-178zM606 766h109q37 0 58.5 22.5t25.5 48t-10.5 48t-49.5 22.5h-108z" />
<glyph unicode="&#xb0;" horiz-adv-x="509" d="M152 1184q0 68 25.5 119t66.5 85.5t90 52t98 17.5q80 0 140.5 -49t60.5 -145q0 -68 -25.5 -119t-66.5 -85t-92.5 -51.5t-102.5 -17.5q-78 0 -136 48.5t-58 144.5zM346 1223.5q-4 -19.5 4 -37t29 -17.5q20 0 34.5 17.5t17.5 37t-4.5 37t-27.5 17.5q-23 0 -36 -17.5 t-17 -37z" />
<glyph unicode="&#xb1;" horiz-adv-x="743" d="M-49 -4l53 301h662l-54 -301h-661zM63 631l54 307h190l47 270h275l-47 -270h196l-53 -307h-197l-49 -277h-274l49 277h-191z" />
<glyph unicode="&#xb2;" horiz-adv-x="669" d="M111 866l333 260q25 20 53.5 40t28.5 48q0 29 -20.5 41.5t-47 11.5t-49 -17.5t-28.5 -45.5h-197q12 76 45 126t79 81t102.5 44t117.5 13q47 0 92.5 -11t80 -36.5t56 -64.5t21.5 -94q0 -47 -17.5 -86t-45 -73t-60 -61.5t-61.5 -50.5l-90 -65h217l-37 -213h-541z" />
<glyph unicode="&#xb3;" horiz-adv-x="724" d="M164 1067h209v-18q0 8 24.5 15t49 12t38 8t-9.5 3h-57l31 177h57q45 -2 71.5 14t26.5 39t-22.5 33t-59.5 10q-16 0 -34.5 -3t-34 -12.5t-26.5 -23.5t-13 -37l-205 2q8 74 44 123t84 79t103.5 43t102.5 13q49 0 100 -8t93 -29.5t67.5 -59.5t25.5 -95q0 -59 -33.5 -106.5 t-93.5 -65.5q43 -10 66 -47t23 -80q0 -84 -35 -137.5t-87.5 -83t-113.5 -41t-117 -11.5q-55 0 -110.5 13.5t-97.5 46t-61 88t-5 139.5z" />
<glyph unicode="&#xb4;" horiz-adv-x="485" d="M129 1143l4 20l182 273h342l-2 -15l-254 -278h-272z" />
<glyph unicode="&#xb6;" horiz-adv-x="1452" d="M82 709.5q-6 95.5 17.5 195t75.5 194.5t133 169.5t188.5 120t240.5 45.5h852l-53 -310h-117l-276 -1566h-357l277 1566h-166l-276 -1566h-361l143 817q-102 0 -170.5 45t-106.5 119.5t-44 170z" />
<glyph unicode="&#xb7;" horiz-adv-x="393" d="M39 559l55 318h332l-55 -318h-332z" />
<glyph unicode="&#xb8;" horiz-adv-x="626" d="M-92 -311l129 143q18 -18 47 -31.5t58.5 -19.5t55 -1t35.5 25q23 45 -23 75t-159 28l125 223h246l-53 -104q55 -6 91 -35t54 -69t18 -86t-16 -87q-27 -66 -75 -111t-106.5 -69.5t-123 -29.5t-122.5 10.5t-106.5 49t-74.5 89.5z" />
<glyph unicode="&#xb9;" horiz-adv-x="536" d="M180 1274l242 211h225l-129 -733h-231l82 458l-105 -88z" />
<glyph unicode="&#xba;" horiz-adv-x="624" d="M137 1022q0 74 19.5 152.5t61.5 143t108.5 105.5t160.5 41q61 0 105.5 -23.5t71 -62.5t39 -89t12.5 -103q0 -76 -21.5 -154t-65.5 -141.5t-111 -103t-155 -39.5q-61 0 -104 22.5t-69.5 60t-39 88t-12.5 103.5zM358 1038.5q2 -30.5 12.5 -51t30.5 -20.5t38 20.5t30 51 t18.5 67.5t4 67.5t-11.5 51t-29 20.5t-39 -20.5t-31 -51t-18.5 -67.5t-4.5 -67.5z" />
<glyph unicode="&#xbb;" horiz-adv-x="1159" d="M47 217l305 459l-147 457h373l149 -457l-311 -459h-369zM502 217l305 459l-148 457h373l150 -457l-312 -459h-368z" />
<glyph unicode="&#xbc;" horiz-adv-x="1361" d="M-6 -72l1132 1538h279l-1133 -1538h-278zM145 1227l242 211h225l-129 -733h-231l80 458l-86 -67zM610 98l27 158l399 483h244l-78 -440h70l-35 -201h-70l-18 -98h-221l18 98h-336zM891 293h100l29 164z" />
<glyph unicode="&#xbd;" horiz-adv-x="1460" d="M-4 -70l1118 1520h291l-1120 -1520h-289zM147 1229l242 211h225l-129 -733h-231l80 458l-78 -84zM756 150l334 260q25 20 53 39.5t28 48.5t-20.5 41t-47 11t-49 -17.5t-28.5 -45.5h-197q12 76 45 126.5t79 81t102.5 44t118.5 13.5q47 0 92 -11.5t79.5 -37t56 -64.5 t21.5 -94q0 -47 -17 -87t-45 -74t-59.5 -61.5t-62.5 -48.5l-90 -65h217l-37 -213h-541z" />
<glyph unicode="&#xbe;" horiz-adv-x="1492" d="M94 -72l1192 1538h285l-1192 -1538h-285zM162 1010h200q0 -4 -1 -16.5t-1 -2.5q0 8 25 15.5t49.5 12.5t37.5 8t-9 3h-55l28 170h56q43 -2 68.5 13.5t25.5 37.5q0 20 -21.5 30.5t-58.5 10.5q-33 0 -66.5 -15t-38.5 -58l-196 2q8 70 43 117.5t82 77.5t99 42t99 12t96.5 -8 t89.5 -28.5t64.5 -56.5t24.5 -91q0 -57 -33 -103t-90 -65q41 -10 63.5 -45t22.5 -76q0 -82 -34 -133t-84 -80.5t-110.5 -40t-113.5 -10.5t-106.5 12.5t-93.5 44t-58.5 85t-3.5 135.5zM733 98l27 158l399 483h244l-78 -440h70l-35 -201h-70l-18 -98h-221l18 98h-336z M1014 293h100l29 164z" />
<glyph unicode="&#xbf;" horiz-adv-x="1124" d="M-2 -104q0 113 31.5 182t79 113.5t104.5 73t109.5 58t90.5 68.5t50 107l16 98h363l-19 -102q-23 -119 -63.5 -188.5t-89.5 -110.5t-100.5 -62.5t-94.5 -43t-69.5 -55.5t-26.5 -97q0 -39 12 -61.5t30.5 -34t38 -13.5t34.5 -2q20 0 43.5 8t45 29.5t40 60.5t30.5 103h353 q-27 -152 -86.5 -248t-137 -151.5t-167 -78t-175.5 -22.5q-78 0 -156.5 16.5t-142 58.5t-103.5 113.5t-40 180.5zM487 666l56 321h366l-55 -321h-367z" />
<glyph unicode="&#xc0;" horiz-adv-x="1314" d="M-92 0l6 37l778 1411h338l281 -1411l-6 -37h-379l-41 217h-471l-117 -217h-389zM578 537h253l-34 239l-13 225l-92 -223zM580 1821l2 14h342l88 -272l-4 -21h-273z" />
<glyph unicode="&#xc1;" horiz-adv-x="1314" d="M-92 0l6 37l778 1411h338l281 -1411l-6 -37h-379l-41 217h-471l-117 -217h-389zM578 537h253l-34 239l-13 225l-92 -223zM739 1538l4 21l183 272h342l-2 -14l-254 -279h-273z" />
<glyph unicode="&#xc2;" horiz-adv-x="1314" d="M-92 0l6 37l778 1411h338l281 -1411l-6 -37h-379l-41 217h-471l-117 -217h-389zM479 1538l2 14l318 271h248l231 -271l-2 -14h-328l-57 78l-90 -78h-322zM578 537h253l-34 239l-13 225l-92 -223z" />
<glyph unicode="&#xc3;" horiz-adv-x="1314" d="M-92 0l6 37l778 1411h338l281 -1411l-6 -37h-379l-41 217h-471l-117 -217h-389zM545 1636q35 55 73.5 100.5t80.5 71t89.5 30.5t96.5 -19q25 -12 47 -24.5t44.5 -16.5t44 6t44.5 47l176 -98q-29 -55 -68.5 -103.5t-88 -78t-101.5 -34t-109 30.5q-18 12 -38.5 22.5 t-42 11.5t-44 -10t-42.5 -44zM578 537h253l-34 239l-13 225l-92 -223z" />
<glyph unicode="&#xc4;" horiz-adv-x="1314" d="M-92 0l6 37l778 1411h338l281 -1411l-6 -37h-379l-41 217h-471l-117 -217h-389zM504 1536l47 262h315l-47 -262h-315zM578 537h253l-34 239l-13 225l-92 -223zM934 1536l47 262h317l-47 -262h-317z" />
<glyph unicode="&#xc5;" horiz-adv-x="1314" d="M-92 0l6 37l778 1411h29q-41 25 -60.5 68t-19.5 88t19.5 90t56.5 80.5t91 58t126 22.5q55 0 96 -16t67.5 -43t40 -61.5t13.5 -71.5q0 -61 -39 -120.5t-108 -94.5h26l281 -1411l-6 -37h-390l-41 217h-460l-117 -217h-389zM578 537h243l-49 407h-2zM834 1638l19 -3t44 -4 t44.5 1.5t19.5 12.5q0 23 -19.5 33t-44.5 9t-44 -13.5t-19 -35.5z" />
<glyph unicode="&#xc6;" horiz-adv-x="1902" d="M-92 0l6 39l1057 1395h1081l-57 -326h-592l-41 -234h567l-55 -319h-567l-41 -227h592l-58 -328h-932l54 305h-402l-221 -305h-391zM756 635h231l82 467l-88 -156z" />
<glyph unicode="&#xc7;" horiz-adv-x="1245" d="M94 555q0 193 51.5 360.5t149.5 291.5t241.5 195t329.5 71q240 0 358.5 -127t135.5 -353l-350 -67q-14 94 -58.5 152.5t-144.5 58.5q-143 0 -234.5 -137.5t-91.5 -403.5q0 -59 10.5 -111.5t32 -91.5t55 -60.5t83.5 -21.5q98 0 163.5 58.5t106.5 160.5l336 -77 q-82 -195 -219.5 -318t-327.5 -151l-29 -52q53 -6 89 -30.5t54.5 -58t19.5 -73.5t-15 -77q-25 -55 -70 -96t-100.5 -63.5t-116.5 -29t-117.5 5t-102.5 40t-73 75.5l119 139q18 -14 48 -24t59.5 -15.5t52 -1t28.5 18.5q14 35 -29.5 59.5t-148.5 26.5l94 156 q-197 35 -293 188.5t-96 382.5z" />
<glyph unicode="&#xc8;" horiz-adv-x="1136" d="M57 0l252 1434h977l-55 -318h-602l-43 -242h569l-55 -321h-570l-41 -231h603l-58 -322h-977zM575 1810l3 15h342l88 -273l-4 -20h-273z" />
<glyph unicode="&#xc9;" horiz-adv-x="1136" d="M57 0l252 1434h977l-55 -318h-602l-43 -242h569l-55 -321h-570l-41 -231h603l-58 -322h-977zM674 1536l4 20l182 273h342l-2 -14l-254 -279h-272z" />
<glyph unicode="&#xca;" horiz-adv-x="1136" d="M57 0l252 1434h977l-55 -318h-602l-43 -242h569l-55 -321h-570l-41 -231h603l-58 -322h-977zM414 1536l2 14l323 279h254l238 -279l-2 -14h-336l-59 80l-93 -80h-327z" />
<glyph unicode="&#xcb;" horiz-adv-x="1136" d="M57 0l252 1434h977l-55 -318h-602l-43 -242h569l-55 -321h-570l-41 -231h603l-58 -322h-977zM426 1538l49 277h332l-49 -277h-332zM879 1538l49 277h334l-50 -277h-333z" />
<glyph unicode="&#xcc;" horiz-adv-x="540" d="M43 0l252 1434h385l-252 -1434h-385zM213 1804l2 15h342l88 -273l-4 -20h-272z" />
<glyph unicode="&#xcd;" horiz-adv-x="540" d="M43 0l252 1434h385l-252 -1434h-385zM354 1536l4 20l183 273h342l-2 -14l-254 -279h-273z" />
<glyph unicode="&#xce;" horiz-adv-x="540" d="M43 0l252 1434h385l-252 -1434h-385zM106 1538l3 14l323 279h254l238 -279l-2 -14h-336l-60 80l-92 -80h-328z" />
<glyph unicode="&#xcf;" horiz-adv-x="540" d="M43 0l252 1434h385l-252 -1434h-385zM115 1538l49 277h332l-50 -277h-331zM567 1538l49 277h334l-49 -277h-334z" />
<glyph unicode="&#xd0;" horiz-adv-x="1312" d="M45 563l53 303h125l101 568h522q129 0 223 -48.5t155.5 -128t91.5 -185t30 -220.5q0 -154 -52.5 -306.5t-149.5 -273t-236.5 -196.5t-313.5 -76h-522l98 563h-125zM516 324h133q82 0 140.5 56t95.5 135t54 165t17 147q0 45 -7 95.5t-26.5 92.5t-52 69.5t-82.5 27.5h-133 l-43 -246h152l-53 -303h-152z" />
<glyph unicode="&#xd1;" horiz-adv-x="1466" d="M66 0l251 1434h400l172 -455l129 -453h8l43 441l82 467h389l-252 -1434h-397l-203 449l-117 405h-10l-43 -469l-67 -385h-385zM604 1632q35 55 74 100.5t81 71t89 30.5t96 -19q25 -12 47.5 -24.5t45 -17t44 6t43.5 47.5l176 -98q-29 -55 -68.5 -103.5t-87.5 -78 t-101.5 -34t-108.5 30.5q-18 12 -39 22.5t-42.5 11.5t-44 -10.5t-42.5 -43.5z" />
<glyph unicode="&#xd2;" d="M111 549q0 193 51 361.5t150.5 292.5t243.5 195.5t331 71.5q129 0 224 -42t158.5 -117.5t95.5 -182t32 -235.5q0 -199 -53.5 -369t-152.5 -294t-243.5 -194.5t-326.5 -70.5q-127 0 -222.5 42t-160 119t-96 184.5t-31.5 238.5zM494 596q-2 -59 5 -111.5t26.5 -91.5 t53 -61.5t87.5 -24.5q86 -2 149.5 46t106.5 125t64.5 170t25.5 181q2 47 0 98.5t-17.5 95.5t-50.5 73.5t-100 33.5q-72 2 -133.5 -30.5t-108.5 -100t-75.5 -169t-32.5 -234.5zM596 1851l2 15h342l88 -273l-4 -20h-272z" />
<glyph unicode="&#xd3;" d="M111 549q0 193 51 361.5t150.5 292.5t243.5 195.5t331 71.5q129 0 224 -42t158.5 -117.5t95.5 -182t32 -235.5q0 -199 -53.5 -369t-152.5 -294t-243.5 -194.5t-326.5 -70.5q-127 0 -222.5 42t-160 119t-96 184.5t-31.5 238.5zM494 596q-2 -59 5 -111.5t26.5 -91.5 t53 -61.5t87.5 -24.5q86 -2 149.5 46t106.5 125t64.5 170t25.5 181q2 47 0 98.5t-17.5 95.5t-50.5 73.5t-100 33.5q-72 2 -133.5 -30.5t-108.5 -100t-75.5 -169t-32.5 -234.5zM745 1571l5 20l182 273h342l-2 -15l-254 -278h-273z" />
<glyph unicode="&#xd4;" d="M111 549q0 193 51 361.5t150.5 292.5t243.5 195.5t331 71.5q129 0 224 -42t158.5 -117.5t95.5 -182t32 -235.5q0 -199 -53.5 -369t-152.5 -294t-243.5 -194.5t-326.5 -70.5q-127 0 -222.5 42t-160 119t-96 184.5t-31.5 238.5zM494 596q-2 -59 5 -111.5t26.5 -91.5 t53 -61.5t87.5 -24.5q86 -2 149.5 46t106.5 125t64.5 170t25.5 181q2 47 0 98.5t-17.5 95.5t-50.5 73.5t-100 33.5q-72 2 -133.5 -30.5t-108.5 -100t-75.5 -169t-32.5 -234.5zM496 1567l2 14l323 279h254l238 -279l-2 -14h-336l-60 80l-92 -80h-327z" />
<glyph unicode="&#xd5;" d="M111 549q0 193 51 361.5t150.5 292.5t243.5 195.5t331 71.5q129 0 224 -42t158.5 -117.5t95.5 -182t32 -235.5q0 -199 -53.5 -369t-152.5 -294t-243.5 -194.5t-326.5 -70.5q-127 0 -222.5 42t-160 119t-96 184.5t-31.5 238.5zM494 596q-2 -59 5 -111.5t26.5 -91.5 t53 -61.5t87.5 -24.5q86 -2 149.5 46t106.5 125t64.5 170t25.5 181q2 47 0 98.5t-17.5 95.5t-50.5 73.5t-100 33.5q-72 2 -133.5 -30.5t-108.5 -100t-75.5 -169t-32.5 -234.5zM575 1681q35 55 74 100.5t81 71t89 30.5t96 -19q25 -12 47.5 -24.5t45 -16.5t44 6t44.5 47 l176 -98q-29 -55 -69 -103.5t-88 -78t-101 -33.5t-109 30q-18 12 -38.5 22.5t-42 11.5t-44 -10t-43.5 -44z" />
<glyph unicode="&#xd6;" d="M111 549q0 193 51 361.5t150.5 292.5t243.5 195.5t331 71.5q129 0 224 -42t158.5 -117.5t95.5 -182t32 -235.5q0 -199 -53.5 -369t-152.5 -294t-243.5 -194.5t-326.5 -70.5q-127 0 -222.5 42t-160 119t-96 184.5t-31.5 238.5zM494 596q-2 -59 5 -111.5t26.5 -91.5 t53 -61.5t87.5 -24.5q86 -2 149.5 46t106.5 125t64.5 170t25.5 181q2 47 0 98.5t-17.5 95.5t-50.5 73.5t-100 33.5q-72 2 -133.5 -30.5t-108.5 -100t-75.5 -169t-32.5 -234.5zM508 1563l49 276h332l-49 -276h-332zM961 1563l49 276h333l-49 -276h-333z" />
<glyph unicode="&#xd7;" horiz-adv-x="851" d="M70 496l202 180l-133 170l267 233l131 -166l182 166l207 -215l-205 -184l145 -182l-266 -238l-143 180l-187 -168z" />
<glyph unicode="&#xd8;" d="M47 -131l8 45l152 238q-47 70 -71.5 174t-24.5 221q0 195 51 363.5t150.5 292.5t243.5 195.5t331 71.5q88 0 162 -18l73 111h320l-10 -52l-140 -215q51 -70 77 -177t26 -230q0 -195 -52.5 -364t-151.5 -292.5t-243.5 -195.5t-326.5 -72q-49 0 -92.5 6t-84.5 17l-75 -119 h-322zM502 608l342 525h-17q-72 0 -123 -33t-87.5 -89.5t-60.5 -132t-38 -159.5q-4 -29 -9 -56.5t-7 -54.5zM651 307q8 -2 29 -2q63 0 114.5 33t89.5 88t64.5 131t42.5 162q4 29 7 62.5t6 68.5z" />
<glyph unicode="&#xd9;" horiz-adv-x="1445" d="M168 448.5q0 137.5 25 278.5l124 707h383l-125 -707q-10 -66 -19 -138.5t0 -134t44 -102.5t115 -41t130 43t80.5 106.5t47 136.5t26.5 130l125 707h383l-125 -707q-25 -141 -73.5 -278.5t-133.5 -245t-213.5 -173t-308.5 -65.5q-182 0 -285.5 65.5t-151.5 173t-48 245z M645 1823l2 14h342l88 -272l-4 -21h-272z" />
<glyph unicode="&#xda;" horiz-adv-x="1445" d="M168 448.5q0 137.5 25 278.5l124 707h383l-125 -707q-10 -66 -19 -138.5t0 -134t44 -102.5t115 -41t130 43t80.5 106.5t47 136.5t26.5 130l125 707h383l-125 -707q-25 -141 -73.5 -278.5t-133.5 -245t-213.5 -173t-308.5 -65.5q-182 0 -285.5 65.5t-151.5 173t-48 245z M766 1536l4 20l182 273h342l-2 -14l-254 -279h-272z" />
<glyph unicode="&#xdb;" horiz-adv-x="1445" d="M168 448.5q0 137.5 25 278.5l124 707h383l-125 -707q-10 -66 -19 -138.5t0 -134t44 -102.5t115 -41t130 43t80.5 106.5t47 136.5t26.5 130l125 707h383l-125 -707q-25 -141 -73.5 -278.5t-133.5 -245t-213.5 -173t-308.5 -65.5q-182 0 -285.5 65.5t-151.5 173t-48 245z M528 1538l2 14l324 279h254l238 -279l-3 -14h-335l-60 80l-92 -80h-328z" />
<glyph unicode="&#xdc;" horiz-adv-x="1445" d="M168 448.5q0 137.5 25 278.5l124 707h383l-125 -707q-10 -66 -19 -138.5t0 -134t44 -102.5t115 -41t130 43t80.5 106.5t47 136.5t26.5 130l125 707h383l-125 -707q-25 -141 -73.5 -278.5t-133.5 -245t-213.5 -173t-308.5 -65.5q-182 0 -285.5 65.5t-151.5 173t-48 245z M535 1546l49 277h331l-49 -277h-331zM987 1546l49 277h334l-49 -277h-334z" />
<glyph unicode="&#xdd;" horiz-adv-x="1263" d="M125 1403l6 33h412l116 -344l58 -195h4l141 203l232 336h424l-7 -33l-649 -852l-98 -551h-385l98 551zM678 1536l4 20l182 273h342l-2 -14l-254 -279h-272z" />
<glyph unicode="&#xde;" horiz-adv-x="1269" d="M59 0l252 1434h389l-34 -199h188q154 0 245 -47t135 -121t50 -165t-10 -181q-20 -115 -71.5 -207t-126.5 -157.5t-170 -101.5t-206 -36h-213l-38 -219h-390zM543 530h188q39 0 69.5 21.5t52 55.5t34 76t12.5 83q0 57 -23.5 102t-76.5 45h-189z" />
<glyph unicode="&#xdf;" horiz-adv-x="980" d="M-6 0l182 1038q39 217 166 312.5t309 95.5q86 0 162 -27.5t127 -84t70.5 -139.5t-4.5 -194q-6 -29 -18.5 -60.5t-29 -63t-39 -59t-49.5 -44.5q39 -31 61.5 -75t31 -97t2 -113.5t-22.5 -123.5q-27 -94 -79 -167t-123.5 -120t-158.5 -69.5t-182 -16.5l56 313q72 4 113.5 50 t51 100.5t-19.5 98.5t-98 44l57 324h10q41 0 65.5 32.5t30 70.5t-9 70.5t-51.5 32.5q-27 0 -46 -15t-26 -52l-94 -543l-92 -518h-352z" />
<glyph unicode="&#xe0;" horiz-adv-x="1044" d="M70 367q0 106 26.5 216.5t85 200.5t149.5 148.5t220 58.5q63 0 114.5 -25.5t73.5 -93.5l49 103h285l-172 -975h-285l-12 104q-47 -66 -106.5 -91t-122.5 -25q-84 0 -142.5 30.5t-94.5 83t-52 121t-16 144.5zM410 1374l2 15h342l88 -273l-4 -20h-273zM428 430 q-4 -59 15.5 -98t62.5 -39q31 0 54.5 18.5t39.5 47t25.5 62.5t13.5 64q6 31 8 66t-4 64.5t-21.5 50t-46.5 20.5q-37 0 -64.5 -27.5t-44.5 -66.5t-26.5 -84t-11.5 -78z" />
<glyph unicode="&#xe1;" horiz-adv-x="1044" d="M70 367q0 106 26.5 216.5t85 200.5t149.5 148.5t220 58.5q63 0 114.5 -25.5t73.5 -93.5l49 103h285l-172 -975h-285l-12 104q-47 -66 -106.5 -91t-122.5 -25q-84 0 -142.5 30.5t-94.5 83t-52 121t-16 144.5zM428 430q-4 -59 15.5 -98t62.5 -39q31 0 54.5 18.5t39.5 47 t25.5 62.5t13.5 64q6 31 8 66t-4 64.5t-21.5 50t-46.5 20.5q-37 0 -64.5 -27.5t-44.5 -66.5t-26.5 -84t-11.5 -78zM528 1098l4 20l183 273h342l-2 -15l-254 -278h-273z" />
<glyph unicode="&#xe2;" horiz-adv-x="1044" d="M70 367q0 106 26.5 216.5t85 200.5t149.5 148.5t220 58.5q63 0 114.5 -25.5t73.5 -93.5l49 103h285l-172 -975h-285l-12 104q-47 -66 -106.5 -91t-122.5 -25q-84 0 -142.5 30.5t-94.5 83t-52 121t-16 144.5zM317 1098l2 14l285 279h223l211 -279l-2 -14h-297l-51 80 l-82 -80h-289zM428 430q-4 -59 15.5 -98t62.5 -39q31 0 54.5 18.5t39.5 47t25.5 62.5t13.5 64q6 31 8 66t-4 64.5t-21.5 50t-46.5 20.5q-37 0 -64.5 -27.5t-44.5 -66.5t-26.5 -84t-11.5 -78z" />
<glyph unicode="&#xe3;" horiz-adv-x="1044" d="M70 367q0 106 26.5 216.5t85 200.5t149.5 148.5t220 58.5q63 0 114.5 -25.5t73.5 -93.5l49 103h285l-172 -975h-285l-12 104q-47 -66 -106.5 -91t-122.5 -25q-84 0 -142.5 30.5t-94.5 83t-52 121t-16 144.5zM385 1204q33 55 71 99.5t80 70t87 29.5t94 -19q23 -12 45 -24 t43.5 -16.5t43 6t44.5 47.5l172 -99q-27 -53 -65.5 -100t-86 -76.5t-100.5 -34t-106 30.5q-16 12 -37 22.5t-42.5 11.5t-43 -10.5t-41.5 -43.5zM428 430q-4 -59 15.5 -98t62.5 -39q31 0 54.5 18.5t39.5 47t25.5 62.5t13.5 64q6 31 8 66t-4 64.5t-21.5 50t-46.5 20.5 q-37 0 -64.5 -27.5t-44.5 -66.5t-26.5 -84t-11.5 -78z" />
<glyph unicode="&#xe4;" horiz-adv-x="1044" d="M70 367q0 106 26.5 216.5t85 200.5t149.5 148.5t220 58.5q63 0 114.5 -25.5t73.5 -93.5l49 103h285l-172 -975h-285l-12 104q-47 -66 -106.5 -91t-122.5 -25q-84 0 -142.5 30.5t-94.5 83t-52 121t-16 144.5zM358 1106l41 252h277l-41 -252h-277zM428 430q-4 -59 15.5 -98 t62.5 -39q31 0 54.5 18.5t39.5 47t25.5 62.5t13.5 64q6 31 8 66t-4 64.5t-21.5 50t-46.5 20.5q-37 0 -64.5 -27.5t-44.5 -66.5t-26.5 -84t-11.5 -78zM735 1106l41 252h279l-41 -252h-279z" />
<glyph unicode="&#xe5;" horiz-adv-x="1044" d="M70 367q0 106 26.5 216.5t85 200.5t149.5 148.5t220 58.5q63 0 114.5 -25.5t73.5 -93.5l49 103h285l-172 -975h-285l-12 104q-47 -66 -106.5 -91t-122.5 -25q-84 0 -142.5 30.5t-94.5 83t-52 121t-16 144.5zM428 430q-4 -59 15.5 -98t62.5 -39q31 0 54.5 18.5t39.5 47 t25.5 62.5t13.5 64q6 31 8 66t-4 64.5t-21.5 50t-46.5 20.5q-37 0 -64.5 -27.5t-44.5 -66.5t-26.5 -84t-11.5 -78zM479 1233q0 39 18.5 79t55.5 71.5t90 52t123 20.5q55 0 94 -14.5t65.5 -38t39 -54t12.5 -63.5q0 -41 -19.5 -80t-56.5 -71.5t-90 -52t-121 -19.5 q-111 0 -161 52t-50 118zM668 1257q0 -8 2 2.5t2 32.5q0 16 -2 8t-2 -43z" />
<glyph unicode="&#xe6;" horiz-adv-x="1474" d="M70 367q0 106 26.5 216.5t85 200.5t149.5 148.5t220 58.5q63 0 114.5 -25.5t73.5 -93.5l49 103h213q63 18 144 18q127 0 204.5 -45t110.5 -113.5t25 -147.5t-53.5 -147.5t-125 -113.5t-190.5 -45h-155q-10 -70 7 -96.5t54 -26.5q39 0 62.5 20.5t39.5 49.5l269 -78 q-53 -131 -159 -198.5t-259 -67.5q-68 0 -127 16h-232l-12 104q-47 -66 -106.5 -91t-122.5 -25q-84 0 -142.5 30.5t-94.5 83t-52 121t-16 144.5zM434 430q0 -23 3 -46.5t11.5 -44t21.5 -33.5t36 -13q43 0 71.5 31.5t44 74.5t21.5 87t6 67t-3 46.5t-12 43t-23.5 31.5 t-35.5 12q-37 0 -64.5 -28.5t-43.5 -69.5t-24.5 -85t-8.5 -73zM997 590h82q94 0 95 65q0 25 -18.5 38.5t-49.5 13.5q-33 0 -63.5 -22.5t-45.5 -94.5z" />
<glyph unicode="&#xe7;" horiz-adv-x="915" d="M66 371q0 125 31.5 237.5t97 198.5t169 137t244.5 51q92 0 155.5 -28.5t103.5 -76.5t58.5 -113.5t20.5 -139.5l-315 -53q-8 55 -23.5 75.5t-44.5 22.5t-54.5 -21.5t-44 -60.5t-28.5 -83t-10 -91q0 -53 14.5 -93t48.5 -40q68 0 103 100l311 -49q-53 -135 -136 -225 t-210 -121l-27 -51q53 -6 88 -29.5t53.5 -56.5t19.5 -71t-13 -71q-25 -53 -70 -91t-101 -59.5t-117.5 -26.5t-118 6.5t-103.5 39t-74 72.5l125 127q18 -16 47 -27.5t56.5 -16.5t51 0t34.5 21q20 37 -24 61.5t-155 22.5l93 144q-135 29 -195.5 131t-60.5 248z" />
<glyph unicode="&#xe8;" horiz-adv-x="925" d="M59 498q14 100 53.5 190t104 158.5t153.5 108.5t205 40q94 0 163 -25.5t112 -66.5t61.5 -93t16.5 -105q-2 -59 -24.5 -118t-66.5 -106t-111 -75.5t-159 -28.5h-178q-8 -35 -3 -58.5t18.5 -38t32 -20.5t36.5 -6q39 0 62.5 20.5t39.5 49.5l279 -78q-51 -129 -156.5 -197.5 t-261.5 -68.5q-109 0 -187.5 36.5t-125.5 104t-63.5 163t-0.5 214.5zM348 1378l2 15h342l88 -273l-4 -20h-272zM424 606h98q84 0 92 56q6 29 -14 45t-57 16q-33 0 -70 -22.5t-49 -94.5z" />
<glyph unicode="&#xe9;" horiz-adv-x="925" d="M59 498q14 100 53.5 190t104 158.5t153.5 108.5t205 40q94 0 163 -25.5t112 -66.5t61.5 -93t16.5 -105q-2 -59 -24.5 -118t-66.5 -106t-111 -75.5t-159 -28.5h-178q-8 -35 -3 -58.5t18.5 -38t32 -20.5t36.5 -6q39 0 62.5 20.5t39.5 49.5l279 -78q-51 -129 -156.5 -197.5 t-261.5 -68.5q-109 0 -187.5 36.5t-125.5 104t-63.5 163t-0.5 214.5zM424 606h98q84 0 92 56q6 29 -14 45t-57 16q-33 0 -70 -22.5t-49 -94.5zM467 1096l4 20l182 273h342l-2 -15l-254 -278h-272z" />
<glyph unicode="&#xea;" horiz-adv-x="925" d="M59 498q14 100 53.5 190t104 158.5t153.5 108.5t205 40q94 0 163 -25.5t112 -66.5t61.5 -93t16.5 -105q-2 -59 -24.5 -118t-66.5 -106t-111 -75.5t-159 -28.5h-178q-8 -35 -3 -58.5t18.5 -38t32 -20.5t36.5 -6q39 0 62.5 20.5t39.5 49.5l279 -78q-51 -129 -156.5 -197.5 t-261.5 -68.5q-109 0 -187.5 36.5t-125.5 104t-63.5 163t-0.5 214.5zM256 1096l2 14l272 279h215l201 -279l-2 -14h-282l-52 80l-78 -80h-276zM424 606h98q84 0 92 56q6 29 -14 45t-57 16q-33 0 -70 -22.5t-49 -94.5z" />
<glyph unicode="&#xeb;" horiz-adv-x="925" d="M59 498q14 100 53.5 190t104 158.5t153.5 108.5t205 40q94 0 163 -25.5t112 -66.5t61.5 -93t16.5 -105q-2 -59 -24.5 -118t-66.5 -106t-111 -75.5t-159 -28.5h-178q-8 -35 -3 -58.5t18.5 -38t32 -20.5t36.5 -6q39 0 62.5 20.5t39.5 49.5l279 -78q-51 -129 -156.5 -197.5 t-261.5 -68.5q-109 0 -187.5 36.5t-125.5 104t-63.5 163t-0.5 214.5zM270 1104l39 256h271l-39 -256h-271zM424 606h98q84 0 92 56q6 29 -14 45t-57 16q-33 0 -70 -22.5t-49 -94.5zM639 1104l41 256h270l-39 -256h-272z" />
<glyph unicode="&#xec;" horiz-adv-x="487" d="M27 0l172 975h350l-172 -975h-350zM139 1397l2 14h326l86 -276l-2 -21h-277z" />
<glyph unicode="&#xed;" horiz-adv-x="487" d="M27 0l172 975h350l-172 -975h-350zM231 1104l5 20l157 273h316l-2 -15l-195 -278h-281z" />
<glyph unicode="&#xee;" horiz-adv-x="487" d="M23 1112l2 14l270 287h211l196 -287l-2 -14h-278l-49 82l-78 -82h-272zM27 0l172 975h350l-172 -975h-350z" />
<glyph unicode="&#xef;" horiz-adv-x="487" d="M27 0l172 975h350l-172 -975h-350zM98 1133l49 284h265l-50 -284h-264zM430 1133l49 284h269l-50 -284h-268z" />
<glyph unicode="&#xf0;" horiz-adv-x="952" d="M35 367q0 106 35.5 209.5t103.5 184.5t165 131t222 50q20 0 41 -4q16 -4 35.5 -9t34.5 -16q-14 33 -34 59.5t-44 51.5l-39 -55l-158 86l43 59q-35 12 -73.5 21.5t-81.5 13.5l110 291q63 -4 125 -16.5t119 -34.5l57 79l158 -86l-61 -82q76 -72 116.5 -158.5t54 -185 t4 -207t-33.5 -225.5q-23 -109 -68 -208t-112.5 -174.5t-157.5 -121t-207 -45.5q-92 0 -159.5 32t-110.5 85t-63.5 125t-20.5 150zM378 369q3 -41 18 -69t46 -28q33 0 58.5 28t44 69t27 89t5 89t-19.5 68.5t-49 27.5q-31 0 -55.5 -27.5t-42 -68.5t-26.5 -89t-6 -89z" />
<glyph unicode="&#xf1;" horiz-adv-x="1085" d="M47 0l172 975h307l17 -101q41 66 109.5 93.5t138.5 27.5q90 0 141 -44t73.5 -110.5t22.5 -143t-12 -144.5l-98 -553h-355l99 555q10 66 -3.5 101.5t-54.5 35.5q-35 0 -62.5 -29.5t-41.5 -107.5l-99 -555h-354zM371 1225q35 55 73.5 100t80.5 70.5t89.5 31t96.5 -19.5 q25 -12 47 -24.5t44.5 -16.5t44 6t44.5 47l176 -98q-29 -55 -69 -103.5t-88 -78t-101 -33.5t-109 31q-18 12 -38.5 22t-42 11t-44 -10t-43.5 -44z" />
<glyph unicode="&#xf2;" horiz-adv-x="1001" d="M80 389q4 113 41 221.5t105.5 194.5t168 138t228.5 52q94 0 163.5 -32.5t113.5 -89t65.5 -130t21.5 -155.5q0 -111 -34.5 -219.5t-103.5 -194.5t-170 -139t-235 -53q-96 0 -165.5 31.5t-114.5 86t-66.5 129t-17.5 160.5zM395 1380l2 15h342l88 -273l-4 -20h-272zM420 383 q2 -43 24.5 -66.5t51.5 -23.5q33 0 61.5 28.5t49 73.5t29.5 98.5t5 100.5q-2 43 -21.5 65.5t-50.5 22.5q-35 0 -62.5 -30.5t-48 -76t-30.5 -97.5t-8 -95z" />
<glyph unicode="&#xf3;" horiz-adv-x="995" d="M74 389q4 113 41 221.5t105.5 194.5t167.5 138t228 52q94 0 164 -32.5t114 -89t65.5 -130t21.5 -155.5q0 -111 -35 -219.5t-103.5 -194.5t-170 -139t-234.5 -53q-96 0 -165.5 31.5t-114.5 86t-66.5 129t-17.5 160.5zM414 383q2 -43 24 -66.5t51 -23.5q33 0 62 28.5 t49.5 73.5t29.5 98.5t5 100.5q-2 43 -21.5 65.5t-50.5 22.5q-35 0 -62.5 -30.5t-48 -76t-30.5 -97.5t-8 -95zM465 1100l4 20l182 273h342l-2 -15l-254 -278h-272z" />
<glyph unicode="&#xf4;" horiz-adv-x="995" d="M74 389q4 113 41 221.5t105.5 194.5t167.5 138t228 52q94 0 164 -32.5t114 -89t65.5 -130t21.5 -155.5q0 -111 -35 -219.5t-103.5 -194.5t-170 -139t-234.5 -53q-96 0 -165.5 31.5t-114.5 86t-66.5 129t-17.5 160.5zM256 1106l2 14l279 277h219l205 -277l-3 -14h-288 l-52 80l-79 -80h-283zM414 383q2 -43 24 -66.5t51 -23.5q33 0 62 28.5t49.5 73.5t29.5 98.5t5 100.5q-2 43 -21.5 65.5t-50.5 22.5q-35 0 -62.5 -30.5t-48 -76t-30.5 -97.5t-8 -95z" />
<glyph unicode="&#xf5;" horiz-adv-x="999" d="M80 389q4 113 41 221.5t105.5 194.5t168 138t228.5 52q94 0 163.5 -32.5t113.5 -89t65.5 -130t21.5 -155.5q0 -111 -34.5 -219.5t-103.5 -194.5t-170 -139t-235 -53q-96 0 -165.5 31.5t-114.5 86t-66.5 129t-17.5 160.5zM322 1214q35 55 73.5 100.5t80.5 71t89 30.5 t97 -19q25 -12 47 -24.5t44.5 -16.5t44 6t44.5 47l176 -98q-29 -55 -69 -103.5t-88 -78t-101 -33.5t-109 30q-18 12 -38.5 22.5t-42 11.5t-44 -10t-43.5 -44zM420 383q2 -43 24.5 -66.5t51.5 -23.5q33 0 61.5 28.5t49 73.5t29.5 98.5t5 100.5q-2 43 -21.5 65.5t-50.5 22.5 q-35 0 -62.5 -30.5t-48 -76t-30.5 -97.5t-8 -95z" />
<glyph unicode="&#xf6;" horiz-adv-x="995" d="M74 389q4 113 41 221.5t105.5 194.5t167.5 138t228 52q94 0 164 -32.5t114 -89t65.5 -130t21.5 -155.5q0 -111 -35 -219.5t-103.5 -194.5t-170 -139t-234.5 -53q-96 0 -165.5 31.5t-114.5 86t-66.5 129t-17.5 160.5zM272 1104l41 280h279l-41 -280h-279zM414 383 q2 -43 24 -66.5t51 -23.5q33 0 62 28.5t49.5 73.5t29.5 98.5t5 100.5q-2 43 -21.5 65.5t-50.5 22.5q-35 0 -62.5 -30.5t-48 -76t-30.5 -97.5t-8 -95zM653 1104l41 280h281l-41 -280h-281z" />
<glyph unicode="&#xf7;" horiz-adv-x="831" d="M55 532l56 312h792l-55 -312h-793zM229 180l47 277h326l-47 -277h-326zM360 922l48 276h325l-47 -276h-326z" />
<glyph unicode="&#xf8;" horiz-adv-x="1001" d="M66 -121l8 45l90 172q-43 51 -63.5 129t-20.5 162q0 113 37 222.5t105.5 195.5t170 138t230.5 52h22l55 105h295l-8 -51l-90 -166q47 -53 68.5 -133t21.5 -164q0 -111 -34.5 -218.5t-103.5 -193.5t-170 -139t-235 -53h-26l-56 -103h-296zM439 417.5q-1 -34.5 3 -62 t18.5 -45t39.5 -17.5q37 0 61.5 30.5t39.5 73.5t21.5 88t6.5 74q0 47 -13.5 85t-48.5 38q-25 0 -44 -17.5t-34.5 -45t-25.5 -62.5t-17 -70q-6 -35 -7 -69.5z" />
<glyph unicode="&#xf9;" horiz-adv-x="1013" d="M104 268.5q0 75.5 13 143.5l98 563h356l-100 -565q-20 -127 59 -127q35 0 63 29.5t42 107.5l98 555h354l-172 -975h-307l-16 100q-41 -66 -109.5 -93t-138.5 -27q-90 0 -141 41.5t-75 106.5t-24 140.5zM403 1382l3 15h342l88 -273l-5 -20h-272z" />
<glyph unicode="&#xfa;" horiz-adv-x="1013" d="M104 268.5q0 75.5 13 143.5l98 563h356l-100 -565q-20 -127 59 -127q35 0 63 29.5t42 107.5l98 555h354l-172 -975h-307l-16 100q-41 -66 -109.5 -93t-138.5 -27q-90 0 -141 41.5t-75 106.5t-24 140.5zM524 1104l4 20l183 273h342l-2 -15l-254 -278h-273z" />
<glyph unicode="&#xfb;" horiz-adv-x="1013" d="M104 268.5q0 75.5 13 143.5l98 563h356l-100 -565q-20 -127 59 -127q35 0 63 29.5t42 107.5l98 555h354l-172 -975h-307l-16 100q-41 -66 -109.5 -93t-138.5 -27q-90 0 -141 41.5t-75 106.5t-24 140.5zM307 1104l2 14l297 281h230l211 -281l-3 -14h-303l-53 80l-84 -80 h-297z" />
<glyph unicode="&#xfc;" horiz-adv-x="1013" d="M104 268.5q0 75.5 13 143.5l98 563h356l-100 -565q-20 -127 59 -127q35 0 63 29.5t42 107.5l98 555h354l-172 -975h-307l-16 100q-41 -66 -109.5 -93t-138.5 -27q-90 0 -141 41.5t-75 106.5t-24 140.5zM293 1102l47 272h299l-47 -272h-299zM748 1102l47 272h303l-47 -272 h-303z" />
<glyph unicode="&#xfd;" horiz-adv-x="966" d="M-61 -459l4 25l319 538l-205 846l4 25h361l65 -313l21 -193h6l88 195l176 311h355l-5 -29l-839 -1405h-350zM453 1104l4 20l182 273h342l-2 -15l-254 -278h-272z" />
<glyph unicode="&#xfe;" horiz-adv-x="1083" d="M-35 -461l334 1895h352l-94 -537q47 53 102.5 74.5t106.5 21.5q82 0 137 -30.5t89 -81t47.5 -115t13.5 -131.5q0 -166 -39 -289t-102.5 -204t-144.5 -120.5t-165 -37.5q-61 2 -113.5 23.5t-74.5 74.5l-97 -543h-352zM474 394q3 -44 20.5 -72.5t50.5 -28.5t60.5 28.5 t47 72.5t28.5 94.5t6 94.5t-20.5 72.5t-52.5 28.5t-61.5 -28.5t-45 -72.5t-27.5 -94.5t-6 -94.5z" />
<glyph unicode="&#xff;" horiz-adv-x="966" d="M-61 -459l4 25l319 538l-205 846l4 25h361l65 -313l21 -193h6l88 195l176 311h355l-5 -29l-839 -1405h-350zM242 1122l49 279h297l-49 -279h-297zM702 1122l50 279h301l-49 -279h-302z" />
<glyph unicode="&#x152;" horiz-adv-x="1818" d="M59 551q0 190 51.5 354t151.5 286t248.5 190.5t343.5 68.5q84 0 160 -16h952l-55 -318h-602l-43 -242h569l-57 -321h-570l-41 -231h602l-57 -322h-952q-39 -8 -91.5 -14t-97.5 -6q-127 0 -223 39.5t-160.5 114.5t-96.5 180.5t-32 236.5zM451 596q0 -133 47 -218t143 -85 q39 0 83 4t101 41l133 762q-37 31 -71.5 39t-71.5 8q-80 0 -147.5 -42t-115.5 -116t-74.5 -175t-26.5 -218z" />
<glyph unicode="&#x153;" horiz-adv-x="1458" d="M80 389q0 113 36 221.5t104.5 194.5t168.5 138t229 52q78 0 140.5 -29.5t89.5 -93.5q53 63 128 96t159 33q127 0 203.5 -46t110.5 -115.5t24.5 -149.5t-55.5 -148.5t-126 -114.5t-190 -46h-176q-12 -70 15.5 -96.5t64.5 -26.5q39 0 62.5 20.5t41.5 49.5l268 -78 q-53 -131 -158.5 -200.5t-258.5 -69.5q-82 0 -143.5 26.5t-98.5 91.5q-59 -59 -127 -87.5t-148 -28.5q-96 0 -164.5 32.5t-113.5 89t-65.5 130t-20.5 155.5zM439 417.5q-1 -34.5 5.5 -62t20.5 -45t39 -17.5q57 0 92 72.5t35 203.5q0 43 -12.5 78t-47.5 35q-25 0 -45 -17.5 t-35.5 -45t-26.5 -62.5t-18 -70q-6 -35 -7 -69.5zM965 608h104q80 0 92 56q6 29 -13.5 45t-53.5 16q-16 0 -36 -5t-38.5 -17.5t-33.5 -35t-21 -59.5z" />
<glyph unicode="&#x178;" horiz-adv-x="1261" d="M125 1403l6 33h412l116 -344l58 -195h4l141 203l232 336h424l-7 -33l-649 -852l-98 -551h-385l98 551zM471 1536l47 266h311l-47 -266h-311zM918 1536l47 266h311l-47 -266h-311z" />
<glyph unicode="&#x2c6;" horiz-adv-x="858" d="M141 1145l2 14l324 279h254l237 -279l-2 -14h-335l-60 80l-92 -80h-328z" />
<glyph unicode="&#x2dc;" horiz-adv-x="702" d="M236 1450q35 55 73.5 100t80.5 71t89 31t96 -20q25 -12 47.5 -24.5t45 -16.5t44 6.5t44.5 47.5l176 -99q-29 -55 -69 -103t-88 -78t-101 -34t-109 31q-18 12 -38.5 22.5t-42 11.5t-44 -10.5t-43.5 -44.5z" />
<glyph unicode="&#x2000;" horiz-adv-x="941" />
<glyph unicode="&#x2001;" horiz-adv-x="1883" />
<glyph unicode="&#x2002;" horiz-adv-x="941" />
<glyph unicode="&#x2003;" horiz-adv-x="1883" />
<glyph unicode="&#x2004;" horiz-adv-x="627" />
<glyph unicode="&#x2005;" horiz-adv-x="470" />
<glyph unicode="&#x2006;" horiz-adv-x="313" />
<glyph unicode="&#x2007;" horiz-adv-x="313" />
<glyph unicode="&#x2008;" horiz-adv-x="235" />
<glyph unicode="&#x2009;" horiz-adv-x="376" />
<glyph unicode="&#x200a;" horiz-adv-x="104" />
<glyph unicode="&#x2010;" horiz-adv-x="792" d="M78 457l55 309h666l-56 -309h-665z" />
<glyph unicode="&#x2011;" horiz-adv-x="792" d="M78 457l55 309h666l-56 -309h-665z" />
<glyph unicode="&#x2012;" horiz-adv-x="792" d="M78 457l55 309h666l-56 -309h-665z" />
<glyph unicode="&#x2013;" horiz-adv-x="921" d="M94 547l53 301h797l-53 -301h-797z" />
<glyph unicode="&#x2014;" horiz-adv-x="1077" d="M100 549l54 299h950l-53 -299h-951z" />
<glyph unicode="&#x2018;" horiz-adv-x="512" d="M150 954l268 484h260l-182 -484h-346z" />
<glyph unicode="&#x2019;" horiz-adv-x="542" d="M170 952l182 484h346l-268 -484h-260z" />
<glyph unicode="&#x201a;" horiz-adv-x="520" d="M-100 -268l182 483h371l-269 -483h-284z" />
<glyph unicode="&#x201c;" horiz-adv-x="921" d="M150 952l268 484h272l-194 -484h-346zM559 952l252 484h276l-182 -484h-346z" />
<glyph unicode="&#x201d;" horiz-adv-x="952" d="M170 952l182 484h346l-252 -484h-276zM567 952l195 484h346l-268 -484h-273z" />
<glyph unicode="&#x201e;" horiz-adv-x="948" d="M-100 -268l182 483h371l-269 -483h-284zM285 -268l225 483h371l-312 -483h-284z" />
<glyph unicode="&#x2022;" horiz-adv-x="540" d="M57 649q0 66 23.5 122t64.5 96t95.5 62.5t113.5 22.5q92 0 148.5 -58t56.5 -157q0 -68 -24.5 -122t-65.5 -94t-95.5 -61.5t-111.5 -21.5q-92 0 -148.5 56.5t-56.5 154.5z" />
<glyph unicode="&#x2026;" horiz-adv-x="1345" d="M-4 0l57 326h353l-58 -326h-352zM432 0l57 326h353l-58 -326h-352zM870 0l58 326h352l-57 -326h-353z" />
<glyph unicode="&#x202f;" horiz-adv-x="376" />
<glyph unicode="&#x2039;" horiz-adv-x="694" d="M102 676l312 457h372l-309 -457l146 -459h-369z" />
<glyph unicode="&#x203a;" horiz-adv-x="704" d="M47 217l305 459l-147 457h373l149 -457l-311 -459h-369z" />
<glyph unicode="&#x205f;" horiz-adv-x="470" />
<glyph unicode="&#x20ac;" horiz-adv-x="1351" d="M70 453l43 243h653l-43 -243h-164q16 -68 57 -107t115 -39q98 0 165 58.5t105 160.5l340 -77q-94 -225 -262 -353.5t-407 -128.5q-240 0 -366 130t-142 356h-94zM121 748l43 243h92q92 225 264 353.5t418 128.5q242 0 359.5 -126t134.5 -356l-351 -67q-14 94 -58 152.5 t-144 58.5q-80 0 -134.5 -39t-93.5 -105h166l-43 -243h-653z" />
<glyph unicode="&#x2122;" horiz-adv-x="1441" d="M170 1212l39 222h530l-39 -222h-133l-71 -403h-267l72 403h-131zM692 809l111 627h262l90 -170l145 170h269l-111 -627h-250l58 321l-97 -149h-129l-45 149l-57 -321h-246z" />
<glyph unicode="&#x25fc;" horiz-adv-x="972" d="M0 0v973h973v-973h-973z" />
<glyph unicode="&#xfb01;" horiz-adv-x="1165" d="M49 0l125 707h-119l47 268h119l15 82q20 123 93.5 211t169 134t200 49t188.5 -46l-115 -287q-12 14 -38.5 23.5t-55.5 5.5t-53.5 -26.5t-32.5 -69.5l-14 -76h632l-172 -975h-350l125 707h-281l-124 -707h-359zM879 1081l61 353h350l-61 -353h-350z" />
<glyph unicode="&#xfb02;" horiz-adv-x="1165" d="M49 0l125 707h-119l47 268h119l15 82q20 123 93.5 211t169 134t200 49t188.5 -46l-115 -287q-12 14 -38.5 23.5t-55.5 5.5t-53.5 -26.5t-32.5 -69.5l-14 -76h182l-47 -268h-181l-124 -707h-359zM688 0l252 1434h350l-252 -1434h-350z" />
</font>
</defs>
</svg>
