<?xml version="1.0" standalone="no"?>
<!DOCTYPE svg PUBLIC "-//W3C//DTD SVG 1.1//EN" "http://www.w3.org/Graphics/SVG/1.1/DTD/svg11.dtd" >
<svg xmlns="http://www.w3.org/2000/svg">
<metadata></metadata>
<defs>
<font id="gabriel_sansbold" horiz-adv-x="1658" >
<font-face units-per-em="2048" ascent="1536" descent="-512" />
<missing-glyph horiz-adv-x="559" />
<glyph horiz-adv-x="2048" />
<glyph horiz-adv-x="2048" />
<glyph unicode="&#xd;" horiz-adv-x="2048" />
<glyph unicode=" "  horiz-adv-x="559" />
<glyph unicode="&#x09;" horiz-adv-x="559" />
<glyph unicode="&#xa0;" horiz-adv-x="559" />
<glyph unicode="!" horiz-adv-x="538" d="M125 0v279h272v-279h-272zM125 358v1076h274v-1076h-274z" />
<glyph unicode="&#x22;" horiz-adv-x="657" d="M27 809v629h237v-629h-237zM362 809v629h238v-629h-238z" />
<glyph unicode="#" horiz-adv-x="1378" d="M-4 414v243h260l41 197h-219v250h268l74 362h244l-72 -362h291l75 362h238l-76 -362h207v-250h-260l-39 -197h215v-243h-266l-82 -414h-238l84 414h-292l-82 -414h-246l86 414h-211zM475 643h334l45 227h-332z" />
<glyph unicode="$" horiz-adv-x="1527" d="M18 440l279 33q6 -63 35.5 -108.5t75 -76t101.5 -47t114 -24.5v404q-98 4 -202 18t-189 54t-140 115t-55 198q0 121 53 202.5t137 133t188.5 77t207.5 33.5v166h223v-166q98 -6 195.5 -27.5t176 -68.5t130 -125t57.5 -197l-279 -28q-4 51 -30.5 89t-66.5 63.5t-88 40.5 t-95 24v-387q121 -8 229.5 -30t191.5 -67t132 -118.5t49 -186.5q0 -92 -39 -166.5t-103.5 -130t-148.5 -92.5t-174 -53q-31 -4 -65.5 -8t-71.5 -9v-165h-223v170q-104 8 -207 34.5t-188 79.5t-141 138t-69 208zM326 1006q2 -47 26.5 -77t64.5 -47.5t93 -25.5t113 -10v379 q-49 -6 -102.5 -19.5t-97.5 -39t-71.5 -64.5t-25.5 -96zM846 217q49 6 102 18.5t98.5 34t77 54t35.5 79.5q4 59 -20.5 97.5t-69.5 61t-103.5 32.5t-119.5 14v-391z" />
<glyph unicode="%" horiz-adv-x="1531" d="M14 1112q0 63 21.5 124.5t64.5 109t107.5 77t150.5 29.5t150.5 -29.5t107.5 -78t64.5 -108.5t21.5 -124q0 -66 -21.5 -126t-64.5 -108.5t-107.5 -77t-150.5 -28.5t-150.5 29.5t-107.5 78t-64.5 109t-21.5 123.5zM80 -113l999 1565h287l-997 -1565h-289zM248 1112 q0 -49 27.5 -90t82.5 -41q53 0 80 41t27 90t-26.5 90t-80.5 41q-55 0 -82.5 -41t-27.5 -90zM797 322q0 63 21.5 123.5t64.5 107.5t107.5 76.5t150.5 29.5t150.5 -29.5t107.5 -77.5t64.5 -108.5t21.5 -124.5q0 -63 -21.5 -123.5t-64.5 -108.5t-107.5 -76.5t-150.5 -28.5 t-150.5 29.5t-107.5 77.5t-64.5 108.5t-21.5 124.5zM1026 319.5q0 -49.5 29 -90.5t86 -41q55 0 81.5 41t26.5 90.5t-26.5 90.5t-81.5 41q-57 0 -86 -41t-29 -90.5z" />
<glyph unicode="&#x26;" horiz-adv-x="1619" d="M45 455q4 104 71.5 191t172.5 140q-31 20 -51.5 51t-35 65t-20.5 66.5t-6 57.5q0 111 47 190.5t121 133t165 79t179 25.5q106 0 200.5 -25.5t165 -80t112.5 -139.5t42 -201h-254q0 59 -23.5 102t-61.5 69.5t-84 39t-91 12.5q-117 0 -181 -57.5t-64 -149.5q0 -47 25.5 -82 t57.5 -59l568 -445q12 31 20 72t8 129h248q0 -117 -17.5 -202t-55.5 -150l303 -275v-12h-355l-123 102q-98 -72 -210.5 -101.5t-223.5 -29.5q-125 0 -243.5 26t-209.5 83t-145.5 149.5t-50.5 225.5zM315 452.5q-2 -49.5 26 -97.5t83 -85t120.5 -53t132 -14t129 17.5 t116.5 43.5l-473 363q-66 -33 -99 -79t-35 -95.5z" />
<glyph unicode="'" horiz-adv-x="360" d="M41 809v629h238v-629h-238z" />
<glyph unicode="(" horiz-adv-x="708" d="M59 674q0 129 31 257t90.5 246.5t149.5 224t211 185.5l133 -182q-174 -139 -265.5 -325.5t-91.5 -405.5q0 -236 90.5 -411t264.5 -312l-142 -199q-121 80 -209 184.5t-146 225.5t-87 252t-29 260z" />
<glyph unicode=")" horiz-adv-x="727" d="M16 1405l134 182q119 -80 210 -185.5t150 -224t90 -246.5t31 -257t-29 -260t-87 -252t-147 -225.5t-208 -184.5l-142 199q174 137 264.5 312t90.5 411q0 219 -91.5 405.5t-265.5 325.5z" />
<glyph unicode="*" horiz-adv-x="702" d="M-10 1155l57 191l180 -64l-2 184h195l-4 -184l184 64l53 -191l-180 -49l127 -150l-154 -114l-122 164l-121 -164l-156 114l125 150z" />
<glyph unicode="+" horiz-adv-x="958" d="M31 567v219h299v308h256v-308h299v-219h-299v-313h-256v313h-299z" />
<glyph unicode="," horiz-adv-x="466" d="M2 -246l107 504h280l-174 -504h-213z" />
<glyph unicode="-" horiz-adv-x="970" d="M72 487v230h755v-230h-755z" />
<glyph unicode="." horiz-adv-x="428" d="M66 0v246h243v-246h-243z" />
<glyph unicode="/" horiz-adv-x="987" d="M-23 -147l723 1630h265l-723 -1630h-265z" />
<glyph unicode="0" horiz-adv-x="1558" d="M25 711q0 154 48 289t140 234t226 157.5t306 58.5q170 0 303.5 -59.5t225.5 -160t141 -235.5t49 -284q0 -147 -50 -279.5t-143 -233t-226.5 -158.5t-299.5 -58t-300 58t-227 158.5t-143 232.5t-50 280zM307 711q0 -98 30 -186.5t86 -155t138 -106.5t184 -40t183.5 40 t138.5 106.5t87 154.5t30 187q0 100 -30 191t-87 161t-138 109.5t-184 39.5q-102 0 -184 -39.5t-138 -109.5t-86 -161t-30 -191z" />
<glyph unicode="1" horiz-adv-x="813" d="M-29 1036l414 396h291v-1432h-264v1118l-275 -258z" />
<glyph unicode="2" horiz-adv-x="1449" d="M55 221l852 598q51 37 95.5 86t44.5 109q0 61 -40 101t-97.5 63.5t-119 33t-106.5 9.5q-59 0 -119.5 -11.5t-108.5 -38t-80 -74.5t-36 -122h-260q0 137 53 230t139 148.5t193.5 79t216.5 23.5q111 0 224.5 -20.5t205.5 -71.5t151.5 -135t59.5 -211q0 -70 -21.5 -130.5 t-58.5 -112.5t-86 -96t-102 -83l-559 -356l243 22h578v-262h-1178z" />
<glyph unicode="3" horiz-adv-x="1527" d="M23 471h256q6 -84 54 -132t114.5 -73.5t138 -33t127.5 -7.5q51 0 119.5 8.5t131 31t105.5 62.5t43 105q0 63 -40 103t-97 64t-123 32t-115 8h-260v238h260q37 0 94.5 6t110.5 24.5t91 52t38 87.5q0 45 -31.5 77.5t-83 53t-118 28.5t-136.5 8q-74 0 -146.5 -13 t-128.5 -39.5t-90 -67.5t-30 -99h-258q6 133 69.5 221.5t159 140.5t206 73.5t212.5 21.5q106 0 224 -22.5t215.5 -72.5t159 -130t57.5 -197q-2 -45 -19.5 -90t-49.5 -85t-77 -68.5t-100 -38.5q63 -14 115.5 -44t90.5 -71t58.5 -90t20.5 -105q0 -92 -35 -161.5t-93.5 -121 t-132 -86t-151.5 -55.5q-59 -16 -127 -22t-135 -6q-117 0 -239 21.5t-222 76.5t-165.5 148.5t-67.5 238.5z" />
<glyph unicode="4" horiz-adv-x="1492" d="M-4 475l969 928h256v-920h170v-233h-170v-250h-277v250h-833zM346 479h604v418l11 174l-474 -473z" />
<glyph unicode="5" horiz-adv-x="1484" d="M39 434h258q12 -68 52 -110.5t97.5 -67.5t126 -34t138.5 -9q76 0 148.5 17.5t130 49t92 80t34.5 109.5q0 70 -33.5 122t-89 87t-129 52.5t-153.5 19.5q-160 4 -299.5 -29t-225.5 -92l-116 84l73 721h1131v-224h-914l-32 -303q84 35 186 49.5t211 12.5q123 -2 241.5 -31 t213 -89.5t152 -153.5t57.5 -224q0 -135 -66 -229.5t-167 -152.5t-224 -82.5t-240 -22.5q-109 2 -217 20.5t-198.5 67.5t-155 136t-82.5 226z" />
<glyph unicode="6" horiz-adv-x="1538" d="M59 469v483q0 141 69 241.5t194 166.5q92 45 197.5 67.5t217.5 22.5q94 0 188.5 -12.5t178.5 -45t154.5 -89t119.5 -142.5l-190 -121q-35 49 -90.5 85t-117.5 57.5t-127 32t-116 10.5q-74 0 -146.5 -15.5t-130 -48.5t-93 -85t-35.5 -124v-135q33 47 82 80t104 52.5 t110.5 28.5t100.5 9q133 0 260 -27.5t225.5 -89t159 -160t60.5 -239.5q0 -92 -36 -166t-95.5 -129t-135 -94t-155.5 -64q-68 -18 -137.5 -26t-135.5 -8q-63 0 -129.5 7t-132.5 25q-84 25 -159.5 67t-132 99.5t-91.5 129t-35 157.5zM332 496q0 -82 40 -136.5t100 -86t132 -45 t135 -13.5q106 0 183 22.5t128.5 59.5t76 84t24.5 98q0 57 -28.5 107.5t-81 88.5t-129 59.5t-171.5 21.5q-70 0 -142.5 -14.5t-131.5 -46t-97 -81t-38 -118.5z" />
<glyph unicode="7" horiz-adv-x="1374" d="M41 1196v238h1192l84 -189l-856 -1245h-326v8l592 846l264 342h-950z" />
<glyph unicode="8" horiz-adv-x="1581" d="M41 399q-4 53 12.5 108.5t52 105t90 87t128.5 56.5q-113 23 -176.5 96.5t-63.5 177.5q0 131 69.5 215t172 131t218 65.5t208.5 18.5q59 0 131.5 -8t147.5 -27.5t144.5 -51.5t124 -80t87 -112.5t32.5 -150.5q0 -43 -19.5 -86t-53 -81t-78.5 -66.5t-97 -38.5 q74 -16 131.5 -53t94.5 -86.5t55 -105.5t16 -112q-6 -92 -44 -159.5t-96 -114.5t-132 -77t-150.5 -46t-154 -22.5t-143.5 -6.5q-106 0 -227.5 15.5t-224.5 60.5t-175 129t-80 219zM313 424q0 -59 38 -101t98.5 -70t138.5 -41t157 -13q82 0 162 12t143.5 40t102.5 71t39 102 q0 57 -37 100t-98.5 72t-141 43t-163.5 14q-98 0 -178 -15t-138.5 -45t-90.5 -73t-32 -96zM352 1038q0 -49 35 -84.5t91.5 -57.5t128 -32t145.5 -10q76 0 147.5 10t127.5 33t91 58.5t35 84.5q0 59 -46 97.5t-110.5 59t-132 27.5t-112.5 7q-43 0 -112 -7t-132.5 -27.5 t-109.5 -58.5t-46 -100z" />
<glyph unicode="9" horiz-adv-x="1562" d="M45 961q0 131 68.5 224t173 151.5t226.5 85t226 26.5q113 0 234 -27.5t220 -87t162.5 -151.5t63.5 -219v-482q0 -129 -61.5 -226t-162.5 -160.5t-229 -94.5t-264 -31q-100 0 -194 16.5t-177 51.5t-150.5 91t-114.5 138l190 144q78 -111 195.5 -157t261.5 -46 q82 0 160.5 17.5t139 51t97.5 85t37 120.5v133q-33 -47 -82 -79.5t-104.5 -53t-110.5 -29t-100 -8.5q-133 0 -260.5 28t-225.5 89.5t-158.5 159.5t-60.5 240zM328 952q0 -57 28.5 -107t80.5 -88t128 -59.5t172 -21.5q70 0 142.5 14.5t132 46t97.5 80.5t38 119q0 82 -40 136 t-100.5 86t-132.5 45.5t-135 13.5q-106 0 -184 -23t-128 -59.5t-74.5 -83.5t-24.5 -99z" />
<glyph unicode=":" horiz-adv-x="434" d="M72 0v266h243v-266h-243zM72 711v266h243v-266h-243z" />
<glyph unicode=";" horiz-adv-x="466" d="M6 -246l105 496h274l-168 -496h-211zM109 711v266h243v-266h-243z" />
<glyph unicode="&#x3c;" horiz-adv-x="792" d="M-4 618v46l442 405h320v-12l-449 -416l449 -414v-12h-322z" />
<glyph unicode="=" horiz-adv-x="974" d="M43 369v229h844v-229h-844zM43 692v230h844v-230h-844z" />
<glyph unicode="&#x3e;" horiz-adv-x="813" d="M29 215v12l448 414l-448 416v12h325l437 -405v-46l-437 -403h-325z" />
<glyph unicode="?" horiz-adv-x="1376" d="M29 936q0 135 53 231.5t139 157.5t195.5 91t222.5 30q115 0 233.5 -24.5t214 -82t152.5 -147.5t49 -221q-10 -94 -43 -155.5t-82 -99.5t-114.5 -57.5t-139.5 -31.5q-35 -8 -68.5 -16.5t-62 -29t-46 -59.5t-17.5 -106v-66h-258v60q0 127 34.5 202.5t89 119.5t122 64.5 t135.5 37.5q37 8 70.5 19t60 26.5t43 38t20.5 57.5q6 76 -31.5 125t-99 77.5t-133.5 40t-131 11.5q-68 0 -133.5 -15.5t-117.5 -50.5t-85 -90t-33 -137h-239zM457 0v264h262v-264h-262z" />
<glyph unicode="@" horiz-adv-x="1875" d="M35 604q0 203 71.5 356.5t191.5 258t275.5 158t321.5 53.5q184 0 342 -50.5t274.5 -151t183 -253t66.5 -354.5q0 -123 -24.5 -221.5t-72.5 -168t-117.5 -107.5t-160.5 -38q-31 0 -66.5 8t-66 30.5t-52 59.5t-21.5 97q-16 -47 -52 -81t-79 -56.5t-87 -33t-77 -10.5 q-111 0 -207 37t-167 103.5t-111 160t-40 203.5q0 111 41 204t112 161.5t166 106.5t204 38q43 0 86 -12t82 -33.5t69.5 -50.5t46.5 -62l17 105l192 -27v-702q0 -25 12.5 -35t28.5 -6q27 6 48.5 36.5t36 77t22.5 102.5t8 114q0 168 -46 283.5t-131 186t-202 102.5t-258 32 q-117 0 -229.5 -40t-201.5 -119t-143.5 -194.5t-54.5 -267.5q0 -166 54.5 -280.5t142.5 -184t198.5 -100.5t223.5 -31q61 0 137 12.5t154 59.5l94 -178q-104 -61 -202.5 -82t-188.5 -21q-158 0 -308.5 46t-270.5 144.5t-192.5 250t-72.5 364.5zM600 606q0 -55 17.5 -106 t53.5 -91t90 -65t126 -25q70 0 123 24t88 65t53 94t18 114q0 57 -17 108.5t-52 89.5t-87 60.5t-124 22.5t-126 -24.5t-90 -65.5t-54.5 -93t-18.5 -108z" />
<glyph unicode="A" d="M-47 0l731 1442h248l727 -1442h-313l-177 344h-735l-176 -344h-305zM553 582h498l-144 309l-98 264l-107 -268z" />
<glyph unicode="B" horiz-adv-x="1492" d="M102 0v1434h742q104 0 193 -25t153.5 -75t100.5 -128t36 -184q0 -33 -10 -68.5t-30.5 -69.5t-50.5 -63.5t-69 -50.5q59 -16 104.5 -51t76 -80t46 -96t15.5 -101q0 -121 -46 -204.5t-123 -136t-174 -77t-200 -24.5h-764zM379 236h487q51 0 99.5 10t85 33.5t58 61.5 t21.5 95t-22.5 95t-60 60.5t-85 32t-96.5 9.5h-487v-397zM379 862h481q82 2 138.5 37t56.5 127q0 49 -18.5 82t-47 52.5t-66.5 28.5t-77 9h-467v-336z" />
<glyph unicode="C" horiz-adv-x="1511" d="M23 721q0 164 57 301t158.5 237.5t242 155.5t305.5 55q104 0 207 -24.5t193 -78.5t162.5 -141t117.5 -210l-235 -84q-37 84 -87 139t-108.5 89t-123 47.5t-126.5 13.5q-104 0 -191 -37t-149.5 -103.5t-97.5 -158t-35 -201.5q0 -111 35 -204t97.5 -160.5t149.5 -105.5 t191 -38q63 0 127 15.5t122.5 50t108.5 92t87 143.5l248 -78q-53 -129 -128 -219t-165 -145.5t-192 -81t-208 -25.5q-166 0 -306 56.5t-241.5 158t-158.5 239.5t-57 302z" />
<glyph unicode="D" horiz-adv-x="1552" d="M82 0v1438h672q160 0 292 -54.5t226 -151.5t146 -228.5t52 -284.5q0 -154 -52 -285t-146 -228t-226.5 -151.5t-291.5 -54.5h-672zM373 242h385q96 0 175 35.5t135 98t87 147.5t31 186q0 100 -30 188t-86 153.5t-135 103.5t-177 38h-385v-950z" />
<glyph unicode="E" horiz-adv-x="1341" d="M100 0v1434h1147v-244h-872v-356h837v-236h-837v-354h872v-244h-1147z" />
<glyph unicode="F" horiz-adv-x="1308" d="M100 0v1434h1145v-248h-858v-357h813v-245h-813v-584h-287z" />
<glyph unicode="G" horiz-adv-x="1601" d="M27 713q0 164 56 302t157.5 238.5t242 156.5t305.5 56q100 0 197.5 -22.5t184.5 -72.5t159 -129t119 -191l-236 -80q-37 72 -86 119t-104 74.5t-115.5 38.5t-118.5 11q-104 0 -191 -36.5t-149.5 -103t-97.5 -159t-35 -200.5q0 -109 35 -201t97.5 -157.5t149.5 -102.5 t191 -37q57 0 121 9.5t121 31t104.5 59t75.5 95.5v178h-508v231h762v-456q-45 -111 -116.5 -187t-161.5 -122t-191.5 -65.5t-206.5 -19.5q-166 0 -306 54.5t-241.5 151.5t-157.5 233.5t-56 302.5z" />
<glyph unicode="H" horiz-adv-x="1599" d="M102 0v1434h287v-594h772v594h285v-1434h-285v594h-772v-594h-287z" />
<glyph unicode="I" horiz-adv-x="540" d="M102 0v1434h285v-1434h-285z" />
<glyph unicode="J" horiz-adv-x="1599" d="M43 733h266q0 -141 39 -239.5t101.5 -160t142.5 -88t160 -26.5q84 0 158.5 30t131 89t89 148t32.5 208v504h-618v236h901v-740q0 -156 -48 -287t-138.5 -226t-219.5 -149.5t-288 -54.5q-158 0 -288 52.5t-224.5 149.5t-145.5 237.5t-51 316.5z" />
<glyph unicode="K" horiz-adv-x="1593" d="M102 0v1434h283v-738l277 293l509 445h357v-15l-709 -639l752 -764v-16h-348l-605 606l-233 -209v-397h-283z" />
<glyph unicode="L" horiz-adv-x="1306" d="M100 0v1434h289v-1188h856v-246h-1145z" />
<glyph unicode="M" horiz-adv-x="1923" d="M102 0v1434h277l559 -736l561 736h270v-1434h-284v797l10 211l-481 -629h-158l-479 622l10 -215v-786h-285z" />
<glyph unicode="N" horiz-adv-x="1667" d="M102 0v1434h254l744 -863l157 -223l7 2l-25 271v813h274v-1434h-278l-746 883l-124 196l-11 -2l27 -227v-850h-279z" />
<glyph unicode="O" horiz-adv-x="1644" d="M37 723q0 162 56.5 298t157.5 234.5t239.5 152.5t302.5 54q166 0 304 -54t238.5 -152.5t156.5 -234.5t56 -298q0 -164 -56 -300t-156.5 -234.5t-238.5 -153.5t-304 -55q-164 0 -302.5 55t-239.5 153.5t-157.5 234.5t-56.5 300zM324 723q0 -109 34.5 -200t96 -157.5 t148 -104.5t190.5 -38t191 38t148.5 104.5t96.5 157.5t35 200q0 106 -35 198.5t-96.5 158t-148.5 103.5t-191 38t-190.5 -38t-148 -103.5t-96 -158t-34.5 -198.5z" />
<glyph unicode="P" horiz-adv-x="1458" d="M100 0v1434h707q125 0 229.5 -30t180 -90.5t117.5 -152.5t42 -217q0 -129 -45 -223t-124 -155.5t-183 -91.5t-221 -30h-420v-444h-283zM383 682h422q63 0 117.5 14.5t93.5 45t60.5 79.5t21.5 123q0 70 -22.5 117t-62.5 75.5t-92.5 40t-113.5 11.5h-424v-506z" />
<glyph unicode="Q" horiz-adv-x="1660" d="M37 723q0 162 56.5 298t156.5 234.5t238.5 152.5t304.5 54q164 0 303 -54t239.5 -152.5t156.5 -234.5t56 -298q0 -127 -39 -252t-114 -217l227 -236v-18h-276l-105 106q-88 -78 -205.5 -102t-242.5 -24q-166 0 -304.5 55t-238.5 153.5t-156.5 234.5t-56.5 300zM322 723 q0 -109 33.5 -199t96 -155.5t149.5 -102.5t192 -37q68 0 135 11.5t127 52.5l-285 289v12h301l131 -139q37 51 49.5 124.5t12.5 143.5q0 106 -35 197.5t-97.5 157t-148.5 102.5t-190 37t-191.5 -37t-150 -102.5t-96 -157t-33.5 -197.5z" />
<glyph unicode="R" horiz-adv-x="1480" d="M102 0v1434h742q47 0 100 -5.5t106.5 -19.5t105.5 -36.5t95 -57.5q76 -61 117 -154.5t41 -189.5t-44 -190.5t-124 -159.5q-104 -82 -268 -91l452 -518v-12h-321l-453 522h-264v-522h-285zM387 756h477q125 0 192.5 51t67.5 166q0 61 -21.5 103t-60 67.5t-90 37 t-108.5 11.5h-457v-436z" />
<glyph unicode="S" horiz-adv-x="1527" d="M10 436l283 35q8 -82 54 -134t111.5 -81t142.5 -40t144 -11q41 0 110 7t135.5 27.5t116.5 59.5t56 100q1 10 1 20q0 58 -30 93q-36 41 -96.5 62.5t-136.5 27.5t-149 10l-97 4q-100 4 -210.5 17.5t-202.5 53.5t-152.5 117t-60.5 206q0 137 65.5 224t165.5 137t221 70.5 t230 22.5q76 0 155.5 -5t155.5 -20.5t144.5 -45t121.5 -77.5t86 -115.5t39 -162.5l-283 -28q-6 74 -52 119t-110 69q-64 25 -134 33q-56 6 -100 6h-21q-43 0 -110.5 -8t-131 -33t-107.5 -69q-42 -41 -42 -108v-9q2 -51 30.5 -82t74.5 -48.5t106.5 -24.5t125.5 -9 q147 -2 291 -16.5t256.5 -58.5t181 -125t68.5 -216q0 -94 -39 -169t-104.5 -131t-150.5 -93t-177 -53q-98 -18 -235 -19q-117 0 -242 19.5t-230.5 72t-179 143.5t-88.5 236z" />
<glyph unicode="T" horiz-adv-x="1415" d="M-18 1190v244h1398v-244h-555v-1190h-286v1190h-557z" />
<glyph unicode="U" horiz-adv-x="1734" d="M100 764v670h285v-670q0 -135 38 -237.5t101.5 -171t143.5 -103.5t163 -35q84 0 166 34t145.5 101.5t103.5 171t40 240.5v670h285v-670q0 -197 -63.5 -344.5t-166 -245.5t-234.5 -147.5t-269 -49.5q-139 0 -271.5 49.5t-236 147.5t-167 245.5t-63.5 344.5z" />
<glyph unicode="V" horiz-adv-x="1705" d="M-35 1425v9h314l446 -910l98 -286l103 288l446 908h314v-13l-728 -1429h-278z" />
<glyph unicode="W" horiz-adv-x="2586" d="M-33 1434h312l391 -895l88 -246l92 246l313 675h209l324 -677l92 -246l88 248l377 895h315l-645 -1442h-258l-332 698l-65 191l-64 -191l-323 -698h-265z" />
<glyph unicode="X" horiz-adv-x="1558" d="M-31 0l631 719l-596 715h340l422 -527l424 527l344 -2l-596 -713l637 -719h-336l-471 539l-471 -539h-328z" />
<glyph unicode="Y" horiz-adv-x="1576" d="M-53 1434h332l477 -635l479 635h332l-668 -875v-559h-287v559z" />
<glyph unicode="Z" horiz-adv-x="1454" d="M-14 217l774 741l274 222h-985v250h1292l74 -203l-809 -768l-252 -207h1049v-252h-1331z" />
<glyph unicode="[" horiz-adv-x="638" d="M100 -219v1818h514v-225h-245v-1358h245v-235h-514z" />
<glyph unicode="\" horiz-adv-x="935" d="M-53 1493h276l723 -1628h-276z" />
<glyph unicode="]" horiz-adv-x="661" d="M-2 14h254v1354h-254v229h514v-1816h-514v233z" />
<glyph unicode="^" horiz-adv-x="1171" d="M-25 682v12l488 744h158l503 -742v-14h-290l-166 252l-125 217l-125 -219l-158 -250h-285z" />
<glyph unicode="_" horiz-adv-x="985" d="M-23 -6h967v-219h-967v219z" />
<glyph unicode="`" horiz-adv-x="485" d="M-8 1421v11h291l151 -279v-12h-217z" />
<glyph unicode="a" horiz-adv-x="1169" d="M27 303q0 84 35.5 141.5t94 92t135.5 50t157 15.5h309q-25 80 -91.5 120t-146.5 45q-12 1 -23 1q-69 0 -133 -26q-76 -30 -118 -87l-168 146q39 61 89 101t107.5 63.5t119 33t124.5 9.5q94 0 186.5 -28t164 -82t116.5 -134t45 -184v-371l10 -209h-237l-25 137 q-51 -80 -147 -118.5t-197 -38.5q-76 0 -149.5 18t-131 57t-92 100.5t-34.5 147.5zM291 303q0 -29 19.5 -48t46 -30.5t57 -15.5t55.5 -4q45 0 93 9t90 32.5t73 62.5t39 101h-324q-27 0 -54.5 -7.5t-49 -20.5t-33.5 -32.5t-12 -46.5z" />
<glyph unicode="b" horiz-adv-x="1253" d="M82 0v1434h264v-582q43 66 122 102.5t159 36.5q121 0 218 -39t164.5 -106.5t104.5 -159.5t37 -199q0 -90 -28.5 -177t-89 -156.5t-151.5 -115.5t-216 -54q-14 -1 -28 -1q-80 1 -158 29q-92 34 -150 123l-27 -135h-221zM336 481q0 -115 74.5 -190.5t201.5 -75.5 q68 0 119 24.5t85 63.5t51.5 87t17.5 97q0 51 -17.5 99.5t-51.5 87.5t-85 62.5t-119 23.5q-66 0 -118 -21.5t-86.5 -59.5t-53 -89t-18.5 -109z" />
<glyph unicode="c" horiz-adv-x="1077" d="M23 483q0 115 36.5 209t105 162t164 104.5t212.5 36.5q78 0 150.5 -17t134 -57t109.5 -103.5t75 -158.5l-228 -38q-18 47 -45.5 74.5t-60.5 43t-68 20.5t-67 5q-121 0 -186.5 -81t-65.5 -200q0 -57 17.5 -107t50 -87t79.5 -58.5t105 -21.5q31 0 64.5 5t65 21.5t61.5 49 t52 86.5l232 -52q-27 -92 -76 -156.5t-112.5 -105.5t-137.5 -59t-149 -18q-113 0 -208 36.5t-164 102t-107.5 159t-38.5 205.5z" />
<glyph unicode="d" horiz-adv-x="1241" d="M31 487q0 111 36.5 203t104.5 158.5t165 104.5t218 38q80 0 159 -34.5t122 -100.5v578h264v-1434h-221l-27 135q-58 -90 -150 -124q-76 -28 -154 -28q-16 0 -32 1q-125 8 -216 52t-151.5 112.5t-89 155.5t-28.5 183zM297 487q0 -49 17.5 -97t51 -87t84.5 -63.5t119 -24.5 q127 0 202 76t75 190q0 57 -18.5 108.5t-53.5 89.5t-87 59.5t-118 21.5q-68 0 -119 -23.5t-84.5 -62.5t-51 -87t-17.5 -100z" />
<glyph unicode="e" horiz-adv-x="1161" d="M25 487q0 113 38.5 205t107.5 159t165 103.5t211 36.5q125 0 225 -43t167 -121.5t97 -189.5q23 -84 23 -181q0 -32 -2 -65h-762q8 -53 35.5 -89t65.5 -57.5t81 -29.5t86 -8q68 0 130.5 19.5t94.5 78.5l216 -76q-39 -74 -91.5 -121t-113 -74.5t-126 -38.5t-132.5 -11 q-113 0 -208 36.5t-164 103t-106.5 159t-37.5 204.5zM295 590h508q-10 45 -36 80t-60.5 56.5t-75.5 32.5t-82 11q-90 0 -162 -46t-92 -134z" />
<glyph unicode="f" horiz-adv-x="860" d="M-25 770v205h183v43q0 94 26.5 173t80.5 136t133 89t184 32h12q60 0 124 -18q70 -21 128 -70l-90 -178q-33 23 -79 33q-38 8 -68 8h-11q-37 -2 -69.5 -15.5t-57.5 -39t-38 -63.5q-11 -33 -11 -74v-13v-43h346v-205h-346v-770h-264v770h-183z" />
<glyph unicode="g" horiz-adv-x="1210" d="M34 266q7 56 45 102t105 66q-47 29 -71.5 82t-24.5 107q0 111 52.5 183.5t132 114.5t173.5 57q82 13 156 13h19l503 -18v-187h-123q51 -35 82 -82t31 -110q0 -98 -48 -161.5t-124 -102.5t-165 -54.5t-169 -15.5q-57 2 -109.5 10.5t-95.5 22.5q-40 16 -70 16q-18 0 -32 -5 q-39 -15 -48 -40.5t11.5 -51.5t75.5 -26h260q82 0 180.5 -3t183.5 -28.5t142 -84t57 -168.5v-8q0 -104 -50 -172q-52 -72 -133 -114t-177 -58.5t-182 -16.5q-57 0 -126 5t-135.5 20.5t-127 41t-106.5 66.5t-70 98q-18 46 -18 106q0 16 1 32q4 49 26.5 87t65.5 77 q-55 37 -79 91q-20 42 -20 85q0 12 2 24zM301 -109q2 -45 49 -73.5t114.5 -43t145.5 -14.5t143.5 15.5t107.5 44.5q38 26 38 64v7q-4 39 -42 57.5t-87 25.5q-43 7 -86 7h-11q-48 -1 -73 -1h-233q-39 -12 -52.5 -36t-13.5 -53zM358 621q0 -49 37 -81t91.5 -47.5t118 -15.5 t117.5 16.5t91 48.5t37 79q0 51 -37 84.5t-91 51t-117.5 17.5t-118 -17.5t-91.5 -51t-37 -84.5z" />
<glyph unicode="h" horiz-adv-x="1228" d="M82 0v1434h266v-570q33 55 101.5 90t140.5 37h14l166 -21q90 -24 160.5 -81.5t115 -153.5t44.5 -237v-498h-269v500q0 72 -18.5 123t-49 82.5t-71.5 47t-84 15.5q-47 0 -91 -15.5t-80 -47t-57.5 -83t-21.5 -120.5v-502h-266z" />
<glyph unicode="i" horiz-adv-x="487" d="M82 0v975h262v-975h-262zM82 1118v316h262v-316h-262z" />
<glyph unicode="j" horiz-adv-x="475" d="M-311 -336l110 201q41 -33 70 -42t45 -9q51 0 84 19.5t51.5 51t25.5 74.5t7 92v924h266v-922q0 -104 -27.5 -191t-82 -148.5t-136.5 -95.5t-190 -34q-55 2 -104.5 20.5t-118.5 59.5zM76 1116v318h268v-318h-268z" />
<glyph unicode="k" horiz-adv-x="1120" d="M82 0v1434h262v-873l133 160l275 254h333v-10l-460 -430l487 -529v-6h-307l-359 389l-100 -94v-295h-264z" />
<glyph unicode="l" horiz-adv-x="483" d="M82 0v1434h264v-1434h-264z" />
<glyph unicode="m" horiz-adv-x="1826" d="M82 0v975h221l23 -119q44 72 118 104q69 31 147 31h9q51 0 101.5 -11t92.5 -33.5t74.5 -56.5t49.5 -79q49 92 136 135t189 45h16q83 1 157 -19q81 -22 141.5 -78t95.5 -152.5t35 -243.5v-498h-265v500q0 147 -49 207.5t-131 62.5q-111 0 -168 -78t-57 -200v-492h-264v494 q0 147 -47.5 211.5t-128.5 66.5q-45 0 -87 -15.5t-74 -50t-50.5 -89t-18.5 -134.5v-483h-266z" />
<glyph unicode="n" horiz-adv-x="1226" d="M82 0v975h227l25 -119q41 68 112.5 100.5t143.5 34.5h14l166 -21q90 -24 160.5 -81.5t115 -153.5t44.5 -237v-498h-269v504q0 72 -18.5 122t-49 81.5t-71.5 46t-84 14.5q-47 0 -91 -14.5t-80 -47t-57.5 -83t-21.5 -119.5v-504h-266z" />
<glyph unicode="o" horiz-adv-x="1193" d="M35 489q0 111 40 204t111.5 160t170 103.5t214.5 36.5q115 0 212.5 -36.5t169 -103.5t111.5 -160t40 -204q0 -113 -40 -206t-111.5 -159.5t-169 -103t-212.5 -36.5q-117 0 -215 36.5t-169.5 103t-111.5 160t-40 205.5zM305 489q0 -61 19.5 -112t55.5 -88t84 -57.5 t107 -20.5q117 0 191 78t74 200q0 123 -74 200t-191 77q-59 0 -107 -20.5t-84 -57.5t-55.5 -87t-19.5 -112z" />
<glyph unicode="p" horiz-adv-x="1253" d="M82 -459v1434h221l27 -135q59 90 150 124q77 28 157 28q15 0 29 -1q125 -8 216 -54t151.5 -115.5t89 -156.5t28.5 -178q0 -106 -38 -198t-106.5 -161t-167 -107.5t-218.5 -38.5q-80 0 -151 27.5t-124 105.5v-574h-264zM336 494q0 -59 18.5 -109.5t53 -88.5t87 -59.5 t117.5 -21.5q68 0 119 23.5t85 61.5t51.5 87t17.5 100q0 49 -17.5 97.5t-51.5 87.5t-85 63.5t-119 24.5q-127 0 -201.5 -76t-74.5 -190z" />
<glyph unicode="q" horiz-adv-x="1239" d="M29 487q0 90 28.5 177.5t89 157t151.5 115.5t216 54q14 1 28 1q80 0 158 -28q91 -34 150 -124l27 135h221v-1434h-264v582q-43 -66 -122 -102.5t-159 -36.5q-121 0 -218 38.5t-165 106.5t-104.5 160t-36.5 198zM295 487q0 -51 17.5 -100t51 -87t85 -61.5t118.5 -23.5 q66 0 118 21.5t87 59.5t53.5 88t18.5 110q0 115 -75 190.5t-202 75.5q-68 0 -119 -24.5t-84.5 -63.5t-51 -87t-17.5 -98z" />
<glyph unicode="r" horiz-adv-x="888" d="M82 0v975h225l17 -115q27 43 59.5 69.5t66 42t67.5 20.5t63 5q37 0 76.5 -6t79.5 -21.5t78 -40t67 -61.5l-117 -176q-35 31 -78 48.5t-90 17.5q-49 0 -93 -17.5t-78 -48t-55.5 -75t-23.5 -99.5v-518h-264z" />
<glyph unicode="s" horiz-adv-x="1105" d="M23 319l253 -4q2 -37 24 -60.5t55.5 -37.5t77.5 -19t91 -5q104 0 165 27.5t65 70.5v5q0 34 -48 58q-52 24 -180 29q-82 4 -168 15.5t-156.5 42t-115.5 87t-45 150.5q0 92 46 152.5t115.5 97.5t152.5 52t159 15q82 0 166 -14t152.5 -51t114.5 -101.5t54 -162.5l-245 -9 q-8 43 -38 69t-67 38t-74.5 16t-60.5 4q-43 0 -81 -6t-67.5 -18t-47 -32.5t-17.5 -47.5q0 -25 20.5 -40t55.5 -24.5t80 -14.5t94 -7q86 -6 173 -18.5t155.5 -46t109.5 -93.5q36 -53 35 -140v-26q-10 -74 -58 -129t-119 -91t-157 -53t-174 -17q-96 0 -183 17t-154.5 57 t-109.5 104.5t-48 160.5z" />
<glyph unicode="t" horiz-adv-x="874" d="M-4 776v199h180v457h260v-457h348v-199h-348v-366q0 -61 26.5 -108.5t73 -72t108 -24.5t126.5 35l70 -193q-70 -35 -128.5 -50t-109.5 -15q-104 0 -183 31.5t-133.5 89t-82 135t-27.5 172.5v366h-180z" />
<glyph unicode="u" horiz-adv-x="1228" d="M80 477v498h268v-504q0 -72 18.5 -122t49 -81.5t71.5 -46t84 -14.5q45 0 90.5 14.5t81 47t57 81.5t21.5 121v504h266v-975h-227l-24 119q-41 -68 -113 -100.5t-143 -34.5h-14q-82 0 -166 22q-90 24 -161 80.5t-115 153t-44 237.5z" />
<glyph unicode="v" horiz-adv-x="1226" d="M-45 967v8h289l245 -477l99 -250l90 246l248 481h293v-8l-527 -969h-217z" />
<glyph unicode="w" horiz-adv-x="1820" d="M-31 963v12h285l246 -547l45 -176l49 176l199 418h192l199 -418l49 -176l45 176l246 547h284v-12l-448 -967h-234l-149 295l-88 231l-88 -229l-150 -297h-233z" />
<glyph unicode="x" horiz-adv-x="1101" d="M-41 0v8l408 477l-402 488v2h318l188 -238l55 -92l58 94l180 236h321v-4l-397 -486l406 -481v-4h-306l-186 215l-74 107l-77 -109l-181 -213h-311z" />
<glyph unicode="y" horiz-adv-x="1218" d="M-59 971v4h299l286 -526l62 -156l61 153l283 529h291v-8l-762 -1409h-291l276 510z" />
<glyph unicode="z" horiz-adv-x="1050" d="M18 195l424 397l195 160h-574v223h828l90 -197l-422 -395l-197 -158h615v-225h-873z" />
<glyph unicode="{" horiz-adv-x="647" d="M2 555v254q45 0 73.5 16.5t44 42t20.5 56t5 59.5v150q0 98 28 178t84 138t145.5 90t211.5 32v-236q-115 0 -160.5 -43t-45.5 -159v-150q0 -92 -30 -177t-112 -126q45 -23 73 -56.5t43 -72.5t20.5 -83t5.5 -87v-141q0 -49 8 -87t29.5 -64t60.5 -39t102 -13v-244 q-121 0 -208 33t-144 92t-84 141t-27 181v141q0 31 -5 61.5t-20.5 55t-44 41t-73.5 16.5z" />
<glyph unicode="|" horiz-adv-x="626" d="M152 -172v1712h260v-1712h-260z" />
<glyph unicode="}" horiz-adv-x="655" d="M-12 1335v236q123 0 212 -32t145 -90t84 -138t28 -178v-150q0 -29 5 -59.5t20.5 -56t44 -42t73.5 -16.5v-254q-45 0 -73.5 -16.5t-44 -41t-20.5 -55t-5 -61.5v-141q0 -98 -27 -180.5t-84 -141.5t-144 -92t-208 -33v244q63 0 102 13t60.5 39t30 63.5t8.5 87.5v141 q0 43 5 87t20.5 83t43 72.5t72.5 56.5q-41 20 -68.5 53t-44 73t-22.5 85t-6 92v150q0 117 -46.5 159.5t-160.5 42.5z" />
<glyph unicode="~" horiz-adv-x="1060" d="M-8 487q20 74 55 123t77 80t90 44.5t97 13.5q57 0 100.5 -18.5t80 -43t73.5 -49.5t80 -39q55 -16 94 18.5t68 104.5l201 -70q-23 -68 -64 -126t-95 -96t-119.5 -51t-135.5 7q-41 12 -73 36.5t-64.5 47.5t-69.5 40t-88 17q-23 0 -58.5 -26.5t-58.5 -85.5z" />
<glyph unicode="&#xa1;" horiz-adv-x="581" d="M127 -446v1075h274v-1075h-274zM129 709v278h272v-278h-272z" />
<glyph unicode="&#xa2;" horiz-adv-x="1077" d="M23 483q0 102 29.5 188.5t83.5 152t132 107.5t174 56v131h203v-131q123 -20 221.5 -96t143.5 -232l-228 -38q-23 57 -59.5 86.5t-77.5 42.5v-527q41 16 76 49t63 99l232 -52q-43 -154 -145.5 -232.5t-225.5 -98.5v-131h-203v131q-92 14 -169.5 56t-133 105.5t-86 148.5 t-30.5 185zM289 483q0 -88 41 -157.5t112 -98.5v518q-74 -29 -113.5 -99.5t-39.5 -162.5z" />
<glyph unicode="&#xa3;" horiz-adv-x="1437" d="M6 539v206h150q-23 47 -37.5 112t-14.5 122q2 123 59.5 209t146.5 141t196.5 81t212.5 26q106 0 213.5 -27t194.5 -86t143.5 -154.5t62.5 -232.5h-250q-2 63 -31.5 115.5t-77.5 87.5t-111.5 54t-133.5 19q-78 0 -142.5 -16t-111.5 -47t-73.5 -75t-26.5 -97 q-2 -41 14.5 -102.5t48.5 -129.5h496v-206h-432q0 -70 -24.5 -146t-86.5 -131q37 18 81 26.5t87 8.5t84 -6t72 -17q80 -25 145.5 -46t124.5 -25t115.5 17.5t116.5 82.5l143 -174q-78 -80 -176.5 -120t-177.5 -40q-78 0 -151 16.5t-144 39.5q-63 16 -124 31.5t-122 15.5 q-55 0 -117.5 -21.5t-136.5 -79.5l-158 191q41 29 78 71.5t63.5 93t38 105.5t0.5 107h-227z" />
<glyph unicode="&#xa4;" horiz-adv-x="1052" d="M-14 328l118 116q-51 102 -47 204t56 198l-127 121l188 188l119 -121q94 41 199.5 40t197.5 -42l123 123l186 -188l-118 -119q47 -98 48 -203.5t-46 -200.5l116 -116l-184 -185l-121 119q-98 -41 -202.5 -39t-198.5 39l-119 -121zM283 647q0 -41 14 -79t42 -67.5t66 -48 t87 -18.5t87.5 18.5t65.5 48t40 67.5t13 79t-13 79t-40 67.5t-65.5 48t-87.5 18.5t-87 -18.5t-66 -48t-42 -67.5t-14 -79z" />
<glyph unicode="&#xa5;" horiz-adv-x="1576" d="M-53 1434h332l323 -433l154 -233l162 244l317 422h332l-520 -676h204v-203h-356v-78h356v-205h-356v-272h-279v272h-366v205h366v78h-366v203h213z" />
<glyph unicode="&#xa6;" horiz-adv-x="624" d="M164 -186v774h256v-774h-256zM164 680v774h256v-774h-256z" />
<glyph unicode="&#xa7;" horiz-adv-x="1232" d="M29 365h268q2 -53 46 -89t109.5 -53.5t141.5 -20.5t140.5 8t107.5 35.5t43 61.5q0 43 -74 63.5t-184 18.5q-92 -2 -187.5 14.5t-172.5 53.5t-126 98t-49 150q0 27 10.5 57.5t31 58t53 51t75.5 37.5q-49 10 -84 31t-56.5 48.5t-30.5 58t-9 61.5q0 98 52 163.5t130 105.5 t170 56.5t170 16.5q80 0 173 -15.5t175 -56.5t138.5 -112.5t60.5 -186.5h-250q4 47 -35 80t-100 50.5t-135 19.5t-136.5 -10.5t-104.5 -39t-42 -65.5q0 -29 24.5 -45t62.5 -24.5t82 -10.5t83 -2q86 0 181.5 -11t173 -45t126.5 -96.5t47 -162.5q0 -31 -12 -61.5t-33.5 -58.5 t-51.5 -49.5t-66 -31.5q47 -14 81.5 -38.5t58 -53.5t35 -60.5t11.5 -58.5q0 -61 -25.5 -112.5t-69.5 -91.5t-104.5 -66.5t-128.5 -38.5q-41 -8 -90 -13.5t-100 -5.5h-34.5t-35.5 3q-72 2 -160 21t-167.5 63.5t-138 117t-68.5 183.5zM350 713q0 -35 39 -57.5t96.5 -33 t125 -10.5t125 11.5t96 33t38.5 54.5q0 39 -38.5 64.5t-96 37.5t-125 12t-125 -12t-96.5 -37.5t-39 -62.5z" />
<glyph unicode="&#xa8;" horiz-adv-x="901" d="M98 1243v234h244v-234h-244zM535 1243v234h243v-234h-243z" />
<glyph unicode="&#xa9;" horiz-adv-x="1605" d="M31 700q0 135 46 267.5t139 235t232.5 166t325.5 63.5t325.5 -63.5t232.5 -166t140.5 -234.5t47.5 -268q0 -137 -47.5 -268t-140.5 -233.5t-232.5 -165t-325.5 -62.5t-325.5 62.5t-232.5 165t-139 233.5t-46 268zM268 700q0 -98 32 -191t94.5 -166t157.5 -118t222 -45 q125 0 220.5 45t160 118t96 166t31.5 191t-31.5 191.5t-96 167.5t-160 119t-220.5 45q-127 0 -222 -45t-157.5 -119t-94.5 -167t-32 -192zM360 700q0 98 36 177t95.5 134.5t135 86t157.5 30.5q57 0 115.5 -14t110 -45t92.5 -78t65 -112l-172 -82q-23 39 -49 61.5t-53 34.5 t-53.5 15t-46.5 3q-37 0 -73 -15t-63.5 -43t-44 -66.5t-16.5 -86.5q0 -47 16.5 -84.5t43 -65.5t62.5 -42t73 -14q47 0 96 23.5t96 100.5l182 -92q-70 -131 -170 -191.5t-202 -60.5q-82 0 -160 31t-138.5 86t-97.5 134t-37 175z" />
<glyph unicode="&#xaa;" horiz-adv-x="757" d="M27 983q0 61 27.5 99t68.5 58.5t91 28t97 7.5h152q-8 49 -48 67.5t-90.5 17.5t-98.5 -18.5t-70 -42.5l-93 113q63 66 140.5 92.5t148.5 26.5q61 0 117.5 -18.5t101.5 -56.5t72 -95.5t27 -133.5v-372h-162l-23 92q-27 -47 -73.5 -70.5t-106.5 -23.5q-121 0 -199.5 59 t-78.5 170zM216 977.5q3 -21.5 29.5 -39.5t69.5 -18q25 0 51.5 5t48 18t37 35.5t21.5 59.5h-164q-51 0 -73.5 -19.5t-19.5 -41z" />
<glyph unicode="&#xab;" horiz-adv-x="958" d="M8 541l285 452h266l-283 -452l283 -455h-266zM375 541l284 452h267l-283 -452l283 -455h-267z" />
<glyph unicode="&#xac;" horiz-adv-x="958" d="M31 494v235h809v-473h-234v238h-575z" />
<glyph unicode="&#xad;" horiz-adv-x="970" d="M72 487v230h755v-230h-755z" />
<glyph unicode="&#xae;" horiz-adv-x="1611" d="M33 694q0 137 46 268.5t139 234.5t232.5 166.5t327.5 63.5q186 0 326.5 -63.5t235 -166.5t140.5 -234.5t46 -268.5t-46 -268t-140.5 -234.5t-235 -166t-326.5 -62.5q-188 0 -327.5 62.5t-232.5 166t-139 234.5t-46 268zM270 694q0 -98 32 -192t95.5 -168t158.5 -119 t222 -45t223.5 45t161 119t96 168t31.5 192t-31.5 192.5t-96 169t-161 120t-223.5 45.5q-135 0 -231 -45.5t-157.5 -120t-90.5 -168.5t-29 -193zM469 324v778h358q61 0 119 -13.5t101 -43t69.5 -77.5t26.5 -118q0 -88 -51.5 -152.5t-124.5 -93.5l184 -246l-31 -34h-196 l-191 266h-43v-266h-221zM690 766h137q45 0 68 22.5t21.5 48t-25 48t-66.5 22.5h-135v-141z" />
<glyph unicode="&#xb0;" horiz-adv-x="589" d="M14 1219q0 59 21.5 104t57.5 74.5t82 45t93 15.5t92.5 -15.5t81 -45t57 -74.5t21.5 -104t-21.5 -104.5t-57 -75t-82 -45t-93.5 -15.5t-93 15.5t-81 45t-56.5 75t-21.5 104.5zM193 1217.5q0 -25.5 18 -48t55 -22.5t55.5 22.5t18.5 48t-17.5 48t-54.5 22.5t-56 -22.5 t-19 -48z" />
<glyph unicode="&#xb1;" horiz-adv-x="921" d="M12 39v237h838v-237h-838zM12 655v234h293v303h250v-303h295v-234h-295v-303h-250v303h-293z" />
<glyph unicode="&#xb2;" horiz-adv-x="794" d="M18 977l445 278l-2 -2q49 35 49 68q0 31 -42 49.5t-93 17t-93 -27t-42 -80.5h-211q4 76 34.5 129t78.5 87t109.5 50.5t129.5 16.5q61 0 124.5 -15.5t114 -46.5t83 -79t32.5 -111q0 -72 -47 -122t-108 -89l-242 -107l170 13h215v-191h-649z" />
<glyph unicode="&#xb3;" horiz-adv-x="876" d="M33 1085h207q0 -55 52 -77.5t124 -22.5q57 0 105 16.5t48 53.5q0 31 -38.5 50t-133.5 19h-96v150h96q164 -2 164 57q0 25 -40 44.5t-118 19.5q-59 0 -106 -16.5t-57 -63.5h-197q6 70 41 117t86 75.5t111.5 42t119.5 13.5q63 0 129 -9.5t120.5 -34t88 -66.5t35.5 -107 q2 -49 -32.5 -91.5t-86.5 -52.5q59 -14 96 -57t37 -90q0 -82 -39.5 -131.5t-100 -76t-131.5 -34.5t-130 -6q-55 2 -116.5 16.5t-114 47t-87 85t-36.5 129.5z" />
<glyph unicode="&#xb4;" horiz-adv-x="489" d="M-8 1141v12l151 279h295v-11l-225 -280h-221z" />
<glyph unicode="&#xb6;" horiz-adv-x="1712" d="M23 893q0 100 34.5 197.5t105 174t175 123t244.5 46.5h1038v-254h-190v-1616h-271v1616h-379v-1616h-270v792q-121 12 -212 62.5t-152.5 124t-92 165t-30.5 185.5z" />
<glyph unicode="&#xb7;" horiz-adv-x="391" d="M43 530v258h262v-258h-262z" />
<glyph unicode="&#xb8;" horiz-adv-x="782" d="M27 -293l127 96q23 -31 55.5 -45t65 -15t58 12.5t36.5 41.5q6 23 -7.5 42.5t-38 30.5t-55 10t-61.5 -19l-62 49l66 192h209l-33 -104q55 -6 92 -28.5t58.5 -55.5t27.5 -71t0 -76q-18 -90 -87.5 -138.5t-153.5 -56.5t-167 25.5t-130 109.5z" />
<glyph unicode="&#xb9;" horiz-adv-x="581" d="M-8 1358l233 201h238v-725h-219v497l-127 -102z" />
<glyph unicode="&#xba;" horiz-adv-x="765" d="M33 1196q0 68 20.5 132.5t61.5 113.5t102.5 78.5t144.5 29.5q82 0 143.5 -30.5t103.5 -80.5t62.5 -113.5t20.5 -129.5q0 -68 -20.5 -131.5t-62.5 -112.5t-103.5 -79.5t-143.5 -30.5q-84 0 -145 30.5t-102 79.5t-61.5 112.5t-20.5 131.5zM238 1197q0 -60 30.5 -110.5 t93.5 -50.5q61 0 91 50.5t30 110.5t-29.5 110.5t-91.5 50.5q-61 0 -92.5 -50.5t-31.5 -110.5z" />
<glyph unicode="&#xbb;" horiz-adv-x="942" d="M-2 86l283 455l-283 452h266l285 -452l-285 -455h-266zM365 86l282 455l-282 452h266l284 -452l-284 -455h-266z" />
<glyph unicode="&#xbc;" horiz-adv-x="1558" d="M0 1233l233 201h238v-725h-219v497l-127 -102zM63 -74l1108 1557h269l-1108 -1557h-269zM717 102v140l489 489h166v-455h96v-174h-96v-102h-198v102h-457zM987 276h187v78v107z" />
<glyph unicode="&#xbd;" horiz-adv-x="1736" d="M45 1225l234 200h237v-725h-219v498l-127 -102zM68 -72l1093 1538h283l-1096 -1538h-280zM893 160l444 272q35 16 40 35.5t5 36.5q0 39 -42 58.5t-92 16t-92 -32t-42 -83.5h-211q4 76 35 129t79 88t109.5 51.5t128.5 16.5q61 0 125 -14.5t114 -45.5t83 -79t33 -115 q0 -72 -47 -122t-109 -89l-242 -107l170 12h215v-190h-649z" />
<glyph unicode="&#xbe;" horiz-adv-x="1640" d="M18 1001h203q0 -55 52.5 -76.5t121.5 -21.5q55 0 103.5 15.5t48.5 52.5q0 31 -39 49t-131 18h-94v148h94q162 -2 162 57q0 25 -40 43.5t-116 18.5q-57 0 -104.5 -15.5t-57.5 -62.5h-192q6 68 40.5 115t84 75.5t109 40.5t118.5 12q63 0 127.5 -9t117 -32.5t86 -65.5 t36.5 -106q2 -49 -32 -90t-85 -51q57 -14 94 -58t37 -87q0 -80 -40 -129t-99.5 -75t-128 -34t-127.5 -6q-53 2 -113.5 16.5t-113 46t-86.5 83t-36 128.5zM150 -74l1187 1557h273l-1188 -1557h-272zM807 102v140l489 489h166v-455h97v-174h-97v-102h-198v102h-457zM1073 270 h191v84v107z" />
<glyph unicode="&#xbf;" horiz-adv-x="1351" d="M47 31q10 94 43 155.5t82 99.5t114.5 57t139.5 32q33 8 67.5 16t63.5 28.5t46.5 59.5t17.5 107v65h258v-59q0 -127 -35 -203t-89.5 -120t-122 -65.5t-134.5 -35.5q-37 -10 -71 -20.5t-60.5 -26t-44 -38t-19.5 -56.5q-6 -76 32 -125t99.5 -78t133 -40t130.5 -11 q68 0 133.5 15t117.5 50t85 90.5t33 137.5h240q0 -135 -53.5 -231.5t-139.5 -158t-195.5 -91t-222.5 -29.5q-115 0 -233.5 24.5t-213.5 81.5t-152.5 147.5t-49.5 221.5zM616 737v264h263v-264h-263z" />
<glyph unicode="&#xc0;" d="M-47 0l731 1442h248l727 -1442h-313l-177 344h-735l-176 -344h-305zM475 1862v10h291l152 -279v-12h-218zM553 582h498l-144 309l-98 264l-107 -268z" />
<glyph unicode="&#xc1;" d="M-47 0l731 1442h248l727 -1442h-313l-177 344h-735l-176 -344h-305zM553 582h498l-144 309l-98 264l-107 -268zM698 1581v12l152 279h295v-10l-225 -281h-222z" />
<glyph unicode="&#xc2;" d="M-47 0l731 1442h248l727 -1442h-313l-177 344h-735l-176 -344h-305zM467 1573v12l281 266h131l274 -266v-12h-242l-100 92l-102 -92h-242zM553 582h498l-144 309l-98 264l-107 -268z" />
<glyph unicode="&#xc3;" d="M-47 0l731 1442h248l727 -1442h-313l-177 344h-735l-176 -344h-305zM455 1647q18 45 42.5 82.5t56.5 62.5t73 34t92 -3q37 -8 71.5 -29.5t67.5 -35t61.5 -6.5t53.5 54l164 -63q-45 -119 -116 -159t-142 -21q-37 10 -73 32.5t-70 33.5t-64.5 0t-61.5 -66zM553 582h498 l-144 309l-98 264l-107 -268z" />
<glyph unicode="&#xc4;" d="M-47 0l731 1442h248l727 -1442h-313l-177 344h-735l-176 -344h-305zM467 1579v233h244v-233h-244zM553 582h498l-144 309l-98 264l-107 -268zM903 1579v233h244v-233h-244z" />
<glyph unicode="&#xc5;" d="M-47 0l731 1442h248l727 -1442h-313l-177 344h-735l-176 -344h-305zM553 582h498l-144 309l-98 264l-107 -268zM575 1718q0 53 20.5 93t53.5 68t75 41t87 13q43 0 85 -13t75 -41t53 -67.5t20 -93.5q0 -53 -20 -93t-53 -66.5t-75 -40t-85 -13.5q-45 0 -87 13.5t-75 40 t-53.5 66.5t-20.5 93zM735 1719.5q0 -23.5 17.5 -44t54.5 -20.5t55.5 20.5t17.5 44t-19.5 44t-53.5 20.5q-37 0 -54.5 -20.5t-17.5 -44z" />
<glyph unicode="&#xc6;" horiz-adv-x="2318" d="M-43 0v10l1063 1424h1204v-242h-844v-358h809v-238h-809v-350h844v-246h-1114v356h-561l-260 -356h-332zM733 608h383v584l-141 -252z" />
<glyph unicode="&#xc7;" horiz-adv-x="1511" d="M31 721q0 162 56 298t156.5 234.5t239 153.5t303.5 55q102 0 204 -24.5t191 -77.5t161.5 -139t115.5 -209l-233 -82q-35 82 -85 137t-108.5 88t-121 46t-124.5 13q-104 0 -190 -36.5t-147.5 -102t-96.5 -156t-35 -198.5q0 -109 35 -201t96.5 -158.5t147.5 -104.5t190 -38 q61 0 125 14.5t121.5 49t107.5 92t85 141.5l245 -76q-47 -115 -110.5 -197.5t-140 -138t-163.5 -86t-179 -38.5l-25 -72q57 -6 95 -26.5t58.5 -49.5t25.5 -64.5t-1 -68.5q-12 -57 -48 -96t-86 -60.5t-107.5 -25.5t-112.5 9t-103.5 44t-76.5 78l120 84q20 -27 52 -40.5 t62 -13.5t54.5 11.5t32.5 36.5q6 18 -5 35.5t-33.5 27.5t-51.5 10t-59 -18l-60 43l58 158q-141 18 -258 81.5t-201 159.5t-130 223t-46 275z" />
<glyph unicode="&#xc8;" horiz-adv-x="1341" d="M100 0v1434h1147v-244h-872v-356h837v-236h-837v-354h872v-244h-1147zM410 1860v10h290l152 -279v-12h-217z" />
<glyph unicode="&#xc9;" horiz-adv-x="1341" d="M100 0v1434h1147v-244h-872v-356h837v-236h-837v-354h872v-244h-1147zM592 1579v12l151 279h295v-10l-225 -281h-221z" />
<glyph unicode="&#xca;" horiz-adv-x="1341" d="M100 0v1434h1147v-244h-872v-356h837v-236h-837v-354h872v-244h-1147zM362 1587v12l281 267h131l275 -267v-12h-242l-100 92l-103 -92h-242z" />
<glyph unicode="&#xcb;" horiz-adv-x="1341" d="M100 0v1434h1147v-244h-872v-356h837v-236h-837v-354h872v-244h-1147zM379 1579v233h244v-233h-244zM815 1579v233h244v-233h-244z" />
<glyph unicode="&#xcc;" horiz-adv-x="540" d="M-88 1862v10h291l151 -279v-12h-217zM102 0v1434h285v-1434h-285z" />
<glyph unicode="&#xcd;" horiz-adv-x="540" d="M102 0v1434h285v-1434h-285zM127 1579v12l152 279h294v-10l-225 -281h-221z" />
<glyph unicode="&#xce;" horiz-adv-x="540" d="M-102 1573v12l280 266h131l275 -266v-12h-242l-100 92l-103 -92h-241zM102 0v1434h285v-1434h-285z" />
<glyph unicode="&#xcf;" horiz-adv-x="540" d="M-96 1573v233h243v-233h-243zM102 0v1434h285v-1434h-285zM340 1573v233h244v-233h-244z" />
<glyph unicode="&#xd0;" horiz-adv-x="1591" d="M-51 625v221h172v592h672q160 0 292 -54.5t226 -151.5t146 -228.5t52 -284.5q0 -154 -52 -285t-146 -228t-226.5 -151.5t-291.5 -54.5h-672v625h-172zM412 242h385q96 0 175 35.5t135 98t87 147.5t31 186q0 100 -30 188t-86 153.5t-135 103.5t-177 38h-385v-346h284v-221 h-284v-383z" />
<glyph unicode="&#xd1;" horiz-adv-x="1667" d="M102 0v1434h254l744 -863l157 -223l7 2l-25 271v813h274v-1434h-278l-746 883l-124 196l-11 -2l27 -227v-850h-279zM459 1665q18 45 42.5 83t56.5 62.5t73 33.5t92 -3q37 -8 71.5 -29.5t67.5 -35t61.5 -6t53.5 54.5l164 -64q-45 -119 -116 -158.5t-142 -21.5 q-37 10 -73 32.5t-69.5 34t-64.5 0t-62 -66.5z" />
<glyph unicode="&#xd2;" horiz-adv-x="1644" d="M37 723q0 162 56.5 298t157.5 234.5t239.5 152.5t302.5 54q166 0 304 -54t238.5 -152.5t156.5 -234.5t56 -298q0 -164 -56 -300t-156.5 -234.5t-238.5 -153.5t-304 -55q-164 0 -302.5 55t-239.5 153.5t-157.5 234.5t-56.5 300zM324 723q0 -109 34.5 -200t96 -157.5 t148 -104.5t190.5 -38t191 38t148.5 104.5t96.5 157.5t35 200q0 106 -35 198.5t-96.5 158t-148.5 103.5t-191 38t-190.5 -38t-148 -103.5t-96 -158t-34.5 -198.5zM510 1876v10h291l151 -278v-13h-217z" />
<glyph unicode="&#xd3;" horiz-adv-x="1644" d="M37 723q0 162 56.5 298t157.5 234.5t239.5 152.5t302.5 54q166 0 304 -54t238.5 -152.5t156.5 -234.5t56 -298q0 -164 -56 -300t-156.5 -234.5t-238.5 -153.5t-304 -55q-164 0 -302.5 55t-239.5 153.5t-157.5 234.5t-56.5 300zM324 723q0 -109 34.5 -200t96 -157.5 t148 -104.5t190.5 -38t191 38t148.5 104.5t96.5 157.5t35 200q0 106 -35 198.5t-96.5 158t-148.5 103.5t-191 38t-190.5 -38t-148 -103.5t-96 -158t-34.5 -198.5zM672 1599v13l151 278h295v-10l-225 -281h-221z" />
<glyph unicode="&#xd4;" horiz-adv-x="1644" d="M37 723q0 162 56.5 298t157.5 234.5t239.5 152.5t302.5 54q166 0 304 -54t238.5 -152.5t156.5 -234.5t56 -298q0 -164 -56 -300t-156.5 -234.5t-238.5 -153.5t-304 -55q-164 0 -302.5 55t-239.5 153.5t-157.5 234.5t-56.5 300zM324 723q0 -109 34.5 -200t96 -157.5 t148 -104.5t190.5 -38t191 38t148.5 104.5t96.5 157.5t35 200q0 106 -35 198.5t-96.5 158t-148.5 103.5t-191 38t-190.5 -38t-148 -103.5t-96 -158t-34.5 -198.5zM467 1587v12l281 267h131l274 -267v-12h-242l-100 92l-102 -92h-242z" />
<glyph unicode="&#xd5;" horiz-adv-x="1644" d="M37 723q0 162 56.5 298t157.5 234.5t239.5 152.5t302.5 54q166 0 304 -54t238.5 -152.5t156.5 -234.5t56 -298q0 -164 -56 -300t-156.5 -234.5t-238.5 -153.5t-304 -55q-164 0 -302.5 55t-239.5 153.5t-157.5 234.5t-56.5 300zM324 723q0 -109 34.5 -200t96 -157.5 t148 -104.5t190.5 -38t191 38t148.5 104.5t96.5 157.5t35 200q0 106 -35 198.5t-96.5 158t-148.5 103.5t-191 38t-190.5 -38t-148 -103.5t-96 -158t-34.5 -198.5zM483 1671q18 45 43 83t56.5 62.5t72.5 34t93 -3.5q37 -8 71.5 -29.5t67.5 -35t61.5 -6t52.5 54.5l164 -64 q-45 -119 -115.5 -158.5t-142.5 -21.5q-37 10 -72.5 32.5t-69.5 34t-64.5 0t-61.5 -66.5z" />
<glyph unicode="&#xd6;" horiz-adv-x="1644" d="M37 723q0 162 56.5 298t157.5 234.5t239.5 152.5t302.5 54q166 0 304 -54t238.5 -152.5t156.5 -234.5t56 -298q0 -164 -56 -300t-156.5 -234.5t-238.5 -153.5t-304 -55q-164 0 -302.5 55t-239.5 153.5t-157.5 234.5t-56.5 300zM324 723q0 -109 34.5 -200t96 -157.5 t148 -104.5t190.5 -38t191 38t148.5 104.5t96.5 157.5t35 200q0 106 -35 198.5t-96.5 158t-148.5 103.5t-191 38t-190.5 -38t-148 -103.5t-96 -158t-34.5 -198.5zM461 1602v233h244v-233h-244zM897 1602v233h244v-233h-244z" />
<glyph unicode="&#xd7;" horiz-adv-x="962" d="M61 406l215 210l-210 211l190 181l205 -213l198 206l166 -167l-204 -213l225 -224l-182 -170l-220 222l-211 -216z" />
<glyph unicode="&#xd8;" horiz-adv-x="1681" d="M72 723q0 162 56 298t157.5 234.5t240 152.5t301.5 54q74 0 148 -12t135 -35l113 178h284l-184 -297q125 -98 192.5 -244.5t67.5 -328.5q0 -164 -56.5 -300t-156.5 -234.5t-238.5 -153.5t-304.5 -55q-76 0 -151.5 12t-138.5 35l-117 -185h-285l193 305 q-123 100 -189.5 248t-66.5 328zM350 723q0 -104 35 -190.5t88 -151.5q129 211 250 406.5t252 408.5q-68 21 -148 21q-104 0 -191 -37t-150.5 -102.5t-99.5 -157t-36 -197.5zM674 250q73 -23 153 -23q104 0 191.5 37t151 103.5t98.5 156.5t35 199q0 104 -34 191t-89 153 q-131 -213 -253 -408.5t-253 -408.5z" />
<glyph unicode="&#xd9;" horiz-adv-x="1734" d="M100 764v670h285v-670q0 -135 38 -237.5t101.5 -171t143.5 -103.5t163 -35q84 0 166 34t145.5 101.5t103.5 171t40 240.5v670h285v-670q0 -197 -63.5 -344.5t-166 -245.5t-234.5 -147.5t-269 -49.5q-139 0 -271.5 49.5t-236 147.5t-167 245.5t-63.5 344.5zM541 1868v10 h290l152 -279v-12h-217z" />
<glyph unicode="&#xda;" horiz-adv-x="1734" d="M100 764v670h285v-670q0 -135 38 -237.5t101.5 -171t143.5 -103.5t163 -35q84 0 166 34t145.5 101.5t103.5 171t40 240.5v670h285v-670q0 -197 -63.5 -344.5t-166 -245.5t-234.5 -147.5t-269 -49.5q-139 0 -271.5 49.5t-236 147.5t-167 245.5t-63.5 344.5zM702 1583v12 l152 279h295v-10l-225 -281h-222z" />
<glyph unicode="&#xdb;" horiz-adv-x="1734" d="M100 764v670h285v-670q0 -135 38 -237.5t101.5 -171t143.5 -103.5t163 -35q84 0 166 34t145.5 101.5t103.5 171t40 240.5v670h285v-670q0 -197 -63.5 -344.5t-166 -245.5t-234.5 -147.5t-269 -49.5q-139 0 -271.5 49.5t-236 147.5t-167 245.5t-63.5 344.5zM496 1589v13 l280 266h131l275 -266v-13h-242l-100 92l-103 -92h-241z" />
<glyph unicode="&#xdc;" horiz-adv-x="1734" d="M100 764v670h285v-670q0 -135 38 -237.5t101.5 -171t143.5 -103.5t163 -35q84 0 166 34t145.5 101.5t103.5 171t40 240.5v670h285v-670q0 -197 -63.5 -344.5t-166 -245.5t-234.5 -147.5t-269 -49.5q-139 0 -271.5 49.5t-236 147.5t-167 245.5t-63.5 344.5zM512 1589v234 h244v-234h-244zM948 1589v234h244v-234h-244z" />
<glyph unicode="&#xdd;" horiz-adv-x="1576" d="M-53 1434h332l477 -635l479 635h332l-668 -875v-559h-287v559zM608 1581v12l152 279h295v-10l-226 -281h-221z" />
<glyph unicode="&#xde;" horiz-adv-x="1523" d="M145 0v1434h283v-224h424q119 -2 223.5 -32.5t181 -90t120.5 -151.5t44 -217q0 -129 -48 -223.5t-128 -154.5t-183.5 -90t-213.5 -30h-420v-221h-283zM428 465h422q129 4 208 63.5t79 192.5q0 66 -22.5 112t-60.5 75.5t-90.5 43t-111.5 13.5h-424v-500z" />
<glyph unicode="&#xdf;" horiz-adv-x="1290" d="M127 0v993q0 100 43 176t112.5 126.5t156.5 76t175 25.5q94 0 184.5 -25.5t159 -77t108.5 -128t34 -181.5q0 -33 -13.5 -68.5t-38 -67.5t-61.5 -58.5t-82 -40.5q80 -16 136.5 -55.5t90 -94.5t46 -121.5t4.5 -138.5q-8 -80 -48 -142.5t-99.5 -107.5t-134.5 -71.5 t-152.5 -35t-153.5 3t-139 42.5v231q61 -41 143 -51t153.5 10.5t122 73.5t50.5 139q0 57 -31 94t-77 58.5t-101.5 30t-102.5 8.5h-155v237h149q37 0 77 6t74 21.5t55.5 42t23.5 65.5q2 47 -17.5 80t-51.5 52.5t-71 28.5t-78 9q-96 0 -158.5 -44t-66.5 -126v-481 q0 -123 1 -260t1 -254h-268z" />
<glyph unicode="&#xe0;" horiz-adv-x="1169" d="M27 303q0 84 35.5 141.5t94 92t135.5 50t157 15.5h309q-25 80 -91.5 120t-146.5 45t-155.5 -24.5t-118.5 -87.5l-168 146q39 61 89 101t107.5 63.5t119 33t124.5 9.5q94 0 186.5 -28t164 -82t116.5 -134t45 -184v-371l10 -209h-237l-25 137q-51 -80 -147 -118.5 t-197 -38.5q-76 0 -149.5 18t-131 57t-92 100.5t-34.5 147.5zM238 1409v10h290l152 -278v-13h-217zM291 303q0 -29 19.5 -48t46 -30.5t57 -15.5t55.5 -4q45 0 93 9t90 32.5t73 62.5t39 101h-324q-27 0 -54.5 -7.5t-49 -20.5t-33.5 -32.5t-12 -46.5z" />
<glyph unicode="&#xe1;" horiz-adv-x="1169" d="M27 303q0 84 35.5 141.5t94 92t135.5 50t157 15.5h309q-25 80 -91.5 120t-146.5 45t-155.5 -24.5t-118.5 -87.5l-168 146q39 61 89 101t107.5 63.5t119 33t124.5 9.5q94 0 186.5 -28t164 -82t116.5 -134t45 -184v-371l10 -209h-237l-25 137q-51 -80 -147 -118.5 t-197 -38.5q-76 0 -149.5 18t-131 57t-92 100.5t-34.5 147.5zM291 303q0 -29 19.5 -48t46 -30.5t57 -15.5t55.5 -4q45 0 93 9t90 32.5t73 62.5t39 101h-324q-27 0 -54.5 -7.5t-49 -20.5t-33.5 -32.5t-12 -46.5zM397 1141v12l152 279h295v-11l-226 -280h-221z" />
<glyph unicode="&#xe2;" horiz-adv-x="1169" d="M27 303q0 84 35.5 141.5t94 92t135.5 50t157 15.5h309q-25 80 -91.5 120t-146.5 45t-155.5 -24.5t-118.5 -87.5l-168 146q39 61 89 101t107.5 63.5t119 33t124.5 9.5q94 0 186.5 -28t164 -82t116.5 -134t45 -184v-371l10 -209h-237l-25 137q-51 -80 -147 -118.5 t-197 -38.5q-76 0 -149.5 18t-131 57t-92 100.5t-34.5 147.5zM203 1137v12l280 266h131l275 -266v-12h-242l-100 92l-103 -92h-241zM291 303q0 -29 19.5 -48t46 -30.5t57 -15.5t55.5 -4q45 0 93 9t90 32.5t73 62.5t39 101h-324q-27 0 -54.5 -7.5t-49 -20.5t-33.5 -32.5 t-12 -46.5z" />
<glyph unicode="&#xe3;" horiz-adv-x="1169" d="M27 303q0 84 35.5 141.5t94 92t135.5 50t157 15.5h309q-25 80 -91.5 120t-146.5 45t-155.5 -24.5t-118.5 -87.5l-168 146q39 61 89 101t107.5 63.5t119 33t124.5 9.5q94 0 186.5 -28t164 -82t116.5 -134t45 -184v-371l10 -209h-237l-25 137q-51 -80 -147 -118.5 t-197 -38.5q-76 0 -149.5 18t-131 57t-92 100.5t-34.5 147.5zM197 1237q18 45 42.5 83t56.5 62.5t73 33.5t92 -3q37 -8 71.5 -29.5t67.5 -35t61.5 -6t53.5 54.5l164 -64q-45 -119 -116 -158.5t-142 -21.5q-37 10 -73 32.5t-70 34t-64.5 0t-61.5 -66.5zM291 303 q0 -29 19.5 -48t46 -30.5t57 -15.5t55.5 -4q45 0 93 9t90 32.5t73 62.5t39 101h-324q-27 0 -54.5 -7.5t-49 -20.5t-33.5 -32.5t-12 -46.5z" />
<glyph unicode="&#xe4;" horiz-adv-x="1169" d="M27 303q0 84 35.5 141.5t94 92t135.5 50t157 15.5h309q-25 80 -91.5 120t-146.5 45t-155.5 -24.5t-118.5 -87.5l-168 146q39 61 89 101t107.5 63.5t119 33t124.5 9.5q94 0 186.5 -28t164 -82t116.5 -134t45 -184v-371l10 -209h-237l-25 137q-51 -80 -147 -118.5 t-197 -38.5q-76 0 -149.5 18t-131 57t-92 100.5t-34.5 147.5zM205 1182v233h244v-233h-244zM291 303q0 -29 19.5 -48t46 -30.5t57 -15.5t55.5 -4q45 0 93 9t90 32.5t73 62.5t39 101h-324q-27 0 -54.5 -7.5t-49 -20.5t-33.5 -32.5t-12 -46.5zM641 1182v233h244v-233h-244z " />
<glyph unicode="&#xe5;" horiz-adv-x="1169" d="M27 303q0 84 35.5 141.5t94 92t135.5 50t157 15.5h309q-25 80 -91.5 120t-146.5 45t-155.5 -24.5t-118.5 -87.5l-168 146q39 61 89 101t107.5 63.5t119 33t124.5 9.5q94 0 186.5 -28t164 -82t116.5 -134t45 -184v-371l10 -209h-237l-25 137q-51 -80 -147 -118.5 t-197 -38.5q-76 0 -149.5 18t-131 57t-92 100.5t-34.5 147.5zM291 303q0 -29 19.5 -48t46 -30.5t57 -15.5t55.5 -4q45 0 93 9t90 32.5t73 62.5t39 101h-324q-27 0 -54.5 -7.5t-49 -20.5t-33.5 -32.5t-12 -46.5zM293 1278q0 53 21.5 93t55 66.5t78 40t91.5 13.5 q45 0 89 -13.5t77.5 -40t54 -66.5t20.5 -93t-20.5 -93t-54 -65.5t-77.5 -39t-89 -13.5q-47 0 -91.5 13.5t-78 39t-55 65.5t-21.5 93zM461 1279q0 -24 18.5 -44.5t55.5 -20.5q39 0 57 20.5t18 44.5t-19 44t-56 20t-55.5 -20t-18.5 -44z" />
<glyph unicode="&#xe6;" horiz-adv-x="1886" d="M27 303q0 84 35.5 141.5t94 92t135.5 50t157 15.5h315q-25 80 -91.5 120t-145 44t-154.5 -25.5t-119 -87.5l-176 115q78 121 195.5 175t244.5 54q51 0 105.5 -9t104.5 -30.5t96 -57.5t81 -89q66 96 162 138t203 42q125 0 225 -43t167 -121.5t97.5 -189.5t20.5 -246h-760 q0 -57 29.5 -97t77 -63.5t103.5 -30.5t111.5 3t100.5 34.5t69 67.5l215 -76q-39 -74 -91 -121t-112.5 -75.5t-126 -39.5t-132.5 -11q-123 0 -218.5 43t-166.5 153q-47 -74 -108.5 -113.5t-124 -58t-119 -22.5t-93.5 -4q-76 0 -149.5 18t-131 57t-92 100.5t-34.5 147.5z M291 303q0 -29 19.5 -48t46 -30.5t57 -15.5t55.5 -4q45 0 93 8t90 29.5t72 61.5t36 106h-320q-27 0 -54.5 -7.5t-49 -20.5t-33.5 -32.5t-12 -46.5zM1020 590h500q-20 92 -93 136t-155 44q-86 0 -155.5 -42t-92.5 -122z" />
<glyph unicode="&#xe7;" horiz-adv-x="1077" d="M23 483q0 115 36.5 209t105 162t164 104.5t212.5 36.5q78 0 150.5 -17t134 -57t109.5 -103.5t75 -158.5l-228 -38q-18 47 -45.5 74.5t-60.5 43t-68 20.5t-67 5q-121 0 -186.5 -81t-65.5 -200q0 -57 17.5 -107t50 -87t79.5 -58.5t105 -21.5q31 0 64.5 5t65 21.5t61.5 49 t52 86.5l232 -52q-23 -78 -62 -136t-90 -99t-110.5 -65.5t-122.5 -32.5l-25 -58q51 -6 88 -27.5t57.5 -52t26.5 -66.5t0 -69q-18 -78 -84.5 -121t-148.5 -50t-161 22.5t-124 97.5l121 84q20 -27 53 -40t63.5 -13t56.5 11t34 36q6 20 -6.5 39.5t-36 31t-54 12.5t-59.5 -16 l-59 43l57 140q-90 14 -166 56t-129 106.5t-82.5 148.5t-29.5 182z" />
<glyph unicode="&#xe8;" horiz-adv-x="1161" d="M25 487q0 113 38.5 205t107.5 159t165 103.5t211 36.5q125 0 225 -43t167 -121.5t97.5 -189.5t20.5 -246h-762q8 -53 35.5 -89t65.5 -57.5t81 -29.5t86 -8q68 0 130.5 19.5t94.5 78.5l216 -76q-39 -74 -91.5 -121t-113 -74.5t-126 -38.5t-132.5 -11q-113 0 -208 36.5 t-164 103t-106.5 159t-37.5 204.5zM246 1415v10h291l151 -278v-12h-217zM295 590h508q-10 45 -36 80t-60.5 56.5t-75.5 32.5t-82 11q-90 0 -162 -46t-92 -134z" />
<glyph unicode="&#xe9;" horiz-adv-x="1161" d="M25 487q0 113 38.5 205t107.5 159t165 103.5t211 36.5q125 0 225 -43t167 -121.5t97.5 -189.5t20.5 -246h-762q8 -53 35.5 -89t65.5 -57.5t81 -29.5t86 -8q68 0 130.5 19.5t94.5 78.5l216 -76q-39 -74 -91.5 -121t-113 -74.5t-126 -38.5t-132.5 -11q-113 0 -208 36.5 t-164 103t-106.5 159t-37.5 204.5zM295 590h508q-10 45 -36 80t-60.5 56.5t-75.5 32.5t-82 11q-90 0 -162 -46t-92 -134zM428 1130v13l152 278h294v-10l-225 -281h-221z" />
<glyph unicode="&#xea;" horiz-adv-x="1161" d="M25 487q0 113 38.5 205t107.5 159t165 103.5t211 36.5q125 0 225 -43t167 -121.5t97.5 -189.5t20.5 -246h-762q8 -53 35.5 -89t65.5 -57.5t81 -29.5t86 -8q68 0 130.5 19.5t94.5 78.5l216 -76q-39 -74 -91.5 -121t-113 -74.5t-126 -38.5t-132.5 -11q-113 0 -208 36.5 t-164 103t-106.5 159t-37.5 204.5zM221 1128v13l281 266h131l274 -266v-13h-241l-101 93l-102 -93h-242zM295 590h508q-10 45 -36 80t-60.5 56.5t-75.5 32.5t-82 11q-90 0 -162 -46t-92 -134z" />
<glyph unicode="&#xeb;" horiz-adv-x="1161" d="M25 487q0 113 38.5 205t107.5 159t165 103.5t211 36.5q125 0 225 -43t167 -121.5t97.5 -189.5t20.5 -246h-762q8 -53 35.5 -89t65.5 -57.5t81 -29.5t86 -8q68 0 130.5 19.5t94.5 78.5l216 -76q-39 -74 -91.5 -121t-113 -74.5t-126 -38.5t-132.5 -11q-113 0 -208 36.5 t-164 103t-106.5 159t-37.5 204.5zM221 1167v234h244v-234h-244zM295 590h508q-10 45 -36 80t-60.5 56.5t-75.5 32.5t-82 11q-90 0 -162 -46t-92 -134zM657 1167v234h244v-234h-244z" />
<glyph unicode="&#xec;" horiz-adv-x="487" d="M-106 1425v11h290l152 -279v-12h-217zM82 0v975h262v-975h-262z" />
<glyph unicode="&#xed;" horiz-adv-x="487" d="M82 0v975h262v-975h-262zM94 1143v12l152 279h295v-11l-226 -280h-221z" />
<glyph unicode="&#xee;" horiz-adv-x="487" d="M-125 1161v13l281 266h131l274 -266v-13h-242l-100 92l-102 -92h-242zM82 0v975h262v-975h-262z" />
<glyph unicode="&#xef;" horiz-adv-x="487" d="M-96 1192v233h243v-233h-243zM82 0v975h262v-975h-262zM283 1192v233h243v-233h-243z" />
<glyph unicode="&#xf0;" horiz-adv-x="1204" d="M66 487q0 84 25.5 164t75.5 146.5t126 115t178 66.5q41 6 85 3t84 -12t75 -22.5t57 -27.5q-16 33 -38.5 60.5t-46 49t-45 36.5t-32.5 21l-63 -71l-156 108l43 52q-29 14 -75 27.5t-80 17.5l49 215q152 -20 270 -74l88 104l152 -112l-80 -88q106 -84 174.5 -169 t107.5 -176.5t53.5 -191.5t14.5 -215q0 -117 -36 -215t-102.5 -169t-162.5 -109.5t-219 -38.5q-131 0 -228.5 43t-163 113.5t-98 161.5t-32.5 187zM332 489q0 -51 16.5 -100t48 -88t80 -62.5t111.5 -23.5t111.5 23.5t80 62.5t47 88t15.5 100t-15.5 99.5t-47 87.5t-80 62.5 t-111.5 23.5t-111.5 -23.5t-80 -62.5t-48 -87t-16.5 -100z" />
<glyph unicode="&#xf1;" horiz-adv-x="1226" d="M82 0v975h227l25 -119q41 68 112.5 100.5t143.5 34.5q90 2 180 -21.5t160.5 -81t115 -153.5t44.5 -237v-498h-269v504q0 72 -18.5 122t-49 81.5t-71.5 46t-84 14.5q-47 0 -91 -14.5t-80 -47t-57.5 -83t-21.5 -119.5v-504h-266zM254 1264q18 45 43 82.5t56.5 62.5t72.5 34 t92 -3q37 -8 72 -29.5t67.5 -35t61.5 -6.5t53 54l164 -63q-45 -119 -115.5 -159t-142.5 -21q-37 10 -73 32.5t-69.5 33.5t-64.5 0t-61 -66z" />
<glyph unicode="&#xf2;" horiz-adv-x="1193" d="M35 489q0 111 40 204t111.5 160t170 103.5t214.5 36.5q115 0 212.5 -36.5t169 -103.5t111.5 -160t40 -204q0 -113 -40 -206t-111.5 -159.5t-169 -103t-212.5 -36.5q-117 0 -215 36.5t-169.5 103t-111.5 160t-40 205.5zM272 1421v11h291l152 -279v-12h-217zM305 489 q0 -61 19.5 -112t55.5 -88t84 -57.5t107 -20.5q117 0 191 78t74 200q0 123 -74 200t-191 77q-59 0 -107 -20.5t-84 -57.5t-55.5 -87t-19.5 -112z" />
<glyph unicode="&#xf3;" horiz-adv-x="1193" d="M35 489q0 111 40 204t111.5 160t170 103.5t214.5 36.5q115 0 212.5 -36.5t169 -103.5t111.5 -160t40 -204q0 -113 -40 -206t-111.5 -159.5t-169 -103t-212.5 -36.5q-117 0 -215 36.5t-169.5 103t-111.5 160t-40 205.5zM305 489q0 -61 19.5 -112t55.5 -88t84 -57.5 t107 -20.5q117 0 191 78t74 200q0 123 -74 200t-191 77q-59 0 -107 -20.5t-84 -57.5t-55.5 -87t-19.5 -112zM446 1141v12l152 279h295v-11l-225 -280h-222z" />
<glyph unicode="&#xf4;" horiz-adv-x="1193" d="M35 489q0 111 40 204t111.5 160t170 103.5t214.5 36.5q115 0 212.5 -36.5t169 -103.5t111.5 -160t40 -204q0 -113 -40 -206t-111.5 -159.5t-169 -103t-212.5 -36.5q-117 0 -215 36.5t-169.5 103t-111.5 160t-40 205.5zM231 1153v12l281 267h131l275 -267v-12h-242 l-101 92l-102 -92h-242zM305 489q0 -61 19.5 -112t55.5 -88t84 -57.5t107 -20.5q117 0 191 78t74 200q0 123 -74 200t-191 77q-59 0 -107 -20.5t-84 -57.5t-55.5 -87t-19.5 -112z" />
<glyph unicode="&#xf5;" horiz-adv-x="1193" d="M35 489q0 111 40 204t111.5 160t170 103.5t214.5 36.5q115 0 212.5 -36.5t169 -103.5t111.5 -160t40 -204q0 -113 -40 -206t-111.5 -159.5t-169 -103t-212.5 -36.5q-117 0 -215 36.5t-169.5 103t-111.5 160t-40 205.5zM231 1237q18 45 43 83t56.5 62.5t72.5 33.5t93 -3 q37 -8 71.5 -29.5t67.5 -35t61.5 -6t53.5 54.5l163 -64q-45 -119 -115.5 -158.5t-142.5 -21.5q-37 10 -72.5 32.5t-69.5 34t-64.5 0t-61.5 -66.5zM305 489q0 -61 19.5 -112t55.5 -88t84 -57.5t107 -20.5q117 0 191 78t74 200q0 123 -74 200t-191 77q-59 0 -107 -20.5 t-84 -57.5t-55.5 -87t-19.5 -112z" />
<glyph unicode="&#xf6;" horiz-adv-x="1193" d="M35 489q0 111 40 204t111.5 160t170 103.5t214.5 36.5q115 0 212.5 -36.5t169 -103.5t111.5 -160t40 -204q0 -113 -40 -206t-111.5 -159.5t-169 -103t-212.5 -36.5q-117 0 -215 36.5t-169.5 103t-111.5 160t-40 205.5zM252 1157v229h233v-229h-233zM305 489 q0 -61 19.5 -112t55.5 -88t84 -57.5t107 -20.5q117 0 191 78t74 200q0 123 -74 200t-191 77q-59 0 -107 -20.5t-84 -57.5t-55.5 -87t-19.5 -112zM672 1157v229h233v-229h-233z" />
<glyph unicode="&#xf7;" horiz-adv-x="1060" d="M43 516v242h915v-242h-915zM360 162v241h281v-241h-281zM360 862v242h281v-242h-281z" />
<glyph unicode="&#xf8;" horiz-adv-x="1193" d="M35 489q0 111 40 204t111.5 160t170 103.5t214.5 36.5q78 0 150 -18l88 158h256l-143 -254q86 -68 134 -167.5t48 -222.5q0 -113 -40 -206t-111.5 -159.5t-169 -103t-212.5 -36.5q-37 0 -70.5 4t-68.5 10l-80 -145h-254l131 235q-92 68 -143 170t-51 231zM305 489 q0 -98 51 -172l248 447q-8 0 -16.5 1t-16.5 1q-59 0 -107 -20.5t-84 -57.5t-55.5 -87t-19.5 -112zM551 211h20q117 0 191 78t74 200q0 45 -11.5 84t-31.5 72z" />
<glyph unicode="&#xf9;" horiz-adv-x="1228" d="M80 477v498h268v-504q0 -72 18.5 -122t49 -81.5t71.5 -46t84 -14.5q45 0 90.5 14.5t81 47t57 81.5t21.5 121v504h266v-975h-227l-24 119q-41 -68 -113 -100.5t-143 -34.5q-90 -2 -180.5 21.5t-161 80.5t-114.5 153.5t-44 237.5zM281 1421v11h290l152 -279v-12h-217z" />
<glyph unicode="&#xfa;" horiz-adv-x="1228" d="M80 477v498h268v-504q0 -72 18.5 -122t49 -81.5t71.5 -46t84 -14.5q45 0 90.5 14.5t81 47t57 81.5t21.5 121v504h266v-975h-227l-24 119q-41 -68 -113 -100.5t-143 -34.5q-90 -2 -180.5 21.5t-161 80.5t-114.5 153.5t-44 237.5zM461 1141v12l151 279h295v-11l-225 -280 h-221z" />
<glyph unicode="&#xfb;" horiz-adv-x="1228" d="M80 477v498h268v-504q0 -72 18.5 -122t49 -81.5t71.5 -46t84 -14.5q45 0 90.5 14.5t81 47t57 81.5t21.5 121v504h266v-975h-227l-24 119q-41 -68 -113 -100.5t-143 -34.5q-90 -2 -180.5 21.5t-161 80.5t-114.5 153.5t-44 237.5zM246 1147v12l280 266h131l275 -266v-12 h-242l-100 92l-103 -92h-241z" />
<glyph unicode="&#xfc;" horiz-adv-x="1228" d="M80 477v498h268v-504q0 -72 18.5 -122t49 -81.5t71.5 -46t84 -14.5q45 0 90.5 14.5t81 47t57 81.5t21.5 121v504h266v-975h-227l-24 119q-41 -68 -113 -100.5t-143 -34.5q-90 -2 -180.5 21.5t-161 80.5t-114.5 153.5t-44 237.5zM252 1186v233h244v-233h-244zM688 1186 v233h244v-233h-244z" />
<glyph unicode="&#xfd;" horiz-adv-x="1218" d="M-59 971v4h299l286 -526l62 -156l61 153l283 529h291v-8l-762 -1409h-291l276 510zM446 1137v12l152 278h295v-10l-225 -280h-222z" />
<glyph unicode="&#xfe;" horiz-adv-x="1253" d="M82 -459v1893h264v-582q59 84 145.5 113.5t174.5 25.5q125 -8 216 -54t151.5 -115.5t89 -156.5t28.5 -178q0 -106 -38 -198t-106.5 -161t-167 -107.5t-218.5 -38.5q-80 0 -151 27.5t-124 105.5v-574h-264zM336 494q0 -59 18.5 -109.5t53 -88.5t87 -59.5t117.5 -21.5 q68 0 119 23.5t85 61.5t51.5 87t17.5 100q0 49 -17.5 97.5t-51.5 87.5t-85 63.5t-119 24.5q-127 0 -201.5 -76t-74.5 -190z" />
<glyph unicode="&#xff;" horiz-adv-x="1218" d="M-59 971v4h299l286 -526l62 -156l61 153l283 529h291v-8l-762 -1409h-291l276 510zM252 1194v233h244v-233h-244zM688 1194v233h244v-233h-244z" />
<glyph unicode="&#x152;" horiz-adv-x="2369" d="M61 719q0 162 56.5 297t157 233.5t239.5 152.5t303 54q92 0 181 -23.5t153 -86.5v88h1124v-244h-850v-356h818v-236h-818v-356h850v-242h-1124v100q-31 -33 -70 -56.5t-84 -37.5t-91 -21.5t-89 -7.5q-164 0 -303 55.5t-239.5 154t-157 234.5t-56.5 298zM346 719 q0 -109 35 -199t97.5 -154.5t148.5 -101.5t190 -37t189.5 23.5t144.5 83.5v764q-66 66 -147.5 90t-186.5 24q-104 0 -190 -36.5t-148.5 -102t-97.5 -157t-35 -197.5z" />
<glyph unicode="&#x153;" horiz-adv-x="1972" d="M35 489q0 111 40 204t111.5 160t170 103.5t214.5 36.5q121 0 228.5 -45t173.5 -151q63 98 163.5 146t229.5 48q125 0 223.5 -43t164 -121.5t95 -189.5t19.5 -246h-764q8 -51 35.5 -87t65.5 -59.5t82 -33.5t87 -10q68 0 130.5 22.5t94.5 81.5l216 -76q-39 -74 -91.5 -121 t-113 -74.5t-126 -38.5t-132.5 -11q-121 0 -221.5 46t-167.5 150q-70 -98 -170.5 -147t-221.5 -49q-117 0 -215 36.5t-169.5 103t-111.5 160t-40 205.5zM305 489q0 -61 19.5 -112t55.5 -88t84 -57.5t107 -20.5q57 0 108.5 20.5t89.5 57.5t59.5 88t21.5 112t-21.5 111.5 t-59.5 87.5t-89 57.5t-109 20.5q-59 0 -107 -20.5t-84 -57.5t-55.5 -87t-19.5 -112zM1104 590h504q-20 92 -93 135t-155 43q-90 0 -163 -45t-93 -133z" />
<glyph unicode="&#x178;" horiz-adv-x="1576" d="M-53 1434h332l477 -635l479 635h332l-668 -875v-559h-287v559zM418 1581v211h246v-211h-246zM858 1581v211h248v-211h-248z" />
<glyph unicode="&#x2c6;" horiz-adv-x="870" d="M72 1186v12l280 266h131l275 -266v-12h-242l-100 92l-103 -92h-241z" />
<glyph unicode="&#x2dc;" horiz-adv-x="813" d="M57 1401q18 45 43 83t56.5 62.5t72.5 33.5t93 -3q37 -8 71.5 -29.5t67.5 -35t61.5 -6.5t52.5 55l164 -64q-45 -119 -115.5 -159t-142.5 -21q-37 10 -72.5 32.5t-69.5 34t-64.5 0t-61.5 -66.5z" />
<glyph unicode="&#x2000;" horiz-adv-x="966" />
<glyph unicode="&#x2001;" horiz-adv-x="1933" />
<glyph unicode="&#x2002;" horiz-adv-x="966" />
<glyph unicode="&#x2003;" horiz-adv-x="1933" />
<glyph unicode="&#x2004;" horiz-adv-x="644" />
<glyph unicode="&#x2005;" horiz-adv-x="483" />
<glyph unicode="&#x2006;" horiz-adv-x="322" />
<glyph unicode="&#x2007;" horiz-adv-x="322" />
<glyph unicode="&#x2008;" horiz-adv-x="241" />
<glyph unicode="&#x2009;" horiz-adv-x="386" />
<glyph unicode="&#x200a;" horiz-adv-x="107" />
<glyph unicode="&#x2010;" horiz-adv-x="970" d="M72 487v230h755v-230h-755z" />
<glyph unicode="&#x2011;" horiz-adv-x="970" d="M72 487v230h755v-230h-755z" />
<glyph unicode="&#x2012;" horiz-adv-x="970" d="M72 487v230h755v-230h-755z" />
<glyph unicode="&#x2013;" horiz-adv-x="1116" d="M43 494v221h969v-221h-969z" />
<glyph unicode="&#x2014;" horiz-adv-x="1275" d="M29 494v221h1165v-221h-1165z" />
<glyph unicode="&#x2018;" horiz-adv-x="436" d="M-4 936l174 500h213l-107 -500h-280z" />
<glyph unicode="&#x2019;" horiz-adv-x="413" d="M-6 934l106 500h281l-174 -500h-213z" />
<glyph unicode="&#x201a;" horiz-adv-x="512" d="M25 -248l106 504h281l-174 -504h-213z" />
<glyph unicode="&#x201c;" horiz-adv-x="774" d="M-12 934l174 500h213l-107 -500h-280zM340 934l170 500h213l-107 -500h-276z" />
<glyph unicode="&#x201d;" horiz-adv-x="741" d="M-10 934l106 500h277l-170 -500h-213zM338 934l106 500h281l-174 -500h-213z" />
<glyph unicode="&#x201e;" horiz-adv-x="825" d="M4 -248l107 502h280l-174 -502h-213zM375 -248l106 502h281l-174 -502h-213z" />
<glyph unicode="&#x2022;" horiz-adv-x="729" d="M72 635q0 57 20.5 105t56 83t84 53.5t105.5 18.5q55 0 103 -18.5t83 -53.5t55.5 -83t20.5 -105q0 -59 -20.5 -106.5t-55.5 -81t-83 -52t-103 -18.5q-57 0 -105.5 18.5t-84 52t-56 80.5t-20.5 107z" />
<glyph unicode="&#x2026;" horiz-adv-x="1064" d="M57 0v240h244v-240h-244zM401 0v240h244v-240h-244zM739 0v240h244v-240h-244z" />
<glyph unicode="&#x202f;" horiz-adv-x="386" />
<glyph unicode="&#x2039;" horiz-adv-x="663" d="M35 541l284 452h267l-283 -452l283 -455h-267z" />
<glyph unicode="&#x203a;" horiz-adv-x="716" d="M66 86l282 455l-282 452h280l285 -452l-285 -455h-280z" />
<glyph unicode="&#x205f;" horiz-adv-x="483" />
<glyph unicode="&#x20ac;" horiz-adv-x="1622" d="M23 432v215h157q-6 45 0 86h-157v209h200q35 102 100.5 187t152.5 145.5t195.5 93.5t229.5 33q98 0 199.5 -25.5t190.5 -80t161 -139.5t115 -204l-224 -73q-35 74 -85 128t-109 88.5t-123.5 52t-124.5 17.5q-137 0 -235.5 -48t-159.5 -175h428v-209h-494q-4 -23 -4 -43 t4 -43h494v-215h-426q27 -59 67.5 -101t91 -68.5t110 -38t124.5 -11.5q55 0 115.5 17.5t117 52t103.5 88t78 125.5l235 -58q-45 -127 -114.5 -214t-155.5 -141t-182.5 -78.5t-196.5 -24.5q-121 0 -228.5 27.5t-194.5 82.5t-152.5 140t-102.5 202h-200z" />
<glyph unicode="&#x2122;" horiz-adv-x="1511" d="M27 1272v164h585v-164h-196v-434h-195v434h-194zM678 838v600h205l161 -199l162 199h205v-600h-199v178l15 174l-125 -168h-115l-125 168l15 -174v-178h-199z" />
<glyph unicode="&#x25fc;" horiz-adv-x="972" d="M0 0v973h973v-973h-973z" />
<glyph unicode="&#xfb01;" horiz-adv-x="1347" d="M-25 770v205h183v43q0 94 26.5 173t80.5 136t133 89t184 32q66 2 136 -18.5t128 -69.5l-90 -178q-33 23 -79 33t-79 8q-37 -2 -69.5 -15.5t-57.5 -39t-38 -63.5t-11 -87v-43h346v-205h-346v-770h-264v770h-183zM940 0v975h264v-975h-264zM940 1100v334h262v-334h-262z " />
<glyph unicode="&#xfb02;" horiz-adv-x="1343" d="M-25 770v205h183v43q0 94 26.5 173t80.5 136t133 89t184 32q66 2 136 -18.5t128 -69.5l-90 -178q-33 23 -79 33t-79 8q-37 -2 -69.5 -15.5t-57.5 -39t-38 -63.5t-11 -87v-43h346v-205h-346v-770h-264v770h-183zM944 0v1434h264v-1434h-264z" />
</font>
</defs>
</svg>
