<?xml version="1.0" standalone="no"?>
<!DOCTYPE svg PUBLIC "-//W3C//DTD SVG 1.1//EN" "http://www.w3.org/Graphics/SVG/1.1/DTD/svg11.dtd" >
<svg xmlns="http://www.w3.org/2000/svg">
<metadata></metadata>
<defs>
<font id="gabriel_sans_condbold" horiz-adv-x="1357" >
<font-face units-per-em="2048" ascent="1536" descent="-512" />
<missing-glyph horiz-adv-x="446" />
<glyph horiz-adv-x="2048" />
<glyph horiz-adv-x="2048" />
<glyph unicode="&#xd;" horiz-adv-x="2048" />
<glyph unicode=" "  horiz-adv-x="446" />
<glyph unicode="&#x09;" horiz-adv-x="446" />
<glyph unicode="&#xa0;" horiz-adv-x="446" />
<glyph unicode="!" horiz-adv-x="483" d="M55 0v279h285v-279h-285zM55 358v1076h287v-1076h-287z" />
<glyph unicode="&#x22;" horiz-adv-x="659" d="M-20 860v578h253v-578h-253zM336 860v578h250v-578h-250z" />
<glyph unicode="#" horiz-adv-x="1089" d="M-25 414v235h189l31 213h-158v242h196l58 362h266l-55 -362h121l55 362h260l-55 -362h139v-242h-186l-33 -213h155v-235h-188l-63 -414h-263l66 414h-119l-63 -414h-269l66 414h-150zM412 635h147l37 244h-143z" />
<glyph unicode="$" horiz-adv-x="1202" d="M4 455h295q0 -92 38 -141.5t101 -69.5v362q-88 12 -164.5 38t-133 74t-89.5 124t-33 188q0 102 34 178t91.5 128.5t134 82t160.5 39.5v170h238v-170q74 -10 145.5 -36.5t128 -77t91 -129t34.5 -191.5h-289q0 72 -31.5 112t-78.5 58v-363q88 -10 166 -35.5t136 -74.5 t93 -125t35 -188q0 -106 -35 -183.5t-93 -129.5t-137 -80.5t-165 -39.5v-170h-238v172q-80 10 -157.5 39t-139 83.5t-99.5 141.5t-38 214zM305 1030q0 -57 30 -105t103 -73v354q-59 -23 -96 -65.5t-37 -110.5zM676 229q61 18 101 59t42 111q0 90 -41 131t-102 58v-359z" />
<glyph unicode="%" horiz-adv-x="1376" d="M-16 1116q0 63 15 123.5t49 108t90.5 76t135.5 28.5q78 0 132.5 -28.5t89 -77t50 -108.5t15.5 -122q0 -63 -15.5 -123.5t-50 -107.5t-89 -76t-132.5 -29q-80 0 -136 29t-90 77t-49 108.5t-15 121.5zM68 -113l794 1565h309l-792 -1565h-311zM207 1116q0 -49 16.5 -89 t50.5 -40q35 0 49.5 40t14.5 89t-14.5 89t-49.5 40t-51 -40t-16 -89zM707 260q0 63 15 123.5t49 108t90.5 76t135.5 28.5q78 0 132.5 -28.5t89 -77t50 -108.5t15.5 -122q0 -63 -15.5 -123.5t-50 -107.5t-89 -76t-132.5 -29q-80 0 -136 29t-90 77t-49 108.5t-15 121.5z M930 260q0 -49 16.5 -89t50.5 -40q35 0 49.5 40t14.5 89t-14.5 89t-49.5 40t-51 -40t-16 -89z" />
<glyph unicode="&#x26;" horiz-adv-x="1253" d="M14.5 477q14.5 92 71.5 175t162 139q-84 90 -108.5 161.5t-24.5 122.5q0 111 40 184.5t103.5 119.5t144 65.5t162.5 19.5t161 -23.5t140.5 -72.5t99.5 -127t38 -188h-283q0 45 -13.5 75.5t-35 49t-49 26.5t-54.5 8q-68 0 -102.5 -29.5t-43.5 -72.5t6 -94t50 -94l357 -459 q14 35 13 73.5t-1 79.5h262q-2 -104 -27.5 -196t-72.5 -170l176 -230v-20h-291l-59 74q-143 -121 -330 -119q-129 2 -227.5 49t-162 122t-90 167t-12 184zM310 487.5q-17 -63.5 3.5 -123t72.5 -101.5t124 -46q35 -2 74 10.5t80 40.5l-265 330q-72 -47 -89 -110.5z" />
<glyph unicode="'" horiz-adv-x="346" d="M8 860v578h250v-578h-250z" />
<glyph unicode="(" horiz-adv-x="636" d="M41 700q0 129 23.5 262.5t72.5 259.5t123 236.5t174 190.5l154 -183q-84 -82 -138.5 -174t-85 -190t-44 -199.5t-13.5 -202.5q0 -102 13.5 -211.5t46 -212t87 -193.5t132.5 -157l-150 -198q-98 80 -173 192.5t-124 242.5t-73.5 269t-24.5 268z" />
<glyph unicode=")" horiz-adv-x="681" d="M-18 1430l153 182q100 -80 174 -186.5t123 -226.5t72.5 -249t23.5 -258t-24.5 -263t-73.5 -258t-124 -231.5t-173 -187.5l-149 199q133 137 203.5 321.5t70.5 419.5q0 219 -72.5 408.5t-203.5 329.5z" />
<glyph unicode="*" horiz-adv-x="589" d="M-39 1163l68 183l135 -64l-6 184h194l-10 -184l141 64l58 -185l-135 -55l106 -162l-166 -102l-90 164l-88 -164l-164 102l107 162z" />
<glyph unicode="+" horiz-adv-x="768" d="M-10 586v237h223v297h254v-297h225v-237h-225v-305h-254v305h-223z" />
<glyph unicode="," horiz-adv-x="454" d="M-70 -246l131 461h291v-55l-184 -406h-238z" />
<glyph unicode="-" horiz-adv-x="823" d="M47 547v246h631v-246h-631z" />
<glyph unicode="." horiz-adv-x="405" d="M37 0v246h264v-246h-264z" />
<glyph unicode="/" horiz-adv-x="903" d="M-41 -147l580 1630h305l-580 -1630h-305z" />
<glyph unicode="0" horiz-adv-x="1251" d="M14 717q0 139 24.5 273t88 240.5t171.5 171t271 64.5q166 0 273.5 -64.5t170 -171t88 -240.5t25.5 -273t-25.5 -274.5t-88 -241t-170 -170t-273.5 -64.5q-164 0 -271.5 64.5t-171 170t-88 241t-24.5 274.5zM309 717q0 -74 10.5 -161t39 -160.5t78.5 -124t132 -50.5 t133.5 50.5t80 124t38.5 160.5t10 161t-10 160t-38.5 160.5t-80 123.5t-133.5 49t-132 -49t-78.5 -123.5t-39 -160.5t-10.5 -160z" />
<glyph unicode="1" horiz-adv-x="681" d="M-70 1055l355 377h288v-1432h-294v1028l-162 -168z" />
<glyph unicode="2" horiz-adv-x="1118" d="M12 221l559 529q53 53 93.5 123.5t42.5 144.5q0 37 -11.5 71.5t-36 62.5t-61.5 44t-88 16q-57 0 -95 -15t-60.5 -44t-33 -70t-12.5 -92h-297q8 244 129 358.5t367 114.5q106 0 197.5 -26.5t158 -79.5t104.5 -136t38 -196q0 -115 -45.5 -227.5t-157.5 -216.5l-348 -318 l168 12h383v-14v-262h-893z" />
<glyph unicode="3" horiz-adv-x="1216" d="M0 463h295q0 -61 22.5 -108.5t58.5 -78t83 -47t96 -16.5q47 0 92 13.5t80 41t56.5 69.5t21.5 97q0 37 -14.5 73t-44 63.5t-73.5 44t-102 16.5h-209v248h209q100 0 151.5 49t51.5 112q0 33 -14.5 64t-43 55.5t-71.5 38.5t-100 14q-49 0 -91 -8t-74 -29.5t-49.5 -58.5 t-17.5 -94h-288q0 133 46 218t120.5 134t168 68.5t187.5 19.5q152 0 252 -36.5t160.5 -96t86 -135.5t25.5 -154q0 -111 -51 -190.5t-131 -101.5q43 -14 81 -44t67.5 -72t46 -91t16.5 -105q0 -121 -42 -209t-115 -147.5t-173 -88t-217 -28.5q-111 0 -211 30t-176 91 t-121 155.5t-45 223.5z" />
<glyph unicode="4" horiz-adv-x="1216" d="M-18 485l741 947h252v-940h127v-246h-127v-246h-291v246h-594zM319 492h367v487l-96 -145z" />
<glyph unicode="5" horiz-adv-x="1214" d="M23 442h296q0 -229 230 -229q49 0 93 15.5t79 46t56.5 77.5t21.5 109q2 78 -21.5 133t-63.5 90t-93.5 51.5t-110.5 16.5q-94 2 -184 -33t-140 -92l-127 84l39 721h213h699v-248h-658q-2 -37 -3 -58.5t-2 -45t-3 -55.5t-4 -89q135 43 270 37t243 -64.5t174.5 -169 t66.5 -276.5q0 -135 -44 -230.5t-120 -156t-174.5 -87t-206.5 -26.5q-102 0 -196.5 22.5t-168 78t-117.5 147.5t-44 231z" />
<glyph unicode="6" horiz-adv-x="1208" d="M31 463v491q0 125 41 219.5t114.5 158t178 97t231.5 35.5q72 0 143.5 -13t135 -42t114.5 -73t86 -103l-184 -152q-33 51 -87 82t-117.5 42.5t-128 2t-117 -41t-85 -84t-32.5 -128.5v-96q51 59 123.5 87t150.5 28q111 0 201 -34t155.5 -98.5t101.5 -159.5t36 -218 q0 -135 -44 -230.5t-119 -156t-173.5 -87t-204.5 -26.5q-113 0 -208 34t-164.5 97.5t-108.5 156.5t-39 212zM324 461q0 -63 20.5 -109.5t53 -77t74.5 -46t85 -15.5q45 0 87 15.5t76 47t54.5 77.5t20.5 108q0 123 -69 186.5t-169 63.5q-43 0 -85 -15.5t-74.5 -46.5t-53 -78 t-20.5 -110z" />
<glyph unicode="7" horiz-adv-x="1071" d="M12 1184v248h916l78 -187l-598 -1245h-316v29l404 788l182 367h-666z" />
<glyph unicode="8" horiz-adv-x="1232" d="M20 397q-2 53 9.5 108.5t34 104.5t57.5 87t82 57q-41 18 -70 51t-47 71.5t-26.5 77.5t-8.5 74q0 111 41 194t110.5 136t164 79.5t202.5 26.5q109 0 203 -27.5t163 -82t108.5 -136t39.5 -190.5q0 -43 -12 -86t-33.5 -81t-49 -66.5t-56.5 -38.5q45 -16 80 -53t58.5 -86.5 t34.5 -105.5t9 -112q-4 -123 -51 -206.5t-124 -135t-175.5 -73t-202.5 -21.5q-80 0 -173 16.5t-174 64.5t-135 133t-59 220zM315 430q0 -57 21.5 -98t56.5 -67.5t80 -40t92 -13.5t92 12.5t81 39t57.5 67.5t21.5 100q0 55 -21.5 96t-57.5 69t-81 42t-92 14t-92 -15t-80 -43 t-56.5 -70t-21.5 -93zM348 1028q0 -59 33 -99t81 -59.5t104.5 -18.5t104.5 20.5t80.5 59.5t32.5 99q0 92 -59 139.5t-152 47.5q-92 0 -158.5 -46.5t-66.5 -142.5z" />
<glyph unicode="9" horiz-adv-x="1228" d="M16 963q0 135 44 231t118 155.5t171 87t204 27.5q106 0 201.5 -33.5t166 -97t111.5 -157t41 -211.5v-521q0 -121 -43 -210t-113.5 -148t-162.5 -89t-191 -32q-74 -2 -147.5 9.5t-142 38t-130 71.5t-112.5 111l188 159q35 -47 90.5 -78.5t117.5 -45t124.5 -8.5t114 31 t83 73t31.5 118v125q-51 -59 -122.5 -86.5t-149.5 -27.5q-111 0 -201 32.5t-154.5 98t-100.5 160t-36 217.5zM307 965q0 -61 21.5 -107.5t55.5 -77t77 -47t88 -16.5q43 0 85 15.5t73.5 46t52 77t20.5 109.5t-20.5 110t-52 78t-73.5 46t-85 15q-45 0 -88 -16t-77 -47 t-55.5 -78t-21.5 -108z" />
<glyph unicode=":" horiz-adv-x="421" d="M41 0v266h264v-266h-264zM41 711v266h264v-266h-264z" />
<glyph unicode=";" horiz-adv-x="421" d="M-88 -246l131 461h289v-55l-182 -406h-238zM41 711v266h264v-266h-264z" />
<glyph unicode="&#x3c;" horiz-adv-x="671" d="M-35 680v45l346 405h289v-12l-336 -416l340 -413v-13h-295z" />
<glyph unicode="=" horiz-adv-x="800" d="M6 369v229h682v-229h-682zM6 692v230h682v-230h-682z" />
<glyph unicode="&#x3e;" horiz-adv-x="706" d="M-16 268v13l342 413l-338 416v12h288l347 -405v-45l-344 -404h-295z" />
<glyph unicode="?" horiz-adv-x="1142" d="M-10 950q0 137 42 235.5t112.5 161t161.5 92t188 29.5q100 0 199.5 -23.5t177 -76.5t124.5 -143t41 -221q-8 -104 -43 -165t-83 -96.5t-102 -58t-100 -52.5t-77 -77t-31 -133v-66h-295v60q0 123 32 199.5t80 123.5t103 74t103.5 50.5t80 52t31.5 81.5q0 68 -38 114 t-93 66.5t-118.5 17.5t-115 -31.5t-81 -82t-17.5 -131.5h-282zM309 0v268h295v-268h-295z" />
<glyph unicode="@" horiz-adv-x="1531" d="M-8 604q0 203 60.5 357.5t160.5 259t229 159t267 54.5q158 0 289.5 -49.5t227 -149.5t148.5 -253t53 -361q0 -123 -23.5 -221.5t-66.5 -168t-103 -107.5t-132 -38q-25 0 -53.5 8t-53 30.5t-42 59.5t-17.5 97q-12 -47 -41 -81t-63.5 -56.5t-69.5 -33t-62 -10.5 q-88 0 -164.5 37t-133 103.5t-89 160t-32.5 203.5q0 111 32.5 204t89 161.5t133 106.5t162.5 38q68 0 129.5 -43t83.5 -115l15 105l168 -27v-702q0 -25 10 -35t22 -6q20 6 39 36.5t31 77t19.5 102.5t7.5 114q0 168 -38 283.5t-106.5 186t-162.5 102.5t-207 32 q-92 0 -183.5 -40t-162 -119t-114.5 -194.5t-44 -267.5q0 -166 44 -280.5t114.5 -184t158.5 -100.5t178 -31q49 0 109.5 12.5t124.5 59.5l74 -178q-84 -61 -162 -83t-150 -22q-127 0 -252 46t-226 143.5t-163.5 250t-62.5 367.5zM502 606q0 -47 12 -92t38 -80t63.5 -56.5 t86.5 -21.5t84 20.5t58.5 56.5t35 83t11.5 100q0 49 -10.5 94.5t-34 78t-58 52t-83.5 19.5t-87 -21.5t-64 -57.5t-39 -82t-13 -93z" />
<glyph unicode="A" d="M-43 0v49l545 1393h266l543 -1393v-49h-293l-119 326h-530l-119 -326h-293zM459 582h352l-117 309l-59 199h-2l-60 -199z" />
<glyph unicode="B" horiz-adv-x="1222" d="M51 0v1434h570q104 0 184 -35t132 -90.5t77.5 -124t25.5 -135.5q0 -92 -38.5 -162t-124.5 -117q55 -14 100 -46t76.5 -76t49 -97t17.5 -109q0 -115 -33.5 -197.5t-96 -137t-151.5 -81t-198 -26.5h-590zM346 254h295q47 0 81 15.5t57.5 42t34.5 59t11 67.5t-11 70 t-33.5 62.5t-57.5 44t-82 16.5h-295v-377zM346 866h275q33 0 56 14.5t38.5 37t24 51t8.5 59.5q0 59 -31 107.5t-96 48.5h-275v-318z" />
<glyph unicode="C" horiz-adv-x="1259" d="M10 721q0 152 33 288t105.5 238.5t188.5 161.5t284 59q82 0 164.5 -23.5t155.5 -75.5t132.5 -134t95.5 -201v-20l-231 -76q-16 51 -44 101.5t-67 89t-88 62t-108 26.5h-8q-93 1 -153 -45q-64 -48 -100 -121.5t-49.5 -161.5t-13.5 -168q0 -78 12.5 -165t46 -162t95 -124 t157.5 -49q39 0 81 13.5t82 46t76 88t65 141.5l254 -72v-37q-43 -119 -105.5 -201.5t-135.5 -134t-152.5 -74t-161.5 -22.5q-166 0 -282 60.5t-189.5 163t-106.5 238.5t-33 290z" />
<glyph unicode="D" horiz-adv-x="1290" d="M51 0v1434h565q145 0 252 -61.5t177.5 -163t105.5 -230.5t35 -264t-35 -263t-105.5 -228.5t-178 -162t-251.5 -61.5h-565zM346 252h266q84 0 137.5 48t84 118.5t43 150.5t12.5 146q0 63 -12.5 144t-43 153.5t-85 122t-136.5 49.5h-266v-932z" />
<glyph unicode="E" horiz-adv-x="1105" d="M49 0v1434h944v-250h-647v-348h621v-236h-621v-352h647v-248h-944z" />
<glyph unicode="F" horiz-adv-x="1089" d="M49 0v1434h942v-248h-645v-355h612v-245h-612v-586h-297z" />
<glyph unicode="G" horiz-adv-x="1347" d="M12 719q0 154 34 290t108.5 239.5t195.5 162.5t293 59q82 0 166 -19t158.5 -67.5t136 -129t100.5 -205.5v-11l-239 -69q-37 104 -117 174.5t-195 75.5h-8q-97 0 -159 -47q-64 -48 -101 -121.5t-51.5 -162.5t-14.5 -169q0 -78 12.5 -166t48.5 -164t98.5 -125t162.5 -49 q113 0 186.5 42t112.5 146v166h-393v248h663v-459q-61 -203 -208.5 -301t-358.5 -98q-172 0 -292 60.5t-194.5 165t-109.5 242.5t-35 292z" />
<glyph unicode="H" horiz-adv-x="1300" d="M51 0v1434h297v-596h516v596h295v-1434h-295v592h-516v-592h-297z" />
<glyph unicode="I" horiz-adv-x="497" d="M55 0v1434h297v-1434h-297z" />
<glyph unicode="J" horiz-adv-x="1280" d="M10 694h279q0 -104 13 -191t46 -150.5t89.5 -98.5t144.5 -35t140 35t79.5 96.5t36 144.5t8.5 179v512h-465v248h760v-760q0 -352 -134.5 -530.5t-424.5 -178.5q-133 0 -238.5 40t-179.5 127t-114 225.5t-40 336.5z" />
<glyph unicode="K" horiz-adv-x="1292" d="M53 0v1434h293v-588l199 248l321 340h348v-19l-577 -633l612 -759v-23h-342l-282 342l-181 252l-98 -102v-492h-293z" />
<glyph unicode="L" horiz-adv-x="1116" d="M53 0v1434h297v-1182h645v-252h-942z" />
<glyph unicode="M" horiz-adv-x="1574" d="M51 0v1434h314l372 -639l375 639h313v-1434h-297v750l23 190h-4l-348 -557h-121l-342 559h-4l16 -192v-750h-297z" />
<glyph unicode="N" horiz-adv-x="1370" d="M53 0v1434h336l580 -1035h2l-47 369v666h297v-1434h-328l-580 1030h-4l39 -381v-649h-295z" />
<glyph unicode="O" horiz-adv-x="1312" d="M10 721q0 150 32 285t102.5 237.5t183 162.5t276.5 60t277.5 -60t184.5 -162.5t102.5 -238t31.5 -284.5q0 -152 -32.5 -288t-103.5 -238.5t-184.5 -164t-275.5 -61.5t-275.5 61.5t-184 164t-102.5 238.5t-32 288zM305 721q0 -76 12.5 -163t45 -160.5t91 -123t150.5 -49.5 t150.5 49.5t91.5 123t45 160.5t12 163t-12 162t-46 159.5t-92.5 121.5t-148.5 48t-148.5 -48t-92 -121.5t-46 -159.5t-12.5 -162z" />
<glyph unicode="P" horiz-adv-x="1196" d="M51 0v1434h572q119 0 207 -43t148 -112t90 -158t32 -181q0 -92 -30 -181t-90 -159t-150.5 -112t-211.5 -42h-272v-446h-295zM346 696h275q61 0 101 36t60.5 89t20.5 116.5t-19.5 117t-60.5 89.5t-100 36h-277v-484z" />
<glyph unicode="Q" horiz-adv-x="1345" d="M14 721q0 150 32 285t102.5 237.5t183 162.5t276.5 60t277.5 -60t184.5 -162.5t102.5 -238t31.5 -284.5q0 -139 -26.5 -264t-85.5 -228l174 -196v-35h-271l-55 63q-66 -47 -147 -71.5t-185 -24.5q-162 0 -274.5 61.5t-183 166t-103.5 240.5t-33 288zM311 721 q0 -76 12.5 -163t45 -161.5t90 -125t149.5 -50.5q47 0 83 13.5t67 35.5l-258 291v14h288l91 -100q16 61 22 125t6 121q0 76 -12 162t-46 159.5t-92.5 121.5t-148.5 48t-148.5 -48t-91 -121.5t-45 -159.5t-12.5 -162z" />
<glyph unicode="R" horiz-adv-x="1222" d="M51 0v1434h596q125 0 213 -39t144.5 -103.5t82 -147.5t25.5 -169q0 -74 -17.5 -144.5t-55.5 -130t-94 -104.5t-132 -66l334 -518v-12h-324l-319 522h-156v-522h-297zM348 756h307q53 0 89 32.5t54.5 81t18.5 104.5t-18.5 104t-56 81t-95.5 33h-299v-436z" />
<glyph unicode="S" horiz-adv-x="1216" d="M4 455h295q0 -66 20.5 -110t57.5 -70.5t86 -38t104 -11.5q47 0 91 10.5t78 32t54.5 54t20.5 77.5q0 63 -22.5 101.5t-58.5 58t-83 25.5t-96 10q-109 8 -205 28.5t-169 67.5t-116 129t-43 211q0 119 45.5 202t119 135t168.5 75.5t194 23.5q86 0 179 -16t172 -64.5 t129 -135.5t50 -226h-289q0 57 -20.5 94t-54 58.5t-76.5 29.5t-90 8t-88 -11t-74 -34.5t-51.5 -58.5t-18.5 -80q0 -37 12.5 -69.5t41 -58t73.5 -42t113 -18.5q106 -4 206.5 -23.5t177.5 -66.5t123 -130t46 -214q0 -123 -46 -206t-121 -135.5t-172 -75t-200 -22.5 q-88 0 -187 18.5t-182 71t-138.5 147.5t-55.5 249z" />
<glyph unicode="T" horiz-adv-x="1157" d="M-27 1184v250h1121v-250h-414v-1186h-295v1186h-412z" />
<glyph unicode="U" horiz-adv-x="1386" d="M51 688v746h305v-746q0 -135 25 -225t64.5 -144.5t91 -77t104.5 -22.5t104.5 21.5t92.5 75t66.5 144.5t25.5 228v746h303v-746q0 -197 -50 -332t-133 -219t-188.5 -120.5t-216.5 -36.5t-218.5 36.5t-190 120.5t-134 219.5t-51.5 331.5z" />
<glyph unicode="V" horiz-adv-x="1353" d="M-45 1378v56h297l283 -760l94 -322l94 322l283 760h297v-56l-539 -1384h-270z" />
<glyph unicode="W" horiz-adv-x="1925" d="M-45 1380v54h301l227 -703l60 -393h10q0 25 3 52.5t6 54t5 49t4 32.5q8 47 17.5 97.5t25.5 97.5l168 500h6h250h6l168 -502q16 -47 25.5 -96.5t17.5 -96.5q2 -12 4.5 -35.5t5.5 -52t5 -58.5t4 -54h10l59 405l228 703h301v-54l-467 -1386h-279l-161 543l-50 282h-4 l-51 -282l-160 -543h-276z" />
<glyph unicode="X" horiz-adv-x="1290" d="M-45 0v39l475 682l-434 665v48h319l193 -299l98 -189l96 189l193 299h322v-45l-435 -668l473 -682v-39h-319l-186 266l-144 228l-143 -228l-189 -266h-319z" />
<glyph unicode="Y" horiz-adv-x="1300" d="M-47 1395v39h305l211 -336l137 -258l139 262l209 332h303v-39l-507 -846v-549h-287v549z" />
<glyph unicode="Z" horiz-adv-x="1161" d="M-8 217l475 653l235 314l-659 -2v254h977l70 -203l-469 -635l-265 -346l719 2v-254h-1003z" />
<glyph unicode="[" horiz-adv-x="614" d="M106 -246v1913h457v-225h-176v-1452h176v-236h-457z" />
<glyph unicode="\" horiz-adv-x="868" d="M-41 1493h311l582 -1628h-309z" />
<glyph unicode="]" horiz-adv-x="612" d="M-31 -18h176v1476h-176v230h457v-1940h-457v234z" />
<glyph unicode="^" horiz-adv-x="950" d="M-41 741v33l377 664h184l398 -664v-33h-300l-108 187l-80 200l-82 -202l-102 -185h-287z" />
<glyph unicode="_" horiz-adv-x="894" d="M-23 -6h848v-246h-848v246z" />
<glyph unicode="`" horiz-adv-x="436" d="M-41 1421v11h291l135 -248v-13h-233z" />
<glyph unicode="a" horiz-adv-x="952" d="M6 303q0 84 34 141.5t88 92t119.5 50t129.5 15.5h149q0 78 -33.5 121t-115.5 47q-29 2 -61.5 -1t-66.5 -11t-64.5 -20.5t-53.5 -26.5l-72 196q66 49 151 73q76 21 150 21h19q94 0 173 -27.5t135 -78.5t88 -126t32 -171v-389l14 -209h-215l-37 131q-33 -72 -92 -115 t-141 -43q-152 0 -241 88.5t-89 241.5zM287 307q0 -35 22.5 -64.5t67.5 -29.5t74.5 16.5t48 43t25.5 60.5t7 68h-155q-45 0 -67.5 -29.5t-22.5 -64.5z" />
<glyph unicode="b" horiz-adv-x="1028" d="M39 0v1434h280v-557q35 63 92.5 92.5t127.5 29.5q113 0 185.5 -45t114.5 -116.5t58 -163.5t16 -187q0 -121 -30.5 -215t-85 -158.5t-124 -98t-145.5 -33.5q-70 0 -134 29.5t-99 105.5l-31 -117h-225zM311 481q0 -115 44 -190.5t120 -75.5q47 0 78 28.5t48 70.5t24.5 89.5 t7.5 83.5q0 39 -5 87.5t-21.5 89.5t-48.5 68.5t-83 27.5q-39 0 -69.5 -21.5t-51 -59.5t-32 -89t-11.5 -109z" />
<glyph unicode="c" horiz-adv-x="899" d="M4 485q0 106 23.5 200.5t76 166.5t134 114t196.5 42q178 0 266 -88.5t117 -253.5l-237 -37q-14 51 -48 95t-96 44q-41 0 -69.5 -24.5t-48 -64.5t-28.5 -91t-9 -105q0 -53 9 -102t28.5 -87t48 -61.5t67.5 -23.5q61 0 96 44t48 97l245 -47q-31 -150 -136 -241t-261 -91 q-113 0 -192.5 43t-131 115t-75 164t-23.5 192z" />
<glyph unicode="d" horiz-adv-x="1013" d="M0 487q0 98 18.5 190.5t61.5 164t114.5 114.5t180.5 43q74 0 128 -24.5t91 -89.5v549h280v-1434h-225l-31 117q-35 -76 -99 -105.5t-134 -29.5q-78 0 -147.5 33.5t-123 98t-84 159t-30.5 214.5zM281 487q0 -49 10 -97t29.5 -87t49 -63.5t68.5 -24.5q76 0 120 76t44 190 q0 57 -11 108.5t-31.5 89.5t-51.5 59.5t-70 21.5q-47 0 -76.5 -30t-48 -72t-25.5 -89t-7 -82z" />
<glyph unicode="e" horiz-adv-x="956" d="M0 492q0 104 23.5 197t75 162t132 109.5t195.5 40.5q131 0 217 -54t135 -141q48 -88 62 -196q7 -57 8 -115q0 -51 -6 -102h-561q0 -76 32.5 -131t116.5 -55q102 0 143 96l224 -78q-27 -74 -66 -122t-88 -75.5t-104.5 -37.5t-112.5 -10q-115 0 -195.5 40.5t-132 110.5 t-75 163t-23.5 198zM281 594h286q0 88 -44 128t-97 40h-5q-50 0 -94 -39q-46 -41 -46 -129z" />
<glyph unicode="f" horiz-adv-x="704" d="M-45 770v205h149v43q0 98 24 179t74 138.5t127 84.5q63 23 147 23q19 0 38 -1q47 -4 94 -16.5t90 -41.5l-96 -192q-54 23 -95 23q-45 0 -74 -27q-56 -51 -56 -170v-43h227v-205h-227v-770h-273v770h-149z" />
<glyph unicode="g" horiz-adv-x="1017" d="M-6 252q2 57 35.5 104t105.5 74q-29 16 -48 43t-31.5 57.5t-17.5 62.5t-5 56q0 94 38 159.5t100 107.5t141 60.5t161 18.5h428v-207l-106 9q47 -35 73 -93q25 -53 25 -104v-8q-4 -82 -42 -137.5t-96.5 -89t-130 -48t-141.5 -14.5q-53 0 -90 4t-82 8q-7 1 -14 1 q-33 0 -49 -16q-21 -19 -25 -44q-2 -25 16.5 -46.5t65.5 -21.5h201q76 0 153.5 -11t140 -42t102.5 -87t40 -144q0 -109 -45 -180.5t-115.5 -114.5t-154.5 -60.5t-160 -17.5q-78 0 -159 12.5t-148.5 46t-112.5 93t-51 153.5q-2 27 2 57.5t19.5 61.5t43 59.5t74.5 53.5 q-74 18 -109 72q-32 52 -32 106v6zM274 -83q-7 -20 -7 -38q0 -22 9 -41q20 -43 83 -62q52 -15 106 -15q12 0 24 1q35 2 68 10.5t57.5 24t37.5 39.5q10 20 10 49v9q-4 41 -36 62t-110 21h-192q-37 -16 -50 -60zM315 641q0 -33 15.5 -53.5t37 -32.5t47 -17.5t46.5 -5.5 q20 0 47 5.5t50.5 17.5t39.5 32.5t16 53.5t-14 55.5t-37.5 37t-50.5 19.5t-51 5q-23 0 -47.5 -5t-47 -18.5t-37 -37t-14.5 -56.5z" />
<glyph unicode="h" horiz-adv-x="1013" d="M41 0v1434h281v-560q82 125 247 125q98 0 158.5 -39.5t94.5 -103t46.5 -143.5t12.5 -162v-551h-283v553q0 35 -4 72t-17.5 67.5t-41 51t-76.5 20.5q-41 0 -67.5 -20.5t-42 -51t-21.5 -67.5t-6 -70v-555h-281z" />
<glyph unicode="i" horiz-adv-x="464" d="M45 0v975h279v-975h-279zM45 1118v316h279v-316h-279z" />
<glyph unicode="j" horiz-adv-x="456" d="M-254 -373l104 219q51 -29 90 -29q26 0 48 14q51 34 51 126v1018h280v-1016q0 -152 -50 -247t-131 -136q-62 -31 -136 -31q-23 0 -47 3q-102 12 -209 79zM37 1116v318h278v-318h-278z" />
<glyph unicode="k" horiz-adv-x="966" d="M41 0v1434h276v-795l101 156l151 180h330v-14l-336 -408l344 -539v-14h-309l-227 371l-54 -56v-315h-276z" />
<glyph unicode="l" horiz-adv-x="464" d="M45 0v1434h279v-1434h-279z" />
<glyph unicode="m" horiz-adv-x="1492" d="M41 0v975h242l30 -111q47 78 107.5 106.5t148.5 28.5q104 0 159.5 -50t78.5 -126h4q37 100 103 139q63 37 161 37h10q94 0 148.5 -43t80 -108.5t32 -144t6.5 -152.5v-551h-283v553q0 29 -2 65.5t-11 68.5t-32 54.5t-61 22.5q-41 0 -66 -20.5t-38 -51t-17 -67.5t-4 -70v-4 v-551h-283v553q0 29 -2 65.5t-12.5 68.5t-33 54.5t-61.5 22.5q-41 0 -65.5 -20.5t-37.5 -51t-17 -67.5t-4 -70v-555h-281z" />
<glyph unicode="n" horiz-adv-x="1021" d="M41 0v975h240l30 -111q47 78 108.5 106.5t149.5 28.5q98 0 158.5 -39.5t94.5 -103t46.5 -143.5t12.5 -162v-551h-283v553q0 35 -4 72t-17.5 67.5t-41 51t-76.5 20.5q-41 0 -67.5 -20.5t-42 -51t-21.5 -67.5t-6 -70v-555h-281z" />
<glyph unicode="o" horiz-adv-x="987" d="M0 489q0 104 26.5 197.5t81 163.5t136.5 110.5t194 40.5q113 0 196 -40.5t137 -110.5t81 -163t27 -198q0 -104 -27 -197t-81 -163t-137 -111t-196 -41t-194.5 41t-136 111t-81 163t-26.5 197zM283 489q0 -37 6 -86t23.5 -92t47 -73.5t78.5 -30.5t80 30.5t48.5 73.5 t23.5 92t6 86t-6 85.5t-23.5 91.5t-48.5 73.5t-80 30.5t-78.5 -30.5t-47 -73.5t-23.5 -91.5t-6 -85.5z" />
<glyph unicode="p" horiz-adv-x="1030" d="M41 -459v1434h225l31 -117q18 37 46 62.5t60.5 42t68.5 22.5t71 6q104 0 176 -46t116 -117.5t62 -162t18 -178.5q0 -90 -18 -181t-61 -164.5t-114 -120t-177 -46.5q-70 0 -129.5 30t-93.5 91v-555h-281zM313 494q0 -117 43 -198t123 -81q53 0 85 27.5t48.5 68.5t21.5 88 t5 88q0 39 -7 86.5t-24.5 89.5t-48.5 69.5t-80 27.5q-78 0 -122 -76t-44 -190z" />
<glyph unicode="q" horiz-adv-x="1013" d="M0 487q0 88 18.5 178.5t61.5 162t114.5 117.5t176.5 46h9q65 0 132 -29q70 -30 106 -104l31 117h225v-1434h-280v555q-35 -61 -95.5 -91t-129.5 -30q-106 0 -177 46.5t-114 120t-60.5 164.5t-17.5 181zM276 487q0 -41 5.5 -88t21.5 -88t48 -68.5t85 -27.5q39 0 70 21.5 t52.5 59.5t32.5 88t11 110q0 115 -45 190.5t-121 75.5q-49 0 -79.5 -27.5t-49 -69.5t-25 -89.5t-6.5 -86.5z" />
<glyph unicode="r" horiz-adv-x="800" d="M41 0v975h221l29 -115q31 78 98.5 109.5t142.5 31.5q59 0 118 -16t108 -55l-103 -215q-57 29 -117 32h-13q-52 0 -95 -21q-49 -24 -80 -73t-31 -123v-530h-278z" />
<glyph unicode="s" horiz-adv-x="897" d="M-4 315l276 -4q0 -66 39 -94.5t86 -28.5t86 25t39 74q0 45 -39 65.5t-96 32.5t-124.5 25.5t-124.5 43.5q-58 30 -96 84q-36 52 -36 141v9q0 76 31 134.5t83 98.5t121.5 60t147.5 20q74 0 141.5 -14t121 -50t86 -98.5t34.5 -156.5h-266q-8 104 -117 104q-45 0 -74.5 -25.5 t-29.5 -72.5q0 -29 14 -46t35.5 -27.5t45 -14.5t44.5 -6q74 -8 142.5 -24.5t120.5 -50.5t83 -90t31 -142t-38 -146.5t-97.5 -98.5t-132 -54.5t-144.5 -16.5q-82 0 -152.5 20.5t-124 63.5t-85 107.5t-31.5 152.5z" />
<glyph unicode="t" horiz-adv-x="720" d="M-41 772v203h147v278l238 68h37v-346h250v-203h-250v-405v-9q0 -113 51 -142q24 -13 58 -13q43 0 102 20l72 -200q-55 -31 -106.5 -38.5t-113.5 -7.5q-94 0 -158.5 28t-104.5 78t-57.5 120.5t-17.5 158.5v410h-147z" />
<glyph unicode="u" horiz-adv-x="1024" d="M41 424v551h283v-553q0 -35 4 -72t17 -67.5t41 -51t77 -20.5q41 0 67.5 19.5t42 50t21.5 67.5t6 72v555h281v-975h-242l-29 109q-47 -78 -108.5 -107t-149.5 -29q-98 0 -159.5 40t-95.5 103.5t-45 144.5t-11 163z" />
<glyph unicode="v" horiz-adv-x="968" d="M-70 961v14h301l129 -369l72 -289h4l70 289l131 369h299v-14l-375 -963h-256z" />
<glyph unicode="w" horiz-adv-x="1421" d="M-63 963v12h280l141 -430l35 -312h4l140 613h233l139 -613h6l37 312l142 430h278v-12l-319 -967h-285l-113 323h-2l-104 -323h-291z" />
<glyph unicode="x" horiz-adv-x="927" d="M-37 0v10l264 477l-241 476v12h305l80 -187l53 -141h2l55 141l80 187h303v-12l-241 -476l264 -477v-10h-299l-72 141l-88 181h-4l-88 -181l-72 -141h-301z" />
<glyph unicode="y" horiz-adv-x="1009" d="M-61 963v12h297l131 -316l86 -305l86 305l135 316h301v-12l-602 -1418h-295v21l225 520z" />
<glyph unicode="z" horiz-adv-x="854" d="M-43 195l285 342l192 208h-434v230h700l78 -197l-305 -370l-188 -187l483 10v-231h-713z" />
<glyph unicode="{" horiz-adv-x="681" d="M115 598v254q33 0 52 16.5t30.5 42t15.5 56t4 59.5v229q0 98 24.5 178t77 138.5t132 90.5t192.5 32v-236q-84 0 -116.5 -43t-32.5 -160v-229q0 -92 -28 -177t-81 -126q66 -47 87.5 -129t21.5 -170v-242q0 -49 6 -87t21.5 -63.5t43 -38.5t72.5 -13v-244 q-109 0 -188.5 32.5t-131 92t-76 141.5t-24.5 180v242q0 31 -4 61.5t-15.5 55t-31 41t-51.5 16.5z" />
<glyph unicode="|" horiz-adv-x="501" d="M66 -172v1771h276v-1771h-276z" />
<glyph unicode="}" horiz-adv-x="675" d="M-14 1458v236q113 0 192.5 -32t131.5 -90.5t77 -138t25 -178.5v-229q0 -29 4 -59.5t15 -56t30.5 -42t52.5 -16.5v-254q-33 0 -52.5 -16.5t-30.5 -41t-15 -55t-4 -61.5v-242q0 -98 -25 -180t-76 -141.5t-131 -92t-188 -32.5v244q88 0 115.5 51t27.5 151v242q0 88 21.5 170 t87.5 129q-53 41 -81 126t-28 177v229q0 117 -32.5 160t-116.5 43z" />
<glyph unicode="~" horiz-adv-x="878" d="M-39 485q43 145 110.5 202.5t172.5 57.5q61 0 115.5 -27.5t99.5 -47t83 -15.5t66 66l205 -70q-20 -72 -55 -123t-80 -79.5t-94 -33.5t-99 15q-49 18 -93 46t-84 38t-75.5 -9.5t-70.5 -90.5z" />
<glyph unicode="&#xa1;" horiz-adv-x="464" d="M39 -451v1076h287v-1076h-287zM41 705v278h285v-278h-285z" />
<glyph unicode="&#xa2;" horiz-adv-x="899" d="M4 483q0 94 19.5 180.5t61.5 155t106.5 114.5t156.5 60v121h168v-119q135 -20 205 -105t94 -228l-231 -37q-10 31 -26.5 60.5t-41.5 49.5v-502q27 23 43 52.5t25 62.5l237 -47q-27 -125 -106.5 -210t-198.5 -107v-125h-168v121q-90 14 -155.5 60t-107.5 113.5 t-61.5 152.5t-19.5 177zM258 481q0 -82 24.5 -146.5t65.5 -98.5v497q-43 -35 -67.5 -101.5t-22.5 -150.5z" />
<glyph unicode="&#xa3;" horiz-adv-x="1153" d="M-33 561v232h115q-10 53 -15.5 100t-5.5 86q0 123 41 212t110 147.5t158 86t185 27.5q98 0 186 -26.5t156 -84t107.5 -147.5t39.5 -219h-280q-6 123 -58.5 169t-150.5 46q-41 0 -78 -11.5t-64.5 -36t-43 -64.5t-11.5 -99q4 -43 10.5 -90t14.5 -96h338v-232h-303 q2 -78 -13.5 -153.5t-62.5 -141.5q61 37 142 42t147 -25q53 -27 92 -39.5t71.5 -10t65.5 21.5t74 56l156 -182q-76 -100 -151 -135t-151.5 -33t-154.5 25.5t-159 40t-164 8.5t-171 -68l-153 191q51 23 81.5 63.5t45 95t15.5 117t-7 127.5h-154z" />
<glyph unicode="&#xa4;" horiz-adv-x="948" d="M-37 369l103 110q-55 193 4 381l-107 115l215 180l107 -115q25 16 62.5 24.5t78.5 8.5t79 -8t62 -27l109 117l215 -180l-103 -113q29 -96 30 -193.5t-27 -189.5l100 -110l-213 -176l-109 112q-35 -27 -71.5 -37t-73.5 -8t-73 14.5t-66 30.5l-107 -115zM284 674 q-1 -45 14 -82t47 -62.5t81 -25.5q70 0 104.5 53t34.5 116.5t-34.5 117t-104.5 53.5q-47 0 -79 -25.5t-47 -62.5t-16 -82z" />
<glyph unicode="&#xa5;" horiz-adv-x="1294" d="M-47 1395v39h305l211 -336l137 -283l139 287l209 332h303v-39l-370 -619h145v-223h-278l-4 -6v-55h282v-222h-282v-270h-287v270h-301v222h301v55l-4 6h-297v223h164z" />
<glyph unicode="&#xa6;" horiz-adv-x="438" d="M43 -186v774h274v-774h-274zM43 680v774h274v-774h-274z" />
<glyph unicode="&#xa7;" horiz-adv-x="913" d="M-6 338h280q0 -70 39 -102.5t86 -33.5t86 26.5t39 78.5q0 43 -28.5 63.5t-96.5 18.5q-55 -2 -119.5 10.5t-121 47t-94 97t-41.5 161.5q0 27 7 56.5t21.5 57t33.5 51t42 37.5q-29 10 -50.5 35t-35.5 55.5t-21.5 64.5t-7.5 64q0 96 38 159t94.5 99.5t125 51t129.5 14.5 q59 0 126 -13.5t123.5 -50t94 -103t43.5 -171.5h-270q0 59 -35 89t-78 30t-77.5 -27.5t-34.5 -83.5q0 -29 13 -46t32.5 -26.5t45.5 -12.5t50 -3q70 0 139.5 -11t123 -45t86 -96.5t30.5 -162.5q0 -31 -7 -61.5t-20.5 -58.5t-32 -49.5t-40.5 -31.5q27 -14 45 -38.5t30.5 -53.5 t16.5 -60.5t4 -58.5q-2 -86 -38 -148.5t-93.5 -102.5t-131 -58.5t-149.5 -18.5q-72 0 -142.5 12.5t-125.5 51.5t-92 109.5t-41 187.5zM281 713q0 -51 38.5 -76t86 -25t86 25t38.5 74q0 57 -38.5 85.5t-86 28.5t-86 -27.5t-38.5 -84.5z" />
<glyph unicode="&#xa8;" horiz-adv-x="737" d="M-20 1243v234h274v-234h-274zM379 1243v234h274v-234h-274z" />
<glyph unicode="&#xa9;" horiz-adv-x="1327" d="M10 698q0 135 39 267.5t116 236t193.5 167t272.5 63.5t272.5 -63.5t195.5 -167t117.5 -235.5t38.5 -268q0 -137 -38.5 -268t-117.5 -234.5t-195.5 -166t-272.5 -62.5t-272.5 62.5t-193.5 166t-116 234.5t-39 268zM209 698q0 -98 26.5 -191t79 -167t131 -119t185.5 -45 q106 0 186 45t133.5 119t80 167t26.5 191t-26.5 192.5t-80 168.5t-133.5 119t-186 45t-185 -45t-131.5 -119t-79 -168t-26.5 -193zM287 698q0 98 29.5 177t78.5 135.5t112.5 87t131.5 30.5q49 0 97 -14t91 -45t78 -79t56 -113l-144 -82q-18 39 -40.5 61.5t-45 34.5t-44 15 t-40.5 3q-63 0 -113.5 -57t-50.5 -154q0 -94 50.5 -150t111.5 -56q39 0 81 23.5t81 100.5l151 -92q-59 -131 -142 -192.5t-169 -61.5q-68 0 -132 31t-115.5 87t-82 135t-30.5 175z" />
<glyph unicode="&#xaa;" horiz-adv-x="661" d="M-2 973q0 39 15.5 75.5t47 65.5t79.5 45.5t114 16.5h94q0 31 -25.5 52t-62.5 28.5t-77 0t-68 -31.5l-74 127q53 53 110.5 69.5t122.5 16.5q51 0 101.5 -14.5t90.5 -47.5t64.5 -86t24.5 -129v-256l8 -149h-155l-27 92q-25 -53 -66 -73.5t-90 -20.5q-55 0 -98 19.5 t-71.5 51t-43 70.5t-14.5 78zM203 975q0 -47 69 -47q31 0 55.5 25.5t24.5 76.5h-76q-41 0 -57 -16.5t-16 -38.5z" />
<glyph unicode="&#xab;" horiz-adv-x="946" d="M-25 647l230 453h293l-228 -453l228 -454h-293zM336 647l229 453h295l-227 -453l225 -454h-293z" />
<glyph unicode="&#xac;" horiz-adv-x="765" d="M-6 596v246h672v-484h-246v238h-426z" />
<glyph unicode="&#xad;" horiz-adv-x="823" d="M47 547v246h631v-246h-631z" />
<glyph unicode="&#xae;" horiz-adv-x="1400" d="M16 694q0 137 40 268.5t121 234.5t202 166.5t283 63.5t283.5 -63.5t202.5 -166.5t121 -234.5t40 -268.5t-40 -268t-121 -234.5t-202.5 -166t-283.5 -62.5t-283 62.5t-202 166t-121 234.5t-40 268zM223 694q0 -98 26.5 -192t82 -168t137.5 -119t193 -45t193.5 45t138 119 t83 168t27.5 192t-27.5 192.5t-83 169t-138 120t-193.5 45.5q-117 0 -200 -45.5t-136.5 -120t-78 -168.5t-24.5 -193zM393 324v778h312q53 0 102 -13.5t88 -43t61.5 -77.5t22.5 -118q0 -88 -45 -152.5t-109 -93.5l160 -246l-27 -34h-170l-163 266h-39v-266h-193zM586 766 h119q39 0 57 22.5t18 48t-19.5 48t-55.5 22.5h-119v-141z" />
<glyph unicode="&#xb0;" horiz-adv-x="507" d="M-12 1229q0 59 19.5 102t51 72t70.5 42t80 13t82 -13t72.5 -41t51 -71t19.5 -104q0 -59 -20.5 -103.5t-52 -72t-72.5 -41t-82 -13.5t-80 13.5t-69.5 41t-50 72t-19.5 103.5zM153 1227.5q-1 -23.5 12 -44t42 -20.5t43 20.5t14 44t-14 44t-41 20.5q-29 0 -42 -20.5t-14 -44 z" />
<glyph unicode="&#xb1;" horiz-adv-x="757" d="M-18 39v237h690v-237h-690zM-18 643v240h215v309h258v-309h217v-240h-217v-291h-258v291h-215z" />
<glyph unicode="&#xb2;" horiz-adv-x="634" d="M0 977l266 215q37 31 73 60.5t36 68.5q0 23 -21.5 44t-62.5 21q-33 0 -59.5 -16t-26.5 -61h-193q0 70 22.5 119t60.5 79.5t89.5 45t106.5 14.5q51 0 103 -12.5t95 -42t70 -79t27 -122.5q0 -72 -37 -122t-84 -89l-156 -107q14 4 49 6t52 7h170v-191h-529z" />
<glyph unicode="&#xb3;" horiz-adv-x="700" d="M14 1077h185q4 -55 42 -74.5t87 -19.5q39 0 70.5 17.5t31.5 54.5q0 31 -26.5 50t-92.5 19h-69v150h69q113 0 113 57q0 33 -35 51.5t-78 17.5t-77.5 -20.5t-34.5 -58.5h-179q0 70 26 116t68 73.5t93 40t102 12.5t105.5 -9.5t98.5 -34t72.5 -66.5t30.5 -107 q2 -49 -26.5 -91.5t-77.5 -52.5q53 -16 86 -58t33 -89q0 -82 -33 -132.5t-82 -77t-106.5 -34.5t-106.5 -6q-45 2 -95 14t-93 43t-72 82t-29 133z" />
<glyph unicode="&#xb4;" horiz-adv-x="454" d="M-8 1171v13l135 248h291v-11l-193 -250h-233z" />
<glyph unicode="&#xb6;" horiz-adv-x="1343" d="M14 895q6 139 60.5 259t160 200t265.5 80h786v-254h-135v-1616h-279v1616h-190v-1616h-281v792q-131 0 -220 80t-131 200t-36 259z" />
<glyph unicode="&#xb7;" horiz-adv-x="368" d="M8 559v258h264v-258h-264z" />
<glyph unicode="&#xb8;" horiz-adv-x="624" d="M0 -313l123 102q14 -23 40.5 -37t52.5 -15t46.5 12t24.5 44q2 16 -7.5 32.5t-25.5 27t-41 11.5t-51 -11l-58 51l56 174h209l-25 -94q49 -6 85 -31t58.5 -59.5t30.5 -74.5t0 -79q-18 -94 -83.5 -142.5t-145.5 -54.5t-160 30t-129 114z" />
<glyph unicode="&#xb9;" horiz-adv-x="501" d="M-25 1358l195 201h223v-725h-217v497l-96 -102z" />
<glyph unicode="&#xba;" horiz-adv-x="634" d="M-6 1196q0 76 17.5 140.5t52 111.5t89 74.5t126.5 27.5t125 -27.5t88.5 -75.5t54 -112.5t18.5 -138.5q0 -158 -71.5 -256t-214.5 -98q-72 0 -126.5 26.5t-89 74.5t-52 112.5t-17.5 140.5zM193 1196q0 -70 21.5 -115t64.5 -45q41 0 62 45t21 115t-21.5 116t-61.5 46 q-43 0 -64.5 -46t-21.5 -116z" />
<glyph unicode="&#xbb;" horiz-adv-x="958" d="M-14 1090h293l229 -453l-229 -455h-291l225 455zM346 1090h295l229 -453l-229 -455h-293l227 455z" />
<glyph unicode="&#xbc;" horiz-adv-x="1413" d="M-2 1233l195 201h208v-725h-202v497l-84 -102zM102 -74l875 1557h244l-875 -1557h-244zM690 102v140l414 499h162v-465h77v-174h-77v-102h-199v102h-377zM948 276h123v93l27 98z" />
<glyph unicode="&#xbd;" horiz-adv-x="1482" d="M-8 1225l194 200h207v-725h-200v498l-84 -102zM70 -72l862 1538h256l-866 -1538h-252zM780 158l267 215q37 31 72.5 60.5t35.5 68.5q0 23 -21.5 44t-62.5 21q-33 0 -59.5 -16t-26.5 -62h-192q0 70 22.5 119t60 80t89 45.5t106.5 14.5q51 0 103.5 -12.5t95.5 -42t69.5 -79 t26.5 -122.5q0 -72 -37 -122.5t-84 -88.5l-155 -107q14 4 49 6t51 6h170v-190h-529z" />
<glyph unicode="&#xbe;" horiz-adv-x="1470" d="M-8 1006h184q4 -55 42 -75t87 -20q39 0 71 17.5t32 54.5q0 31 -27 50.5t-92 19.5h-70v149h70q113 0 112 58q0 33 -34.5 51t-77.5 17t-78 -20.5t-35 -58.5h-178q0 70 25.5 116t67.5 73.5t93.5 40t102.5 12.5t105 -9t98.5 -34t73 -67t30.5 -107q2 -49 -26.5 -91t-78.5 -53 q53 -16 86 -58t33 -89q0 -82 -32.5 -132t-82 -76.5t-106.5 -35t-106 -6.5q-45 2 -95.5 14.5t-93.5 43t-71.5 82t-28.5 133.5zM147 -74l938 1557h248l-938 -1557h-248zM752 102v140l413 499h162v-465h78v-174h-78v-102h-199v102h-376zM1010 276h123v93l26 98z" />
<glyph unicode="&#xbf;" horiz-adv-x="1118" d="M4 -10q6 104 41 163.5t83 93.5t102.5 54.5t100.5 48t75.5 73.5t29.5 132v66h295v-60q0 -123 -31.5 -200.5t-80 -127t-103.5 -77t-103 -53t-80 -55.5t-32 -83q0 -68 38 -113t93 -63t118.5 -14t115 33.5t81 84t17.5 134.5h283q0 -137 -42 -235.5t-113 -161t-162 -92.5 t-187 -30q-100 0 -198.5 26t-176.5 83t-124 148.5t-40 224.5zM432 709v268h295v-268h-295z" />
<glyph unicode="&#xc0;" d="M-43 0v49l545 1393h266l543 -1393v-49h-293l-119 326h-530l-119 -326h-293zM336 1833v10h291l135 -248v-12h-234zM459 582h352l-117 309l-59 199h-2l-60 -199z" />
<glyph unicode="&#xc1;" d="M-43 0v49l545 1393h266l543 -1393v-49h-293l-119 326h-530l-119 -326h-293zM459 582h352l-117 309l-59 199h-2l-60 -199zM516 1583v12l135 248h291v-10l-192 -250h-234z" />
<glyph unicode="&#xc2;" d="M-43 0v49l545 1393h266l543 -1393v-49h-293l-119 326h-530l-119 -326h-293zM283 1587v10l227 228h238l237 -228v-10h-274l-78 82l-78 -82h-272zM459 582h352l-117 309l-59 199h-2l-60 -199z" />
<glyph unicode="&#xc3;" d="M-43 0v49l545 1393h266l543 -1393v-49h-293l-119 326h-530l-119 -326h-293zM336 1657q12 49 38.5 87t60.5 61.5t72 29.5t75 -8t65.5 -31.5t51 -25t42 4t39.5 52.5l162 -68q-55 -125 -115.5 -159.5t-138.5 -6.5q-27 10 -55.5 24.5t-56 19.5t-51 -9t-40.5 -59zM459 582h352 l-117 309l-59 199h-2l-60 -199z" />
<glyph unicode="&#xc4;" d="M-43 0v49l545 1393h266l543 -1393v-49h-293l-119 326h-530l-119 -326h-293zM330 1577v223h250v-223h-250zM459 582h352l-117 309l-59 199h-2l-60 -199zM694 1577v223h252v-223h-252z" />
<glyph unicode="&#xc5;" d="M-43 0v49l545 1393h266l543 -1393v-49h-293l-119 326h-530l-119 -326h-293zM399 1710q0 39 14.5 76t43 65.5t72 47t102.5 18.5q57 0 102 -18.5t74 -47t44 -65.5t15 -76t-15 -76t-44 -66.5t-74 -47t-102 -17.5q-59 0 -102.5 17.5t-72 47t-43 66.5t-14.5 76zM459 582h352 l-117 309l-59 199h-2l-60 -199zM565 1712q0 -29 21.5 -42t47 -13t47 14t21.5 41q0 29 -21.5 42t-47 13t-47 -14t-21.5 -41z" />
<glyph unicode="&#xc6;" horiz-adv-x="1914" d="M-59 0v10l843 1424h1018v-242h-616v-358h590v-238h-590v-350h616v-246h-889v356h-448l-201 -356h-323zM614 608h306v584z" />
<glyph unicode="&#xc7;" horiz-adv-x="1263" d="M10 721q0 152 33 288t105.5 238.5t188.5 161.5t284 59q82 0 164.5 -23.5t155.5 -75.5t132.5 -134t95.5 -201v-20l-231 -76q-16 51 -44 101.5t-67 89t-88 62t-108 26.5q-98 2 -161.5 -45.5t-99.5 -121t-49.5 -161.5t-13.5 -168q0 -78 12.5 -165t46 -162t95 -124t157.5 -49 q39 0 81 13.5t82 46t76 88t65 141.5l254 -72v-37q-39 -106 -92.5 -183t-117 -128t-133 -79.5t-141.5 -37.5l-14 -55q49 -6 85 -29.5t58.5 -55.5t30.5 -69.5t0 -74.5q-18 -88 -84 -133t-146.5 -50.5t-160.5 28.5t-129 106l123 96q14 -23 40.5 -35t53 -13t47 11t25.5 41 q4 31 -34 54.5t-93 0.5l-58 47l47 140q-129 25 -218 92t-146.5 165.5t-83 222.5t-25.5 259z" />
<glyph unicode="&#xc8;" horiz-adv-x="1105" d="M49 0v1434h944v-250h-647v-348h621v-236h-621v-352h647v-248h-944zM281 1835v10h290l136 -248v-12h-234z" />
<glyph unicode="&#xc9;" horiz-adv-x="1105" d="M49 0v1434h944v-250h-647v-348h621v-236h-621v-352h647v-248h-944zM399 1583v12l136 248h290v-10l-192 -250h-234z" />
<glyph unicode="&#xca;" horiz-adv-x="1105" d="M49 0v1434h944v-250h-647v-348h621v-236h-621v-352h647v-248h-944zM195 1585v10l227 228h237l238 -228v-10h-274l-78 82l-78 -82h-272z" />
<glyph unicode="&#xcb;" horiz-adv-x="1105" d="M49 0v1434h944v-250h-647v-348h621v-236h-621v-352h647v-248h-944zM203 1581v234h274v-234h-274zM602 1581v234h275v-234h-275z" />
<glyph unicode="&#xcc;" horiz-adv-x="497" d="M-88 1833v10h291l135 -248v-12h-234zM55 0v1434h297v-1434h-297z" />
<glyph unicode="&#xcd;" horiz-adv-x="497" d="M55 0v1434h297v-1434h-297zM84 1583v12l135 248h291v-10l-193 -250h-233z" />
<glyph unicode="&#xce;" horiz-adv-x="497" d="M-143 1589v10l227 228h238l237 -228v-10h-274l-78 82l-78 -82h-272zM55 0v1434h297v-1434h-297z" />
<glyph unicode="&#xcf;" horiz-adv-x="497" d="M-96 1569v227h241v-227h-241zM55 0v1434h297v-1434h-297zM256 1569v227h242v-227h-242z" />
<glyph unicode="&#xd0;" horiz-adv-x="1325" d="M-27 602v238h113v594h565q145 0 252 -61.5t177.5 -163t105.5 -230.5t35 -264t-35 -263t-105.5 -228.5t-178 -162t-251.5 -61.5h-565v602h-113zM381 252h266q84 0 137.5 48t84 118.5t43 150.5t12.5 146q0 63 -12.5 144t-43 153.5t-85 122t-136.5 49.5h-266v-344h219v-238 h-219v-350z" />
<glyph unicode="&#xd1;" horiz-adv-x="1370" d="M53 0v1434h336l580 -1035h2l-47 369v666h297v-1434h-328l-580 1030h-4l39 -381v-649h-295zM340 1634q12 51 40 91t62.5 65t73.5 31t76 -9q39 -16 68.5 -33.5t53 -24.5t43 4t40.5 54l168 -69q-57 -133 -119 -170t-144 -6q-27 10 -56.5 26.5t-58 20.5t-53 -9.5t-40.5 -62.5 z" />
<glyph unicode="&#xd2;" horiz-adv-x="1312" d="M10 721q0 150 32 285t102.5 237.5t183 162.5t276.5 60t277.5 -60t184.5 -162.5t102.5 -238t31.5 -284.5q0 -152 -32.5 -288t-103.5 -238.5t-184.5 -164t-275.5 -61.5t-275.5 61.5t-184 164t-102.5 238.5t-32 288zM305 721q0 -76 12.5 -163t45 -160.5t91 -123t150.5 -49.5 t150.5 49.5t91.5 123t45 160.5t12 163t-12 162t-46 159.5t-92.5 121.5t-148.5 48t-148.5 -48t-92 -121.5t-46 -159.5t-12.5 -162zM328 1845v10h290l136 -247v-13h-234z" />
<glyph unicode="&#xd3;" horiz-adv-x="1312" d="M10 721q0 150 32 285t102.5 237.5t183 162.5t276.5 60t277.5 -60t184.5 -162.5t102.5 -238t31.5 -284.5q0 -152 -32.5 -288t-103.5 -238.5t-184.5 -164t-275.5 -61.5t-275.5 61.5t-184 164t-102.5 238.5t-32 288zM305 721q0 -76 12.5 -163t45 -160.5t91 -123t150.5 -49.5 t150.5 49.5t91.5 123t45 160.5t12 163t-12 162t-46 159.5t-92.5 121.5t-148.5 48t-148.5 -48t-92 -121.5t-46 -159.5t-12.5 -162zM463 1589v13l135 247h291v-10l-193 -250h-233z" />
<glyph unicode="&#xd4;" horiz-adv-x="1312" d="M10 721q0 150 32 285t102.5 237.5t183 162.5t276.5 60t277.5 -60t184.5 -162.5t102.5 -238t31.5 -284.5q0 -152 -32.5 -288t-103.5 -238.5t-184.5 -164t-275.5 -61.5t-275.5 61.5t-184 164t-102.5 238.5t-32 288zM256 1595v11l227 227h238l237 -227v-11h-274l-78 82 l-78 -82h-272zM305 721q0 -76 12.5 -163t45 -160.5t91 -123t150.5 -49.5t150.5 49.5t91.5 123t45 160.5t12 163t-12 162t-46 159.5t-92.5 121.5t-148.5 48t-148.5 -48t-92 -121.5t-46 -159.5t-12.5 -162z" />
<glyph unicode="&#xd5;" horiz-adv-x="1312" d="M10 721q0 150 32 285t102.5 237.5t183 162.5t276.5 60t277.5 -60t184.5 -162.5t102.5 -238t31.5 -284.5q0 -152 -32.5 -288t-103.5 -238.5t-184.5 -164t-275.5 -61.5t-275.5 61.5t-184 164t-102.5 238.5t-32 288zM293 1649q12 51 39.5 91t62.5 64.5t75 30.5t77 -8 q39 -16 68.5 -33.5t53 -25t44 4t41.5 54.5l168 -70q-59 -131 -121 -168t-144 -6q-27 10 -56.5 25.5t-58 20.5t-54 -9t-42.5 -64zM305 721q0 -76 12.5 -163t45 -160.5t91 -123t150.5 -49.5t150.5 49.5t91.5 123t45 160.5t12 163t-12 162t-46 159.5t-92.5 121.5t-148.5 48 t-148.5 -48t-92 -121.5t-46 -159.5t-12.5 -162z" />
<glyph unicode="&#xd6;" horiz-adv-x="1312" d="M10 721q0 150 32 285t102.5 237.5t183 162.5t276.5 60t277.5 -60t184.5 -162.5t102.5 -238t31.5 -284.5q0 -152 -32.5 -288t-103.5 -238.5t-184.5 -164t-275.5 -61.5t-275.5 61.5t-184 164t-102.5 238.5t-32 288zM268 1597v234h275v-234h-275zM305 721q0 -76 12.5 -163 t45 -160.5t91 -123t150.5 -49.5t150.5 49.5t91.5 123t45 160.5t12 163t-12 162t-46 159.5t-92.5 121.5t-148.5 48t-148.5 -48t-92 -121.5t-46 -159.5t-12.5 -162zM668 1597v234h274v-234h-274z" />
<glyph unicode="&#xd7;" horiz-adv-x="722" d="M-14 473l159 170l-159 172l178 172l153 -166l146 158l184 -164l-166 -176l158 -172l-176 -174l-152 164l-147 -156z" />
<glyph unicode="&#xd8;" horiz-adv-x="1312" d="M10 721q0 150 32 285t102.5 237.5t183 162.5t276.5 60q86 0 158 -18l49 121h272l-96 -238q115 -104 164 -264t49 -346q0 -152 -32.5 -288t-103.5 -238.5t-184.5 -164t-275.5 -61.5q-84 0 -158 19l-53 -135h-272l100 251q-113 104 -162 266t-49 351zM305 721 q0 -70 9.5 -147.5t35.5 -147.5l314 778q-14 4 -29 6t-31 2q-90 0 -148.5 -48t-92 -121.5t-46 -159.5t-12.5 -162zM545 231q26 -6 59 -6q92 0 150.5 49.5t91.5 123t45 160.5t12 163q0 68 -10 143.5t-35 143.5z" />
<glyph unicode="&#xd9;" horiz-adv-x="1386" d="M51 688v746h305v-746q0 -135 25 -225t64.5 -144.5t91 -77t104.5 -22.5t104.5 21.5t92.5 75t66.5 144.5t25.5 228v746h303v-746q0 -197 -50 -332t-133 -219t-188.5 -120.5t-216.5 -36.5t-218.5 36.5t-190 120.5t-134 219.5t-51.5 331.5zM377 1841v10h291l135 -247v-13 h-234z" />
<glyph unicode="&#xda;" horiz-adv-x="1386" d="M51 688v746h305v-746q0 -135 25 -225t64.5 -144.5t91 -77t104.5 -22.5t104.5 21.5t92.5 75t66.5 144.5t25.5 228v746h303v-746q0 -197 -50 -332t-133 -219t-188.5 -120.5t-216.5 -36.5t-218.5 36.5t-190 120.5t-134 219.5t-51.5 331.5zM496 1589v13l135 247h291v-10 l-193 -250h-233z" />
<glyph unicode="&#xdb;" horiz-adv-x="1386" d="M51 688v746h305v-746q0 -135 25 -225t64.5 -144.5t91 -77t104.5 -22.5t104.5 21.5t92.5 75t66.5 144.5t25.5 228v746h303v-746q0 -197 -50 -332t-133 -219t-188.5 -120.5t-216.5 -36.5t-218.5 36.5t-190 120.5t-134 219.5t-51.5 331.5zM293 1589v10l227 228h238l237 -228 v-10h-274l-78 82l-78 -82h-272z" />
<glyph unicode="&#xdc;" horiz-adv-x="1386" d="M51 688v746h305v-746q0 -135 25 -225t64.5 -144.5t91 -77t104.5 -22.5t104.5 21.5t92.5 75t66.5 144.5t25.5 228v746h303v-746q0 -197 -50 -332t-133 -219t-188.5 -120.5t-216.5 -36.5t-218.5 36.5t-190 120.5t-134 219.5t-51.5 331.5zM309 1591v234h275v-234h-275z M709 1591v234h274v-234h-274z" />
<glyph unicode="&#xdd;" horiz-adv-x="1300" d="M-47 1395v39h305l211 -336l137 -258l139 262l209 332h303v-39l-507 -846v-549h-287v549zM446 1587v12l136 248h290v-10l-192 -250h-234z" />
<glyph unicode="&#xde;" horiz-adv-x="1196" d="M51 0v1434h295v-220h277q119 0 207 -43t148 -111.5t90 -157.5t32 -181q0 -92 -30 -181t-90 -159t-150.5 -112t-211.5 -42h-272v-227h-295zM346 477h275q61 0 101 36t60.5 89t20.5 116.5t-19.5 117t-60.5 89.5t-100 36h-277v-484z" />
<glyph unicode="&#xdf;" horiz-adv-x="1054" d="M51 0v1044q0 205 112.5 309.5t307.5 104.5q92 0 168 -25.5t131 -76.5t86 -126t31 -175q0 -86 -41 -162t-119 -111q53 -14 97 -47t76 -78t49.5 -99t17.5 -109q0 -117 -34 -201t-95.5 -139.5t-148.5 -82t-193 -26.5h-80v258h80q92 0 140 55.5t50 126.5q0 37 -12 73 t-37 64.5t-60.5 46t-80.5 17.5h-80v238h59q31 0 56.5 14t44 38.5t27.5 54.5t9 61q-2 78 -43 117.5t-100 39.5q-55 0 -94 -39t-41 -121v-1044h-283z" />
<glyph unicode="&#xe0;" horiz-adv-x="952" d="M6 303q0 84 34 141.5t88 92t119.5 50t129.5 15.5h149q0 78 -33.5 121t-115.5 47q-29 2 -61.5 -1t-66.5 -11t-64.5 -20.5t-53.5 -26.5l-72 196q66 49 151 73t169 21q94 0 173 -27.5t135 -78.5t88 -126t32 -171v-389l14 -209h-215l-37 131q-33 -72 -92 -115t-141 -43 q-152 0 -241 88.5t-89 241.5zM160 1386v11h291l135 -248v-12h-234zM287 307q0 -35 22.5 -64.5t67.5 -29.5t74.5 16.5t48 43t25.5 60.5t7 68h-155q-45 0 -67.5 -29.5t-22.5 -64.5z" />
<glyph unicode="&#xe1;" horiz-adv-x="952" d="M6 303q0 84 34 141.5t88 92t119.5 50t129.5 15.5h149q0 78 -33.5 121t-115.5 47q-29 2 -61.5 -1t-66.5 -11t-64.5 -20.5t-53.5 -26.5l-72 196q66 49 151 73t169 21q94 0 173 -27.5t135 -78.5t88 -126t32 -171v-389l14 -209h-215l-37 131q-33 -72 -92 -115t-141 -43 q-152 0 -241 88.5t-89 241.5zM260 1135v12l135 248h291v-11l-192 -249h-234zM287 307q0 -35 22.5 -64.5t67.5 -29.5t74.5 16.5t48 43t25.5 60t7 68.5h-155q-45 0 -67.5 -29.5t-22.5 -64.5z" />
<glyph unicode="&#xe2;" horiz-adv-x="952" d="M6 303q0 84 34 141.5t88 92t119.5 50t129.5 15.5h149q0 78 -33.5 121t-115.5 47q-29 2 -61.5 -1t-66.5 -11t-64.5 -20.5t-53.5 -26.5l-72 196q66 49 151 73t169 21q94 0 173 -27.5t135 -78.5t88 -126t32 -171v-389l14 -209h-215l-37 131q-33 -72 -92 -115t-141 -43 q-152 0 -241 88.5t-89 241.5zM98 1135v12l209 235h217l217 -235v-12h-249l-72 86l-72 -86h-250zM287 307q0 -35 22.5 -64.5t67.5 -29.5t74.5 16.5t48 43t25.5 60.5t7 68h-155q-45 0 -67.5 -29.5t-22.5 -64.5z" />
<glyph unicode="&#xe3;" horiz-adv-x="952" d="M6 303q0 84 34 141.5t88 92t119.5 50t129.5 15.5h149q0 78 -33.5 121t-115.5 47q-29 2 -61.5 -1t-66.5 -11t-64.5 -20.5t-53.5 -26.5l-72 196q66 49 151 73t169 21q94 0 173 -27.5t135 -78.5t88 -126t32 -171v-389l14 -209h-215l-37 131q-33 -72 -92 -115t-141 -43 q-152 0 -241 88.5t-89 241.5zM96 1219q12 55 42 93t67 58.5t77 23.5t76 -12q39 -16 68 -34.5t51.5 -24.5t42 7t39.5 59l162 -74q-55 -135 -115.5 -174t-138.5 -6q-27 10 -57.5 26.5t-61.5 23.5t-59.5 -3.5t-48.5 -53.5zM287 307q0 -35 22.5 -64.5t67.5 -29.5t74.5 16.5 t48 43t25.5 60.5t7 68h-155q-45 0 -67.5 -29.5t-22.5 -64.5z" />
<glyph unicode="&#xe4;" horiz-adv-x="952" d="M6 303q0 84 34 141.5t88 92t119.5 50t129.5 15.5h149q0 78 -33.5 121t-115.5 47q-29 2 -61.5 -1t-66.5 -11t-64.5 -20.5t-53.5 -26.5l-72 196q66 49 151 73t169 21q94 0 173 -27.5t135 -78.5t88 -126t32 -171v-389l14 -209h-215l-37 131q-33 -72 -92 -115t-141 -43 q-152 0 -241 88.5t-89 241.5zM113 1141v225h247v-225h-247zM287 307q0 -35 22.5 -64.5t67.5 -29.5t74.5 16.5t48 43t25.5 60.5t7 68h-155q-45 0 -67.5 -29.5t-22.5 -64.5zM471 1141v225h248v-225h-248z" />
<glyph unicode="&#xe5;" horiz-adv-x="952" d="M6 303q0 84 34 141.5t88 92t119.5 50t129.5 15.5h149q0 78 -33.5 121t-115.5 47q-29 2 -61.5 -1t-66.5 -11t-64.5 -20.5t-53.5 -26.5l-72 196q66 49 151 73t169 21q94 0 173 -27.5t135 -78.5t88 -126t32 -171v-389l14 -209h-215l-37 131q-33 -72 -92 -115t-141 -43 q-152 0 -241 88.5t-89 241.5zM195 1270q0 37 14 71.5t43 62.5t72 44t102 16t103 -16t74 -44t45.5 -62.5t15.5 -71.5t-15.5 -72t-45.5 -62.5t-74 -44t-103 -16.5t-102 16.5t-72 44t-43 62.5t-14 72zM287 307q0 -35 22.5 -64.5t67.5 -29.5t74.5 16.5t48 43t25.5 60.5t7 68 h-155q-45 0 -67.5 -29.5t-22.5 -64.5zM360 1272q0 -27 21.5 -40t48.5 -12t48.5 14t21.5 38q0 27 -21.5 40t-48.5 13t-48.5 -13.5t-21.5 -39.5z" />
<glyph unicode="&#xe6;" horiz-adv-x="1484" d="M6 303q0 84 34 141.5t88 92t119.5 50t129.5 15.5h158q0 160 -158 168q-55 4 -126 -8t-118 -43l-74 188q66 49 151 73t169 21q94 -2 161.5 -26.5t125.5 -95.5q53 59 124.5 90.5t163.5 31.5q131 0 217 -54t135.5 -141t62.5 -195.5t1 -217.5h-567l2 -35q6 -63 42 -107 t111 -44q102 0 144 96l223 -78q-27 -74 -65.5 -122t-88 -75.5t-104.5 -37.5t-113 -10q-109 0 -179 40.5t-124 124.5q-51 -98 -133 -135t-182 -37q-152 0 -241 88.5t-89 241.5zM287 307q0 -35 22.5 -64.5t67.5 -29.5t74.5 16.5t48 43t25.5 60.5t7 68h-155q-45 0 -67.5 -29.5 t-22.5 -64.5zM803 594h293q0 88 -44 128t-98 40q-27 0 -54.5 -9.5t-49 -30t-34.5 -53t-13 -75.5z" />
<glyph unicode="&#xe7;" horiz-adv-x="899" d="M4 483q0 104 23.5 198.5t76 165.5t133 112.5t195.5 41.5q178 0 266 -87t117 -252l-237 -37q-14 51 -48 96t-96 45q-39 0 -68.5 -24.5t-48 -64.5t-27.5 -91t-9 -105q0 -53 9 -102t28.5 -89t48 -63.5t65.5 -23.5q61 0 96 46t47 99l246 -47q-27 -123 -101.5 -205 t-189.5 -110l-18 -64q49 -6 85 -28.5t58.5 -53t30.5 -67.5t0 -72q-18 -84 -83.5 -128t-145.5 -49t-160 26.5t-129 101.5l123 94q14 -23 40.5 -35t52.5 -13t46.5 10t24.5 40q4 31 -33 53.5t-92 1.5l-58 45l47 138q-84 18 -143 65t-97 113.5t-56.5 148.5t-18.5 170z" />
<glyph unicode="&#xe8;" horiz-adv-x="956" d="M0 492q0 104 23.5 197t75 162t132 109.5t195.5 40.5q131 0 217 -54t135 -141t62.5 -195.5t1.5 -217.5h-561q0 -76 32.5 -131t116.5 -55q102 0 143 96l224 -78q-27 -74 -66 -122t-88 -75.5t-104.5 -37.5t-112.5 -10q-115 0 -195.5 40.5t-132 110.5t-75 163t-23.5 198z M152 1389v10h290l136 -248v-12h-234zM281 594h286q0 88 -44 128t-97 40q-53 2 -99 -39t-46 -129z" />
<glyph unicode="&#xe9;" horiz-adv-x="956" d="M0 492q0 104 23.5 197t75 162t132 109.5t195.5 40.5q131 0 217 -54t135 -141t62.5 -195.5t1.5 -217.5h-561q0 -76 32.5 -131t116.5 -55q102 0 143 96l224 -78q-27 -74 -66 -122t-88 -75.5t-104.5 -37.5t-112.5 -10q-115 0 -195.5 40.5t-132 110.5t-75 163t-23.5 198z M281 594h286q0 88 -44 128t-97 40q-53 2 -99 -39t-46 -129zM289 1139v12l135 248h291v-10l-193 -250h-233z" />
<glyph unicode="&#xea;" horiz-adv-x="956" d="M0 492q0 104 23.5 197t75 162t132 109.5t195.5 40.5q131 0 217 -54t135 -141t62.5 -195.5t1.5 -217.5h-561q0 -76 32.5 -131t116.5 -55q102 0 143 96l224 -78q-27 -74 -66 -122t-88 -75.5t-104.5 -37.5t-112.5 -10q-115 0 -195.5 40.5t-132 110.5t-75 163t-23.5 198z M119 1128v13l205 239h213l215 -239v-13h-248l-70 89l-69 -89h-246zM281 594h286q0 88 -44 128t-97 40q-53 2 -99 -39t-46 -129z" />
<glyph unicode="&#xeb;" horiz-adv-x="956" d="M0 492q0 104 23.5 197t75 162t132 109.5t195.5 40.5q131 0 217 -54t135 -141t62.5 -195.5t1.5 -217.5h-561q0 -76 32.5 -131t116.5 -55q102 0 143 96l224 -78q-27 -74 -66 -122t-88 -75.5t-104.5 -37.5t-112.5 -10q-115 0 -195.5 40.5t-132 110.5t-75 163t-23.5 198z M125 1128v240h250v-240h-250zM281 594h286q0 88 -44 128t-97 40q-53 2 -99 -39t-46 -129zM489 1128v240h250v-240h-250z" />
<glyph unicode="&#xec;" horiz-adv-x="458" d="M-76 1391v12h277l127 -258v-12h-222zM43 0v975h279v-975h-279z" />
<glyph unicode="&#xed;" horiz-adv-x="458" d="M41 1135v12l127 256h274v-10l-180 -258h-221zM43 0v975h279v-975h-279z" />
<glyph unicode="&#xee;" horiz-adv-x="458" d="M-98 1149v10l182 236h188l191 -236v-10h-219l-64 86l-61 -86h-217zM43 0v975h279v-975h-279z" />
<glyph unicode="&#xef;" horiz-adv-x="458" d="M-90 1190v237h240v-237h-240zM43 0v975h279v-975h-279zM215 1190v237h240v-237h-240z" />
<glyph unicode="&#xf0;" horiz-adv-x="960" d="M12 487q0 84 16.5 163t50.5 143.5t86 110.5t124 65q25 6 60.5 9t76.5 -3t84 -26.5t84 -61.5q-10 45 -28.5 81t-38 61.5t-37 43t-25.5 23.5l-57 -72l-144 90l51 70q-35 14 -67.5 24.5t-87.5 20.5l47 207q72 -10 129 -24.5t104 -41.5l68 96l162 -112l-64 -80 q63 -51 111.5 -136t81 -188.5t46 -218.5t7.5 -223q-6 -109 -35 -204t-80 -166.5t-128 -113.5t-179 -42q-104 0 -183 39.5t-131.5 109.5t-78 162t-25.5 194zM291 489q0 -113 34.5 -188.5t104.5 -75.5q35 0 60.5 21.5t43 58.5t25.5 85t8 99t-8 99.5t-25.5 87.5t-43 62.5 t-60.5 23.5t-60.5 -23.5t-43 -62.5t-26.5 -87t-9 -100z" />
<glyph unicode="&#xf1;" horiz-adv-x="1021" d="M41 0v975h240l30 -111q47 78 108.5 106.5t149.5 28.5q98 0 158.5 -39.5t94.5 -103t46.5 -143.5t12.5 -162v-551h-283v553q0 35 -4 72t-17.5 67.5t-41 51t-76.5 20.5q-41 0 -67.5 -20.5t-42 -51t-21.5 -67.5t-6 -70v-555h-281zM174 1208q12 51 40 91t61.5 63.5t72.5 30 t76 -8.5q39 -14 67.5 -32.5t51 -25.5t43 4t41.5 54l164 -69q-57 -129 -118 -166t-141 -6q-27 10 -56.5 25.5t-57 19.5t-52 -9.5t-40.5 -62.5z" />
<glyph unicode="&#xf2;" horiz-adv-x="987" d="M0 489q0 104 26.5 197.5t81 163.5t136.5 110.5t194 40.5q113 0 196 -40.5t137 -110.5t81 -163t27 -198q0 -104 -27 -197t-81 -163t-137 -111t-196 -41t-194.5 41t-136 111t-81 163t-26.5 197zM166 1386v11h291l135 -248v-12h-234zM283 489q0 -37 6 -86t23.5 -92t47 -73.5 t78.5 -30.5t80 30.5t48.5 73.5t23.5 92t6 86t-6 85.5t-23.5 91.5t-48.5 73.5t-80 30.5t-78.5 -30.5t-47 -73.5t-23.5 -91.5t-6 -85.5z" />
<glyph unicode="&#xf3;" horiz-adv-x="987" d="M0 489q0 104 26.5 197.5t81 163.5t136.5 110.5t194 40.5q113 0 196 -40.5t137 -110.5t81 -163t27 -198q0 -104 -27 -197t-81 -163t-137 -111t-196 -41t-194.5 41t-136 111t-81 163t-26.5 197zM283 489q0 -37 6 -86t23.5 -92t47 -73.5t78.5 -30.5t80 30.5t48.5 73.5 t23.5 92t6 86t-6 85.5t-23.5 91.5t-48.5 73.5t-80 30.5t-78.5 -30.5t-47 -73.5t-23.5 -91.5t-6 -85.5zM297 1141v12l135 248h291v-10l-193 -250h-233z" />
<glyph unicode="&#xf4;" horiz-adv-x="987" d="M0 489q0 104 26.5 197.5t81 163.5t136.5 110.5t194 40.5q113 0 196 -40.5t137 -110.5t81 -163t27 -198q0 -104 -27 -197t-81 -163t-137 -111t-196 -41t-194.5 41t-136 111t-81 163t-26.5 197zM119 1143v10l211 231h219l219 -231v-10h-254l-72 84l-71 -84h-252zM283 489 q0 -37 6 -86t23.5 -92t47 -73.5t78.5 -30.5t80 30.5t48.5 73.5t23.5 92t6 86t-6 85.5t-23.5 91.5t-48.5 73.5t-80 30.5t-78.5 -30.5t-47 -73.5t-23.5 -91.5t-6 -85.5z" />
<glyph unicode="&#xf5;" horiz-adv-x="987" d="M0 489q0 104 26.5 197.5t81 163.5t136.5 110.5t194 40.5q113 0 196 -40.5t137 -110.5t81 -163t27 -198q0 -104 -27 -197t-81 -163t-137 -111t-196 -41t-194.5 41t-136 111t-81 163t-26.5 197zM143 1227q12 53 39 93t60.5 64.5t71.5 30.5t75 -8q37 -16 65.5 -33.5t51 -25 t42 4t40.5 54.5l162 -72q-55 -133 -116 -170t-138 -6q-27 10 -55.5 25.5t-56.5 20.5t-51.5 -9t-39.5 -63zM283 489q0 -37 6 -86t23.5 -92t47 -73.5t78.5 -30.5t80 30.5t48.5 73.5t23.5 92t6 86t-6 85.5t-23.5 91.5t-48.5 73.5t-80 30.5t-78.5 -30.5t-47 -73.5t-23.5 -91.5 t-6 -85.5z" />
<glyph unicode="&#xf6;" horiz-adv-x="987" d="M0 489q0 104 26.5 197.5t81 163.5t136.5 110.5t194 40.5q113 0 196 -40.5t137 -110.5t81 -163t27 -198q0 -104 -27 -197t-81 -163t-137 -111t-196 -41t-194.5 41t-136 111t-81 163t-26.5 197zM133 1153v238h252v-238h-252zM283 489q0 -37 6 -86t23.5 -92t47 -73.5 t78.5 -30.5t80 30.5t48.5 73.5t23.5 92t6 86t-6 85.5t-23.5 91.5t-48.5 73.5t-80 30.5t-78.5 -30.5t-47 -73.5t-23.5 -91.5t-6 -85.5zM500 1153v238h252v-238h-252z" />
<glyph unicode="&#xf7;" horiz-adv-x="856" d="M-12 594v242h760v-242h-760zM233 240v241h269v-241h-269zM233 940v242h269v-242h-269z" />
<glyph unicode="&#xf8;" horiz-adv-x="987" d="M0 489q0 104 26.5 197.5t81 163.5t136.5 110.5t194 40.5q16 0 32.5 -1t33.5 -3l49 123h285l-95 -239q70 -72 103 -173.5t33 -218.5q0 -104 -27 -197t-81 -163t-137 -111t-196 -41q-12 0 -24.5 1.5t-22.5 1.5l-47 -123h-285l88 227q-76 72 -111.5 177t-35.5 228zM283 489 q0 -37 6 -86t23.5 -92t47 -73.5t78.5 -30.5t80 30.5t48.5 73.5t23.5 92t6 86t-6 85.5t-23.5 91.5t-48.5 73.5t-80 30.5t-78.5 -30.5t-47 -73.5t-23.5 -91.5t-6 -85.5z" />
<glyph unicode="&#xf9;" horiz-adv-x="1024" d="M41 424v551h283v-553q0 -35 4 -72t17 -67.5t41 -51t77 -20.5q41 0 67.5 19.5t42 50t21.5 67.5t6 72v555h281v-975h-242l-29 109q-47 -78 -108.5 -107t-149.5 -29q-98 0 -159.5 40t-95.5 103.5t-45 144.5t-11 163zM174 1393v10h291l135 -248v-12h-233z" />
<glyph unicode="&#xfa;" horiz-adv-x="1024" d="M41 424v551h283v-553q0 -35 4 -72t17 -67.5t41 -51t77 -20.5q41 0 67.5 19.5t42 50t21.5 67.5t6 72v555h281v-975h-242l-29 109q-47 -78 -108.5 -107t-149.5 -29q-98 0 -159.5 40t-95.5 103.5t-45 144.5t-11 163zM319 1145v12l136 248h290v-10l-192 -250h-234z" />
<glyph unicode="&#xfb;" horiz-adv-x="1024" d="M41 424v551h283v-553q0 -35 4 -72t17 -67.5t41 -51t77 -20.5q41 0 67.5 19.5t42 50t21.5 67.5t6 72v555h281v-975h-242l-29 109q-47 -78 -108.5 -107t-149.5 -29q-98 0 -159.5 40t-95.5 103.5t-45 144.5t-11 163zM104 1145v10l228 227h237l238 -227v-10h-275l-77 82 l-78 -82h-273z" />
<glyph unicode="&#xfc;" horiz-adv-x="1024" d="M41 424v551h283v-553q0 -35 4 -72t17 -67.5t41 -51t77 -20.5q41 0 67.5 19.5t42 50t21.5 67.5t6 72v555h281v-975h-242l-29 109q-47 -78 -108.5 -107t-149.5 -29q-98 0 -159.5 40t-95.5 103.5t-45 144.5t-11 163zM117 1153v233h274v-233h-274zM516 1153v233h275v-233 h-275z" />
<glyph unicode="&#xfd;" horiz-adv-x="1005" d="M-66 963v12h297l131 -316l87 -305l86 305l135 316h301v-12l-602 -1418h-295v21l225 520zM311 1147v12l135 248h291v-10l-192 -250h-234z" />
<glyph unicode="&#xfe;" horiz-adv-x="1030" d="M41 -459v1893h278v-557q47 66 105.5 91t118.5 23q104 0 176 -46t116 -117.5t62 -162t18 -178.5q0 -90 -18 -181t-61 -164.5t-114 -120t-177 -46.5q-70 0 -129.5 30t-93.5 91v-555h-281zM313 494q0 -117 43 -198t123 -81q53 0 85 27.5t48.5 68.5t21.5 88t5 88 q0 39 -7 86.5t-24.5 89.5t-48.5 69.5t-80 27.5q-78 0 -122 -76t-44 -190z" />
<glyph unicode="&#xff;" horiz-adv-x="983" d="M-88 963v12h297l131 -316l86 -305l86 305l135 316h301v-12l-602 -1418h-295v21l225 520zM86 1143v233h274v-233h-274zM485 1143v233h275v-233h-275z" />
<glyph unicode="&#x152;" horiz-adv-x="1828" d="M10 721q0 150 32 285t102.5 236t183 161.5t276.5 60.5q53 0 105.5 -9t105.5 -23v2h901v-250h-629v-348h603v-236h-603v-352h629v-248h-901q-47 -12 -101.5 -20.5t-109.5 -8.5q-162 0 -275.5 60.5t-184 164t-102.5 238.5t-32 287zM305 721q0 -76 12.5 -164t45 -165 t91 -128t150.5 -51q63 0 115.5 8t99.5 41v901q-47 41 -107.5 52.5t-107.5 11.5q-90 0 -148.5 -50.5t-92 -126t-46 -164.5t-12.5 -165z" />
<glyph unicode="&#x153;" horiz-adv-x="1531" d="M0 489q0 104 26.5 197.5t81 163.5t136.5 110.5t194 40.5q92 0 165 -37.5t118 -99.5q47 63 115.5 100t164.5 37q131 0 217.5 -54t135.5 -141t62.5 -195.5t0.5 -217.5h-571q0 -76 38 -131t122 -55q100 0 141 96l225 -78q-27 -74 -65.5 -122t-88 -75.5t-104.5 -37.5 t-113 -10q-94 0 -160.5 33.5t-117.5 105.5q-55 -72 -123 -107t-162 -35q-113 0 -194.5 41t-136 111t-81 163t-26.5 197zM279 489q0 -37 8 -86t26.5 -92t50 -73.5t80.5 -30.5q45 0 76 25.5t48.5 66.5t24.5 92t7 101q0 49 -7 98t-25.5 89t-48.5 65.5t-75 25.5 q-49 0 -80.5 -30.5t-50 -73.5t-26.5 -91.5t-8 -85.5zM846 594h297q0 88 -44 128t-98 40q-27 0 -54 -9.5t-50 -30t-37 -53t-14 -75.5z" />
<glyph unicode="&#x178;" horiz-adv-x="1300" d="M-47 1395v39h305l211 -336l137 -258l139 262l209 332h303v-39l-507 -846v-549h-287v549zM283 1589v234h274v-234h-274zM682 1589v234h274v-234h-274z" />
<glyph unicode="&#x2c6;" horiz-adv-x="696" d="M-59 1204v10l227 228h238l237 -228v-10h-274l-78 82l-78 -82h-272z" />
<glyph unicode="&#x2dc;" horiz-adv-x="651" d="M-12 1391q12 49 38.5 87t60.5 61.5t72 29.5t74 -8q37 -14 66 -32t51.5 -25t42 4.5t39.5 52.5l162 -68q-55 -125 -115.5 -160t-138.5 -6q-27 10 -55.5 24.5t-56 19.5t-51 -9t-40.5 -59z" />
<glyph unicode="&#x2000;" horiz-adv-x="958" />
<glyph unicode="&#x2001;" horiz-adv-x="1917" />
<glyph unicode="&#x2002;" horiz-adv-x="958" />
<glyph unicode="&#x2003;" horiz-adv-x="1917" />
<glyph unicode="&#x2004;" horiz-adv-x="639" />
<glyph unicode="&#x2005;" horiz-adv-x="479" />
<glyph unicode="&#x2006;" horiz-adv-x="319" />
<glyph unicode="&#x2007;" horiz-adv-x="319" />
<glyph unicode="&#x2008;" horiz-adv-x="239" />
<glyph unicode="&#x2009;" horiz-adv-x="383" />
<glyph unicode="&#x200a;" horiz-adv-x="106" />
<glyph unicode="&#x2010;" horiz-adv-x="823" d="M47 547v246h631v-246h-631z" />
<glyph unicode="&#x2011;" horiz-adv-x="823" d="M47 547v246h631v-246h-631z" />
<glyph unicode="&#x2012;" horiz-adv-x="823" d="M47 547v246h631v-246h-631z" />
<glyph unicode="&#x2013;" horiz-adv-x="890" d="M-6 598v242h784v-242h-784z" />
<glyph unicode="&#x2014;" horiz-adv-x="1021" d="M-2 596v250h940v-250h-940z" />
<glyph unicode="&#x2018;" horiz-adv-x="405" d="M-39 936l145 500h226l-90 -500h-281z" />
<glyph unicode="&#x2019;" horiz-adv-x="387" d="M-31 934l88 500h283l-147 -500h-224z" />
<glyph unicode="&#x201a;" horiz-adv-x="454" d="M-70 -246l131 461h291v-55l-184 -406h-238z" />
<glyph unicode="&#x201c;" horiz-adv-x="710" d="M-51 934l157 500h238l-129 -500h-266zM299 934l139 500h228l-86 -500h-281z" />
<glyph unicode="&#x201d;" horiz-adv-x="669" d="M-53 934l86 500h282l-141 -500h-227zM264 934l109 500h272l-156 -500h-225z" />
<glyph unicode="&#x201e;" horiz-adv-x="827" d="M-70 -246l131 461h291v-55l-184 -406h-238zM326 -246l131 461h291v-55l-185 -406h-237z" />
<glyph unicode="&#x2022;" horiz-adv-x="579" d="M4 702q0 117 65.5 185.5t163.5 68.5t163 -68.5t65 -185.5t-65 -182t-163 -65t-163.5 65.5t-65.5 181.5z" />
<glyph unicode="&#x2026;" horiz-adv-x="1105" d="M10 0v240h264v-240h-264zM377 0v240h266v-240h-266zM752 0v240h264v-240h-264z" />
<glyph unicode="&#x202f;" horiz-adv-x="383" />
<glyph unicode="&#x2039;" horiz-adv-x="575" d="M-25 639l230 453h293l-228 -453l228 -455h-293z" />
<glyph unicode="&#x203a;" horiz-adv-x="587" d="M-8 1108h295l229 -453l-229 -454h-293l225 454z" />
<glyph unicode="&#x205f;" horiz-adv-x="479" />
<glyph unicode="&#x20ac;" horiz-adv-x="1284" d="M-49 461v211h104v49v37h-104v211h112q23 106 68 198.5t116.5 159t171 104t232.5 37.5q82 0 165 -23.5t155.5 -75.5t132 -134t96.5 -201v-20l-231 -76q-16 51 -44 101.5t-67 89t-88 62t-108 26.5q-61 2 -109.5 -17.5t-84.5 -53.5t-60.5 -80t-38.5 -97h266v-211h-305v-37 v-49h305v-211h-264q14 -49 37.5 -93t57.5 -76t79 -51.5t104 -19.5q39 0 81 13.5t82 46t76 88t64 141.5l254 -72v-37q-43 -119 -105.5 -201.5t-135 -134t-152.5 -74t-162 -22.5q-129 0 -227 37t-170 102.5t-118 155.5t-68 197h-117z" />
<glyph unicode="&#x2122;" horiz-adv-x="1314" d="M-10 1272v164h495v-164h-145v-420h-205v420h-145zM567 852v586h234l94 -160l100 160h228v-586h-203v164l12 174l-76 -168h-120l-76 168l10 -174v-164h-203z" />
<glyph unicode="&#x25fc;" horiz-adv-x="972" d="M0 0v973h973v-973h-973z" />
<glyph unicode="&#xfb01;" horiz-adv-x="1036" d="M-57 770v205h149v43q0 104 20.5 188t72 140.5t136.5 80t214 9.5v-232q-86 20 -128 -28t-42 -158v-43h389v-205h-389v-770h-273v770h-149zM618 0v975h277v-975h-277zM625 1100v334h270v-334h-270z" />
<glyph unicode="&#xfb02;" horiz-adv-x="1044" d="M-57 770v205h149v43q0 104 20.5 188t72 140.5t136.5 80t214 9.5v-232q-86 20 -128 -28t-42 -158v-43h172v-205h-172v-770h-273v770h-149zM629 0v1436h276v-1436h-276z" />
</font>
</defs>
</svg>
