<?xml version="1.0" standalone="no"?>
<!DOCTYPE svg PUBLIC "-//W3C//DTD SVG 1.1//EN" "http://www.w3.org/Graphics/SVG/1.1/DTD/svg11.dtd" >
<svg xmlns="http://www.w3.org/2000/svg">
<metadata></metadata>
<defs>
<font id="gabriel_sanslight" horiz-adv-x="1636" >
<font-face units-per-em="2048" ascent="1536" descent="-512" />
<missing-glyph horiz-adv-x="659" />
<glyph horiz-adv-x="2048" />
<glyph horiz-adv-x="2048" />
<glyph unicode="&#xd;" horiz-adv-x="2048" />
<glyph unicode=" "  horiz-adv-x="659" />
<glyph unicode="&#x09;" horiz-adv-x="659" />
<glyph unicode="&#xa0;" horiz-adv-x="659" />
<glyph unicode="!" horiz-adv-x="571" d="M240 0v217h100v-217h-100zM240 367v1067h100v-1067h-100z" />
<glyph unicode="&#x22;" horiz-adv-x="700" d="M131 891v543h94v-543h-94zM463 891v543h94v-543h-94z" />
<glyph unicode="#" horiz-adv-x="1363" d="M29 471v86h254l84 416h-291v88h311l90 444h96l-90 -444h512l90 444h97l-90 -444h237v-88h-258l-84 -416h295v-86h-313l-97 -471h-96l96 471h-512l-94 -471h-98l96 471h-235zM377 555h518l84 420h-518z" />
<glyph unicode="$" horiz-adv-x="1566" d="M76 401q25 0 48 1t48 1q2 -74 52 -136t130 -107t180.5 -69.5t202.5 -24.5v628q-129 4 -242.5 22.5t-197.5 59.5t-133 108.5t-49 172.5q0 92 52 166.5t139 127t199.5 80t231.5 27.5v207h86v-207q117 -4 227.5 -30.5t196.5 -78t139.5 -125t57.5 -169.5l-101 -4 q-2 82 -48 141t-118.5 98t-165.5 58.5t-188 23.5v-594q127 -4 246 -19.5t211 -57.5t147.5 -114.5t55.5 -191.5q0 -115 -60.5 -193.5t-156 -127.5t-213 -71.5t-230.5 -25.5v-204h-86v207q-115 0 -231.5 26.5t-210.5 79.5t-155.5 132t-63.5 183zM215 1057q0 -74 37 -124 t104.5 -83t163.5 -49.5t217 -18.5v590q-86 -2 -178 -20.5t-169 -56.5t-126 -96t-49 -142zM823 63q100 2 197.5 21.5t174.5 55.5t127 90.5t60 125.5v21v20q0 94 -49 151.5t-129 89.5t-180 42t-201 10v-627z" />
<glyph unicode="%" horiz-adv-x="1513" d="M47 1098q0 74 24.5 137t67.5 109.5t100.5 73t125.5 26.5q70 0 129 -27.5t101 -75t65.5 -110t23.5 -133.5q0 -76 -24.5 -139.5t-67.5 -109.5t-101 -72.5t-126 -26.5q-72 0 -130.5 28.5t-99.5 76.5t-64.5 111.5t-23.5 131.5zM147 1090q0 -53 15.5 -99.5t45.5 -81.5t70 -55 t89 -20q51 0 92 20t68.5 56t42 82t14.5 98q0 57 -15.5 106t-44 85t-69.5 56.5t-90 20.5q-51 0 -92.5 -22.5t-69 -59.5t-42 -85t-14.5 -101zM199 -72l958 1547h113l-957 -1547h-114zM793 322q0 74 24.5 137t67.5 109t100 73t125 27q70 0 129 -28t101 -75t66 -109.5t24 -133.5 q0 -76 -25 -139.5t-68 -109.5t-101 -73t-126 -27q-72 0 -130 29t-99 77t-64.5 111.5t-23.5 131.5zM893 313q0 -53 15.5 -99t45 -81t69.5 -55.5t89 -20.5q51 0 92 20.5t68.5 56.5t42 82t14.5 97q0 57 -15.5 106.5t-44 85.5t-69.5 56.5t-90 20.5q-51 0 -92 -22.5t-68.5 -59.5 t-42 -85t-14.5 -102z" />
<glyph unicode="&#x26;" horiz-adv-x="1679" d="M121 430q0 63 24.5 121.5t67.5 106t101.5 82t125.5 53.5q-72 49 -115.5 132t-43.5 165q0 80 35.5 148.5t100 117.5t155 76.5t198.5 27.5q98 0 188.5 -23.5t159 -70.5t109.5 -118.5t43 -168.5h-92q-2 78 -38 134.5t-93.5 93t-129 54t-145.5 17.5q-82 0 -153.5 -19.5 t-126 -57t-85 -92t-30.5 -124.5q0 -78 43 -139t106 -108l764 -562q43 57 66.5 128t23.5 159h97q0 -106 -29 -191t-82 -153l260 -203l-4 -16l-117 2l-202 150q-102 -94 -241.5 -135.5t-283.5 -41.5q-92 0 -206.5 21.5t-215 74t-168 140.5t-67.5 219zM219 428q0 -98 55.5 -168 t138.5 -114t181 -64.5t182 -20.5q117 0 237 34t212 116l-705 518q-59 -10 -114.5 -36.5t-96.5 -65.5t-65.5 -89.5t-24.5 -109.5z" />
<glyph unicode="'" horiz-adv-x="372" d="M127 895v541h94v-541h-94z" />
<glyph unicode="(" horiz-adv-x="751" d="M150 684q0 129 26.5 256t79.5 242.5t135 215t193 171.5l47 -74q-98 -68 -171 -159t-121 -196.5t-72.5 -220t-24.5 -229.5q0 -119 23.5 -234.5t72.5 -220t121.5 -195.5t171.5 -159l-47 -74q-109 72 -190 169.5t-135 212t-81.5 240.5t-27.5 255z" />
<glyph unicode=")" horiz-adv-x="737" d="M104 -123q96 68 169 158t122 194.5t74 219t25 231.5t-24 232.5t-73 221t-121.5 197.5t-171.5 160l48 74q109 -72 190.5 -169.5t135.5 -212t81 -240.5t27 -255t-27 -257t-81 -242.5t-135 -214t-191 -171.5z" />
<glyph unicode="*" horiz-adv-x="917" d="M154 1319l22 74l250 -78l-2 252h78l-4 -252l252 78l22 -72l-246 -70l166 -219l-61 -49l-168 240l-170 -240l-62 49l168 219z" />
<glyph unicode="+" horiz-adv-x="964" d="M68 659v80h368v371h90v-371h369v-80h-369v-372h-90v372h-368z" />
<glyph unicode="," horiz-adv-x="432" d="M78 -287l104 457h105l-133 -457h-76z" />
<glyph unicode="-" horiz-adv-x="964" d="M119 592v88h717v-88h-717z" />
<glyph unicode="." horiz-adv-x="403" d="M143 0v164h97v-164h-97z" />
<glyph unicode="/" horiz-adv-x="931" d="M27 -162l753 1698h103l-756 -1698h-100z" />
<glyph unicode="0" horiz-adv-x="1587" d="M76 719q0 147 48 281.5t140 235.5t224.5 161.5t299.5 60.5q168 0 300.5 -60.5t224.5 -161.5t140 -235.5t48 -281.5q0 -150 -48 -284t-140 -235.5t-224.5 -162t-300.5 -60.5t-300 60.5t-224 162t-140 235.5t-48 284zM180 719q0 -131 41 -249t119 -208t190.5 -143 t257.5 -53q143 0 257 53t193 143t120 208t41 249q0 129 -41 247.5t-120 209t-192.5 143.5t-257.5 53q-145 0 -257.5 -53t-190.5 -143.5t-119 -209t-41 -247.5z" />
<glyph unicode="1" horiz-adv-x="835" d="M57 1012l475 422h136v-1434h-99v1346l-448 -396z" />
<glyph unicode="2" horiz-adv-x="1595" d="M145 90l979 619q117 74 165 156.5t50 164.5q0 86 -44 150.5t-118.5 106.5t-177 62.5t-219.5 22.5q-98 -2 -190 -18.5t-165 -53t-121 -97t-56 -152.5q-25 0 -48.5 1t-45.5 1q8 111 62 187.5t140 125.5t196 70.5t230 21.5q147 0 268 -28.5t208.5 -84t134.5 -135.5t47 -182 q0 -109 -60.5 -211t-205.5 -194l-871 -537l1149 6v-92h-1282z" />
<glyph unicode="3" horiz-adv-x="1648" d="M115 412q25 0 48 1t48 1q2 -86 55 -150.5t139.5 -107.5t197 -65.5t224.5 -22.5q94 0 196.5 17t188.5 58t142.5 106.5t56.5 164.5q0 86 -51 143t-132 92t-178.5 52.5t-189.5 21.5h-237v88h200q98 0 194.5 13.5t173.5 44t125 83t48 131.5q0 76 -52 131.5t-132 91t-175.5 52 t-183.5 16.5q-94 0 -193.5 -15.5t-182.5 -51t-137 -93t-58 -141.5q-23 0 -47.5 1t-48.5 1q2 100 62 173t153.5 121t207 70.5t226.5 22.5q117 0 235.5 -23.5t214 -70.5t155.5 -118.5t60 -170.5q0 -123 -95 -204.5t-267 -108.5q86 -18 160.5 -46t130 -71t86 -100t30.5 -133 q0 -117 -61 -199t-159.5 -134t-220.5 -75.5t-243 -23.5q-135 0 -263 26.5t-227 79.5t-160.5 133t-63.5 189z" />
<glyph unicode="4" horiz-adv-x="1538" d="M53 426l1080 1014h114v-1043h223v-88h-223v-309h-100v309h-1049q-14 29 -22 53v13zM158 397h989v930l-989 -928v-2z" />
<glyph unicode="5" horiz-adv-x="1628" d="M113 399h86q4 -90 60 -153.5t140 -103.5t182.5 -59.5t188.5 -21.5q109 0 220.5 21.5t201.5 68t146.5 121t56.5 183.5q0 117 -60.5 192.5t-152.5 119.5t-201 60.5t-203 16.5q-160 0 -310.5 -32t-254.5 -85q-14 12 -29.5 23.5t-29.5 23.5l67 660h1137v-86h-1057l-49 -506 q109 43 243 65.5t269 22.5q59 0 137 -7.5t159 -25.5t158.5 -51t139 -86t98.5 -128t37 -177q0 -131 -64.5 -222.5t-166 -148.5t-225.5 -84t-244 -27q-115 0 -234 23.5t-216 76t-160.5 132.5t-69.5 194z" />
<glyph unicode="6" horiz-adv-x="1574" d="M119 453v526q0 123 55 214t148.5 151.5t216.5 90t258 29.5q104 0 205.5 -18.5t189.5 -57t156.5 -96t107.5 -137.5l-82 -31q-37 63 -97 111.5t-136 80.5t-164 47t-178 15q-113 0 -218.5 -22.5t-186.5 -70.5t-129 -124t-48 -182v-264q37 74 98.5 123t138 79.5t161.5 44 t169 13.5q125 0 249 -31t224.5 -93.5t163 -159.5t64.5 -230q-2 -127 -67.5 -218t-167 -149.5t-224.5 -86t-238 -27.5q-117 0 -235.5 26.5t-215.5 83.5t-157.5 146.5t-60.5 216.5zM217 467q0 -104 47 -179t125 -123t178.5 -72.5t204.5 -26.5q111 0 220.5 22.5t196.5 70.5 t141 122.5t54 179.5q0 106 -54 187t-140 133.5t-193.5 79t-214.5 26.5q-109 0 -210 -23.5t-180 -73t-127 -126t-48 -185.5v-12z" />
<glyph unicode="7" horiz-adv-x="1470" d="M100 1348v86h1260l16 -91l-991 -1343h-123q154 211 305.5 417t304.5 414l392 515v2h-1164z" />
<glyph unicode="8" horiz-adv-x="1624" d="M92 412q0 141 97.5 239.5t271.5 116.5q-166 27 -245 113t-79 194q0 106 57.5 181t147.5 123t201.5 69.5t220.5 26.5h53q106 0 223 -20.5t215.5 -67t162 -121t63.5 -185.5q0 -55 -18.5 -105t-58.5 -92t-100.5 -72t-146.5 -42q172 -23 270.5 -120t98.5 -238 q0 -115 -57.5 -197t-150.5 -134t-211 -79t-239 -29h-82q-123 0 -246.5 23.5t-223 76t-162 135.5t-62.5 204zM188 412q0 -86 42 -148.5t120 -109.5l29 -15q82 -41 179 -60.5t198 -19.5h106q100 0 200.5 20.5t182.5 63.5t133.5 109.5t51.5 159.5q0 86 -46.5 146t-125 97 t-185 54.5t-229.5 17.5h-35q-129 0 -241.5 -15.5t-197.5 -52t-133.5 -97t-48.5 -150.5zM236 1085q0 -145 144 -209.5t394 -64.5h70q123 0 222 15.5t170 48t108.5 84t37.5 120.5q0 82 -51 140.5t-130 96.5t-175 56.5t-184 18.5h-41q-84 0 -182.5 -15.5t-183.5 -51.5 t-142 -94.5t-57 -144.5z" />
<glyph unicode="9" horiz-adv-x="1583" d="M90 981q0 125 62.5 216t160 149.5t217 86t236.5 27.5q119 0 241.5 -25.5t222 -82t163 -145.5t65.5 -218v-526q0 -123 -55 -213t-149.5 -149.5t-216.5 -89t-257 -29.5q-109 0 -213 19t-193 58t-156.5 97.5t-100.5 136.5l84 31q29 -61 87 -109.5t136 -80.5t171 -49t189 -17 q111 0 214.5 22.5t183.5 69.5t128 122.5t48 182.5v262q-37 -72 -98.5 -121t-138.5 -78.5t-163 -43t-170 -13.5q-123 0 -247.5 30.5t-224 93t-163 159t-63.5 227.5zM188 981q0 -106 53.5 -186t138.5 -132.5t192.5 -79t218.5 -26.5q104 0 206.5 22.5t183.5 70.5t130 125 t49 188v12q0 102 -48 177t-126 124t-178.5 72.5t-204.5 27.5q-111 0 -220.5 -22.5t-196.5 -70.5t-142.5 -123t-55.5 -179z" />
<glyph unicode=":" horiz-adv-x="411" d="M152 0v231h94v-231h-94zM152 754v209h94v-209h-94z" />
<glyph unicode=";" horiz-adv-x="405" d="M47 -287l103 465h106l-133 -465h-76zM152 721v231h94v-231h-94z" />
<glyph unicode="&#x3c;" horiz-adv-x="796" d="M78 625v51l471 395h123v-12l-492 -410l498 -407v-13h-129z" />
<glyph unicode="=" horiz-adv-x="1101" d="M104 449v86h893v-86h-893zM104 801v86h893v-86h-893z" />
<glyph unicode="&#x3e;" horiz-adv-x="780" d="M102 1059v12h129l471 -395v-51l-471 -396h-118v13l487 407z" />
<glyph unicode="?" horiz-adv-x="1503" d="M86 1034q2 102 58.5 182t148.5 134.5t211 82t248 27.5q121 0 236.5 -24.5t206.5 -76.5t147.5 -133t56.5 -194q0 -100 -29 -161.5t-75 -98.5t-105.5 -56.5t-120.5 -33.5t-120.5 -31.5t-105.5 -51.5t-75 -90t-29 -151h-92q0 109 29 177.5t75 109.5t105 63.5t120.5 37 t121 30t105.5 44t75 77.5t29 131q0 90 -49.5 155.5t-127 107.5t-177 62.5t-199.5 20.5q-113 0 -215.5 -22.5t-181 -65.5t-127 -106.5t-50.5 -145.5h-94zM647 0v205h92v-205h-92z" />
<glyph unicode="@" horiz-adv-x="2000" d="M143 522q0 172 65.5 321.5t179.5 260t266.5 174t324.5 63.5q180 0 332.5 -53t264.5 -156.5t174 -257t62 -352.5q0 -76 -12 -165t-41.5 -165.5t-81 -129t-131.5 -52.5q-45 0 -75.5 18.5t-50 50.5t-30 76t-14.5 95q-59 -104 -168.5 -169t-236.5 -65q-106 0 -200.5 39 t-165 106.5t-111.5 160t-41 200.5q0 106 41 199.5t111.5 163t165.5 108.5t202 39q123 0 233.5 -57t169.5 -160q4 45 7 90t8 90h79v-809q0 -41 21.5 -61.5t50.5 -20.5q55 0 89 45.5t53.5 110t26.5 137t7 125.5q0 180 -56 318.5t-154.5 231.5t-233.5 140.5t-295 47.5 q-154 0 -288 -58.5t-235.5 -159t-159.5 -234.5t-58 -286q0 -158 58 -291t157.5 -231t232.5 -153.5t281 -55.5q197 0 372 96l39 -71q-96 -55 -201.5 -81t-211.5 -26q-168 0 -317.5 61.5t-261.5 171t-177.5 258t-65.5 322.5zM547 522q0 -88 33.5 -162.5t91 -130t134.5 -86 t165 -30.5q84 0 157.5 28.5t129 79.5t87 123t31.5 156q0 82 -12 155q-12 66 -48 118t-88 89t-118 56.5t-137 19.5q-88 0 -165 -32t-135.5 -88t-92 -132t-33.5 -164z" />
<glyph unicode="A" d="M29 0l741 1448h100l740 -1448h-111l-207 403h-948l-207 -403h-108zM389 489h860l-430 848z" />
<glyph unicode="B" horiz-adv-x="1544" d="M190 0v1434h709q88 0 169 -21.5t144.5 -67t101.5 -115t38 -163.5q0 -49 -15.5 -98t-45 -90t-71.5 -74t-98 -47q84 -14 143.5 -52t98.5 -90.5t56.5 -113t17.5 -117.5q0 -109 -48.5 -182.5t-122 -118.5t-162.5 -64.5t-173 -19.5h-742zM289 86h643q63 0 137 12.5t135.5 46 t102.5 93t41 155.5q0 92 -38 153.5t-97.5 98.5t-133 51.5t-147.5 14.5h-643v-625zM289 797h626q154 4 247 69.5t93 200.5q0 82 -32.5 135t-84 86t-114.5 46.5t-125 13.5h-610v-551z" />
<glyph unicode="C" horiz-adv-x="1576" d="M109 719q0 156 56 291t156.5 235.5t236.5 156.5t294 56q100 0 196.5 -22.5t180.5 -68.5t152.5 -115.5t111.5 -164.5l-82 -32q-43 82 -103.5 141t-133 98t-154.5 57.5t-168 18.5q-137 0 -255 -49t-204 -137t-135 -207t-49 -258q0 -135 49 -254t135 -208t204 -140t255 -51 q88 0 174 19t161 60t135 106.5t101 156.5l78 -31q-45 -100 -112.5 -175t-152.5 -125t-182.5 -76t-201.5 -26q-158 0 -294 57.5t-236.5 157t-156.5 235.5t-56 294z" />
<glyph unicode="D" horiz-adv-x="1560" d="M109 0v1436h632q168 0 301.5 -58.5t225.5 -157t140 -229.5t48 -274t-48 -273.5t-140 -228.5t-225.5 -156.5t-301.5 -58.5h-632zM211 90h532q147 0 262 50t194 135t120 198t41 240q0 125 -41 239.5t-120 200.5t-193.5 137t-262.5 51h-532v-1251z" />
<glyph unicode="E" horiz-adv-x="1386" d="M190 0v1434h1076v-86h-975v-588h938v-86h-938v-588h975v-86h-1076z" />
<glyph unicode="F" horiz-adv-x="1312" d="M190 0v1434h1074v-86h-975v-590h925v-88h-925v-670h-99z" />
<glyph unicode="G" horiz-adv-x="1658" d="M100 717q0 158 56.5 293t157 235.5t235.5 156.5t295 56q100 0 195.5 -22.5t178 -68.5t149.5 -114.5t110 -162.5l-76 -35q-84 158 -232.5 234.5t-324.5 76.5q-137 0 -255 -49t-204 -137t-135 -207t-49 -256q0 -139 49 -258t135 -205t204 -135t255 -49q86 0 170 18 t158.5 55t136 95.5t102.5 138.5v287h-598v84h688v-386q-45 -98 -114.5 -169.5t-156.5 -118.5t-186.5 -70.5t-199.5 -23.5q-158 0 -294 55t-236.5 153.5t-157 233.5t-56.5 295z" />
<glyph unicode="H" horiz-adv-x="1656" d="M188 0v1434h101v-674h1079v674h100v-1434h-100v674h-1079v-674h-101z" />
<glyph unicode="I" horiz-adv-x="481" d="M193 0v1434h98v-1434h-98z" />
<glyph unicode="J" horiz-adv-x="1585" d="M61 709h93q0 -158 52 -277t138 -199.5t193.5 -121.5t218.5 -41q119 0 222 43t179 124.5t119 199.5t43 265v646h-664v86h762v-732q0 -150 -46 -280.5t-132 -229t-209 -154.5t-276 -56q-143 0 -269.5 51t-220.5 145t-148.5 229.5t-54.5 301.5z" />
<glyph unicode="K" horiz-adv-x="1574" d="M190 0v1434h99v-916l270 240l795 676h139v-2l-758 -648l801 -784h-133l-739 723l-375 -313v-410h-99z" />
<glyph unicode="L" horiz-adv-x="1296" d="M184 0v1434h101v-1348h972v-86h-1073z" />
<glyph unicode="M" horiz-adv-x="1972" d="M188 0v1434h111l686 -879l690 879h107v-1434h-101v1292l-665 -846h-62l-665 846v-1292h-101z" />
<glyph unicode="N" horiz-adv-x="1669" d="M190 0v1434h103l1087 -1291v1291h99v-1434h-103l-1087 1290v-1290h-99z" />
<glyph unicode="O" horiz-adv-x="1712" d="M111 721q0 158 57 293t156.5 234.5t235.5 155.5t296 56q158 0 294 -56t235.5 -155.5t156.5 -234.5t57 -293t-57 -293t-156.5 -234.5t-235.5 -155.5t-294 -56q-160 0 -296 56t-235.5 155.5t-156.5 234.5t-57 293zM211 721q0 -139 49 -259t135 -207t204 -137t257 -50 q137 0 255 50t204 137t135 207t49 259t-49 258t-135 207t-204 137t-255 49q-139 0 -257 -49t-204 -137t-135 -207t-49 -258z" />
<glyph unicode="P" horiz-adv-x="1495" d="M190 0v1434h691q131 0 226 -36t156.5 -97.5t91 -145.5t29.5 -180q0 -86 -33.5 -164t-98 -136.5t-160 -93t-215.5 -34.5h-588v-547h-99zM289 633h588q98 0 174.5 26.5t129 72.5t79 108.5t26.5 134.5q0 80 -23.5 148.5t-73.5 117.5t-127 78t-181 29h-592v-715z" />
<glyph unicode="Q" horiz-adv-x="1708" d="M104 721q0 156 57.5 291t157 234.5t235.5 155.5t296 56q158 0 294 -55t235.5 -153.5t156.5 -233.5t57 -295q0 -150 -50 -278t-140 -226l209 -213v-4h-113l-158 160q-98 -86 -223 -132t-268 -46q-160 0 -296 56t-235.5 155.5t-157 234.5t-57.5 293zM205 721 q0 -139 49 -259t135 -208t204 -137t257 -49q125 0 232.5 42t193.5 115l-246 250v2h115l190 -192q74 86 117 196.5t43 239.5q0 139 -49 258t-136 207t-205 137t-255 49q-139 0 -257 -49t-204 -137t-135 -207t-49 -258z" />
<glyph unicode="R" horiz-adv-x="1515" d="M190 0v1434h713q98 0 203.5 -22.5t189.5 -88.5q68 -53 102 -133t34 -166q0 -94 -37 -171t-104.5 -131t-162 -84t-206.5 -30h-111l625 -602v-6h-127l-631 606h-387v-606h-101zM291 692h631q213 6 311 97.5t98 234.5q0 98 -41 160.5t-104.5 99.5t-138 50.5t-144.5 13.5 h-612v-656z" />
<glyph unicode="S" horiz-adv-x="1589" d="M96 397h49.5t49.5 2q2 -86 58 -149.5t145 -105.5t201 -63.5t224 -21.5q131 0 237.5 25t183.5 70t119 108.5t42 143.5q0 72 -29.5 119.5t-80 78.5t-113 46.5t-128 23.5t-128 10t-111.5 6q-113 8 -233.5 18.5t-220 44t-163 103.5t-63.5 197q0 104 55.5 180t146.5 124 t209 71.5t240 27.5q125 0 246 -23.5t216 -72.5t154.5 -126t63.5 -183h-48t-48 -2q-4 86 -54 147t-132 99t-184.5 55.5t-208.5 17.5q-88 0 -185.5 -15.5t-179.5 -52t-135 -98t-53 -153.5q0 -94 50 -145.5t133 -77t187.5 -34t212.5 -16.5q68 -6 145.5 -10t153.5 -16.5 t145.5 -34t123 -62.5t85 -103.5t31.5 -152.5q0 -117 -61.5 -196.5t-158.5 -131t-218 -74t-240 -22.5q-127 0 -255 23.5t-232 75t-172 132.5t-72 193z" />
<glyph unicode="T" horiz-adv-x="1423" d="M18 1348v86h1387v-86h-643v-1348h-100v1348h-644z" />
<glyph unicode="U" horiz-adv-x="1841" d="M188 735v699h101v-699q0 -168 54 -294t143 -210t203 -126t233 -42t232.5 42t202.5 126t143 210t54 294v699h101v-699q0 -188 -62.5 -330.5t-166 -237.5t-235.5 -142.5t-269 -47.5q-139 0 -270.5 47.5t-235 142.5t-166 237.5t-62.5 330.5z" />
<glyph unicode="V" horiz-adv-x="1654" d="M31 1434h110l457 -902l229 -464l156 325l530 1041h111v-2l-74 -146l-671 -1304h-105z" />
<glyph unicode="W" horiz-adv-x="2666" d="M55 1434h109l403 -889l203 -455l522 1073h84l310 -626l212 -447l203 455l404 889h110l-671 -1450h-89l-382 772l-138 291l-135 -285l-385 -778h-90z" />
<glyph unicode="X" horiz-adv-x="1490" d="M51 0q162 182 325 359.5t329 357.5l-621 715v2h125q141 -166 279.5 -328t279.5 -330q137 168 277.5 330t281.5 328h125v-2l-621 -715q164 -180 327 -357.5t327 -359.5h-125l-383 418l-209 237l-209 -237l-383 -418h-125z" />
<glyph unicode="Y" horiz-adv-x="1511" d="M31 1432v2h119l612 -772l606 772h119v-2l-678 -857v-575h-100v575z" />
<glyph unicode="Z" horiz-adv-x="1486" d="M63 86l1237 1262v2h-1198v86h1311l29 -80l-1247 -1270h1230v-86h-1335z" />
<glyph unicode="[" horiz-adv-x="686" d="M211 -231v1794h410v-82h-316v-1631h316v-81h-410z" />
<glyph unicode="\" horiz-adv-x="937" d="M41 1552h104l754 -1697h-102z" />
<glyph unicode="]" horiz-adv-x="694" d="M74 -150h315v1633h-315v80h409v-1794h-409v81z" />
<glyph unicode="^" horiz-adv-x="1220" d="M113 719l460 717h66l467 -717l-2 -2h-103l-393 614l-393 -614h-100z" />
<glyph unicode="_" horiz-adv-x="1001" d="M10 -53h959v-82h-959v82z" />
<glyph unicode="`" horiz-adv-x="583" d="M123 1438v2h117l196 -273v-4h-92z" />
<glyph unicode="a" horiz-adv-x="1234" d="M100 287q0 68 29 122t81 91t121.5 56t153.5 22h494v10q0 80 -29.5 140t-82 100t-124 60.5t-155.5 20.5q-104 0 -193.5 -29.5t-148.5 -107.5l-60 41q72 102 178.5 140t227.5 38q104 0 192 -28.5t152.5 -81t100.5 -127t36 -166.5v-445l4 -143h-84l-14 203 q-29 -61 -77 -102.5t-109.5 -68t-132 -37.5t-142.5 -11q-78 0 -152.5 15t-134 50t-95.5 93.5t-36 144.5zM195 287q0 -61 28.5 -103.5t73.5 -69t101.5 -39t109.5 -12.5q80 0 164 17.5t151.5 57.5t111.5 104.5t44 156.5v101h-492q-129 -4 -210.5 -59.5t-81.5 -153.5z" />
<glyph unicode="b" horiz-adv-x="1298" d="M168 0v438v998h92v-664q29 51 73 93t99 71t116.5 44t123.5 15q117 0 213 -41t164.5 -111.5t105.5 -162.5t37 -193q0 -102 -37 -194t-104.5 -162t-163.5 -110.5t-215 -40.5q-129 0 -239.5 59t-172.5 172l-8 -211h-84zM258 462.5q0 -20.5 2 -40.5q4 -72 37 -137.5 t87 -115.5t128 -80t160 -30q98 0 177 35t134 94.5t86 136t31 162.5q0 84 -31 162t-87 137.5t-135 94t-175 34.5q-82 0 -156 -26.5t-129 -73.5q-78 -63 -103.5 -137t-25.5 -172v-43.5z" />
<glyph unicode="c" horiz-adv-x="1134" d="M98 485q0 111 38 204t106.5 161t161.5 105.5t204 37.5q70 0 136.5 -15t124 -47t101.5 -79t70 -111l-71 -32q-57 111 -153.5 156.5t-207.5 45.5q-92 0 -167.5 -32.5t-131 -90t-86 -135.5t-30.5 -168t31.5 -166.5t87 -133t131 -89.5t165.5 -33q119 0 218.5 50.5 t156.5 181.5l80 -23q-27 -74 -73 -128t-106.5 -90t-130 -54t-145.5 -18q-109 0 -202 37.5t-161.5 105.5t-107.5 160t-39 200z" />
<glyph unicode="d" horiz-adv-x="1302" d="M106 487q0 109 37 202t105.5 161t166 105.5t216.5 37.5q61 0 121.5 -12t115 -39t99.5 -67.5t73 -98.5v660h95v-875v-561h-86l-9 211q-61 -125 -171.5 -178t-237.5 -53q-121 0 -217.5 40.5t-165 111.5t-105.5 162t-37 193zM203 487q0 -86 29.5 -163.5t86 -136t135 -93.5 t177.5 -35q100 0 177 33t130 92.5t81 141.5t28 180q0 82 -29 156.5t-83 130t-131 88t-173 32.5q-94 0 -173 -30.5t-135.5 -86t-88 -134t-31.5 -175.5z" />
<glyph unicode="e" horiz-adv-x="1230" d="M104 489q0 104 38 195.5t105.5 160t162 108.5t206.5 40q106 0 198.5 -36.5t161 -102.5t107.5 -154t39 -190q0 -29 -6 -59h-915q6 -84 42 -155t92 -122t130 -79.5t156 -28.5q111 0 201.5 39.5t154.5 144.5l78 -31q-66 -121 -183.5 -177t-255.5 -56q-111 0 -205 38.5 t-161.5 107.5t-106.5 161t-39 196zM203 524h827q-6 86 -42 158t-92 123t-129 79.5t-153 28.5q-82 0 -154.5 -28.5t-128 -80.5t-90 -123t-38.5 -157z" />
<glyph unicode="f" horiz-adv-x="876" d="M41 895v78h221v67q0 106 27.5 186.5t79 134.5t120 80.5t152.5 26.5q59 0 111.5 -13t99.5 -46l-33 -68q-35 29 -76 38.5t-86 9.5q-68 0 -123 -19.5t-95 -61.5t-61.5 -107.5t-21.5 -160.5v-67h430v-78h-430v-895h-94v895h-221z" />
<glyph unicode="g" horiz-adv-x="1269" d="M121 262q0 43 21.5 79t58.5 58q35 18 75 23q-12 14 -22 27.5t-16 27.5q-37 68 -37 150q0 80 37 151q49 96 151 152q59 33 127 47t135 14q23 0 42.5 -3t39.5 -3h393v-86h-172q35 -25 64 -54.5t49 -66.5q37 -72 37 -151q0 -82 -37 -150q-27 -49 -65.5 -87t-86.5 -66 q-61 -33 -128.5 -46.5t-135.5 -13.5q-59 0 -117.5 10.5t-113.5 34.5q-53 25 -107 27q-8 1 -15 1q-30 0 -54 -13q-37 -23 -37 -62q0 -35 18.5 -57.5t46 -35.5t62.5 -18.5t65 -5.5l299 -2q74 0 157 -12t152.5 -46t115.5 -93.5t46 -151.5t-52 -154.5t-131 -99.5t-169 -52 t-164 -15t-158.5 12t-160.5 45t-133.5 91.5t-77.5 148.5q-6 26 -6 51q0 55 29 105q40 71 110 114q-59 18 -98 64q-37 45 -37 106v6zM215 -172q18 -72 67.5 -117t113 -69.5t133 -32.5t126.5 -8q51 0 124 10t139.5 36.5t112.5 71.5t46 115q0 72 -39 116t-96 67.5t-123.5 32.5 t-120.5 9h-321q-29 -10 -60.5 -31.5t-57.5 -52t-39 -68.5q-8 -24 -8 -48q0 -15 3 -31zM295 625q0 -62 27 -113q18 -39 48.5 -67.5t65.5 -49.5q45 -25 101.5 -38t115 -13t113.5 13.5t100 37.5q78 43 117 117q25 51 25 113q0 59 -25 112q-41 78 -117 119q-49 29 -104 39 t-111 10q-55 0 -110.5 -10t-104.5 -39q-35 -20 -65.5 -50t-48.5 -69q-27 -51 -27 -112z" />
<glyph unicode="h" horiz-adv-x="1290" d="M170 0v1436h94v-668q23 59 63 102t92 70t113.5 39t124.5 12q86 0 170 -28.5t150.5 -90t107.5 -155.5t41 -225v-492h-96v494q0 111 -31.5 189.5t-85 129.5t-122 75.5t-140.5 24.5t-139.5 -23.5t-121.5 -69.5t-89 -116.5t-37 -162.5v-541h-94z" />
<glyph unicode="i" horiz-adv-x="428" d="M170 0v973h94v-973h-94zM170 1184v252h92v-252h-92z" />
<glyph unicode="j" horiz-adv-x="454" d="M-291 -420l41 68q79 -40 148 -40q12 0 24 1q80 8 139.5 57t94 129t34.5 176v1004h95v-1000q0 -127 -51.5 -228t-133.5 -158.5t-185 -63.5q-9 -1 -18 -1zM186 1184v252h95v-252h-95z" />
<glyph unicode="k" horiz-adv-x="1101" d="M168 0v1436h94v-1059l182 178l480 418h125v-4l-490 -430l510 -539h-123l-454 481l-230 -202v-279h-94z" />
<glyph unicode="l" horiz-adv-x="434" d="M170 0v1436h94v-1436h-94z" />
<glyph unicode="m" horiz-adv-x="2004" d="M170 0v973h86l8 -199q47 113 144.5 164t214.5 51q141 0 245.5 -64.5t151.5 -211.5q20 74 60 126t94.5 85.5t118 50t130.5 16.5q82 0 158 -26.5t133.5 -86t92 -154.5t34.5 -230v-494h-94v496q0 109 -25.5 187.5t-70.5 129.5t-103.5 75.5t-126.5 24.5q-100 0 -169.5 -34.5 t-113.5 -92t-63.5 -130t-19.5 -148.5v-504h-94v504q0 109 -27 185.5t-72 125.5t-107.5 72.5t-131.5 23.5q-70 0 -134.5 -25.5t-113.5 -74.5t-80 -121.5t-31 -165.5v-528h-94z" />
<glyph unicode="n" horiz-adv-x="1292" d="M170 0v973h86l8 -197q25 55 66 96t92 68t109.5 39t117.5 12q96 0 183.5 -30.5t153 -93t103 -157t37.5 -218.5v-492h-96v494q0 98 -28.5 176t-79 131t-120 80.5t-151.5 27.5q-72 0 -140.5 -24.5t-123.5 -72.5t-89 -119.5t-34 -164.5v-528h-94z" />
<glyph unicode="o" horiz-adv-x="1243" d="M100 487q0 106 40 199.5t111 161t165 106.5t205 39t206 -36.5t165.5 -104.5t111.5 -161t41 -206q0 -109 -41 -200.5t-111.5 -159.5t-165.5 -105.5t-206 -37.5t-205 36.5t-165 103t-111 160t-40 205.5zM199 487q0 -96 31.5 -173.5t89 -133t134.5 -86.5t167 -31t167.5 32 t135 89.5t90.5 135t33 167.5q0 94 -33 172t-90.5 134.5t-135 87t-167.5 30.5t-167 -31.5t-134.5 -89t-89 -134t-31.5 -169.5z" />
<glyph unicode="p" horiz-adv-x="1304" d="M170 -451v1434h86l8 -205q61 115 174 169t236 54q119 0 216 -41.5t165.5 -111.5t105.5 -161t37 -189q0 -102 -37 -194.5t-105.5 -162t-165.5 -111.5t-216 -42q-59 0 -120.5 14t-116 42t-99.5 69t-74 96v-660h-94zM260 477q0 -86 29.5 -160.5t85 -130t131.5 -87t168 -31.5 q96 0 175 34.5t135 93t87 137.5t31 165t-31 162.5t-87 135t-135 92.5t-175 34q-92 0 -170 -33t-137 -92q-35 -35 -55.5 -70t-32 -73t-15.5 -82t-4 -95z" />
<glyph unicode="q" horiz-adv-x="1304" d="M111 498q0 98 36.5 189t105.5 161t165 111.5t215 41.5q123 0 234.5 -55t174.5 -170l9 207h86v-1434h-95v666q-29 -53 -72.5 -94t-99 -69.5t-116 -43t-121.5 -14.5q-121 0 -217.5 40t-164 107.5t-104 159.5t-36.5 197zM205 498q0 -90 30.5 -168t87 -135.5t135.5 -89 t175 -31.5q80 0 153.5 25.5t131.5 72.5q76 61 103.5 134t27.5 171v43.5t-2 40.5q-4 70 -38 135.5t-89.5 115.5t-128 80t-158.5 30q-96 0 -175 -35t-135.5 -93.5t-87 -135t-30.5 -160.5z" />
<glyph unicode="r" horiz-adv-x="919" d="M170 0v971h86l8 -187q47 109 146.5 157t216.5 48q68 0 133 -19.5t121 -54.5l-41 -75q-104 65 -216 65h-3q-78 0 -143.5 -27.5t-113 -76.5t-74 -116t-26.5 -146v-539h-94z" />
<glyph unicode="s" horiz-adv-x="1175" d="M98 272l88 -2q2 -53 39 -93t95.5 -65.5t131 -38t144.5 -12.5q78 0 148.5 13.5t124 41t85 67.5t31.5 96q0 59 -37 93t-97 51t-137 23.5t-157 12.5t-156.5 17t-137 39t-97.5 75t-37 127q0 74 42 126t107.5 86t145.5 50t154 16q82 0 166.5 -14t152.5 -48t112 -87t46 -131 h-88q-4 55 -43 93t-95.5 61.5t-123 33.5t-125.5 10q-66 0 -130.5 -13t-114.5 -37.5t-82 -61.5t-32 -86q0 -80 63.5 -114t159 -48t206 -20.5t205.5 -28t158.5 -71.5t63.5 -152q0 -78 -40 -134.5t-105.5 -93.5t-153.5 -54t-182 -17q-90 0 -178 16t-159 51t-115 90.5t-46 132.5 z" />
<glyph unicode="t" horiz-adv-x="858" d="M37 893v78h217v465h94v-465h453v-78h-453v-485q0 -76 20.5 -139.5t59.5 -109.5t93 -73t122 -27q41 0 79 10.5t73 32.5l32 -73q-84 -49 -188 -49q-90 0 -160.5 31.5t-121 88t-77 135t-26.5 173.5v485h-217z" />
<glyph unicode="u" horiz-adv-x="1288" d="M164 479v494h94v-494q0 -100 28.5 -178t79 -132t120 -83t151.5 -29q72 0 141.5 26t123.5 75t88 120.5t34 165.5v529h96v-973h-86l-10 205q-23 -57 -62.5 -99.5t-91 -70t-110 -40.5t-119.5 -13q-98 0 -184 30.5t-151.5 93t-103.5 155.5t-38 218z" />
<glyph unicode="v" horiz-adv-x="1177" d="M33 975h106l299 -574l154 -323l151 323l297 574h107l-512 -981h-90z" />
<glyph unicode="w" horiz-adv-x="1873" d="M49 975h103l264 -569l135 -312l344 705h82l207 -408l139 -297l131 307l268 574h103v-2l-459 -979h-84l-276 545l-68 157l-72 -161l-276 -541h-84l-412 878z" />
<glyph unicode="x" horiz-adv-x="1085" d="M37 0v2l446 483l-446 486h125l268 -297l111 -133h2l110 133l269 297h127l-447 -486l447 -485h-127l-269 303l-108 127h-2l-115 -135l-266 -295h-125z" />
<glyph unicode="y" horiz-adv-x="1232" d="M33 975h106l324 -582l164 -305h2l151 305l316 582h104v-2l-780 -1432h-107l258 469z" />
<glyph unicode="z" horiz-adv-x="1130" d="M98 84l820 805h-783v84h873l32 -84l-821 -809h817v-80h-905z" />
<glyph unicode="{" horiz-adv-x="731" d="M98 578v79q94 0 144.5 69t48.5 167l2 133q0 92 19.5 170t62.5 135.5t112.5 89t169.5 35.5v-78q-131 -4 -201.5 -82.5t-70.5 -238.5v-117q0 -109 -35 -199t-114 -123q80 -35 116.5 -122.5t36.5 -200.5v-141q0 -127 67.5 -207t198.5 -84l-2 -84q-84 2 -151.5 31.5 t-113.5 80t-70.5 117t-24.5 146.5v141q0 61 -10.5 112.5t-34 89.5t-60 59.5t-90.5 21.5z" />
<glyph unicode="|" horiz-adv-x="696" d="M287 -244v1680h96v-1680h-96z" />
<glyph unicode="}" horiz-adv-x="729" d="M70 1378v78q100 -4 169.5 -35.5t112.5 -89t62.5 -135.5t19.5 -170l2 -133q-2 -98 48.5 -167t144.5 -69v-79q-53 0 -90 -21.5t-60.5 -59.5t-34 -89.5t-10.5 -112.5v-141q0 -80 -24.5 -146.5t-70.5 -117t-113.5 -80t-151.5 -31.5l-2 84q131 4 198.5 84t67.5 207v141 q0 113 37 201t117 122q-80 33 -115 123t-35 199v117q0 160 -70.5 238.5t-201.5 82.5z" />
<glyph unicode="~" horiz-adv-x="1103" d="M70 528q43 94 110.5 137.5t153.5 43.5q66 0 120 -27t104 -58.5t101.5 -58t110.5 -26.5q63 0 116.5 36.5t76.5 108.5l73 -27q-41 -98 -110.5 -150t-161.5 -52q-72 0 -128 26.5t-106.5 59t-99.5 59.5t-104 27q-59 0 -110.5 -34t-80.5 -97z" />
<glyph unicode="&#xa1;" horiz-adv-x="583" d="M233 -453v1065h101v-1065h-101zM233 770v211h101v-211h-101z" />
<glyph unicode="&#xa2;" horiz-adv-x="1169" d="M100 473q0 100 37 189.5t101.5 157t150.5 109.5t184 52v135h82v-133q129 -8 237.5 -63.5t176.5 -165.5l-68 -45q-59 94 -149 138t-197 52v-850q117 8 214.5 65.5t152.5 166.5l76 -37q-66 -125 -183.5 -198t-259.5 -81v-139h-82v141q-98 8 -184 51t-150.5 111t-101.5 156 t-37 188zM195 473q0 -84 29.5 -156.5t80.5 -128t121 -91.5t147 -44v842q-78 -8 -147.5 -44t-120.5 -91t-80.5 -129t-29.5 -158z" />
<glyph unicode="&#xa3;" horiz-adv-x="1550" d="M90 612v84h197v2l-25 58q-14 31 -28.5 61.5t-24.5 62t-17.5 66.5t-5.5 76q0 117 56.5 200t146.5 137t201.5 78.5t220.5 24.5q102 0 203.5 -24.5t183.5 -74.5t134 -128t57 -184q-25 0 -47.5 -1t-47.5 -1q-2 82 -44 142t-108.5 100t-152.5 60.5t-178 24.5 q-96 0 -190.5 -21.5t-168 -64.5t-119.5 -108.5t-46 -153.5q0 -47 11 -89t27.5 -82t35 -79t34.5 -82h529v-84h-502q16 -70 16 -135q0 -84 -32.5 -168t-114.5 -176l2 -2q139 59 244 59q63 0 132.5 -18t143.5 -40.5t149.5 -41t149.5 -18.5q68 0 137.5 22.5t143.5 79.5 q16 -18 29.5 -36.5t27.5 -37.5q-88 -70 -170 -96.5t-160 -26.5q-76 0 -149.5 18.5t-148 41t-152.5 41t-160 18.5q-74 0 -161 -24.5t-161 -73.5q-16 16 -29.5 34.5t-27.5 37.5q41 35 80 82t68.5 100t47 110.5t17.5 116.5q0 35 -7 68t-18 65h-229z" />
<glyph unicode="&#xa4;" horiz-adv-x="1107" d="M66 250l153 153q-45 55 -69.5 123t-24.5 144q0 74 24.5 142.5t69.5 123.5l-153 154l67 67l154 -156q109 90 266 91q156 0 264 -91l156 156l65 -67l-153 -154q45 -55 69.5 -124t24.5 -142q0 -76 -24.5 -143.5t-69.5 -123.5l153 -153l-65 -68l-156 156 q-53 -43 -119.5 -66.5t-144.5 -23.5q-158 0 -266 90l-154 -156zM217 670q0 -70 26.5 -131.5t75 -107.5t113 -72.5t139.5 -26.5q70 0 128.5 27.5t99.5 74.5t64.5 107.5t23.5 128.5t-24.5 130t-68.5 109t-105.5 75t-135.5 28t-136.5 -28t-106.5 -75t-68.5 -108t-24.5 -131z " />
<glyph unicode="&#xa5;" horiz-adv-x="1515" d="M29 1432v2h118l611 -781l608 781h119v-2l-635 -803h389v-80h-434v-191h434v-75h-434v-283h-94v283h-437v75h437v191h-437v80h390z" />
<glyph unicode="&#xa6;" horiz-adv-x="798" d="M348 -178v729h96v-729h-96zM348 705v729h96v-729h-96z" />
<glyph unicode="&#xa7;" horiz-adv-x="1302" d="M96 248l92 4q2 -66 49.5 -111t118 -72.5t152.5 -39t156 -11.5q80 0 156.5 15.5t137 45.5t96.5 72t36 95q0 45 -21.5 76.5t-61.5 52t-95.5 32t-123.5 17.5l-178 16q-80 6 -159.5 19.5t-142 43t-102.5 79t-40 127.5q0 88 61.5 149t165.5 88q-119 25 -179 89.5t-60 142.5 q0 82 47 138t120.5 91t163.5 49t177 14q82 0 172 -16t165.5 -51t126 -90.5t54.5 -134.5h-46.5t-46.5 -2q-2 55 -39.5 96t-99 66.5t-137.5 39t-156 13.5q-86 0 -159.5 -13.5t-129 -41t-86 -68.5t-30.5 -97q0 -49 43 -82.5t113.5 -56t163 -34t190.5 -13.5q201 -12 295 -88 t94 -186q0 -76 -51 -139.5t-160 -94.5q111 -25 178.5 -82t67.5 -149q0 -80 -46 -137.5t-122 -94.5t-173.5 -54t-199.5 -17q-86 0 -182 16t-176 52t-133.5 94.5t-55.5 142.5zM260 711q-2 -57 37 -94t100.5 -58.5t135 -30t141.5 -8.5q43 0 108.5 4t128 21.5t107.5 54.5t45 105 q0 92 -105.5 151t-291.5 59q-82 0 -155 -12t-128 -36.5t-88 -63.5t-35 -92z" />
<glyph unicode="&#xa8;" horiz-adv-x="892" d="M172 1401v160h94v-160h-94zM604 1401v160h94v-160h-94z" />
<glyph unicode="&#xa9;" horiz-adv-x="1820" d="M178 700q0 147 56.5 277.5t152.5 229t227 154.5t279 56q150 0 280 -56t226 -154.5t152.5 -228.5t56.5 -278q0 -147 -56.5 -277t-152.5 -227.5t-226 -153.5t-280 -56q-147 0 -278.5 56t-227.5 153.5t-152.5 227.5t-56.5 277zM279 700q0 -127 48 -239.5t131 -195.5 t195.5 -131t239.5 -48q129 0 240.5 48t195.5 131t132 195.5t48 239.5t-48 240t-132 197t-195.5 132t-240.5 48q-127 0 -239.5 -48t-195.5 -132t-131 -197t-48 -240zM518 700q0 82 31 154t84 125t124.5 84t153.5 31q104 0 198.5 -52.5t143.5 -167.5l-75 -38 q-47 92 -118 125.5t-149 33.5q-61 0 -114.5 -21.5t-93 -60.5t-62.5 -93t-23 -120q0 -61 23 -114.5t62.5 -93t93 -62t114.5 -22.5q86 0 159 40.5t118 133.5l86 -37q-55 -117 -152.5 -177.5t-210.5 -60.5q-82 0 -153.5 31t-124.5 84t-84 124.5t-31 153.5z" />
<glyph unicode="&#xaa;" horiz-adv-x="854" d="M123 1004q0 45 21.5 79.5t56.5 58t80 36t92 12.5h254q-6 78 -68.5 122t-150.5 44q-47 0 -95.5 -15.5t-85.5 -44.5l-47 54q47 39 106.5 61.5t125.5 22.5q61 0 115.5 -17.5t96.5 -51.5t65.5 -84t23.5 -114v-352h-68q-4 25 -7 50.5t-7 52.5q-33 -59 -97.5 -85t-152.5 -26 q-115 0 -186.5 56.5t-71.5 140.5zM205 1004q0 -53 49 -88t127 -35q49 0 91 9t76 29.5t55.5 54.5t27.5 85v57h-258q-66 0 -117 -29.5t-51 -82.5z" />
<glyph unicode="&#xab;" horiz-adv-x="880" d="M123 545l276 440h101v-4l-277 -432l277 -436h-101zM340 555l276 430h101v-4l-277 -432l277 -436h-101z" />
<glyph unicode="&#xac;" horiz-adv-x="968" d="M92 586v86h748v-340h-88v254h-660z" />
<glyph unicode="&#xad;" horiz-adv-x="964" d="M119 592v88h717v-88h-717z" />
<glyph unicode="&#xae;" horiz-adv-x="1798" d="M166 711q0 147 56.5 277t152.5 228.5t227 154.5t279 56q150 0 279.5 -56t226 -154.5t152.5 -228.5t56 -277t-56 -277.5t-152.5 -227.5t-226 -153.5t-279.5 -56.5q-147 0 -278.5 56.5t-227.5 153.5t-152.5 227t-56.5 278zM266 711q0 -127 48 -240t131 -195.5t196 -131 t240 -48.5q129 0 240.5 48.5t195.5 131t132 195.5t48 240t-48 239.5t-132 196.5t-195.5 132t-240.5 48q-127 0 -240 -48t-196 -132t-131 -196.5t-48 -239.5zM592 340v756h364q53 0 103.5 -14.5t89.5 -42t62.5 -69.5t23.5 -100q0 -47 -19.5 -94t-60.5 -80q-37 -29 -84 -40 t-92 -13l289 -303h-125l-289 301h-162v-301h-100zM692 731h271q33 2 64.5 8t56 20.5t39 40t14.5 68.5q0 41 -17.5 67t-44 41t-58.5 21.5t-61 6.5h-264v-273z" />
<glyph unicode="&#xb0;" horiz-adv-x="622" d="M106 1287q0 50 23 92t68 71t112 29q66 0 110 -29t65.5 -71t21.5 -92t-21.5 -92t-65.5 -70.5t-110 -28.5q-68 0 -112.5 28.5t-67.5 70.5t-23 92zM179 1288q-1 -47 30.5 -86t99.5 -39q61 0 92 39t31 86t-30.5 86t-92.5 39q-63 0 -96 -39t-34 -86z" />
<glyph unicode="&#xb1;" horiz-adv-x="1009" d="M98 94v86h820v-86h-820zM98 752v84h365v368h90v-368h365v-84h-365v-371h-90v371h-365z" />
<glyph unicode="&#xb2;" horiz-adv-x="851" d="M90 946l485 309q47 35 72 64t25 57q0 39 -22.5 65.5t-58.5 44t-79 25t-82 7.5q-43 0 -84 -7.5t-75.5 -22.5t-57.5 -43t-29 -67h-88q6 61 38 103.5t79 68t105.5 37.5t117.5 12q49 0 107.5 -10t108.5 -35.5t83 -68.5t33 -107q0 -63 -44 -110t-97 -80l-377 -236h518v-84 h-649z" />
<glyph unicode="&#xb3;" horiz-adv-x="886" d="M88 1085h88q2 -39 27.5 -66.5t65.5 -46t90.5 -26.5t99.5 -8t95 9t81 27.5t55.5 46.5t20.5 62q0 39 -24.5 65t-63.5 40t-88.5 19t-100.5 5h-80v78h80q49 0 95 5t82 17.5t58.5 31t24.5 47.5q0 59 -63.5 97t-179.5 38q-43 0 -88.5 -7.5t-82 -22.5t-61 -39.5t-26.5 -59.5h-89 q2 53 33 92t79 63.5t107.5 37t116.5 12.5q63 0 125 -11.5t111 -35t79.5 -61.5t30.5 -93q0 -125 -163 -148q86 -12 134 -56t48 -107t-32 -107.5t-82 -71t-111.5 -38t-122.5 -11.5q-59 0 -125 11.5t-119 38t-89 69.5t-36 104z" />
<glyph unicode="&#xb4;" horiz-adv-x="602" d="M145 1159v4l205 273h113v-2l-227 -275h-91z" />
<glyph unicode="&#xb6;" horiz-adv-x="1855" d="M120 939q1 97 34.5 189.5t100.5 165t165 116.5t229 44h1125v-100h-252v-1796h-101v1796h-684v-1796h-98v854q-131 2 -228.5 48t-163 120.5t-97 168t-30.5 190.5z" />
<glyph unicode="&#xb7;" horiz-adv-x="430" d="M154 588v139h102v-139h-102z" />
<glyph unicode="&#xb8;" horiz-adv-x="743" d="M147 -272l54 34q55 -94 170 -94q57 0 103 25.5t46 85.5q0 33 -18.5 54.5t-48 33.5t-64.5 13t-65 -7l-29 39l41 137l67 -2l-36 -110q98 12 162.5 -34t64.5 -124q0 -47 -19.5 -81t-50 -56.5t-69.5 -32.5t-78 -10q-72 0 -130.5 28.5t-99.5 100.5z" />
<glyph unicode="&#xb9;" horiz-adv-x="536" d="M41 1401l225 198h125v-708h-96v622l-201 -172z" />
<glyph unicode="&#xba;" horiz-adv-x="858" d="M102 1245q0 68 20.5 132.5t61.5 114.5t100.5 81t139.5 31q78 0 138.5 -31t101.5 -81t61 -114.5t20 -132.5t-20 -132t-61 -114.5t-101.5 -81t-138.5 -30.5q-80 0 -139.5 30.5t-100.5 81t-61.5 115t-20.5 131.5zM195 1245q0 -53 14 -101t43 -86t72 -60.5t100 -22.5 q55 0 97 22.5t72 60.5t44 86t14 101q0 51 -14 100.5t-44 87t-72 61.5t-97 24q-57 0 -100 -24t-72 -61.5t-43 -87t-14 -100.5z" />
<glyph unicode="&#xbb;" horiz-adv-x="915" d="M168 113l276 436l-276 432v4h100l277 -430l-277 -442h-100zM385 113l277 436l-277 432v4h100l277 -440l-277 -432h-100z" />
<glyph unicode="&#xbc;" horiz-adv-x="1622" d="M78 1237l227 199h123v-709h-94v621l-201 -172zM145 -94l1139 1620h111l-1139 -1620h-111zM809 131v72l551 516h74v-506h104v-82h-104v-131h-95v131h-530zM940 213h399v371z" />
<glyph unicode="&#xbd;" horiz-adv-x="1660" d="M74 -90l1124 1618h111l-1125 -1618h-110zM74 1239l227 199h123v-709h-94v623l-201 -174zM879 78l485 309q47 35 71.5 63.5t24.5 57.5q0 39 -22.5 66.5t-58.5 44t-77.5 23.5t-78.5 7q-47 0 -91.5 -9t-78 -26.5t-55 -43t-23.5 -60.5h-92q2 57 31.5 99t76.5 69t107.5 39 t126.5 12q51 0 109.5 -10t107.5 -36t81.5 -69t32.5 -108q0 -45 -23.5 -82t-57 -66.5t-73.5 -54t-73 -45.5l-293 -176q131 0 260 1t258 1v-42t-2 -42h-653z" />
<glyph unicode="&#xbe;" horiz-adv-x="1875" d="M90 938h92q2 -35 25.5 -61.5t61.5 -45t84 -27.5t93 -9q51 0 98.5 8t84.5 24.5t58.5 42t23.5 60.5v10q0 39 -23.5 62.5t-62.5 37t-88.5 18.5t-100.5 5h-82v78h82q49 0 96.5 6t83 18.5t57 34t21.5 51.5q0 53 -70.5 87t-177.5 34q-41 0 -85 -7t-80.5 -22.5t-60 -39 t-23.5 -54.5h-91q2 53 33 92t79 64t106.5 36t117.5 11q63 0 125 -11t111 -35t79.5 -61.5t30.5 -93.5q0 -57 -38.5 -96t-120.5 -51q86 -12 132 -55t46 -109q0 -61 -32 -105t-83 -71t-112.5 -39t-122.5 -12q-57 0 -122 11t-119 37.5t-90 69.5t-36 107zM397 -92 q291 406 577 808t574 810h111q-289 -408 -575.5 -810.5t-575.5 -807.5h-111zM1047 131v72l552 516h78v-506h107v-82h-107v-131h-98v131h-532zM1178 213h401v371z" />
<glyph unicode="&#xbf;" horiz-adv-x="1632" d="M156 -20q0 100 28.5 162.5t74.5 100.5t105.5 57t122 33.5t122 32t105.5 51.5t74.5 90t28.5 148h92q0 -109 -28.5 -177t-74.5 -110t-105.5 -63.5t-121 -37t-121 -31t-105.5 -44t-74.5 -77.5t-28.5 -131q0 -88 48 -154t125 -109t175 -63t197 -20q113 0 217 22.5t184 66.5 t129 107.5t51 145.5q25 0 47.5 -1.5t46.5 -1.5q-4 -104 -59 -184t-147.5 -134t-211 -82t-247.5 -28q-123 0 -239.5 26t-208 78t-146.5 134t-55 193zM817 823v189h92v-189h-92z" />
<glyph unicode="&#xc0;" d="M29 0l741 1448h100l740 -1448h-111l-207 403h-948l-207 -403h-108zM389 489h860l-430 848zM541 1810v2h116l197 -272v-4h-92z" />
<glyph unicode="&#xc1;" d="M29 0l741 1448h100l740 -1448h-111l-207 403h-948l-207 -403h-108zM389 489h860l-430 848zM774 1546v4l205 273h113v-2l-228 -275h-90z" />
<glyph unicode="&#xc2;" d="M29 0l741 1448h100l740 -1448h-111l-207 403h-948l-207 -403h-108zM389 489h860l-430 848zM508 1542v10l289 263h51l287 -263v-10h-101l-211 195l-213 -195h-102z" />
<glyph unicode="&#xc3;" d="M29 0l741 1448h100l740 -1448h-111l-207 403h-948l-207 -403h-108zM389 489h860l-430 848zM522 1571q20 57 70.5 97t116.5 40q43 0 72.5 -14.5t53 -33t46 -32.5t51.5 -14q41 0 72.5 18.5t44.5 63.5l73 -21q-23 -59 -74 -99t-116 -40q-35 0 -62.5 15.5t-53 33t-50.5 32.5 t-55 15q-41 0 -72 -22.5t-43 -61.5z" />
<glyph unicode="&#xc4;" d="M29 0l741 1448h100l740 -1448h-111l-207 403h-948l-207 -403h-108zM389 489h860l-430 848zM557 1540v160h94v-160h-94zM989 1540v160h94v-160h-94z" />
<glyph unicode="&#xc5;" d="M29 0l741 1448h100l740 -1448h-111l-207 403h-948l-207 -403h-108zM389 489h860l-430 848zM618 1683q0 59 30 100.5t75 61t96 19.5t96.5 -19.5t75 -60.5t29.5 -101q0 -59 -29.5 -99t-75 -60.5t-96.5 -20.5t-96 20.5t-75 60.5t-30 99zM694 1686.5q0 -44.5 32 -81t93 -36.5 q63 0 94 36.5t31 81t-31 81t-94 36.5q-61 0 -93 -36.5t-32 -81z" />
<glyph unicode="&#xc6;" horiz-adv-x="2371" d="M29 0l1065 1434h1183v-88h-927v-588h891v-84h-891v-590h927v-84h-1024v412h-798l-305 -412h-121zM518 498h735v848h-108z" />
<glyph unicode="&#xc7;" horiz-adv-x="1574" d="M109 719q0 156 56 291t156.5 234t236.5 155.5t294 56.5q100 0 196.5 -23.5t181.5 -70.5t153.5 -117.5t111.5 -165.5l-84 -30q-41 80 -101.5 140t-134 100t-155.5 60.5t-168 20.5q-137 0 -255 -49t-204 -136t-135 -207t-49 -259t49 -258t135 -206t204 -136t255 -49 q86 0 172 22.5t162 65.5t137 107.5t100 148.5l88 -25q-43 -96 -109.5 -170t-148.5 -125t-176 -78.5t-194 -31.5l-25 -84q86 8 150.5 -32t64.5 -120q0 -43 -19.5 -78t-51 -58.5t-72.5 -35.5t-86 -10q-70 4 -126 33.5t-91 95.5l61 37q23 -43 64 -67.5t94 -24.5q57 0 101 28.5 t44 75.5q0 29 -18.5 49.5t-46 32.5t-61.5 15t-62 -5l-39 37l35 113q-147 8 -274.5 67.5t-219.5 156.5t-144 227t-52 282z" />
<glyph unicode="&#xc8;" horiz-adv-x="1386" d="M190 0v1434h1076v-86h-975v-588h938v-86h-938v-588h975v-86h-1076zM514 1810v2h117l196 -272v-4h-92z" />
<glyph unicode="&#xc9;" horiz-adv-x="1386" d="M190 0v1434h1076v-86h-975v-588h938v-86h-938v-588h975v-86h-1076zM678 1536v4l205 272h112v-2l-227 -274h-90z" />
<glyph unicode="&#xca;" horiz-adv-x="1386" d="M190 0v1434h1076v-86h-975v-588h938v-86h-938v-588h975v-86h-1076zM442 1536v10l289 262h51l287 -262v-10h-100l-211 195l-213 -195h-103z" />
<glyph unicode="&#xcb;" horiz-adv-x="1386" d="M190 0v1434h1076v-86h-975v-588h938v-86h-938v-588h975v-86h-1076zM487 1548v160h95v-160h-95zM920 1548v160h94v-160h-94z" />
<glyph unicode="&#xcc;" horiz-adv-x="481" d="M-20 1810v2h116l197 -272v-4h-92zM193 0v1434h98v-1434h-98z" />
<glyph unicode="&#xcd;" horiz-adv-x="481" d="M190 1536v4l205 272h113v-2l-227 -274h-91zM193 0v1434h98v-1434h-98z" />
<glyph unicode="&#xce;" horiz-adv-x="481" d="M-72 1536v10l289 262h51l287 -262v-10h-100l-211 195l-213 -195h-103zM193 0v1434h98v-1434h-98z" />
<glyph unicode="&#xcf;" horiz-adv-x="481" d="M-20 1528v160h94v-160h-94zM193 0v1434h98v-1434h-98zM412 1528v160h94v-160h-94z" />
<glyph unicode="&#xd0;" horiz-adv-x="1611" d="M-10 684v82h168v670h635q168 0 301 -58.5t224 -158t139 -229.5t48 -271q0 -145 -48 -276.5t-140 -229.5t-224 -155.5t-300 -57.5h-635v684h-168zM260 84h535q147 0 260.5 51t192.5 137t120 200t41 241q0 125 -41 239.5t-120 202.5t-192.5 139.5t-260.5 51.5h-535v-580 h371v-82h-371v-600z" />
<glyph unicode="&#xd1;" horiz-adv-x="1669" d="M190 0v1434h103l1087 -1291v1291h99v-1434h-103l-1087 1290v-1290h-99zM569 1561q20 57 70.5 97t116.5 40q43 0 72.5 -14.5t53 -33t46 -32.5t51.5 -14q41 0 72.5 18t44.5 64l73 -21q-23 -59 -74 -99t-116 -40q-35 0 -62.5 15t-53 32.5t-50.5 33t-55 15.5q-41 0 -72 -22.5 t-43 -61.5z" />
<glyph unicode="&#xd2;" horiz-adv-x="1712" d="M111 721q0 158 57 293t156.5 234.5t235.5 155.5t296 56q158 0 294 -56t235.5 -155.5t156.5 -234.5t57 -293t-57 -293t-156.5 -234.5t-235.5 -155.5t-294 -56q-160 0 -296 56t-235.5 155.5t-156.5 234.5t-57 293zM211 721q0 -139 49 -259t135 -207t204 -137t257 -50 q137 0 255 50t204 137t135 207t49 259t-49 258t-135 207t-204 137t-255 49q-139 0 -257 -49t-204 -137t-135 -207t-49 -258zM592 1810v2h117l196 -272v-4h-92z" />
<glyph unicode="&#xd3;" horiz-adv-x="1712" d="M111 721q0 158 57 293t156.5 234.5t235.5 155.5t296 56q158 0 294 -56t235.5 -155.5t156.5 -234.5t57 -293t-57 -293t-156.5 -234.5t-235.5 -155.5t-294 -56q-160 0 -296 56t-235.5 155.5t-156.5 234.5t-57 293zM211 721q0 -139 49 -259t135 -207t204 -137t257 -50 q137 0 255 50t204 137t135 207t49 259t-49 258t-135 207t-204 137t-255 49q-139 0 -257 -49t-204 -137t-135 -207t-49 -258zM797 1552v4l204 273h113v-2l-227 -275h-90z" />
<glyph unicode="&#xd4;" horiz-adv-x="1712" d="M111 721q0 158 57 293t156.5 234.5t235.5 155.5t296 56q158 0 294 -56t235.5 -155.5t156.5 -234.5t57 -293t-57 -293t-156.5 -234.5t-235.5 -155.5t-294 -56q-160 0 -296 56t-235.5 155.5t-156.5 234.5t-57 293zM211 721q0 -139 49 -259t135 -207t204 -137t257 -50 q137 0 255 50t204 137t135 207t49 259t-49 258t-135 207t-204 137t-255 49q-139 0 -257 -49t-204 -137t-135 -207t-49 -258zM549 1544v10l289 263h51l287 -263v-10h-101l-211 195l-213 -195h-102z" />
<glyph unicode="&#xd5;" horiz-adv-x="1712" d="M111 721q0 158 57 293t156.5 234.5t235.5 155.5t296 56q158 0 294 -56t235.5 -155.5t156.5 -234.5t57 -293t-57 -293t-156.5 -234.5t-235.5 -155.5t-294 -56q-160 0 -296 56t-235.5 155.5t-156.5 234.5t-57 293zM211 721q0 -139 49 -259t135 -207t204 -137t257 -50 q137 0 255 50t204 137t135 207t49 259t-49 258t-135 207t-204 137t-255 49q-139 0 -257 -49t-204 -137t-135 -207t-49 -258zM563 1583q20 57 70.5 97t116.5 40q43 0 72.5 -14t53 -32.5t46 -33t51.5 -14.5q41 0 72.5 18.5t44.5 63.5l73 -20q-23 -59 -74 -99.5t-116 -40.5 q-35 0 -62.5 15.5t-53.5 33t-50.5 33t-54.5 15.5q-41 0 -72 -23t-43 -61z" />
<glyph unicode="&#xd6;" horiz-adv-x="1712" d="M111 721q0 158 57 293t156.5 234.5t235.5 155.5t296 56q158 0 294 -56t235.5 -155.5t156.5 -234.5t57 -293t-57 -293t-156.5 -234.5t-235.5 -155.5t-294 -56q-160 0 -296 56t-235.5 155.5t-156.5 234.5t-57 293zM211 721q0 -139 49 -259t135 -207t204 -137t257 -50 q137 0 255 50t204 137t135 207t49 259t-49 258t-135 207t-204 137t-255 49q-139 0 -257 -49t-204 -137t-135 -207t-49 -258zM586 1546v160h94v-160h-94zM1018 1546v160h94v-160h-94z" />
<glyph unicode="&#xd7;" horiz-adv-x="907" d="M113 356l274 273l-260 262l70 70l258 -271l254 260l63 -65l-254 -260l266 -271l-61 -59l-270 270l-275 -274z" />
<glyph unicode="&#xd8;" horiz-adv-x="1712" d="M111 721q0 158 57 293t156.5 234.5t235.5 155.5t296 56t297 -59l96 182h103l-119 -225q82 -47 149.5 -113.5t115.5 -148.5t74.5 -176.5t26.5 -198.5q0 -158 -57 -293t-156.5 -234.5t-235.5 -155.5t-294 -56q-86 0 -166 16t-149 45l-99 -186h-102l123 229 q-160 96 -256 262t-96 373zM211 721q0 -180 81 -323.5t216 -229.5l602 1155q-59 23 -122.5 36t-131.5 13q-139 0 -257 -49t-204 -137t-135 -207t-49 -258zM584 123q61 -27 130.5 -41t141.5 -14q137 0 255 50t204 137t135 207t49 259q0 182 -85 327.5t-226 229.5z" />
<glyph unicode="&#xd9;" horiz-adv-x="1841" d="M188 735v699h101v-699q0 -168 54 -294t143 -210t203 -126t233 -42t232.5 42t202.5 126t143 210t54 294v699h101v-699q0 -188 -62.5 -330.5t-166 -237.5t-235.5 -142.5t-269 -47.5q-139 0 -270.5 47.5t-235 142.5t-166 237.5t-62.5 330.5zM715 1810v2h116l197 -272v-4h-92 z" />
<glyph unicode="&#xda;" horiz-adv-x="1841" d="M188 735v699h101v-699q0 -168 54 -294t143 -210t203 -126t233 -42t232.5 42t202.5 126t143 210t54 294v699h101v-699q0 -188 -62.5 -330.5t-166 -237.5t-235.5 -142.5t-269 -47.5q-139 0 -270.5 47.5t-235 142.5t-166 237.5t-62.5 330.5zM852 1526v4l205 272h112v-2 l-227 -274h-90z" />
<glyph unicode="&#xdb;" horiz-adv-x="1841" d="M188 735v699h101v-699q0 -168 54 -294t143 -210t203 -126t233 -42t232.5 42t202.5 126t143 210t54 294v699h101v-699q0 -188 -62.5 -330.5t-166 -237.5t-235.5 -142.5t-269 -47.5q-139 0 -270.5 47.5t-235 142.5t-166 237.5t-62.5 330.5zM602 1532v10l289 262h51 l287 -262v-10h-101l-210 194l-213 -194h-103z" />
<glyph unicode="&#xdc;" horiz-adv-x="1841" d="M188 735v699h101v-699q0 -168 54 -294t143 -210t203 -126t233 -42t232.5 42t202.5 126t143 210t54 294v699h101v-699q0 -188 -62.5 -330.5t-166 -237.5t-235.5 -142.5t-269 -47.5q-139 0 -270.5 47.5t-235 142.5t-166 237.5t-62.5 330.5zM668 1524v159h94v-159h-94z M1100 1524v159h94v-159h-94z" />
<glyph unicode="&#xdd;" horiz-adv-x="1511" d="M31 1432v2h119l612 -772l606 772h119v-2l-678 -857v-575h-100v575zM694 1526v4l205 272h113v-2l-228 -274h-90z" />
<glyph unicode="&#xde;" horiz-adv-x="1490" d="M193 0v1432h98v-269h592q104 0 208.5 -24.5t184.5 -94.5q68 -59 101.5 -146t33.5 -179q0 -113 -41 -198t-112.5 -141t-169 -84t-207.5 -28h-590v-268h-98zM291 354h592q88 0 166.5 20.5t137 64.5t92.5 113t34 167q0 104 -39 173t-100.5 109.5t-138.5 58t-152 17.5h-592 v-723z" />
<glyph unicode="&#xdf;" horiz-adv-x="1267" d="M170 0v1079q0 88 37 158t99.5 118t146.5 73.5t178 25.5q86 0 168 -22.5t145.5 -68.5t102 -113.5t38.5 -157.5q0 -49 -13 -98.5t-44 -92.5t-80 -73.5t-119 -43.5q94 -16 162 -53t112 -89t64.5 -115.5t20.5 -131.5q0 -90 -39 -165.5t-108.5 -131t-163 -86t-203.5 -30.5 q-72 0 -140.5 18t-127.5 53l4 84q53 -35 120.5 -54.5t135.5 -19.5q88 0 165.5 24t136 69t91.5 107.5t33 139.5q0 106 -47.5 172t-118 103t-153.5 49t-152 12h-181v80h176q80 0 149 17.5t119 51.5t78.5 85t28.5 119q0 70 -30.5 123t-81 88.5t-115 53t-131.5 17.5 q-74 0 -140.5 -19.5t-116.5 -57t-81 -93t-31 -125.5v-1079h-94z" />
<glyph unicode="&#xe0;" horiz-adv-x="1234" d="M100 287q0 68 29 122t81 91t121.5 56t153.5 22h494v10q0 80 -29.5 140t-82 100t-124 60.5t-155.5 20.5q-104 0 -193.5 -29.5t-148.5 -107.5l-60 41q72 102 178.5 140t227.5 38q104 0 192 -28.5t152.5 -81t100.5 -127t36 -166.5v-445l4 -143h-84l-14 203 q-29 -61 -77 -102.5t-109.5 -68t-132 -37.5t-142.5 -11q-78 0 -152.5 15t-134 50t-95.5 93.5t-36 144.5zM195 287q0 -61 28.5 -103.5t73.5 -69t101.5 -39t109.5 -12.5q80 0 164 17.5t151.5 57.5t111.5 104.5t44 156.5v101h-492q-129 -4 -210.5 -59.5t-81.5 -153.5zM373 1438 v2h116l197 -273v-4h-92z" />
<glyph unicode="&#xe1;" horiz-adv-x="1234" d="M100 287q0 68 29 122t81 91t121.5 56t153.5 22h494v10q0 80 -29.5 140t-82 100t-124 60.5t-155.5 20.5q-104 0 -193.5 -29.5t-148.5 -107.5l-60 41q72 102 178.5 140t227.5 38q104 0 192 -28.5t152.5 -81t100.5 -127t36 -166.5v-445l4 -143h-84l-14 203 q-29 -61 -77 -102.5t-109.5 -68t-132 -37.5t-142.5 -11q-78 0 -152.5 15t-134 50t-95.5 93.5t-36 144.5zM195 287q0 -61 28.5 -103.5t73.5 -69t101.5 -39t109.5 -12.5q80 0 164 17.5t151.5 57.5t111.5 104.5t44 156.5v101h-492q-129 -4 -210.5 -59.5t-81.5 -153.5zM532 1165 v4l197 261h109v-3l-217 -262h-89z" />
<glyph unicode="&#xe2;" horiz-adv-x="1234" d="M100 287q0 68 29 122t81 91t121.5 56t153.5 22h494v10q0 80 -29.5 140t-82 100t-124 60.5t-155.5 20.5q-104 0 -193.5 -29.5t-148.5 -107.5l-60 41q72 102 178.5 140t227.5 38q104 0 192 -28.5t152.5 -81t100.5 -127t36 -166.5v-445l4 -143h-84l-14 203 q-29 -61 -77 -102.5t-109.5 -68t-132 -37.5t-142.5 -11q-78 0 -152.5 15t-134 50t-95.5 93.5t-36 144.5zM195 287q0 -61 28.5 -103.5t73.5 -69t101.5 -39t109.5 -12.5q80 0 164 17.5t151.5 57.5t111.5 104.5t44 156.5v101h-492q-129 -4 -210.5 -59.5t-81.5 -153.5zM315 1167 v11l283 258h49l283 -258v-11h-99l-206 193l-209 -193h-101z" />
<glyph unicode="&#xe3;" horiz-adv-x="1234" d="M100 287q0 68 29 122t81 91t121.5 56t153.5 22h494v10q0 80 -29.5 140t-82 100t-124 60.5t-155.5 20.5q-104 0 -193.5 -29.5t-148.5 -107.5l-60 41q72 102 178.5 140t227.5 38q104 0 192 -28.5t152.5 -81t100.5 -127t36 -166.5v-445l4 -143h-84l-14 203 q-29 -61 -77 -102.5t-109.5 -68t-132 -37.5t-142.5 -11q-78 0 -152.5 15t-134 50t-95.5 93.5t-36 144.5zM195 287q0 -61 28.5 -103.5t73.5 -69t101.5 -39t109.5 -12.5q80 0 164 17.5t151.5 57.5t111.5 104.5t44 156.5v101h-492q-129 -4 -210.5 -59.5t-81.5 -153.5zM319 1251 q20 55 69.5 95t115.5 40q43 0 72.5 -14t53 -32.5t46 -33t51.5 -14.5q39 0 70.5 18.5t44.5 63.5l73 -20q-23 -59 -72.5 -98t-115.5 -39q-35 0 -62.5 14t-53 32.5t-50 33t-55.5 14.5q-41 0 -72 -22.5t-43 -59.5z" />
<glyph unicode="&#xe4;" horiz-adv-x="1234" d="M100 287q0 68 29 122t81 91t121.5 56t153.5 22h494v10q0 80 -29.5 140t-82 100t-124 60.5t-155.5 20.5q-104 0 -193.5 -29.5t-148.5 -107.5l-60 41q72 102 178.5 140t227.5 38q104 0 192 -28.5t152.5 -81t100.5 -127t36 -166.5v-445l4 -143h-84l-14 203 q-29 -61 -77 -102.5t-109.5 -68t-132 -37.5t-142.5 -11q-78 0 -152.5 15t-134 50t-95.5 93.5t-36 144.5zM195 287q0 -61 28.5 -103.5t73.5 -69t101.5 -39t109.5 -12.5q80 0 164 17.5t151.5 57.5t111.5 104.5t44 156.5v101h-492q-129 -4 -210.5 -59.5t-81.5 -153.5zM344 1233 v160h94v-160h-94zM776 1233v160h94v-160h-94z" />
<glyph unicode="&#xe5;" horiz-adv-x="1234" d="M100 287q0 68 29 122t81 91t121.5 56t153.5 22h494v10q0 80 -29.5 140t-82 100t-124 60.5t-155.5 20.5q-104 0 -193.5 -29.5t-148.5 -107.5l-60 41q72 102 178.5 140t227.5 38q104 0 192 -28.5t152.5 -81t100.5 -127t36 -166.5v-445l4 -143h-84l-14 203 q-29 -61 -77 -102.5t-109.5 -68t-132 -37.5t-142.5 -11q-78 0 -152.5 15t-134 50t-95.5 93.5t-36 144.5zM195 287q0 -61 28.5 -103.5t73.5 -69t101.5 -39t109.5 -12.5q80 0 164 17.5t151.5 57.5t111.5 104.5t44 156.5v101h-492q-129 -4 -210.5 -59.5t-81.5 -153.5zM414 1278 q0 59 28.5 97t72.5 58.5t95.5 19.5t95.5 -19.5t72.5 -58.5t28.5 -97q0 -59 -28.5 -97t-72.5 -58.5t-95.5 -20.5t-95.5 20.5t-72.5 58.5t-28.5 97zM489 1280q0 -43 30 -79t91 -36t92 36t31 79t-31 79t-92 36t-91 -36t-30 -79z" />
<glyph unicode="&#xe6;" horiz-adv-x="2107" d="M102 287q0 70 30 124t81 91t120.5 57.5t151.5 22.5h494v10q0 84 -36 145.5t-94 101.5t-131 59.5t-149 19.5q-98 0 -189 -35t-144 -109l-74 43q66 94 175 139t232 45q76 0 153 -19t141.5 -58t110.5 -98.5t62 -139.5q25 70 70 127t104.5 97t132 61.5t150.5 21.5 q111 0 202 -36.5t158.5 -103.5t105.5 -157t42 -194v-51h-924q6 -86 41 -157t92.5 -121t131 -78.5t155.5 -28.5q109 0 202 42t152 142q20 -8 40 -14.5t38 -14.5q-66 -121 -182.5 -178t-253.5 -57q-160 0 -283 84t-176 229q-25 -84 -75 -144.5t-117.5 -98.5t-150.5 -56 t-171 -18q-78 0 -152.5 15t-133 51t-95.5 94.5t-37 144.5zM197 291q0 -66 30.5 -109t78.5 -69.5t106.5 -36.5t111.5 -10q80 0 162 18t146.5 59t105.5 110t41 167v82h-490q-61 0 -114 -15.5t-93 -43t-62.5 -66.5t-22.5 -86zM1077 530h830q-6 84 -42 155t-92.5 121t-129 78.5 t-152.5 28.5q-82 0 -155.5 -26.5t-130 -76.5t-90.5 -121t-38 -159z" />
<glyph unicode="&#xe7;" horiz-adv-x="1134" d="M98 485q0 111 38 204t106.5 161t162 105.5t203.5 37.5q145 0 261 -64.5t173 -199.5l-75 -24q-57 111 -152.5 158.5t-206.5 47.5q-92 0 -167.5 -32.5t-131 -90t-86 -135.5t-30.5 -168t31.5 -166.5t87 -133t131 -89.5t165.5 -33q115 0 218.5 55.5t156.5 176.5 q20 -4 39.5 -10t40.5 -13q-29 -72 -72 -122t-98 -83.5t-121.5 -53t-138.5 -29.5l-29 -80q37 4 73 -2t65.5 -22.5t47 -45.5t17.5 -72t-19.5 -73.5t-49 -51t-67.5 -29.5t-75 -9q-66 0 -121 25.5t-90 90.5l57 37q23 -41 61 -64.5t89 -23.5q23 0 47.5 5t45 17.5t33.5 32t13 45.5 q0 29 -17.5 48.5t-44 28.5t-58 10.5t-58.5 -5.5l-37 35q10 27 19.5 52.5t19.5 54.5q-98 8 -181 48t-144.5 105.5t-96.5 153.5t-35 190z" />
<glyph unicode="&#xe8;" horiz-adv-x="1230" d="M104 489q0 104 38 195.5t105.5 160t162 108.5t206.5 40q106 0 198.5 -36.5t161 -102.5t107.5 -154t39 -190q0 -29 -6 -59h-915q6 -84 42 -155t92 -122t130 -79.5t156 -28.5q111 0 201.5 39.5t154.5 144.5l78 -31q-66 -121 -183.5 -177t-255.5 -56q-111 0 -205 38.5 t-161.5 107.5t-106.5 161t-39 196zM203 524h827q-6 86 -42 158t-92 123t-129 79.5t-153 28.5q-82 0 -154.5 -28.5t-128 -80.5t-90 -123t-38.5 -157zM406 1434v2h112l191 -265v-4h-88z" />
<glyph unicode="&#xe9;" horiz-adv-x="1230" d="M104 489q0 104 38 195.5t105.5 160t162 108.5t206.5 40q106 0 198.5 -36.5t161 -102.5t107.5 -154t39 -190q0 -29 -6 -59h-915q6 -84 42 -155t92 -122t130 -79.5t156 -28.5q111 0 201.5 39.5t154.5 144.5l78 -31q-66 -121 -183.5 -177t-255.5 -56q-111 0 -205 38.5 t-161.5 107.5t-106.5 161t-39 196zM203 524h827q-6 86 -42 158t-92 123t-129 79.5t-153 28.5q-82 0 -154.5 -28.5t-128 -80.5t-90 -123t-38.5 -157zM547 1171v5l196 262h111v-2l-221 -265h-86z" />
<glyph unicode="&#xea;" horiz-adv-x="1230" d="M104 489q0 104 38 195.5t105.5 160t162 108.5t206.5 40q106 0 198.5 -36.5t161 -102.5t107.5 -154t39 -190q0 -29 -6 -59h-915q6 -84 42 -155t92 -122t130 -79.5t156 -28.5q111 0 201.5 39.5t154.5 144.5l78 -31q-66 -121 -183.5 -177t-255.5 -56q-111 0 -205 38.5 t-161.5 107.5t-106.5 161t-39 196zM203 524h827q-6 86 -42 158t-92 123t-129 79.5t-153 28.5q-82 0 -154.5 -28.5t-128 -80.5t-90 -123t-38.5 -157zM319 1167v11l281 258h49l279 -258v-11h-99l-204 193l-205 -193h-101z" />
<glyph unicode="&#xeb;" horiz-adv-x="1230" d="M104 489q0 104 38 195.5t105.5 160t162 108.5t206.5 40q106 0 198.5 -36.5t161 -102.5t107.5 -154t39 -190q0 -29 -6 -59h-915q6 -84 42 -155t92 -122t130 -79.5t156 -28.5q111 0 201.5 39.5t154.5 144.5l78 -31q-66 -121 -183.5 -177t-255.5 -56q-111 0 -205 38.5 t-161.5 107.5t-106.5 161t-39 196zM203 524h827q-6 86 -42 158t-92 123t-129 79.5t-153 28.5q-82 0 -154.5 -28.5t-128 -80.5t-90 -123t-38.5 -157zM360 1245v158h93v-158h-93zM784 1245v158h95v-158h-95z" />
<glyph unicode="&#xec;" horiz-adv-x="450" d="M-39 1430v2h111l186 -261v-2h-88zM170 0v971h94v-971h-94z" />
<glyph unicode="&#xed;" horiz-adv-x="450" d="M164 1165v4l190 269h105v-2l-211 -271h-84zM170 0v971h94v-971h-94z" />
<glyph unicode="&#xee;" horiz-adv-x="450" d="M-53 1171v11l243 254h43l244 -254v-11h-86l-178 189l-180 -189h-86zM170 0v971h94v-971h-94z" />
<glyph unicode="&#xef;" horiz-adv-x="425" d="M8 1296v136h94v-136h-94zM170 0v971h94v-971h-94zM350 1296v136h94v-136h-94z" />
<glyph unicode="&#xf0;" horiz-adv-x="1253" d="M100 485q0 104 36 195.5t103.5 160t163 108.5t213.5 40q53 0 109.5 -12t109 -37t95.5 -60.5t69 -80.5q-23 59 -56.5 115.5t-76.5 107.5t-91 95t-95 81l-135 -133l-56 57l125 123q-66 41 -128 68.5t-140 46.5l19 80q94 -23 167.5 -52.5t147.5 -76.5l131 129l55 -58 l-121 -118q178 -141 279.5 -330t101.5 -436q0 -113 -36.5 -208t-104 -165t-162 -109t-207.5 -39q-127 0 -223 40t-161.5 110t-98.5 162t-33 196zM195 483q0 -94 30.5 -173t86 -135t132 -87t170.5 -31t171 35t132.5 93.5t85 136t29.5 161.5t-29.5 161t-84 135.5t-131.5 93 t-171 34.5t-171.5 -31.5t-133 -89t-86 -134.5t-30.5 -169z" />
<glyph unicode="&#xf1;" horiz-adv-x="1292" d="M170 0v973h86l8 -197q25 55 66 96t92 68t109.5 39t117.5 12q96 0 183.5 -30.5t153 -93t103 -157t37.5 -218.5v-492h-96v494q0 98 -28.5 176t-79 131t-120 80.5t-151.5 27.5q-72 0 -140.5 -24.5t-123.5 -72.5t-89 -119.5t-34 -164.5v-528h-94zM352 1274q18 55 67.5 94 t115.5 39q43 0 70.5 -14.5t51 -32t45 -31.5t50.5 -14q41 0 71.5 18.5t42.5 61.5l72 -21q-20 -55 -70.5 -94t-115.5 -39q-35 0 -61.5 14.5t-51.5 32t-49.5 31.5t-52.5 14q-41 0 -71 -21.5t-42 -58.5z" />
<glyph unicode="&#xf2;" horiz-adv-x="1243" d="M100 487q0 106 40 199.5t111 161t165 106.5t205 39t206 -36.5t165.5 -104.5t111.5 -161t41 -206q0 -109 -41 -200.5t-111.5 -159.5t-165.5 -105.5t-206 -37.5t-205 36.5t-165 103t-111 160t-40 205.5zM199 487q0 -96 31.5 -173.5t89 -133t134.5 -86.5t167 -31t167.5 32 t135 89.5t90.5 135t33 167.5q0 94 -33 172t-90.5 134.5t-135 87t-167.5 30.5t-167 -31.5t-134.5 -89t-89 -134t-31.5 -169.5zM385 1438v2h113l190 -262v-4h-88z" />
<glyph unicode="&#xf3;" horiz-adv-x="1243" d="M100 487q0 106 40 199.5t111 161t165 106.5t205 39t206 -36.5t165.5 -104.5t111.5 -161t41 -206q0 -109 -41 -200.5t-111.5 -159.5t-165.5 -105.5t-206 -37.5t-205 36.5t-165 103t-111 160t-40 205.5zM199 487q0 -96 31.5 -173.5t89 -133t134.5 -86.5t167 -31t167.5 32 t135 89.5t90.5 135t33 167.5q0 94 -33 172t-90.5 134.5t-135 87t-167.5 30.5t-167 -31.5t-134.5 -89t-89 -134t-31.5 -169.5zM569 1165v4l193 267h106v-2l-215 -269h-84z" />
<glyph unicode="&#xf4;" horiz-adv-x="1243" d="M100 487q0 106 40 199.5t111 161t165 106.5t205 39t206 -36.5t165.5 -104.5t111.5 -161t41 -206q0 -109 -41 -200.5t-111.5 -159.5t-165.5 -105.5t-206 -37.5t-205 36.5t-165 103t-111 160t-40 205.5zM199 487q0 -96 31.5 -173.5t89 -133t134.5 -86.5t167 -31t167.5 32 t135 89.5t90.5 135t33 167.5q0 94 -33 172t-90.5 134.5t-135 87t-167.5 30.5t-167 -31.5t-134.5 -89t-89 -134t-31.5 -169.5zM340 1157v10l272 269h47l271 -269v-10h-94l-199 199l-201 -199h-96z" />
<glyph unicode="&#xf5;" horiz-adv-x="1243" d="M100 487q0 106 40 199.5t111 161t165 106.5t205 39t206 -36.5t165.5 -104.5t111.5 -161t41 -206q0 -109 -41 -200.5t-111.5 -159.5t-165.5 -105.5t-206 -37.5t-205 36.5t-165 103t-111 160t-40 205.5zM199 487q0 -96 31.5 -173.5t89 -133t134.5 -86.5t167 -31t167.5 32 t135 89.5t90.5 135t33 167.5q0 94 -33 172t-90.5 134.5t-135 87t-167.5 30.5t-167 -31.5t-134.5 -89t-89 -134t-31.5 -169.5zM334 1264q20 55 68.5 94t111.5 39q43 0 71.5 -14.5t51 -32t44 -31.5t50.5 -14q41 0 72 18t43 61l72 -18q-23 -57 -72 -97t-115 -40q-35 0 -61.5 14 t-51 32.5t-49 33t-53.5 14.5q-39 0 -68.5 -21.5t-41.5 -60.5z" />
<glyph unicode="&#xf6;" horiz-adv-x="1243" d="M100 487q0 106 40 199.5t111 161t165 106.5t205 39t206 -36.5t165.5 -104.5t111.5 -161t41 -206q0 -109 -41 -200.5t-111.5 -159.5t-165.5 -105.5t-206 -37.5t-205 36.5t-165 103t-111 160t-40 205.5zM199 487q0 -96 31.5 -173.5t89 -133t134.5 -86.5t167 -31t167.5 32 t135 89.5t90.5 135t33 167.5q0 94 -33 172t-90.5 134.5t-135 87t-167.5 30.5t-167 -31.5t-134.5 -89t-89 -134t-31.5 -169.5zM369 1262v131h90v-131h-90zM788 1262v131h93v-131h-93z" />
<glyph unicode="&#xf7;" horiz-adv-x="1067" d="M106 608v97h838v-97h-838zM475 236v186h98v-186h-98zM475 877v186h98v-186h-98z" />
<glyph unicode="&#xf8;" horiz-adv-x="1232" d="M100 487q0 106 40 199.5t111 161t165 106.5t205 39q96 0 182 -30l88 182h92l-106 -213q121 -61 192.5 -177t71.5 -270q0 -109 -40 -200.5t-110.5 -159.5t-164.5 -105.5t-205 -37.5q-98 0 -191 34l-86 -180h-90l102 211q-117 66 -186.5 180.5t-69.5 259.5zM199 487 q0 -125 51 -214t149 -148l369 762q-35 10 -71.5 17t-75.5 7q-90 0 -167 -31.5t-134.5 -89t-89 -134t-31.5 -169.5zM469 90q76 -27 152 -27q90 0 166.5 32t134 89.5t89 135t31.5 167.5q0 127 -53 219.5t-151 147.5z" />
<glyph unicode="&#xf9;" horiz-adv-x="1288" d="M164 479v494h94v-494q0 -100 28.5 -178t79 -132t120 -83t151.5 -29q72 0 141.5 26t123.5 75t88 120.5t34 165.5v529h96v-973h-86l-10 205q-23 -57 -62.5 -99.5t-91 -70t-110 -40.5t-119.5 -13q-98 0 -184 30.5t-151.5 93t-103.5 155.5t-38 218zM420 1436v2h117l196 -273 v-4h-92z" />
<glyph unicode="&#xfa;" horiz-adv-x="1288" d="M164 479v494h94v-494q0 -100 28.5 -178t79 -132t120 -83t151.5 -29q72 0 141.5 26t123.5 75t88 120.5t34 165.5v529h96v-973h-86l-10 205q-23 -57 -62.5 -99.5t-91 -70t-110 -40.5t-119.5 -13q-98 0 -184 30.5t-151.5 93t-103.5 155.5t-38 218zM573 1159v4l205 273h113 v-2l-227 -275h-91z" />
<glyph unicode="&#xfb;" horiz-adv-x="1288" d="M164 479v494h94v-494q0 -100 28.5 -178t79 -132t120 -83t151.5 -29q72 0 141.5 26t123.5 75t88 120.5t34 165.5v529h96v-973h-86l-10 205q-23 -57 -62.5 -99.5t-91 -70t-110 -40.5t-119.5 -13q-98 0 -184 30.5t-151.5 93t-103.5 155.5t-38 218zM354 1169v11l281 254h49 l279 -254v-11h-99l-205 189l-206 -189h-99z" />
<glyph unicode="&#xfc;" horiz-adv-x="1288" d="M164 479v494h94v-494q0 -100 28.5 -178t79 -132t120 -83t151.5 -29q72 0 141.5 26t123.5 75t88 120.5t34 165.5v529h96v-973h-86l-10 205q-23 -57 -62.5 -99.5t-91 -70t-110 -40.5t-119.5 -13q-98 0 -184 30.5t-151.5 93t-103.5 155.5t-38 218zM403 1247v158h93v-158h-93 zM827 1247v158h95v-158h-95z" />
<glyph unicode="&#xfd;" horiz-adv-x="1232" d="M33 975h106l324 -582l164 -305h2l151 305l316 582h104v-2l-780 -1432h-107l258 469zM565 1159v4l205 273h113v-2l-228 -275h-90z" />
<glyph unicode="&#xfe;" horiz-adv-x="1302" d="M170 -440v1874h94v-672q25 55 69 98t99 74t117.5 46t124.5 15q121 0 217 -42t163.5 -112.5t104.5 -161.5t37 -190q0 -100 -35 -192t-101.5 -161.5t-163.5 -110.5t-222 -41q-59 0 -122 16t-118 45t-100 71t-70 93v-649h-94zM258 479q0 -92 32 -166.5t90 -129t140 -84 t180 -29.5q96 0 171 35.5t126.5 94t78 134.5t26.5 153q0 86 -31 163t-87 135.5t-135 92t-175 33.5t-173 -31.5t-131.5 -88t-83 -136.5t-28.5 -176z" />
<glyph unicode="&#xff;" horiz-adv-x="1232" d="M33 975h106l324 -582l164 -305h2l151 305l316 582h104v-2l-780 -1432h-107l258 469zM369 1239v160h94v-160h-94zM801 1239v160h94v-160h-94z" />
<glyph unicode="&#x152;" horiz-adv-x="2445" d="M111 719q0 156 57 291t156.5 234t235.5 155.5t296 56.5q123 0 232.5 -28.5t207.5 -104.5v111h1043v-86h-950v-588h913v-86h-913v-588h950v-86h-1043v109q-98 -72 -206.5 -100.5t-233.5 -28.5q-160 0 -296 56t-235.5 155.5t-156.5 234.5t-57 293zM211 719q0 -139 49 -259 t135 -207t204 -136t257 -49q131 0 239.5 27.5t200.5 109.5v1022q-92 86 -201.5 114.5t-238.5 28.5q-139 0 -257 -49t-204 -137t-135 -207t-49 -258z" />
<glyph unicode="&#x153;" horiz-adv-x="2168" d="M100 487q0 109 40 201t109.5 159.5t164 106.5t204.5 39q166 0 293 -87t179 -240q53 154 176 239.5t288 85.5q106 0 196.5 -34.5t157 -97t106.5 -148.5t46 -187q0 -37 -6 -75h-915q6 -88 42 -159t93 -121t131 -76.5t154 -26.5q109 0 201.5 42t152.5 140q20 -8 39.5 -14.5 t38.5 -14.5q-66 -123 -182.5 -179t-254.5 -56q-80 0 -153.5 22.5t-135 64.5t-106.5 102t-69 134q-59 -154 -181.5 -238.5t-290.5 -84.5q-111 0 -205 37.5t-163.5 105.5t-109.5 160t-40 200zM197 487q0 -90 32.5 -167.5t89 -135t133 -89.5t166.5 -32t168 32t135.5 89.5 t90 135t32.5 167.5q0 92 -32.5 169t-90 134.5t-135 89t-168.5 31.5q-90 0 -166.5 -31.5t-133 -89t-89 -134t-32.5 -169.5zM1139 528h829q-6 86 -42 156t-92 121t-128 78.5t-152 27.5q-82 0 -155.5 -27.5t-130 -77.5t-91 -121t-38.5 -157z" />
<glyph unicode="&#x178;" horiz-adv-x="1511" d="M31 1432v2h119l612 -772l606 772h119v-2l-678 -857v-575h-100v575zM498 1518v159h94v-159h-94zM930 1518v159h94v-159h-94z" />
<glyph unicode="&#x2c6;" horiz-adv-x="901" d="M137 1163v11l289 262h51l287 -262v-11h-100l-211 195l-213 -195h-103z" />
<glyph unicode="&#x2dc;" horiz-adv-x="841" d="M141 1419q20 57 70.5 97t116.5 40q43 0 72.5 -14t53 -32.5t46 -33t51.5 -14.5q41 0 72.5 18.5t44.5 63.5l73 -20q-23 -59 -74 -99.5t-116 -40.5q-35 0 -62.5 15.5t-53 33t-50.5 33t-55 15.5q-41 0 -72 -22.5t-43 -61.5z" />
<glyph unicode="&#x2000;" horiz-adv-x="932" />
<glyph unicode="&#x2001;" horiz-adv-x="1864" />
<glyph unicode="&#x2002;" horiz-adv-x="932" />
<glyph unicode="&#x2003;" horiz-adv-x="1864" />
<glyph unicode="&#x2004;" horiz-adv-x="621" />
<glyph unicode="&#x2005;" horiz-adv-x="466" />
<glyph unicode="&#x2006;" horiz-adv-x="310" />
<glyph unicode="&#x2007;" horiz-adv-x="310" />
<glyph unicode="&#x2008;" horiz-adv-x="233" />
<glyph unicode="&#x2009;" horiz-adv-x="372" />
<glyph unicode="&#x200a;" horiz-adv-x="103" />
<glyph unicode="&#x2010;" horiz-adv-x="964" d="M119 592v88h717v-88h-717z" />
<glyph unicode="&#x2011;" horiz-adv-x="964" d="M119 592v88h717v-88h-717z" />
<glyph unicode="&#x2012;" horiz-adv-x="964" d="M119 592v88h717v-88h-717z" />
<glyph unicode="&#x2013;" horiz-adv-x="1294" d="M152 567v84h960v-84h-960z" />
<glyph unicode="&#x2014;" horiz-adv-x="1353" d="M76 567v84h1184v-84h-1184z" />
<glyph unicode="&#x2018;" horiz-adv-x="370" d="M92 954l131 488h72l-96 -488h-107z" />
<glyph unicode="&#x2019;" horiz-adv-x="370" d="M66 954l98 490h106l-131 -490h-73z" />
<glyph unicode="&#x201a;" horiz-adv-x="430" d="M96 -276l105 471h106l-137 -471h-74z" />
<glyph unicode="&#x201c;" horiz-adv-x="675" d="M98 954l131 488h74l-98 -488h-107zM391 954l129 488h74l-96 -488h-107z" />
<glyph unicode="&#x201d;" horiz-adv-x="612" d="M70 952l96 490h100l-125 -490h-71zM371 952l98 490h102l-129 -490h-71z" />
<glyph unicode="&#x201e;" horiz-adv-x="796" d="M115 -276l104 471h105l-136 -471h-73zM440 -276l105 471h106l-137 -471h-74z" />
<glyph unicode="&#x2022;" horiz-adv-x="651" d="M143 643q0 78 49.5 124t122.5 46q72 0 121 -46t49 -124t-49 -123t-121 -45q-74 0 -123 45t-49 123z" />
<glyph unicode="&#x2026;" horiz-adv-x="1067" d="M166 0v162h94v-162h-94zM485 0v162h95v-162h-95zM805 0v162h94v-162h-94z" />
<glyph unicode="&#x202f;" horiz-adv-x="372" />
<glyph unicode="&#x2039;" horiz-adv-x="696" d="M123 514l276 440h101v-4l-277 -432l277 -436h-101z" />
<glyph unicode="&#x203a;" horiz-adv-x="696" d="M197 82l26 47l250 389l-276 432v4h100l276 -430q-6 -14 -13 -27.5t-15 -27.5l-248 -387h-100z" />
<glyph unicode="&#x205f;" horiz-adv-x="466" />
<glyph unicode="&#x20ac;" horiz-adv-x="1714" d="M49 506v88h207q-4 31 -7 61.5t-3 61.5q0 33 3 63.5t7 61.5h-207v88h225q33 117 99.5 214t161 165.5t210 107.5t244.5 39q102 0 199.5 -23.5t182.5 -69.5t152.5 -115.5t110.5 -162.5l-84 -32q-86 158 -235.5 236.5t-325.5 78.5q-109 0 -206 -31.5t-177 -89t-138 -138.5 t-91 -179h590v-88h-611q-6 -31 -8 -60.5t-2 -64.5q0 -31 2 -61.5t8 -61.5h611v-88h-590q33 -98 91 -179t137 -137.5t176.5 -88t207.5 -31.5q88 0 174 22.5t162 65.5t136.5 106.5t99.5 147.5l84 -27q-43 -98 -112 -174t-154 -127t-184 -76.5t-206 -25.5q-129 0 -244.5 38.5 t-210 107.5t-161 165t-99.5 213h-225z" />
<glyph unicode="&#x2122;" horiz-adv-x="1501" d="M70 1362v72h553v-72h-236v-500h-86v500h-231zM715 862v570h69l252 -275l252 275h70v-570h-88v432l-211 -231h-51l-205 231v-432h-88z" />
<glyph unicode="&#x25fc;" horiz-adv-x="972" d="M0 0v973h973v-973h-973z" />
<glyph unicode="&#xfb01;" horiz-adv-x="1267" d="M41 895v78h221v67q0 96 27.5 175t79 135.5t120 87t152.5 30.5q59 0 111.5 -13t99.5 -46l-35 -66q-35 29 -79 37.5t-89 8.5q-135 0 -214 -91.5t-79 -257.5v-67h430v-78h-430v-895h-94v895h-221zM1006 0v973h94v-973h-94zM1006 1184v252h92v-252h-92z" />
<glyph unicode="&#xfb02;" horiz-adv-x="1310" d="M41 895v78h221v67q0 96 27.5 175t79 135.5t120 87t152.5 30.5q59 0 111.5 -13t99.5 -46l-35 -66q-35 29 -79 37.5t-89 8.5q-135 0 -214 -91.5t-79 -257.5v-67h430v-78h-430v-895h-94v895h-221zM1044 0v1434h95v-1434h-95z" />
</font>
</defs>
</svg>
